<?xml version="1.0" encoding="utf-8" standalone="no"?>
<!DOCTYPE svg PUBLIC "-//W3C//DTD SVG 1.1//EN"
  "http://www.w3.org/Graphics/SVG/1.1/DTD/svg11.dtd">
<svg xmlns:xlink="http://www.w3.org/1999/xlink" width="720pt" height="504pt" viewBox="0 0 720 504" xmlns="http://www.w3.org/2000/svg" version="1.1">
 <metadata>
  <rdf:RDF xmlns:dc="http://purl.org/dc/elements/1.1/" xmlns:cc="http://creativecommons.org/ns#" xmlns:rdf="http://www.w3.org/1999/02/22-rdf-syntax-ns#">
   <cc:Work>
    <dc:type rdf:resource="http://purl.org/dc/dcmitype/StillImage"/>
    <dc:date>2025-11-20T16:55:24.576570</dc:date>
    <dc:format>image/svg+xml</dc:format>
    <dc:creator>
     <cc:Agent>
      <dc:title>Matplotlib v3.10.3, https://matplotlib.org/</dc:title>
     </cc:Agent>
    </dc:creator>
   </cc:Work>
  </rdf:RDF>
 </metadata>
 <defs>
  <style type="text/css">*{stroke-linejoin: round; stroke-linecap: butt}</style>
 </defs>
 <g id="figure_1">
  <g id="patch_1">
   <path d="M 0 504 
L 720 504 
L 720 0 
L 0 0 
z
" style="fill: #ffffff"/>
  </g>
  <g id="axes_1">
   <g id="patch_2">
    <path d="M 50.87 462.04 
L 709.2 462.04 
L 709.2 26.88 
L 50.87 26.88 
z
" style="fill: #ffffff"/>
   </g>
   <g id="PathCollection_1">
    <defs>
     <path id="m029b72d551" d="M 0 4.472136 
C 1.186024 4.472136 2.323632 4.000923 3.162278 3.162278 
C 4.000923 2.323632 4.472136 1.186024 4.472136 0 
C 4.472136 -1.186024 4.000923 -2.323632 3.162278 -3.162278 
C 2.323632 -4.000923 1.186024 -4.472136 0 -4.472136 
C -1.186024 -4.472136 -2.323632 -4.000923 -3.162278 -3.162278 
C -4.000923 -2.323632 -4.472136 -1.186024 -4.472136 0 
C -4.472136 1.186024 -4.000923 2.323632 -3.162278 3.162278 
C -2.323632 4.000923 -1.186024 4.472136 0 4.472136 
z
" style="stroke: #008000"/>
    </defs>
    <g clip-path="url(#p9c5b3e87b1)">
     <use xlink:href="#m029b72d551" x="259.136975" y="431.607917" style="fill: #008000; stroke: #008000"/>
    </g>
   </g>
   <g id="PathCollection_2">
    <defs>
     <path id="me8da3ba423" d="M 0 4.472136 
C 1.186024 4.472136 2.323632 4.000923 3.162278 3.162278 
C 4.000923 2.323632 4.472136 1.186024 4.472136 0 
C 4.472136 -1.186024 4.000923 -2.323632 3.162278 -3.162278 
C 2.323632 -4.000923 1.186024 -4.472136 0 -4.472136 
C -1.186024 -4.472136 -2.323632 -4.000923 -3.162278 -3.162278 
C -4.000923 -2.323632 -4.472136 -1.186024 -4.472136 0 
C -4.472136 1.186024 -4.000923 2.323632 -3.162278 3.162278 
C -2.323632 4.000923 -1.186024 4.472136 0 4.472136 
z
" style="stroke: #ff0000"/>
    </defs>
    <g clip-path="url(#p9c5b3e87b1)">
     <use xlink:href="#me8da3ba423" x="310.36528" y="48.664684" style="fill: #ff0000; stroke: #ff0000"/>
    </g>
   </g>
   <g id="PathCollection_3">
    <defs>
     <path id="me84af55821" d="M -4.472136 4.472136 
L 4.472136 -4.472136 
M -4.472136 -4.472136 
L 4.472136 4.472136 
" style="stroke: #00ffff; stroke-width: 1.5"/>
    </defs>
    <g clip-path="url(#p9c5b3e87b1)">
     <use xlink:href="#me84af55821" x="259.136975" y="431.607917" style="fill: #00ffff; stroke: #00ffff; stroke-width: 1.5"/>
    </g>
   </g>
   <g id="PathCollection_4">
    <defs>
     <path id="m8b9921a51b" d="M -4.472136 4.472136 
L 4.472136 -4.472136 
M -4.472136 -4.472136 
L 4.472136 4.472136 
" style="stroke: #ff00ff; stroke-width: 1.5"/>
    </defs>
    <g clip-path="url(#p9c5b3e87b1)">
     <use xlink:href="#m8b9921a51b" x="250.830152" y="90.511251" style="fill: #ff00ff; stroke: #ff00ff; stroke-width: 1.5"/>
    </g>
   </g>
   <g id="PathCollection_5">
    <defs>
     <path id="mcdf7d41f1f" d="M -4.472136 4.472136 
L 4.472136 -4.472136 
M -4.472136 -4.472136 
L 4.472136 4.472136 
" style="stroke: #0000ff; stroke-width: 1.5"/>
    </defs>
    <g clip-path="url(#p9c5b3e87b1)">
     <use xlink:href="#mcdf7d41f1f" x="259.136975" y="431.607917" style="fill: #0000ff; stroke: #0000ff; stroke-width: 1.5"/>
    </g>
   </g>
   <g id="PathCollection_6">
    <defs>
     <path id="m62a826c410" d="M -4.472136 4.472136 
L 4.472136 -4.472136 
M -4.472136 -4.472136 
L 4.472136 4.472136 
" style="stroke: #800080; stroke-width: 1.5"/>
    </defs>
    <g clip-path="url(#p9c5b3e87b1)">
     <use xlink:href="#m62a826c410" x="252.710828" y="91.163694" style="fill: #800080; stroke: #800080; stroke-width: 1.5"/>
    </g>
   </g>
   <g id="matplotlib.axis_1">
    <g id="xtick_1">
     <g id="line2d_1">
      <path d="M 91.787106 462.04 
L 91.787106 26.88 
" clip-path="url(#p9c5b3e87b1)" style="fill: none; stroke: #b0b0b0; stroke-width: 0.8; stroke-linecap: square"/>
     </g>
     <g id="line2d_2">
      <defs>
       <path id="m56d9fd313c" d="M 0 0 
L 0 3.5 
" style="stroke: #000000; stroke-width: 0.8"/>
      </defs>
      <g>
       <use xlink:href="#m56d9fd313c" x="91.787106" y="462.04" style="stroke: #000000; stroke-width: 0.8"/>
      </g>
     </g>
     <g id="text_1">
      <!-- −400 -->
      <g transform="translate(78.053512 476.638438) scale(0.1 -0.1)">
       <defs>
        <path id="DejaVuSans-2212" d="M 678 2272 
L 4684 2272 
L 4684 1741 
L 678 1741 
L 678 2272 
z
" transform="scale(0.015625)"/>
        <path id="DejaVuSans-34" d="M 2419 4116 
L 825 1625 
L 2419 1625 
L 2419 4116 
z
M 2253 4666 
L 3047 4666 
L 3047 1625 
L 3713 1625 
L 3713 1100 
L 3047 1100 
L 3047 0 
L 2419 0 
L 2419 1100 
L 313 1100 
L 313 1709 
L 2253 4666 
z
" transform="scale(0.015625)"/>
        <path id="DejaVuSans-30" d="M 2034 4250 
Q 1547 4250 1301 3770 
Q 1056 3291 1056 2328 
Q 1056 1369 1301 889 
Q 1547 409 2034 409 
Q 2525 409 2770 889 
Q 3016 1369 3016 2328 
Q 3016 3291 2770 3770 
Q 2525 4250 2034 4250 
z
M 2034 4750 
Q 2819 4750 3233 4129 
Q 3647 3509 3647 2328 
Q 3647 1150 3233 529 
Q 2819 -91 2034 -91 
Q 1250 -91 836 529 
Q 422 1150 422 2328 
Q 422 3509 836 4129 
Q 1250 4750 2034 4750 
z
" transform="scale(0.015625)"/>
       </defs>
       <use xlink:href="#DejaVuSans-2212"/>
       <use xlink:href="#DejaVuSans-34" transform="translate(83.789062 0)"/>
       <use xlink:href="#DejaVuSans-30" transform="translate(147.412109 0)"/>
       <use xlink:href="#DejaVuSans-30" transform="translate(211.035156 0)"/>
      </g>
     </g>
    </g>
    <g id="xtick_2">
     <g id="line2d_3">
      <path d="M 175.46204 462.04 
L 175.46204 26.88 
" clip-path="url(#p9c5b3e87b1)" style="fill: none; stroke: #b0b0b0; stroke-width: 0.8; stroke-linecap: square"/>
     </g>
     <g id="line2d_4">
      <g>
       <use xlink:href="#m56d9fd313c" x="175.46204" y="462.04" style="stroke: #000000; stroke-width: 0.8"/>
      </g>
     </g>
     <g id="text_2">
      <!-- −200 -->
      <g transform="translate(161.728447 476.638438) scale(0.1 -0.1)">
       <defs>
        <path id="DejaVuSans-32" d="M 1228 531 
L 3431 531 
L 3431 0 
L 469 0 
L 469 531 
Q 828 903 1448 1529 
Q 2069 2156 2228 2338 
Q 2531 2678 2651 2914 
Q 2772 3150 2772 3378 
Q 2772 3750 2511 3984 
Q 2250 4219 1831 4219 
Q 1534 4219 1204 4116 
Q 875 4013 500 3803 
L 500 4441 
Q 881 4594 1212 4672 
Q 1544 4750 1819 4750 
Q 2544 4750 2975 4387 
Q 3406 4025 3406 3419 
Q 3406 3131 3298 2873 
Q 3191 2616 2906 2266 
Q 2828 2175 2409 1742 
Q 1991 1309 1228 531 
z
" transform="scale(0.015625)"/>
       </defs>
       <use xlink:href="#DejaVuSans-2212"/>
       <use xlink:href="#DejaVuSans-32" transform="translate(83.789062 0)"/>
       <use xlink:href="#DejaVuSans-30" transform="translate(147.412109 0)"/>
       <use xlink:href="#DejaVuSans-30" transform="translate(211.035156 0)"/>
      </g>
     </g>
    </g>
    <g id="xtick_3">
     <g id="line2d_5">
      <path d="M 259.136975 462.04 
L 259.136975 26.88 
" clip-path="url(#p9c5b3e87b1)" style="fill: none; stroke: #b0b0b0; stroke-width: 0.8; stroke-linecap: square"/>
     </g>
     <g id="line2d_6">
      <g>
       <use xlink:href="#m56d9fd313c" x="259.136975" y="462.04" style="stroke: #000000; stroke-width: 0.8"/>
      </g>
     </g>
     <g id="text_3">
      <!-- 0 -->
      <g transform="translate(255.955725 476.638438) scale(0.1 -0.1)">
       <use xlink:href="#DejaVuSans-30"/>
      </g>
     </g>
    </g>
    <g id="xtick_4">
     <g id="line2d_7">
      <path d="M 342.811909 462.04 
L 342.811909 26.88 
" clip-path="url(#p9c5b3e87b1)" style="fill: none; stroke: #b0b0b0; stroke-width: 0.8; stroke-linecap: square"/>
     </g>
     <g id="line2d_8">
      <g>
       <use xlink:href="#m56d9fd313c" x="342.811909" y="462.04" style="stroke: #000000; stroke-width: 0.8"/>
      </g>
     </g>
     <g id="text_4">
      <!-- 200 -->
      <g transform="translate(333.268159 476.638438) scale(0.1 -0.1)">
       <use xlink:href="#DejaVuSans-32"/>
       <use xlink:href="#DejaVuSans-30" transform="translate(63.623047 0)"/>
       <use xlink:href="#DejaVuSans-30" transform="translate(127.246094 0)"/>
      </g>
     </g>
    </g>
    <g id="xtick_5">
     <g id="line2d_9">
      <path d="M 426.486844 462.04 
L 426.486844 26.88 
" clip-path="url(#p9c5b3e87b1)" style="fill: none; stroke: #b0b0b0; stroke-width: 0.8; stroke-linecap: square"/>
     </g>
     <g id="line2d_10">
      <g>
       <use xlink:href="#m56d9fd313c" x="426.486844" y="462.04" style="stroke: #000000; stroke-width: 0.8"/>
      </g>
     </g>
     <g id="text_5">
      <!-- 400 -->
      <g transform="translate(416.943094 476.638438) scale(0.1 -0.1)">
       <use xlink:href="#DejaVuSans-34"/>
       <use xlink:href="#DejaVuSans-30" transform="translate(63.623047 0)"/>
       <use xlink:href="#DejaVuSans-30" transform="translate(127.246094 0)"/>
      </g>
     </g>
    </g>
    <g id="xtick_6">
     <g id="line2d_11">
      <path d="M 510.161779 462.04 
L 510.161779 26.88 
" clip-path="url(#p9c5b3e87b1)" style="fill: none; stroke: #b0b0b0; stroke-width: 0.8; stroke-linecap: square"/>
     </g>
     <g id="line2d_12">
      <g>
       <use xlink:href="#m56d9fd313c" x="510.161779" y="462.04" style="stroke: #000000; stroke-width: 0.8"/>
      </g>
     </g>
     <g id="text_6">
      <!-- 600 -->
      <g transform="translate(500.618029 476.638438) scale(0.1 -0.1)">
       <defs>
        <path id="DejaVuSans-36" d="M 2113 2584 
Q 1688 2584 1439 2293 
Q 1191 2003 1191 1497 
Q 1191 994 1439 701 
Q 1688 409 2113 409 
Q 2538 409 2786 701 
Q 3034 994 3034 1497 
Q 3034 2003 2786 2293 
Q 2538 2584 2113 2584 
z
M 3366 4563 
L 3366 3988 
Q 3128 4100 2886 4159 
Q 2644 4219 2406 4219 
Q 1781 4219 1451 3797 
Q 1122 3375 1075 2522 
Q 1259 2794 1537 2939 
Q 1816 3084 2150 3084 
Q 2853 3084 3261 2657 
Q 3669 2231 3669 1497 
Q 3669 778 3244 343 
Q 2819 -91 2113 -91 
Q 1303 -91 875 529 
Q 447 1150 447 2328 
Q 447 3434 972 4092 
Q 1497 4750 2381 4750 
Q 2619 4750 2861 4703 
Q 3103 4656 3366 4563 
z
" transform="scale(0.015625)"/>
       </defs>
       <use xlink:href="#DejaVuSans-36"/>
       <use xlink:href="#DejaVuSans-30" transform="translate(63.623047 0)"/>
       <use xlink:href="#DejaVuSans-30" transform="translate(127.246094 0)"/>
      </g>
     </g>
    </g>
    <g id="xtick_7">
     <g id="line2d_13">
      <path d="M 593.836713 462.04 
L 593.836713 26.88 
" clip-path="url(#p9c5b3e87b1)" style="fill: none; stroke: #b0b0b0; stroke-width: 0.8; stroke-linecap: square"/>
     </g>
     <g id="line2d_14">
      <g>
       <use xlink:href="#m56d9fd313c" x="593.836713" y="462.04" style="stroke: #000000; stroke-width: 0.8"/>
      </g>
     </g>
     <g id="text_7">
      <!-- 800 -->
      <g transform="translate(584.292963 476.638438) scale(0.1 -0.1)">
       <defs>
        <path id="DejaVuSans-38" d="M 2034 2216 
Q 1584 2216 1326 1975 
Q 1069 1734 1069 1313 
Q 1069 891 1326 650 
Q 1584 409 2034 409 
Q 2484 409 2743 651 
Q 3003 894 3003 1313 
Q 3003 1734 2745 1975 
Q 2488 2216 2034 2216 
z
M 1403 2484 
Q 997 2584 770 2862 
Q 544 3141 544 3541 
Q 544 4100 942 4425 
Q 1341 4750 2034 4750 
Q 2731 4750 3128 4425 
Q 3525 4100 3525 3541 
Q 3525 3141 3298 2862 
Q 3072 2584 2669 2484 
Q 3125 2378 3379 2068 
Q 3634 1759 3634 1313 
Q 3634 634 3220 271 
Q 2806 -91 2034 -91 
Q 1263 -91 848 271 
Q 434 634 434 1313 
Q 434 1759 690 2068 
Q 947 2378 1403 2484 
z
M 1172 3481 
Q 1172 3119 1398 2916 
Q 1625 2713 2034 2713 
Q 2441 2713 2670 2916 
Q 2900 3119 2900 3481 
Q 2900 3844 2670 4047 
Q 2441 4250 2034 4250 
Q 1625 4250 1398 4047 
Q 1172 3844 1172 3481 
z
" transform="scale(0.015625)"/>
       </defs>
       <use xlink:href="#DejaVuSans-38"/>
       <use xlink:href="#DejaVuSans-30" transform="translate(63.623047 0)"/>
       <use xlink:href="#DejaVuSans-30" transform="translate(127.246094 0)"/>
      </g>
     </g>
    </g>
    <g id="xtick_8">
     <g id="line2d_15">
      <path d="M 677.511648 462.04 
L 677.511648 26.88 
" clip-path="url(#p9c5b3e87b1)" style="fill: none; stroke: #b0b0b0; stroke-width: 0.8; stroke-linecap: square"/>
     </g>
     <g id="line2d_16">
      <g>
       <use xlink:href="#m56d9fd313c" x="677.511648" y="462.04" style="stroke: #000000; stroke-width: 0.8"/>
      </g>
     </g>
     <g id="text_8">
      <!-- 1000 -->
      <g transform="translate(664.786648 476.638438) scale(0.1 -0.1)">
       <defs>
        <path id="DejaVuSans-31" d="M 794 531 
L 1825 531 
L 1825 4091 
L 703 3866 
L 703 4441 
L 1819 4666 
L 2450 4666 
L 2450 531 
L 3481 531 
L 3481 0 
L 794 0 
L 794 531 
z
" transform="scale(0.015625)"/>
       </defs>
       <use xlink:href="#DejaVuSans-31"/>
       <use xlink:href="#DejaVuSans-30" transform="translate(63.623047 0)"/>
       <use xlink:href="#DejaVuSans-30" transform="translate(127.246094 0)"/>
       <use xlink:href="#DejaVuSans-30" transform="translate(190.869141 0)"/>
      </g>
     </g>
    </g>
    <g id="text_9">
     <!-- X (m) -->
     <g transform="translate(366.249063 490.316563) scale(0.1 -0.1)">
      <defs>
       <path id="DejaVuSans-58" d="M 403 4666 
L 1081 4666 
L 2241 2931 
L 3406 4666 
L 4084 4666 
L 2584 2425 
L 4184 0 
L 3506 0 
L 2194 1984 
L 872 0 
L 191 0 
L 1856 2491 
L 403 4666 
z
" transform="scale(0.015625)"/>
       <path id="DejaVuSans-20" transform="scale(0.015625)"/>
       <path id="DejaVuSans-28" d="M 1984 4856 
Q 1566 4138 1362 3434 
Q 1159 2731 1159 2009 
Q 1159 1288 1364 580 
Q 1569 -128 1984 -844 
L 1484 -844 
Q 1016 -109 783 600 
Q 550 1309 550 2009 
Q 550 2706 781 3412 
Q 1013 4119 1484 4856 
L 1984 4856 
z
" transform="scale(0.015625)"/>
       <path id="DejaVuSans-6d" d="M 3328 2828 
Q 3544 3216 3844 3400 
Q 4144 3584 4550 3584 
Q 5097 3584 5394 3201 
Q 5691 2819 5691 2113 
L 5691 0 
L 5113 0 
L 5113 2094 
Q 5113 2597 4934 2840 
Q 4756 3084 4391 3084 
Q 3944 3084 3684 2787 
Q 3425 2491 3425 1978 
L 3425 0 
L 2847 0 
L 2847 2094 
Q 2847 2600 2669 2842 
Q 2491 3084 2119 3084 
Q 1678 3084 1418 2786 
Q 1159 2488 1159 1978 
L 1159 0 
L 581 0 
L 581 3500 
L 1159 3500 
L 1159 2956 
Q 1356 3278 1631 3431 
Q 1906 3584 2284 3584 
Q 2666 3584 2933 3390 
Q 3200 3197 3328 2828 
z
" transform="scale(0.015625)"/>
       <path id="DejaVuSans-29" d="M 513 4856 
L 1013 4856 
Q 1481 4119 1714 3412 
Q 1947 2706 1947 2009 
Q 1947 1309 1714 600 
Q 1481 -109 1013 -844 
L 513 -844 
Q 928 -128 1133 580 
Q 1338 1288 1338 2009 
Q 1338 2731 1133 3434 
Q 928 4138 513 4856 
z
" transform="scale(0.015625)"/>
      </defs>
      <use xlink:href="#DejaVuSans-58"/>
      <use xlink:href="#DejaVuSans-20" transform="translate(68.505859 0)"/>
      <use xlink:href="#DejaVuSans-28" transform="translate(100.292969 0)"/>
      <use xlink:href="#DejaVuSans-6d" transform="translate(139.306641 0)"/>
      <use xlink:href="#DejaVuSans-29" transform="translate(236.71875 0)"/>
     </g>
    </g>
   </g>
   <g id="matplotlib.axis_2">
    <g id="ytick_1">
     <g id="line2d_17">
      <path d="M 50.87 431.607917 
L 709.2 431.607917 
" clip-path="url(#p9c5b3e87b1)" style="fill: none; stroke: #b0b0b0; stroke-width: 0.8; stroke-linecap: square"/>
     </g>
     <g id="line2d_18">
      <defs>
       <path id="m3acf7aaa51" d="M 0 0 
L -3.5 0 
" style="stroke: #000000; stroke-width: 0.8"/>
      </defs>
      <g>
       <use xlink:href="#m3acf7aaa51" x="50.87" y="431.607917" style="stroke: #000000; stroke-width: 0.8"/>
      </g>
     </g>
     <g id="text_10">
      <!-- 0 -->
      <g transform="translate(37.5075 435.407136) scale(0.1 -0.1)">
       <use xlink:href="#DejaVuSans-30"/>
      </g>
     </g>
    </g>
    <g id="ytick_2">
     <g id="line2d_19">
      <path d="M 50.87 347.932983 
L 709.2 347.932983 
" clip-path="url(#p9c5b3e87b1)" style="fill: none; stroke: #b0b0b0; stroke-width: 0.8; stroke-linecap: square"/>
     </g>
     <g id="line2d_20">
      <g>
       <use xlink:href="#m3acf7aaa51" x="50.87" y="347.932983" style="stroke: #000000; stroke-width: 0.8"/>
      </g>
     </g>
     <g id="text_11">
      <!-- 200 -->
      <g transform="translate(24.7825 351.732201) scale(0.1 -0.1)">
       <use xlink:href="#DejaVuSans-32"/>
       <use xlink:href="#DejaVuSans-30" transform="translate(63.623047 0)"/>
       <use xlink:href="#DejaVuSans-30" transform="translate(127.246094 0)"/>
      </g>
     </g>
    </g>
    <g id="ytick_3">
     <g id="line2d_21">
      <path d="M 50.87 264.258048 
L 709.2 264.258048 
" clip-path="url(#p9c5b3e87b1)" style="fill: none; stroke: #b0b0b0; stroke-width: 0.8; stroke-linecap: square"/>
     </g>
     <g id="line2d_22">
      <g>
       <use xlink:href="#m3acf7aaa51" x="50.87" y="264.258048" style="stroke: #000000; stroke-width: 0.8"/>
      </g>
     </g>
     <g id="text_12">
      <!-- 400 -->
      <g transform="translate(24.7825 268.057267) scale(0.1 -0.1)">
       <use xlink:href="#DejaVuSans-34"/>
       <use xlink:href="#DejaVuSans-30" transform="translate(63.623047 0)"/>
       <use xlink:href="#DejaVuSans-30" transform="translate(127.246094 0)"/>
      </g>
     </g>
    </g>
    <g id="ytick_4">
     <g id="line2d_23">
      <path d="M 50.87 180.583113 
L 709.2 180.583113 
" clip-path="url(#p9c5b3e87b1)" style="fill: none; stroke: #b0b0b0; stroke-width: 0.8; stroke-linecap: square"/>
     </g>
     <g id="line2d_24">
      <g>
       <use xlink:href="#m3acf7aaa51" x="50.87" y="180.583113" style="stroke: #000000; stroke-width: 0.8"/>
      </g>
     </g>
     <g id="text_13">
      <!-- 600 -->
      <g transform="translate(24.7825 184.382332) scale(0.1 -0.1)">
       <use xlink:href="#DejaVuSans-36"/>
       <use xlink:href="#DejaVuSans-30" transform="translate(63.623047 0)"/>
       <use xlink:href="#DejaVuSans-30" transform="translate(127.246094 0)"/>
      </g>
     </g>
    </g>
    <g id="ytick_5">
     <g id="line2d_25">
      <path d="M 50.87 96.908179 
L 709.2 96.908179 
" clip-path="url(#p9c5b3e87b1)" style="fill: none; stroke: #b0b0b0; stroke-width: 0.8; stroke-linecap: square"/>
     </g>
     <g id="line2d_26">
      <g>
       <use xlink:href="#m3acf7aaa51" x="50.87" y="96.908179" style="stroke: #000000; stroke-width: 0.8"/>
      </g>
     </g>
     <g id="text_14">
      <!-- 800 -->
      <g transform="translate(24.7825 100.707398) scale(0.1 -0.1)">
       <use xlink:href="#DejaVuSans-38"/>
       <use xlink:href="#DejaVuSans-30" transform="translate(63.623047 0)"/>
       <use xlink:href="#DejaVuSans-30" transform="translate(127.246094 0)"/>
      </g>
     </g>
    </g>
    <g id="text_15">
     <!-- Z (m) -->
     <g transform="translate(18.702813 258.245937) rotate(-90) scale(0.1 -0.1)">
      <defs>
       <path id="DejaVuSans-5a" d="M 359 4666 
L 4025 4666 
L 4025 4184 
L 1075 531 
L 4097 531 
L 4097 0 
L 288 0 
L 288 481 
L 3238 4134 
L 359 4134 
L 359 4666 
z
" transform="scale(0.015625)"/>
      </defs>
      <use xlink:href="#DejaVuSans-5a"/>
      <use xlink:href="#DejaVuSans-20" transform="translate(68.505859 0)"/>
      <use xlink:href="#DejaVuSans-28" transform="translate(100.292969 0)"/>
      <use xlink:href="#DejaVuSans-6d" transform="translate(139.306641 0)"/>
      <use xlink:href="#DejaVuSans-29" transform="translate(236.71875 0)"/>
     </g>
    </g>
   </g>
   <g id="line2d_27">
    <path d="M 259.136975 431.607917 
L 259.064698 424.059267 
L 258.854166 409.939762 
L 259.009633 407.074364 
L 259.374968 404.856752 
L 259.856349 403.218598 
L 260.498219 401.713909 
L 261.300776 400.338418 
L 262.262132 399.130688 
L 263.366479 398.103812 
L 264.934125 397.024841 
L 266.340901 396.353032 
L 267.861413 395.904044 
L 269.4555 395.695158 
L 271.495395 395.686259 
L 275.235777 395.982925 
L 283.083268 396.898216 
L 308.731694 400.097355 
L 311.683411 400.887845 
L 314.050157 401.751998 
L 316.318835 402.790144 
L 318.532414 404.032069 
L 320.659473 405.498714 
L 322.670098 407.184204 
L 324.167795 408.70331 
L 325.556339 410.385285 
L 326.782428 412.167904 
L 327.825645 414.058472 
L 328.943751 416.518774 
L 330.082902 419.55348 
L 332.9381 428.147898 
L 333.996253 430.589181 
L 335.244516 432.936567 
L 336.649962 435.121019 
L 337.923662 436.730965 
L 339.325049 438.158359 
L 341.245724 439.694648 
L 342.925624 440.70465 
L 344.70677 441.489601 
L 346.599539 442.009749 
L 348.036949 442.213514 
L 349.973229 442.237755 
L 351.900304 442.003453 
L 353.815163 441.538919 
L 355.675885 440.836719 
L 357.446321 439.906605 
L 359.128396 438.763283 
L 361.093962 437.113272 
L 362.892639 435.237064 
L 364.53045 433.167345 
L 366.030616 430.926503 
L 368.555256 426.636384 
L 372.003793 420.250865 
L 374.893047 414.76463 
L 377.525251 409.708702 
L 382.704395 399.449732 
L 384.082395 397.369435 
L 385.341661 395.860132 
L 386.736146 394.531558 
L 388.266184 393.433316 
L 389.896046 392.578585 
L 391.609709 391.973925 
L 393.376254 391.616219 
L 395.193255 391.496187 
L 396.966536 391.643241 
L 398.761322 392.067385 
L 400.395702 392.714406 
L 401.907625 393.569961 
L 403.320476 394.657137 
L 404.268053 395.643464 
L 405.096686 396.773573 
L 405.987531 398.389893 
L 406.626264 400.067709 
L 407.067523 401.834397 
L 407.747801 405.422558 
L 408.916321 413.136885 
L 409.445105 414.35461 
L 410.210103 415.363617 
L 410.905986 415.958495 
L 411.671402 416.419281 
L 412.608394 416.734744 
L 414.054004 416.936103 
L 415.567056 416.891475 
L 417.128137 416.622745 
L 418.662987 416.153287 
L 420.155873 415.492966 
L 421.53948 414.640101 
L 422.782011 413.564363 
L 424.090101 411.99299 
L 425.405555 409.953852 
L 426.296442 408.15695 
L 426.853759 406.657591 
L 427.24816 405.091515 
L 427.492742 403.05539 
L 427.494458 400.479222 
L 427.095914 392.390542 
L 426.523117 386.11168 
L 425.823678 380.920152 
L 423.068263 362.616344 
L 421.84071 352.251655 
L 421.585334 348.020632 
L 421.541237 343.780279 
L 421.718419 338.991814 
L 422.166372 334.175987 
L 422.866899 329.321334 
L 424.030901 323.315315 
L 425.141142 319.559816 
L 426.219628 316.469617 
L 427.783513 312.439665 
L 435.783966 293.578415 
L 437.947674 289.752922 
L 441.400813 284.195651 
L 447.450009 274.404261 
L 450.558198 269.332556 
L 452.928123 265.755034 
L 456.048194 261.313151 
L 459.592204 256.495232 
L 462.532667 252.71894 
L 466.065883 248.151125 
L 466.640521 247.134935 
L 466.919828 246.251662 
L 467.022371 245.338685 
L 466.896399 244.07716 
L 466.244111 242.294968 
L 464.617052 239.351493 
L 460.705834 232.251172 
L 454.171156 220.465558 
L 449.982138 213.162619 
L 449.049539 212.450001 
L 447.33642 212.079028 
L 445.839267 212.351474 
L 443.948464 213.213619 
L 441.721958 214.624503 
L 439.881193 216.028067 
L 438.421358 217.354775 
L 436.701378 219.24997 
L 435.228908 221.26708 
L 433.936047 223.452586 
L 432.603398 226.126878 
L 430.704186 230.535418 
L 428.822546 235.624067 
L 425.219085 245.344166 
L 423.008728 250.583765 
L 420.958441 254.989543 
L 417.826656 261.01577 
L 415.13977 265.701357 
L 411.946693 270.723652 
L 409.534093 274.265738 
L 403.230233 282.695736 
L 401.80483 284.260248 
L 400.86947 284.992195 
L 400.054853 285.406553 
L 399.180993 285.599089 
L 398.450386 285.623104 
L 397.293789 285.347186 
L 395.782076 284.409608 
L 391.569838 281.240796 
L 389.706648 280.376936 
L 388.025284 279.879238 
L 386.250873 279.588468 
L 384.410987 279.502952 
L 381.7341 279.635284 
L 371.356986 280.378652 
L 369.098892 280.21239 
L 366.852931 279.83694 
L 364.638474 279.234732 
L 362.815992 278.533536 
L 361.037398 277.648548 
L 359.327919 276.557636 
L 357.748345 275.295107 
L 356.01732 273.597049 
L 354.712744 272.036219 
L 353.575728 270.349918 
L 352.621289 268.542247 
L 351.853112 266.597767 
L 351.282825 264.529615 
L 350.910053 262.319049 
L 350.74216 260.000584 
L 350.788139 257.634508 
L 351.170868 253.812153 
L 351.947371 248.99118 
L 353.897374 238.362287 
L 357.065433 223.00756 
L 360.53401 206.292112 
L 361.926026 199.330566 
L 362.990455 194.894665 
L 363.884103 191.927259 
L 365.053209 188.664941 
L 367.137133 182.952076 
L 369.476308 176.494798 
L 370.429993 174.608765 
L 371.56496 172.807536 
L 372.882296 171.0922 
L 374.346189 169.492043 
L 375.936892 168.047186 
L 377.664235 166.775369 
L 379.925592 165.442636 
L 382.385426 164.26374 
L 385.936465 162.804491 
L 393.332785 160.038616 
L 396.483606 158.719606 
L 400.243874 156.897082 
L 411.332853 150.94838 
L 411.686171 150.494946 
L 411.989827 149.810652 
L 412.161026 148.720451 
L 412.062833 147.724176 
L 411.804027 146.62611 
L 411.264825 145.184098 
L 409.716965 142.370151 
L 396.564604 119.050449 
L 388.648453 105.064142 
L 386.777147 102.225679 
L 384.693766 99.482145 
L 382.049471 96.446084 
L 379.263472 93.499848 
L 376.717746 91.10938 
L 374.04224 88.91488 
L 371.310253 86.94513 
L 366.809588 84.059307 
L 363.327121 82.070354 
L 359.01146 80.078012 
L 352.843363 77.120814 
L 351.664718 76.887612 
L 350.181035 77.148845 
L 349.498876 77.47091 
L 348.87692 77.923717 
L 348.320356 78.493167 
L 347.671959 79.405893 
L 347.002015 80.730174 
L 346.231076 82.927227 
L 344.897507 87.77234 
L 339.41705 107.913274 
L 336.837477 115.991084 
L 335.545076 121.274111 
L 334.341621 127.212353 
L 332.684607 136.569596 
L 331.641891 143.579673 
L 327.410952 172.076092 
L 321.300464 211.58794 
L 319.734111 223.247624 
L 318.526766 231.574619 
L 316.530198 246.846256 
L 315.921547 253.248937 
L 315.519865 260.243576 
L 315.450373 265.987776 
L 315.605841 272.807367 
L 315.924517 277.733143 
L 316.267041 280.219335 
L 316.809673 282.571102 
L 317.664914 285.257988 
L 318.690936 287.798401 
L 319.732563 289.828397 
L 320.776743 291.421484 
L 322.025424 292.926419 
L 323.169219 294.061888 
L 324.769962 295.320736 
L 326.556798 296.378805 
L 328.112441 297.035486 
L 329.768242 297.537452 
L 332.391703 298.0818 
L 347.227268 300.688859 
L 350.555815 301.663547 
L 352.79253 302.524311 
L 354.885115 303.529791 
L 357.205881 304.926158 
L 359.278049 306.433729 
L 361.046017 307.965106 
L 362.641195 309.68015 
L 363.577811 311.036646 
L 364.060866 312.120111 
L 364.27704 313.239137 
L 364.197549 314.399039 
L 363.730601 315.566221 
L 363.057353 316.471626 
L 362.151572 317.305405 
L 356.281147 322.030863 
L 353.647102 324.648131 
L 350.797134 327.855977 
L 348.373741 330.886097 
L 346.223253 333.681802 
L 345.15464 334.640173 
L 344.228526 335.191842 
L 343.196312 335.536792 
L 342.113391 335.619714 
L 341.291034 335.517882 
L 340.466376 335.277274 
L 339.154855 334.558046 
L 335.283508 332.212178 
L 333.052944 331.183604 
L 330.960987 330.472701 
L 328.33146 329.747072 
L 323.784187 328.75929 
L 313.740016 326.996928 
L 310.278174 326.285022 
L 307.782444 325.594285 
L 305.770104 324.837153 
L 304.188815 324.067385 
L 301.937666 322.675369 
L 300.198345 321.315149 
L 298.243518 319.44627 
L 296.73721 317.71993 
L 295.370067 315.81369 
L 294.152956 313.745998 
L 292.868759 311.099193 
L 291.846662 308.275122 
L 291.023509 305.358423 
L 290.429338 302.377964 
L 290.071439 299.337049 
L 289.977845 296.7817 
L 290.240906 289.175523 
L 290.413657 283.585703 
L 290.372276 278.087841 
L 290.024878 272.569856 
L 289.457127 267.602242 
L 288.649149 262.672826 
L 285.59063 246.443403 
L 285.208365 242.413619 
L 284.985108 236.921531 
L 284.962988 230.927435 
L 285.343822 217.065134 
L 286.206193 200.153593 
L 286.569467 193.473153 
L 286.998398 185.295142 
L 287.693393 170.344397 
L 288.031331 166.963512 
L 289.556479 153.605269 
L 290.288986 147.311115 
L 291.277245 141.272002 
L 292.680307 133.363298 
L 294.161968 125.090817 
L 295.607708 118.418285 
L 297.702915 110.327881 
L 299.772619 103.373365 
L 302.181746 96.14088 
L 304.64568 89.623648 
L 308.045141 81.38288 
L 309.567691 78.597802 
L 310.54355 77.122948 
L 315.195918 70.962757 
L 320.619392 65.105386 
L 323.235029 63.702785 
L 323.967477 63.629695 
L 325.669342 63.972846 
L 327.875181 65.017151 
L 343.729656 73.443301 
L 345.036366 73.805153 
L 346.352112 73.82285 
L 347.372863 73.519696 
L 348.562344 72.814651 
L 349.600917 71.725998 
L 350.706723 70.050993 
L 351.49059 68.408622 
L 354.261067 61.496486 
L 357.039326 54.102425 
L 357.968578 52.407631 
L 359.069405 50.896671 
L 360.341725 49.586698 
L 361.500581 48.701208 
L 362.776121 47.946711 
L 364.136676 47.383956 
L 365.586051 46.961523 
L 367.123369 46.74175 
L 370.019986 46.669246 
L 372.723732 46.733634 
L 376.025545 47.040344 
L 379.889361 47.653514 
L 383.785266 48.514697 
L 387.606282 49.652927 
L 396.588075 52.749109 
L 406.656428 56.426162 
L 415.086636 59.796253 
L 429.94856 65.707595 
L 438.165689 68.972507 
L 442.304545 70.93481 
L 454.334406 76.977521 
L 476.429024 86.798992 
L 482.986796 89.54855 
L 485.610423 90.688495 
L 487.438553 91.721672 
L 488.571763 92.529051 
L 489.785928 93.76949 
L 490.92717 95.601637 
L 491.357427 96.655564 
L 491.778103 98.182381 
L 492.808685 103.32157 
L 494.245007 110.04255 
L 500.32328 137.235983 
L 501.362857 143.683932 
L 501.987825 148.621924 
L 502.55694 154.65656 
L 502.838172 160.021839 
L 503.030373 167.08438 
L 503.382728 178.610435 
L 503.805831 190.457927 
L 504.219519 193.594022 
L 504.936195 197.1997 
L 507.883519 211.508951 
L 508.634418 215.399208 
L 509.214076 218.516852 
L 509.21939 219.638598 
L 509.075092 220.719804 
L 508.656634 222.002917 
L 507.900756 223.231558 
L 507.0297 224.135582 
L 505.962176 224.876315 
L 504.37938 225.650893 
L 498.426787 228.233478 
L 493.991765 230.466093 
L 478.94789 238.324968 
L 474.827778 240.715143 
L 471.839286 242.424329 
L 470.573577 242.832077 
L 469.250342 242.939557 
L 467.953631 242.720204 
L 466.969782 242.253674 
L 465.812557 241.334965 
L 464.855609 240.051935 
L 463.48631 237.391324 
L 460.683535 232.091521 
L 455.323779 222.534002 
L 443.799983 202.080083 
L 436.879104 189.929478 
L 411.291769 145.513819 
L 400.212078 126.504589 
L 398.614472 123.555842 
L 396.962436 120.530115 
L 389.44006 107.317508 
L 387.350111 103.942856 
L 385.059091 100.669953 
L 382.903667 97.95922 
L 380.556878 95.352997 
L 375.857149 91.000603 
L 373.248249 88.820996 
L 370.515467 86.839407 
L 367.244405 84.720172 
L 362.970582 82.249836 
L 352.605349 76.71407 
L 330.094491 65.015352 
L 327.284561 63.308551 
L 324.579643 61.388378 
L 321.998355 59.247848 
L 318.291848 55.812113 
L 314.543839 52.402569 
L 310.36528 48.664684 
L 310.36528 48.664684 
" clip-path="url(#p9c5b3e87b1)" style="fill: none; stroke: #000000; stroke-width: 2; stroke-linecap: square"/>
   </g>
   <g id="line2d_28">
    <path d="M 259.136975 431.607917 
L 258.991784 408.143314 
L 259.25628 405.822352 
L 259.659843 404.05931 
L 260.21705 402.447508 
L 260.950079 400.974089 
L 261.863234 399.639039 
L 262.918485 398.511332 
L 264.094414 397.49704 
L 265.407453 396.692128 
L 266.832919 396.107483 
L 268.409782 395.679072 
L 270.074012 395.5003 
L 272.13649 395.504529 
L 276.304664 395.80132 
L 281.374479 396.23375 
L 307.225502 399.037995 
L 310.221079 399.677338 
L 313.563979 400.726281 
L 316.340672 401.935294 
L 318.57067 403.131754 
L 320.725889 404.57767 
L 322.77046 406.246344 
L 324.663059 408.174316 
L 325.997342 409.892004 
L 327.15906 411.701758 
L 328.166877 413.610007 
L 329.455546 416.620592 
L 333.74144 428.041902 
L 334.904113 430.402056 
L 336.214237 432.605556 
L 337.402609 434.264387 
L 339.400134 436.506726 
L 340.894237 437.775114 
L 342.521777 438.831087 
L 344.282857 439.664321 
L 346.497217 440.363284 
L 347.927784 440.577295 
L 349.729944 440.597529 
L 351.518469 440.365889 
L 353.741998 439.762888 
L 355.496618 439.069615 
L 357.186906 438.126427 
L 359.185504 436.644065 
L 360.988604 434.913855 
L 362.641219 432.935265 
L 363.848501 431.224292 
L 365.250474 428.93302 
L 368.064396 423.592325 
L 381.411169 395.884112 
L 382.54037 394.191529 
L 383.818498 392.665778 
L 385.250864 391.317738 
L 386.806975 390.185636 
L 388.051848 389.513057 
L 389.775694 388.831136 
L 391.578534 388.392129 
L 393.404596 388.201786 
L 395.210532 388.280634 
L 396.987904 388.624787 
L 398.669688 389.217939 
L 400.252746 390.049006 
L 401.36885 390.842944 
L 402.386001 391.751032 
L 403.562188 393.156261 
L 404.302367 394.317381 
L 405.092695 395.965197 
L 405.690444 397.720337 
L 406.500741 400.819858 
L 407.170797 404.351163 
L 407.814725 407.585884 
L 408.370302 409.314093 
L 408.943385 410.492473 
L 409.509858 411.230919 
L 410.194151 411.833371 
L 410.962518 412.274332 
L 411.85645 412.578373 
L 412.863294 412.73799 
L 413.926567 412.744414 
L 415.423681 412.53981 
L 416.963514 412.122254 
L 418.445822 411.51625 
L 420.188958 410.506634 
L 421.111377 409.741244 
L 422.162799 408.585798 
L 423.53216 406.535618 
L 424.287959 405.092849 
L 424.930344 403.588097 
L 425.543452 401.645942 
L 425.888054 399.62354 
L 425.973382 397.941858 
L 425.825388 395.794634 
L 425.316122 391.687218 
L 424.307774 385.238497 
L 422.910362 377.965414 
L 418.053448 356.770384 
L 416.317874 348.005606 
L 415.601703 342.751979 
L 415.163415 336.908007 
L 415.073055 333.123522 
L 415.171987 328.805638 
L 415.543721 323.282382 
L 416.148107 318.829075 
L 416.920518 314.999831 
L 418.425301 309.184877 
L 421.176106 300.054924 
L 424.000452 291.472595 
L 425.175522 288.542901 
L 426.758188 285.099679 
L 429.255705 280.171183 
L 436.153235 267.003084 
L 439.251489 261.219145 
L 446.257659 249.36187 
L 449.142202 244.958152 
L 452.270615 240.308172 
L 452.934026 239.099181 
L 453.20404 238.237588 
L 453.2918 237.078325 
L 453.096767 235.84837 
L 452.585395 234.624527 
L 451.841009 233.436304 
L 438.78662 214.200685 
L 433.700829 206.918101 
L 432.91978 206.324176 
L 432.028821 205.949553 
L 431.151082 205.826333 
L 430.418277 205.886523 
L 429.417432 206.1946 
L 428.417346 206.713636 
L 426.645166 208.001762 
L 424.639093 209.721374 
L 422.629543 211.872836 
L 420.876143 214.221958 
L 419.634905 216.398276 
L 418.576342 218.747994 
L 417.622806 221.269147 
L 416.210737 225.829169 
L 413.860894 235.24105 
L 412.937807 238.882156 
L 411.519565 243.62628 
L 408.452625 252.870494 
L 406.831259 257.009393 
L 404.010876 263.50803 
L 400.7851 270.033694 
L 396.041741 278.734555 
L 394.216627 281.703642 
L 393.041614 282.988157 
L 392.143376 283.64836 
L 391.272783 283.977823 
L 390.332363 284.082521 
L 389.396515 283.946902 
L 388.257691 283.4747 
L 386.111307 282.149444 
L 384.454393 281.165796 
L 382.933175 280.499853 
L 381.305305 280.029516 
L 379.9199 279.780925 
L 378.141409 279.67767 
L 376.070999 279.872281 
L 373.48122 280.369245 
L 368.555087 281.579974 
L 364.84279 282.381575 
L 362.586463 282.666566 
L 360.703072 282.746123 
L 358.069894 282.634765 
L 355.796648 282.28224 
L 353.899846 281.767542 
L 352.031449 281.043856 
L 350.254024 280.119671 
L 348.276619 278.806196 
L 346.730694 277.5418 
L 344.749816 275.502506 
L 343.331878 273.563552 
L 342.319438 271.757487 
L 341.29208 269.36917 
L 340.543345 266.73516 
L 340.119995 264.413599 
L 339.906735 262.062863 
L 339.787009 258.215401 
L 339.920436 249.816146 
L 340.268037 240.616368 
L 340.560104 233.404709 
L 340.912636 225.200848 
L 341.407515 213.759097 
L 341.779356 204.245248 
L 342.098358 200.136321 
L 342.644957 196.196302 
L 344.428985 186.89225 
L 345.653352 180.591727 
L 346.305294 178.558498 
L 347.335576 176.188896 
L 348.621784 173.948309 
L 349.606206 172.526325 
L 350.980704 170.866412 
L 352.509714 169.356234 
L 354.205481 167.946447 
L 357.65956 165.567228 
L 366.42964 160.396233 
L 367.665885 159.673678 
L 370.878174 157.520637 
L 375.060704 154.468355 
L 382.741346 148.607607 
L 383.087956 147.929839 
L 383.220425 147.190052 
L 383.165465 146.351003 
L 382.90857 145.4782 
L 382.305861 144.300988 
L 381.430605 142.967078 
L 379.621971 140.756861 
L 351.089443 107.800795 
L 348.236466 105.043329 
L 346.042842 103.20593 
L 342.390506 100.512055 
L 339.545884 98.617314 
L 336.077193 96.620827 
L 333.051136 95.142833 
L 329.529022 93.681459 
L 326.570062 92.593971 
L 321.050681 90.86242 
L 312.587812 88.551706 
L 311.345213 88.503251 
L 310.397591 88.667437 
L 309.502861 89.058534 
L 308.698158 89.672103 
L 308.042244 90.503729 
L 307.465746 91.738076 
L 307.135345 92.88045 
L 306.839344 94.829533 
L 306.590826 98.857026 
L 305.496656 120.563207 
L 304.634737 130.636428 
L 304.588048 134.427481 
L 304.748945 139.856428 
L 305.367393 152.664086 
L 306.75 170.359502 
L 308.098287 187.665867 
L 309.22849 202.365329 
L 310.750142 221.897101 
L 312.486799 244.623411 
L 313.387533 256.612743 
L 314.413412 266.609994 
L 316.095336 276.478236 
L 318.624739 287.364166 
L 319.830615 291.418319 
L 320.712772 293.653169 
L 322.100232 296.415408 
L 323.518542 298.687273 
L 325.099895 300.755808 
L 326.62226 302.358311 
L 328.34573 303.752158 
L 330.014084 304.769355 
L 331.465395 305.434957 
L 332.990236 305.900992 
L 334.150341 306.124819 
L 336.607469 306.266557 
L 339.212487 306.169886 
L 351.924857 305.10653 
L 355.486564 305.117768 
L 358.431771 305.304662 
L 360.742564 305.656224 
L 363.021415 306.177736 
L 365.574664 307.027132 
L 367.901072 308.033498 
L 369.935725 309.108704 
L 371.59247 310.206526 
L 372.821492 311.312157 
L 373.541602 312.253872 
L 374.011688 313.273202 
L 374.220877 314.178539 
L 374.188772 315.194158 
L 374.003236 315.977848 
L 373.516752 317.024011 
L 372.796474 318.083208 
L 369.824103 322.052624 
L 368.403044 324.266688 
L 366.125466 328.344207 
L 364.265031 332.181634 
L 361.448704 338.59522 
L 360.740278 339.472115 
L 359.893382 340.174697 
L 359.15824 340.564307 
L 358.057326 340.891842 
L 356.921923 340.947529 
L 355.729409 340.747378 
L 349.147368 339.038284 
L 347.033765 338.820825 
L 343.512813 338.757685 
L 336.655079 339.150585 
L 329.380042 339.814697 
L 324.991223 340.001147 
L 322.425775 339.933063 
L 319.841961 339.601179 
L 317.746325 339.073747 
L 315.285382 338.208423 
L 313.28514 337.265881 
L 311.352698 336.10495 
L 309.149841 334.484513 
L 307.781074 333.23636 
L 305.824267 331.193216 
L 304.319706 329.297985 
L 301.929482 325.575052 
L 300.555842 322.936487 
L 299.411302 320.157585 
L 298.45259 317.325593 
L 297.095952 312.524612 
L 293.30764 298.27527 
L 292.220373 295.018771 
L 290.81719 291.359573 
L 289.231893 287.788277 
L 286.630365 282.513996 
L 282.418044 274.136979 
L 279.916314 268.192255 
L 278.175777 263.044043 
L 276.519671 257.430312 
L 273.979207 247.745793 
L 272.758035 242.713901 
L 270.958355 234.476206 
L 269.351673 227.938223 
L 267.807121 221.518197 
L 265.403237 211.226558 
L 262.624451 200.057901 
L 261.565969 194.322529 
L 258.983124 179.382149 
L 258.314838 175.42282 
L 257.332948 167.045664 
L 255.64727 150.497103 
L 255.374306 144.262742 
L 255.27516 134.378436 
L 255.536881 126.756022 
L 255.866692 121.761124 
L 256.376118 115.865666 
L 257.207229 108.443783 
L 257.947422 104.934569 
L 258.855815 101.893671 
L 259.797678 99.398822 
L 261.141446 96.321644 
L 263.831338 90.816871 
L 265.435317 87.869939 
L 266.174273 86.984165 
L 267.25394 86.242149 
L 268.310444 85.863575 
L 269.628332 85.772701 
L 270.880031 85.904278 
L 274.127134 86.52022 
L 278.416736 87.295277 
L 283.785187 88.306015 
L 287.736934 89.096151 
L 289.443934 89.268593 
L 290.723595 89.127686 
L 291.657409 88.794843 
L 292.50233 88.23985 
L 293.215703 87.45203 
L 293.779077 86.461162 
L 294.257579 84.970966 
L 294.594097 83.317117 
L 294.792109 81.08092 
L 295.211405 72.64768 
L 295.380172 68.467215 
L 295.600231 66.472527 
L 295.986592 64.544274 
L 296.611532 62.739558 
L 297.437711 61.10484 
L 298.482035 59.639148 
L 299.476336 58.592446 
L 300.614414 57.696397 
L 301.933634 56.908632 
L 304.446154 55.92139 
L 306.493975 55.321063 
L 311.293508 54.239026 
L 315.582177 53.563238 
L 319.48935 53.171205 
L 323.791254 53.045877 
L 331.064363 53.110562 
L 338.10813 53.301453 
L 351.454009 54.092667 
L 369.604439 54.97158 
L 373.774192 55.194801 
L 379.614472 55.866093 
L 388.158954 57.133427 
L 404.549675 58.637322 
L 423.360042 59.816457 
L 425.736769 60.051532 
L 427.397901 60.42823 
L 428.936232 61.0437 
L 430.363516 61.974419 
L 431.408328 62.956207 
L 432.099833 63.805005 
L 433.600038 66.228508 
L 440.808942 78.296114 
L 446.843069 88.108308 
L 453.488257 99.319371 
L 456.442026 105.014876 
L 459.928498 112.341451 
L 461.602605 116.250403 
L 464.880388 124.741002 
L 466.810174 129.801773 
L 469.851297 137.320607 
L 473.357167 145.660535 
L 474.747823 148.434914 
L 476.883259 151.994306 
L 482.697809 161.432166 
L 488.140341 171.182326 
L 488.420465 172.255118 
L 488.527051 173.553254 
L 488.399955 174.689109 
L 488.173234 175.548574 
L 487.655849 176.658557 
L 486.896108 177.719588 
L 485.451716 179.246059 
L 482.405549 182.375305 
L 479.22603 186.032925 
L 468.768901 198.643241 
L 466.402927 201.699927 
L 462.343051 206.984582 
L 461.521517 207.632793 
L 460.594106 208.106144 
L 459.613556 208.367957 
L 458.56301 208.394 
L 457.468498 208.163298 
L 456.382549 207.65984 
L 455.302796 206.866339 
L 439.007067 193.292285 
L 433.665942 188.972804 
L 417.252282 175.41437 
L 409.390202 168.982966 
L 351.54995 121.26084 
L 344.625056 115.577846 
L 341.147775 112.88171 
L 337.124282 110.038722 
L 334.303636 108.303085 
L 330.887577 106.48288 
L 327.283443 104.862358 
L 324.234555 103.762498 
L 320.639163 102.719518 
L 315.904919 101.74136 
L 311.71107 101.176913 
L 307.091963 100.684899 
L 300.505744 100.063394 
L 290.368206 99.298648 
L 283.111464 98.796642 
L 272.685589 97.687524 
L 270.093973 97.173637 
L 267.51389 96.495604 
L 263.961041 95.262666 
L 253.311568 91.384649 
L 250.830152 90.511251 
L 250.830152 90.511251 
" clip-path="url(#p9c5b3e87b1)" style="fill: none; stroke-dasharray: 5.55,2.4; stroke-dashoffset: 0; stroke: #ff0000; stroke-width: 1.5"/>
   </g>
   <g id="line2d_29">
    <path d="M 259.136975 431.607917 
L 258.991784 408.143314 
L 259.339444 405.37831 
L 260.059283 402.840759 
L 260.566004 401.685426 
L 261.159613 400.625575 
L 261.863234 399.639039 
L 263.491234 397.977637 
L 264.411139 397.280196 
L 265.407453 396.692128 
L 267.609701 395.86445 
L 268.821252 395.617463 
L 271.301446 395.483674 
L 275.046836 395.704118 
L 283.991658 396.498738 
L 307.225502 399.037995 
L 310.221079 399.677338 
L 313.101217 400.56293 
L 315.90049 401.718594 
L 318.57067 403.131754 
L 320.725889 404.57767 
L 323.180747 406.636506 
L 324.663059 408.174317 
L 325.997342 409.892005 
L 327.15906 411.701758 
L 328.166877 413.610007 
L 329.455546 416.620592 
L 334.180327 428.987464 
L 335.157058 430.863397 
L 336.790663 433.452331 
L 338.704942 435.816011 
L 339.761609 436.841446 
L 340.894238 437.775114 
L 342.098527 438.586103 
L 343.37899 439.261386 
L 346.033859 440.256075 
L 347.478998 440.535844 
L 348.814612 440.621246 
L 350.176668 440.560634 
L 351.51847 440.365887 
L 354.173505 439.610281 
L 355.496619 439.069611 
L 356.78613 438.394064 
L 359.185505 436.64406 
L 361.332065 434.536349 
L 363.263489 432.094744 
L 364.987372 429.408196 
L 368.064398 423.59232 
L 377.337118 404.342165 
L 380.641491 397.222461 
L 382.246208 394.601244 
L 383.16427 393.410386 
L 384.166933 392.307412 
L 385.250906 391.31775 
L 386.415089 390.439288 
L 387.629972 389.715707 
L 388.901108 389.143909 
L 390.221867 388.699471 
L 391.578595 388.392179 
L 392.949295 388.228809 
L 394.324037 388.198244 
L 395.662016 388.345781 
L 396.987964 388.624904 
L 398.261393 389.048199 
L 399.482392 389.606627 
L 400.635642 390.293509 
L 401.721392 391.128205 
L 402.710252 392.094924 
L 403.562157 393.156522 
L 404.302317 394.317657 
L 404.916614 395.54314 
L 405.821448 398.169869 
L 406.781832 402.158967 
L 408.014756 408.305227 
L 408.79017 410.217243 
L 409.511078 411.230794 
L 410.437903 411.996636 
L 411.548138 412.497027 
L 412.865131 412.736651 
L 413.571335 412.760054 
L 414.660959 412.665288 
L 415.81417 412.453119 
L 418.080749 411.684257 
L 420.189877 410.501761 
L 421.111959 409.735885 
L 421.910253 408.882135 
L 423.315282 406.885118 
L 424.468325 404.71067 
L 425.316079 402.411816 
L 425.831316 400.03505 
L 425.952802 398.782161 
L 425.860983 396.22028 
L 425.175364 390.729428 
L 424.117122 384.182284 
L 423.027374 378.47877 
L 417.940958 356.230305 
L 416.404817 348.496673 
L 415.666589 343.237234 
L 415.238285 337.922985 
L 415.094661 333.597945 
L 415.159261 329.267819 
L 415.653139 322.642667 
L 416.110108 319.286694 
L 416.987545 314.881149 
L 418.344417 309.557092 
L 420.65328 301.807768 
L 422.511201 296.072891 
L 424.781627 289.765154 
L 426.997063 284.805076 
L 430.001601 278.810225 
L 438.977422 261.969814 
L 445.103832 251.103729 
L 446.890548 247.275398 
L 447.82761 244.862371 
L 448.846611 241.598309 
L 449.734444 237.843469 
L 450.092863 235.198876 
L 450.353284 232.350054 
L 450.324011 231.588952 
L 450.498735 229.791134 
L 450.456683 228.619636 
L 450.715541 226.143091 
L 449.59866 223.530753 
L 450.279623 222.01507 
L 450.64634 220.587775 
L 450.17789 217.385752 
L 449.228126 215.681219 
L 448.279308 214.991948 
L 445.886698 212.228564 
L 441.72407 207.712967 
L 438.485699 204.501639 
L 435.764598 202.127672 
L 433.035297 200.058528 
L 431.291193 198.945938 
L 430.639184 198.631431 
L 429.775565 200.634148 
L 429.566606 201.346181 
L 429.215158 201.774796 
L 429.137167 203.360539 
L 428.054422 204.03485 
L 426.325828 207.594566 
L 422.241877 214.316637 
L 419.717149 218.917993 
L 417.91938 222.698843 
L 416.482607 226.312856 
L 415.205223 230.283147 
L 412.946298 238.483704 
L 411.14492 244.657838 
L 409.313615 250.287967 
L 407.217333 255.912457 
L 404.784657 261.699675 
L 402.59154 266.346135 
L 399.717523 272.07815 
L 395.618738 279.421559 
L 394.412326 281.334074 
L 393.069762 282.85318 
L 392.18135 283.534673 
L 391.31759 283.890945 
L 390.378284 284.024868 
L 389.437216 283.914687 
L 388.518789 283.570168 
L 386.884376 282.651955 
L 384.751943 281.332127 
L 383.570869 280.770052 
L 382.299894 280.307492 
L 379.928347 279.794521 
L 377.81571 279.701096 
L 375.349055 279.992867 
L 370.824289 281.000849 
L 366.330651 282.096298 
L 364.091486 282.498271 
L 361.837148 282.716855 
L 359.58039 282.729186 
L 357.317622 282.543985 
L 355.039117 282.096667 
L 352.772917 281.353747 
L 350.60514 280.318046 
L 348.593258 279.037104 
L 346.731534 277.540532 
L 345.030607 275.815174 
L 343.564948 273.90027 
L 342.320579 271.755297 
L 341.293432 269.366651 
L 340.544902 266.732336 
L 340.059172 263.936647 
L 339.855517 261.095546 
L 339.798528 256.756704 
L 339.982104 247.79389 
L 340.35803 238.528162 
L 341.876416 202.839156 
L 342.26891 198.782698 
L 342.896135 194.920416 
L 345.962448 179.730339 
L 346.883997 177.338626 
L 348.06265 175.026026 
L 349.495646 172.848694 
L 351.145046 170.847528 
L 353.01516 169.048072 
L 355.101547 167.402478 
L 357.427812 165.788649 
L 363.661594 161.944916 
L 369.84589 158.146418 
L 376.245139 153.690554 
L 378.136743 152.119515 
L 379.699849 150.378987 
L 380.321031 149.423298 
L 381.052698 147.671401 
L 381.054241 146.962073 
L 380.923205 146.366004 
L 380.363369 145.368188 
L 379.193698 143.951212 
L 376.143071 140.814337 
L 373.680564 138.331658 
L 369.059943 133.33066 
L 358.361457 122.39235 
L 352.896779 117.026013 
L 345.067441 109.56141 
L 342.446502 107.460712 
L 339.645226 105.547008 
L 335.757947 103.261791 
L 332.746836 101.69265 
L 329.639408 100.338667 
L 326.479541 99.183942 
L 322.295451 97.933812 
L 307.847926 94.05617 
L 305.539236 93.806423 
L 302.688133 93.893183 
L 302.403185 93.637395 
L 302.351724 93.314222 
L 302.453149 92.993139 
L 302.657041 92.729803 
L 303.260131 92.491824 
L 303.605582 92.54705 
L 304.088708 92.861122 
L 304.547217 93.395719 
L 304.938529 94.136152 
L 305.79061 96.655636 
L 306.262611 98.857986 
L 306.510525 101.255903 
L 306.49598 103.804863 
L 305.435405 121.91754 
L 304.712593 127.1286 
L 304.522556 130.355038 
L 304.527887 134.664198 
L 304.850752 143.358081 
L 305.155783 150.050826 
L 306.20632 163.269842 
L 307.701977 181.833882 
L 308.894934 197.954523 
L 310.885533 223.558464 
L 311.561889 231.319532 
L 314.126284 264.515972 
L 316.095367 276.478603 
L 318.066079 285.126984 
L 319.103058 289.037376 
L 319.830605 291.418524 
L 320.712766 293.653354 
L 321.738438 295.734711 
L 322.884526 297.739355 
L 324.174185 299.595908 
L 325.586688 301.30689 
L 327.172986 302.836632 
L 328.990643 304.183877 
L 331.096621 305.279331 
L 333.3605 305.993417 
L 335.760776 306.264239 
L 338.330218 306.227817 
L 345.34497 305.60857 
L 349.900076 305.216813 
L 352.940332 305.084613 
L 355.995999 305.135026 
L 358.921537 305.358998 
L 361.676834 305.841361 
L 364.312649 306.580745 
L 366.769299 307.510069 
L 368.952307 308.558278 
L 371.089676 309.838312 
L 372.821498 311.312158 
L 373.649225 312.447399 
L 374.144748 313.717341 
L 374.234875 314.679796 
L 374.083723 315.715466 
L 373.661291 316.760127 
L 372.796474 318.083209 
L 369.824102 322.052624 
L 368.403044 324.266689 
L 366.347855 327.921576 
L 364.448542 331.774092 
L 361.448704 338.595221 
L 360.543258 339.669912 
L 359.656785 340.327634 
L 358.615512 340.760678 
L 357.495989 340.952792 
L 356.333096 340.8767 
L 354.206807 340.289884 
L 350.725076 339.326211 
L 348.317685 338.927099 
L 345.736794 338.764113 
L 343.05413 338.778052 
L 338.9418 338.959559 
L 325.429348 340.001904 
L 322.858035 339.961346 
L 320.284241 339.688083 
L 317.746325 339.073747 
L 315.285382 338.208423 
L 312.898888 337.057363 
L 310.603153 335.589968 
L 308.450392 333.885133 
L 306.470109 331.890793 
L 304.601186 329.688627 
L 302.942634 327.266026 
L 301.451725 324.701645 
L 300.155665 322.027726 
L 299.071191 319.225515 
L 297.736128 314.911384 
L 296.251953 309.15676 
L 295.176554 304.892582 
L 293.598768 299.235435 
L 292.220373 295.018771 
L 290.634404 290.91457 
L 288.186394 285.581062 
L 282.221202 273.690237 
L 280.991497 270.95773 
L 279.420099 266.798697 
L 277.604001 261.144185 
L 276.385287 256.939816 
L 273.343085 245.274564 
L 272.431618 241.15977 
L 270.718747 233.451013 
L 263.630812 204.380834 
L 262.93337 201.490336 
L 261.794732 195.750612 
L 259.524735 182.048119 
L 258.314838 175.42282 
L 257.480972 168.494561 
L 256.404992 158.894711 
L 255.872398 153.663448 
L 255.534077 148.396535 
L 255.260949 137.502808 
L 255.35155 131.282759 
L 255.61415 125.225556 
L 256.329481 116.363901 
L 257.083212 109.310059 
L 257.547605 106.695818 
L 258.189356 104.042965 
L 259.005688 101.451701 
L 260.463134 97.829113 
L 262.474808 93.557543 
L 265.223348 88.19709 
L 266.174273 86.984165 
L 266.949031 86.402969 
L 267.919919 85.975898 
L 268.721416 85.811658 
L 270.109385 85.801485 
L 272.271152 86.155219 
L 288.611706 89.218223 
L 290.468893 89.180065 
L 291.427497 88.902141 
L 292.302316 88.405051 
L 293.050805 87.67209 
L 293.65301 86.73185 
L 294.171932 85.289234 
L 294.414074 84.329516 
L 294.736182 81.853027 
L 295.176439 74.37144 
L 295.408177 68.058619 
L 295.729326 65.671383 
L 296.337255 63.454469 
L 297.251174 61.42394 
L 298.482035 59.639148 
L 300.030195 58.129245 
L 300.941156 57.47732 
L 301.933634 56.908632 
L 305.253372 55.657696 
L 309.051587 54.69909 
L 313.176831 53.898346 
L 317.5294 53.342727 
L 320.45175 53.117151 
L 323.32128 53.044737 
L 335.601344 53.218128 
L 344.302963 53.648456 
L 355.069319 54.296397 
L 368.281057 54.922219 
L 373.774191 55.194801 
L 379.61447 55.866093 
L 388.929838 57.214625 
L 397.398003 57.975032 
L 419.775731 59.704127 
L 425.067686 59.956256 
L 427.076978 60.338067 
L 428.936224 61.043654 
L 429.814188 61.565881 
L 430.642982 62.204754 
L 431.408326 62.956147 
L 432.099829 63.804945 
L 434.015375 66.952358 
L 438.186286 74.068423 
L 451.214735 95.268328 
L 453.742713 99.790442 
L 458.133109 108.430853 
L 460.781583 114.277697 
L 463.17854 120.210527 
L 470.260262 138.314509 
L 473.585908 146.146066 
L 474.753381 148.441062 
L 477.70909 153.323238 
L 482.464863 161.024 
L 486.306384 167.68005 
L 487.597574 169.913172 
L 488.263438 171.78445 
L 488.452301 173.368749 
L 488.336649 174.484833 
L 488.011474 175.640275 
L 487.454883 176.748125 
L 486.460135 178.083186 
L 477.219409 188.42675 
L 470.788356 196.237096 
L 467.20342 200.589908 
L 464.681069 203.344679 
L 460.666004 207.300356 
L 457.736981 210.172637 
L 456.595075 211.347354 
L 455.284808 212.252266 
L 455.105367 213.867934 
L 452.522552 214.662572 
L 452.068103 217.03081 
L 450.952594 216.75924 
L 448.675332 215.375098 
L 446.646371 213.116107 
L 444.212332 210.362157 
L 440.905735 206.897207 
L 437.807097 203.933496 
L 435.3265 201.861111 
L 431.776453 199.150986 
L 431.004471 198.338478 
L 430.395977 197.381321 
L 430.125997 195.867427 
L 427.934157 192.96643 
L 427.940385 190.341259 
L 426.973637 189.203659 
L 426.176254 187.944929 
L 425.26399 185.693618 
L 423.989712 183.576346 
L 421.835739 180.575024 
L 420.307769 178.667081 
L 418.661223 176.914249 
L 416.031988 174.465567 
L 412.419801 171.446027 
L 389.727716 152.810421 
L 386.503096 150.092609 
L 383.851195 148.280602 
L 382.408425 147.140096 
L 382.080591 146.658491 
L 381.891184 145.774356 
L 381.513434 145.170494 
L 375.829456 140.287202 
L 373.448105 137.846621 
L 368.939342 132.991273 
L 356.526065 120.389514 
L 348.336135 112.468318 
L 344.991823 109.541137 
L 341.430439 106.800433 
L 338.632337 104.906445 
L 335.687359 103.146223 
L 332.624978 101.581261 
L 329.554713 100.260941 
L 326.441848 99.116695 
L 321.135455 97.573611 
L 307.694908 94.035664 
L 305.688273 93.806778 
L 303.635102 93.842993 
L 301.555712 94.11535 
L 300.401539 94.699207 
L 297.258262 94.889606 
L 295.756907 95.880505 
L 288.96676 97.532916 
L 285.700081 97.982561 
L 282.439438 98.159156 
L 279.168045 98.035094 
L 275.894882 97.674046 
L 271.54071 96.925214 
L 267.234484 95.940509 
L 262.976613 94.719475 
L 254.688691 91.882349 
L 252.710828 91.163694 
L 252.710828 91.163694 
" clip-path="url(#p9c5b3e87b1)" style="fill: none; stroke-dasharray: 9.6,2.4,1.5,2.4; stroke-dashoffset: 0; stroke: #0000ff; stroke-width: 1.5"/>
   </g>
   <g id="patch_3">
    <path d="M 50.87 462.04 
L 50.87 26.88 
" style="fill: none; stroke: #000000; stroke-width: 0.8; stroke-linejoin: miter; stroke-linecap: square"/>
   </g>
   <g id="patch_4">
    <path d="M 709.2 462.04 
L 709.2 26.88 
" style="fill: none; stroke: #000000; stroke-width: 0.8; stroke-linejoin: miter; stroke-linecap: square"/>
   </g>
   <g id="patch_5">
    <path d="M 50.87 462.04 
L 709.2 462.04 
" style="fill: none; stroke: #000000; stroke-width: 0.8; stroke-linejoin: miter; stroke-linecap: square"/>
   </g>
   <g id="patch_6">
    <path d="M 50.87 26.88 
L 709.2 26.88 
" style="fill: none; stroke: #000000; stroke-width: 0.8; stroke-linejoin: miter; stroke-linecap: square"/>
   </g>
   <g id="text_16">
    <!-- KITTI 02: Ground Truth vs Estimated Trajectory (Top-down X-Z) -->
    <g transform="translate(193.3 20.88) scale(0.12 -0.12)">
     <defs>
      <path id="DejaVuSans-4b" d="M 628 4666 
L 1259 4666 
L 1259 2694 
L 3353 4666 
L 4166 4666 
L 1850 2491 
L 4331 0 
L 3500 0 
L 1259 2247 
L 1259 0 
L 628 0 
L 628 4666 
z
" transform="scale(0.015625)"/>
      <path id="DejaVuSans-49" d="M 628 4666 
L 1259 4666 
L 1259 0 
L 628 0 
L 628 4666 
z
" transform="scale(0.015625)"/>
      <path id="DejaVuSans-54" d="M -19 4666 
L 3928 4666 
L 3928 4134 
L 2272 4134 
L 2272 0 
L 1638 0 
L 1638 4134 
L -19 4134 
L -19 4666 
z
" transform="scale(0.015625)"/>
      <path id="DejaVuSans-3a" d="M 750 794 
L 1409 794 
L 1409 0 
L 750 0 
L 750 794 
z
M 750 3309 
L 1409 3309 
L 1409 2516 
L 750 2516 
L 750 3309 
z
" transform="scale(0.015625)"/>
      <path id="DejaVuSans-47" d="M 3809 666 
L 3809 1919 
L 2778 1919 
L 2778 2438 
L 4434 2438 
L 4434 434 
Q 4069 175 3628 42 
Q 3188 -91 2688 -91 
Q 1594 -91 976 548 
Q 359 1188 359 2328 
Q 359 3472 976 4111 
Q 1594 4750 2688 4750 
Q 3144 4750 3555 4637 
Q 3966 4525 4313 4306 
L 4313 3634 
Q 3963 3931 3569 4081 
Q 3175 4231 2741 4231 
Q 1884 4231 1454 3753 
Q 1025 3275 1025 2328 
Q 1025 1384 1454 906 
Q 1884 428 2741 428 
Q 3075 428 3337 486 
Q 3600 544 3809 666 
z
" transform="scale(0.015625)"/>
      <path id="DejaVuSans-72" d="M 2631 2963 
Q 2534 3019 2420 3045 
Q 2306 3072 2169 3072 
Q 1681 3072 1420 2755 
Q 1159 2438 1159 1844 
L 1159 0 
L 581 0 
L 581 3500 
L 1159 3500 
L 1159 2956 
Q 1341 3275 1631 3429 
Q 1922 3584 2338 3584 
Q 2397 3584 2469 3576 
Q 2541 3569 2628 3553 
L 2631 2963 
z
" transform="scale(0.015625)"/>
      <path id="DejaVuSans-6f" d="M 1959 3097 
Q 1497 3097 1228 2736 
Q 959 2375 959 1747 
Q 959 1119 1226 758 
Q 1494 397 1959 397 
Q 2419 397 2687 759 
Q 2956 1122 2956 1747 
Q 2956 2369 2687 2733 
Q 2419 3097 1959 3097 
z
M 1959 3584 
Q 2709 3584 3137 3096 
Q 3566 2609 3566 1747 
Q 3566 888 3137 398 
Q 2709 -91 1959 -91 
Q 1206 -91 779 398 
Q 353 888 353 1747 
Q 353 2609 779 3096 
Q 1206 3584 1959 3584 
z
" transform="scale(0.015625)"/>
      <path id="DejaVuSans-75" d="M 544 1381 
L 544 3500 
L 1119 3500 
L 1119 1403 
Q 1119 906 1312 657 
Q 1506 409 1894 409 
Q 2359 409 2629 706 
Q 2900 1003 2900 1516 
L 2900 3500 
L 3475 3500 
L 3475 0 
L 2900 0 
L 2900 538 
Q 2691 219 2414 64 
Q 2138 -91 1772 -91 
Q 1169 -91 856 284 
Q 544 659 544 1381 
z
M 1991 3584 
L 1991 3584 
z
" transform="scale(0.015625)"/>
      <path id="DejaVuSans-6e" d="M 3513 2113 
L 3513 0 
L 2938 0 
L 2938 2094 
Q 2938 2591 2744 2837 
Q 2550 3084 2163 3084 
Q 1697 3084 1428 2787 
Q 1159 2491 1159 1978 
L 1159 0 
L 581 0 
L 581 3500 
L 1159 3500 
L 1159 2956 
Q 1366 3272 1645 3428 
Q 1925 3584 2291 3584 
Q 2894 3584 3203 3211 
Q 3513 2838 3513 2113 
z
" transform="scale(0.015625)"/>
      <path id="DejaVuSans-64" d="M 2906 2969 
L 2906 4863 
L 3481 4863 
L 3481 0 
L 2906 0 
L 2906 525 
Q 2725 213 2448 61 
Q 2172 -91 1784 -91 
Q 1150 -91 751 415 
Q 353 922 353 1747 
Q 353 2572 751 3078 
Q 1150 3584 1784 3584 
Q 2172 3584 2448 3432 
Q 2725 3281 2906 2969 
z
M 947 1747 
Q 947 1113 1208 752 
Q 1469 391 1925 391 
Q 2381 391 2643 752 
Q 2906 1113 2906 1747 
Q 2906 2381 2643 2742 
Q 2381 3103 1925 3103 
Q 1469 3103 1208 2742 
Q 947 2381 947 1747 
z
" transform="scale(0.015625)"/>
      <path id="DejaVuSans-74" d="M 1172 4494 
L 1172 3500 
L 2356 3500 
L 2356 3053 
L 1172 3053 
L 1172 1153 
Q 1172 725 1289 603 
Q 1406 481 1766 481 
L 2356 481 
L 2356 0 
L 1766 0 
Q 1100 0 847 248 
Q 594 497 594 1153 
L 594 3053 
L 172 3053 
L 172 3500 
L 594 3500 
L 594 4494 
L 1172 4494 
z
" transform="scale(0.015625)"/>
      <path id="DejaVuSans-68" d="M 3513 2113 
L 3513 0 
L 2938 0 
L 2938 2094 
Q 2938 2591 2744 2837 
Q 2550 3084 2163 3084 
Q 1697 3084 1428 2787 
Q 1159 2491 1159 1978 
L 1159 0 
L 581 0 
L 581 4863 
L 1159 4863 
L 1159 2956 
Q 1366 3272 1645 3428 
Q 1925 3584 2291 3584 
Q 2894 3584 3203 3211 
Q 3513 2838 3513 2113 
z
" transform="scale(0.015625)"/>
      <path id="DejaVuSans-76" d="M 191 3500 
L 800 3500 
L 1894 563 
L 2988 3500 
L 3597 3500 
L 2284 0 
L 1503 0 
L 191 3500 
z
" transform="scale(0.015625)"/>
      <path id="DejaVuSans-73" d="M 2834 3397 
L 2834 2853 
Q 2591 2978 2328 3040 
Q 2066 3103 1784 3103 
Q 1356 3103 1142 2972 
Q 928 2841 928 2578 
Q 928 2378 1081 2264 
Q 1234 2150 1697 2047 
L 1894 2003 
Q 2506 1872 2764 1633 
Q 3022 1394 3022 966 
Q 3022 478 2636 193 
Q 2250 -91 1575 -91 
Q 1294 -91 989 -36 
Q 684 19 347 128 
L 347 722 
Q 666 556 975 473 
Q 1284 391 1588 391 
Q 1994 391 2212 530 
Q 2431 669 2431 922 
Q 2431 1156 2273 1281 
Q 2116 1406 1581 1522 
L 1381 1569 
Q 847 1681 609 1914 
Q 372 2147 372 2553 
Q 372 3047 722 3315 
Q 1072 3584 1716 3584 
Q 2034 3584 2315 3537 
Q 2597 3491 2834 3397 
z
" transform="scale(0.015625)"/>
      <path id="DejaVuSans-45" d="M 628 4666 
L 3578 4666 
L 3578 4134 
L 1259 4134 
L 1259 2753 
L 3481 2753 
L 3481 2222 
L 1259 2222 
L 1259 531 
L 3634 531 
L 3634 0 
L 628 0 
L 628 4666 
z
" transform="scale(0.015625)"/>
      <path id="DejaVuSans-69" d="M 603 3500 
L 1178 3500 
L 1178 0 
L 603 0 
L 603 3500 
z
M 603 4863 
L 1178 4863 
L 1178 4134 
L 603 4134 
L 603 4863 
z
" transform="scale(0.015625)"/>
      <path id="DejaVuSans-61" d="M 2194 1759 
Q 1497 1759 1228 1600 
Q 959 1441 959 1056 
Q 959 750 1161 570 
Q 1363 391 1709 391 
Q 2188 391 2477 730 
Q 2766 1069 2766 1631 
L 2766 1759 
L 2194 1759 
z
M 3341 1997 
L 3341 0 
L 2766 0 
L 2766 531 
Q 2569 213 2275 61 
Q 1981 -91 1556 -91 
Q 1019 -91 701 211 
Q 384 513 384 1019 
Q 384 1609 779 1909 
Q 1175 2209 1959 2209 
L 2766 2209 
L 2766 2266 
Q 2766 2663 2505 2880 
Q 2244 3097 1772 3097 
Q 1472 3097 1187 3025 
Q 903 2953 641 2809 
L 641 3341 
Q 956 3463 1253 3523 
Q 1550 3584 1831 3584 
Q 2591 3584 2966 3190 
Q 3341 2797 3341 1997 
z
" transform="scale(0.015625)"/>
      <path id="DejaVuSans-65" d="M 3597 1894 
L 3597 1613 
L 953 1613 
Q 991 1019 1311 708 
Q 1631 397 2203 397 
Q 2534 397 2845 478 
Q 3156 559 3463 722 
L 3463 178 
Q 3153 47 2828 -22 
Q 2503 -91 2169 -91 
Q 1331 -91 842 396 
Q 353 884 353 1716 
Q 353 2575 817 3079 
Q 1281 3584 2069 3584 
Q 2775 3584 3186 3129 
Q 3597 2675 3597 1894 
z
M 3022 2063 
Q 3016 2534 2758 2815 
Q 2500 3097 2075 3097 
Q 1594 3097 1305 2825 
Q 1016 2553 972 2059 
L 3022 2063 
z
" transform="scale(0.015625)"/>
      <path id="DejaVuSans-6a" d="M 603 3500 
L 1178 3500 
L 1178 -63 
Q 1178 -731 923 -1031 
Q 669 -1331 103 -1331 
L -116 -1331 
L -116 -844 
L 38 -844 
Q 366 -844 484 -692 
Q 603 -541 603 -63 
L 603 3500 
z
M 603 4863 
L 1178 4863 
L 1178 4134 
L 603 4134 
L 603 4863 
z
" transform="scale(0.015625)"/>
      <path id="DejaVuSans-63" d="M 3122 3366 
L 3122 2828 
Q 2878 2963 2633 3030 
Q 2388 3097 2138 3097 
Q 1578 3097 1268 2742 
Q 959 2388 959 1747 
Q 959 1106 1268 751 
Q 1578 397 2138 397 
Q 2388 397 2633 464 
Q 2878 531 3122 666 
L 3122 134 
Q 2881 22 2623 -34 
Q 2366 -91 2075 -91 
Q 1284 -91 818 406 
Q 353 903 353 1747 
Q 353 2603 823 3093 
Q 1294 3584 2113 3584 
Q 2378 3584 2631 3529 
Q 2884 3475 3122 3366 
z
" transform="scale(0.015625)"/>
      <path id="DejaVuSans-79" d="M 2059 -325 
Q 1816 -950 1584 -1140 
Q 1353 -1331 966 -1331 
L 506 -1331 
L 506 -850 
L 844 -850 
Q 1081 -850 1212 -737 
Q 1344 -625 1503 -206 
L 1606 56 
L 191 3500 
L 800 3500 
L 1894 763 
L 2988 3500 
L 3597 3500 
L 2059 -325 
z
" transform="scale(0.015625)"/>
      <path id="DejaVuSans-70" d="M 1159 525 
L 1159 -1331 
L 581 -1331 
L 581 3500 
L 1159 3500 
L 1159 2969 
Q 1341 3281 1617 3432 
Q 1894 3584 2278 3584 
Q 2916 3584 3314 3078 
Q 3713 2572 3713 1747 
Q 3713 922 3314 415 
Q 2916 -91 2278 -91 
Q 1894 -91 1617 61 
Q 1341 213 1159 525 
z
M 3116 1747 
Q 3116 2381 2855 2742 
Q 2594 3103 2138 3103 
Q 1681 3103 1420 2742 
Q 1159 2381 1159 1747 
Q 1159 1113 1420 752 
Q 1681 391 2138 391 
Q 2594 391 2855 752 
Q 3116 1113 3116 1747 
z
" transform="scale(0.015625)"/>
      <path id="DejaVuSans-2d" d="M 313 2009 
L 1997 2009 
L 1997 1497 
L 313 1497 
L 313 2009 
z
" transform="scale(0.015625)"/>
      <path id="DejaVuSans-77" d="M 269 3500 
L 844 3500 
L 1563 769 
L 2278 3500 
L 2956 3500 
L 3675 769 
L 4391 3500 
L 4966 3500 
L 4050 0 
L 3372 0 
L 2619 2869 
L 1863 0 
L 1184 0 
L 269 3500 
z
" transform="scale(0.015625)"/>
     </defs>
     <use xlink:href="#DejaVuSans-4b"/>
     <use xlink:href="#DejaVuSans-49" transform="translate(65.576172 0)"/>
     <use xlink:href="#DejaVuSans-54" transform="translate(95.068359 0)"/>
     <use xlink:href="#DejaVuSans-54" transform="translate(154.402344 0)"/>
     <use xlink:href="#DejaVuSans-49" transform="translate(215.486328 0)"/>
     <use xlink:href="#DejaVuSans-20" transform="translate(244.978516 0)"/>
     <use xlink:href="#DejaVuSans-30" transform="translate(276.765625 0)"/>
     <use xlink:href="#DejaVuSans-32" transform="translate(340.388672 0)"/>
     <use xlink:href="#DejaVuSans-3a" transform="translate(404.011719 0)"/>
     <use xlink:href="#DejaVuSans-20" transform="translate(437.703125 0)"/>
     <use xlink:href="#DejaVuSans-47" transform="translate(469.490234 0)"/>
     <use xlink:href="#DejaVuSans-72" transform="translate(546.980469 0)"/>
     <use xlink:href="#DejaVuSans-6f" transform="translate(585.84375 0)"/>
     <use xlink:href="#DejaVuSans-75" transform="translate(647.025391 0)"/>
     <use xlink:href="#DejaVuSans-6e" transform="translate(710.404297 0)"/>
     <use xlink:href="#DejaVuSans-64" transform="translate(773.783203 0)"/>
     <use xlink:href="#DejaVuSans-20" transform="translate(837.259766 0)"/>
     <use xlink:href="#DejaVuSans-54" transform="translate(869.046875 0)"/>
     <use xlink:href="#DejaVuSans-72" transform="translate(915.380859 0)"/>
     <use xlink:href="#DejaVuSans-75" transform="translate(956.494141 0)"/>
     <use xlink:href="#DejaVuSans-74" transform="translate(1019.873047 0)"/>
     <use xlink:href="#DejaVuSans-68" transform="translate(1059.082031 0)"/>
     <use xlink:href="#DejaVuSans-20" transform="translate(1122.460938 0)"/>
     <use xlink:href="#DejaVuSans-76" transform="translate(1154.248047 0)"/>
     <use xlink:href="#DejaVuSans-73" transform="translate(1213.427734 0)"/>
     <use xlink:href="#DejaVuSans-20" transform="translate(1265.527344 0)"/>
     <use xlink:href="#DejaVuSans-45" transform="translate(1297.314453 0)"/>
     <use xlink:href="#DejaVuSans-73" transform="translate(1360.498047 0)"/>
     <use xlink:href="#DejaVuSans-74" transform="translate(1412.597656 0)"/>
     <use xlink:href="#DejaVuSans-69" transform="translate(1451.806641 0)"/>
     <use xlink:href="#DejaVuSans-6d" transform="translate(1479.589844 0)"/>
     <use xlink:href="#DejaVuSans-61" transform="translate(1577.001953 0)"/>
     <use xlink:href="#DejaVuSans-74" transform="translate(1638.28125 0)"/>
     <use xlink:href="#DejaVuSans-65" transform="translate(1677.490234 0)"/>
     <use xlink:href="#DejaVuSans-64" transform="translate(1739.013672 0)"/>
     <use xlink:href="#DejaVuSans-20" transform="translate(1802.490234 0)"/>
     <use xlink:href="#DejaVuSans-54" transform="translate(1834.277344 0)"/>
     <use xlink:href="#DejaVuSans-72" transform="translate(1880.611328 0)"/>
     <use xlink:href="#DejaVuSans-61" transform="translate(1921.724609 0)"/>
     <use xlink:href="#DejaVuSans-6a" transform="translate(1983.003906 0)"/>
     <use xlink:href="#DejaVuSans-65" transform="translate(2010.787109 0)"/>
     <use xlink:href="#DejaVuSans-63" transform="translate(2072.310547 0)"/>
     <use xlink:href="#DejaVuSans-74" transform="translate(2127.291016 0)"/>
     <use xlink:href="#DejaVuSans-6f" transform="translate(2166.5 0)"/>
     <use xlink:href="#DejaVuSans-72" transform="translate(2227.681641 0)"/>
     <use xlink:href="#DejaVuSans-79" transform="translate(2268.794922 0)"/>
     <use xlink:href="#DejaVuSans-20" transform="translate(2327.974609 0)"/>
     <use xlink:href="#DejaVuSans-28" transform="translate(2359.761719 0)"/>
     <use xlink:href="#DejaVuSans-54" transform="translate(2398.775391 0)"/>
     <use xlink:href="#DejaVuSans-6f" transform="translate(2442.859375 0)"/>
     <use xlink:href="#DejaVuSans-70" transform="translate(2504.041016 0)"/>
     <use xlink:href="#DejaVuSans-2d" transform="translate(2567.517578 0)"/>
     <use xlink:href="#DejaVuSans-64" transform="translate(2603.601562 0)"/>
     <use xlink:href="#DejaVuSans-6f" transform="translate(2667.078125 0)"/>
     <use xlink:href="#DejaVuSans-77" transform="translate(2728.259766 0)"/>
     <use xlink:href="#DejaVuSans-6e" transform="translate(2810.046875 0)"/>
     <use xlink:href="#DejaVuSans-20" transform="translate(2873.425781 0)"/>
     <use xlink:href="#DejaVuSans-58" transform="translate(2905.212891 0)"/>
     <use xlink:href="#DejaVuSans-2d" transform="translate(2968.71875 0)"/>
     <use xlink:href="#DejaVuSans-5a" transform="translate(3004.802734 0)"/>
     <use xlink:href="#DejaVuSans-29" transform="translate(3073.308594 0)"/>
    </g>
   </g>
   <g id="legend_1">
    <g id="patch_7">
     <path d="M 502.323438 457.04 
L 702.2 457.04 
Q 704.2 457.04 704.2 455.04 
L 704.2 323.936875 
Q 704.2 321.936875 702.2 321.936875 
L 502.323438 321.936875 
Q 500.323438 321.936875 500.323438 323.936875 
L 500.323438 455.04 
Q 500.323438 457.04 502.323438 457.04 
z
" style="fill: #ffffff; opacity: 0.8; stroke: #cccccc; stroke-linejoin: miter"/>
    </g>
    <g id="line2d_30">
     <path d="M 504.323438 330.035313 
L 514.323438 330.035313 
L 524.323438 330.035313 
" style="fill: none; stroke: #000000; stroke-width: 2; stroke-linecap: square"/>
    </g>
    <g id="text_17">
     <!-- Ground Truth -->
     <g transform="translate(532.323438 333.535313) scale(0.1 -0.1)">
      <use xlink:href="#DejaVuSans-47"/>
      <use xlink:href="#DejaVuSans-72" transform="translate(77.490234 0)"/>
      <use xlink:href="#DejaVuSans-6f" transform="translate(116.353516 0)"/>
      <use xlink:href="#DejaVuSans-75" transform="translate(177.535156 0)"/>
      <use xlink:href="#DejaVuSans-6e" transform="translate(240.914062 0)"/>
      <use xlink:href="#DejaVuSans-64" transform="translate(304.292969 0)"/>
      <use xlink:href="#DejaVuSans-20" transform="translate(367.769531 0)"/>
      <use xlink:href="#DejaVuSans-54" transform="translate(399.556641 0)"/>
      <use xlink:href="#DejaVuSans-72" transform="translate(445.890625 0)"/>
      <use xlink:href="#DejaVuSans-75" transform="translate(487.003906 0)"/>
      <use xlink:href="#DejaVuSans-74" transform="translate(550.382812 0)"/>
      <use xlink:href="#DejaVuSans-68" transform="translate(589.591797 0)"/>
     </g>
    </g>
    <g id="line2d_31">
     <path d="M 504.323438 344.713438 
L 514.323438 344.713438 
L 524.323438 344.713438 
" style="fill: none; stroke-dasharray: 5.55,2.4; stroke-dashoffset: 0; stroke: #ff0000; stroke-width: 1.5"/>
    </g>
    <g id="text_18">
     <!-- Estimated -->
     <g transform="translate(532.323438 348.213438) scale(0.1 -0.1)">
      <use xlink:href="#DejaVuSans-45"/>
      <use xlink:href="#DejaVuSans-73" transform="translate(63.183594 0)"/>
      <use xlink:href="#DejaVuSans-74" transform="translate(115.283203 0)"/>
      <use xlink:href="#DejaVuSans-69" transform="translate(154.492188 0)"/>
      <use xlink:href="#DejaVuSans-6d" transform="translate(182.275391 0)"/>
      <use xlink:href="#DejaVuSans-61" transform="translate(279.6875 0)"/>
      <use xlink:href="#DejaVuSans-74" transform="translate(340.966797 0)"/>
      <use xlink:href="#DejaVuSans-65" transform="translate(380.175781 0)"/>
      <use xlink:href="#DejaVuSans-64" transform="translate(441.699219 0)"/>
     </g>
    </g>
    <g id="line2d_32">
     <path d="M 504.323438 359.391563 
L 514.323438 359.391563 
L 524.323438 359.391563 
" style="fill: none; stroke-dasharray: 9.6,2.4,1.5,2.4; stroke-dashoffset: 0; stroke: #0000ff; stroke-width: 1.5"/>
    </g>
    <g id="text_19">
     <!-- Estimated SLAM Corrected -->
     <g transform="translate(532.323438 362.891563) scale(0.1 -0.1)">
      <defs>
       <path id="DejaVuSans-53" d="M 3425 4513 
L 3425 3897 
Q 3066 4069 2747 4153 
Q 2428 4238 2131 4238 
Q 1616 4238 1336 4038 
Q 1056 3838 1056 3469 
Q 1056 3159 1242 3001 
Q 1428 2844 1947 2747 
L 2328 2669 
Q 3034 2534 3370 2195 
Q 3706 1856 3706 1288 
Q 3706 609 3251 259 
Q 2797 -91 1919 -91 
Q 1588 -91 1214 -16 
Q 841 59 441 206 
L 441 856 
Q 825 641 1194 531 
Q 1563 422 1919 422 
Q 2459 422 2753 634 
Q 3047 847 3047 1241 
Q 3047 1584 2836 1778 
Q 2625 1972 2144 2069 
L 1759 2144 
Q 1053 2284 737 2584 
Q 422 2884 422 3419 
Q 422 4038 858 4394 
Q 1294 4750 2059 4750 
Q 2388 4750 2728 4690 
Q 3069 4631 3425 4513 
z
" transform="scale(0.015625)"/>
       <path id="DejaVuSans-4c" d="M 628 4666 
L 1259 4666 
L 1259 531 
L 3531 531 
L 3531 0 
L 628 0 
L 628 4666 
z
" transform="scale(0.015625)"/>
       <path id="DejaVuSans-41" d="M 2188 4044 
L 1331 1722 
L 3047 1722 
L 2188 4044 
z
M 1831 4666 
L 2547 4666 
L 4325 0 
L 3669 0 
L 3244 1197 
L 1141 1197 
L 716 0 
L 50 0 
L 1831 4666 
z
" transform="scale(0.015625)"/>
       <path id="DejaVuSans-4d" d="M 628 4666 
L 1569 4666 
L 2759 1491 
L 3956 4666 
L 4897 4666 
L 4897 0 
L 4281 0 
L 4281 4097 
L 3078 897 
L 2444 897 
L 1241 4097 
L 1241 0 
L 628 0 
L 628 4666 
z
" transform="scale(0.015625)"/>
       <path id="DejaVuSans-43" d="M 4122 4306 
L 4122 3641 
Q 3803 3938 3442 4084 
Q 3081 4231 2675 4231 
Q 1875 4231 1450 3742 
Q 1025 3253 1025 2328 
Q 1025 1406 1450 917 
Q 1875 428 2675 428 
Q 3081 428 3442 575 
Q 3803 722 4122 1019 
L 4122 359 
Q 3791 134 3420 21 
Q 3050 -91 2638 -91 
Q 1578 -91 968 557 
Q 359 1206 359 2328 
Q 359 3453 968 4101 
Q 1578 4750 2638 4750 
Q 3056 4750 3426 4639 
Q 3797 4528 4122 4306 
z
" transform="scale(0.015625)"/>
      </defs>
      <use xlink:href="#DejaVuSans-45"/>
      <use xlink:href="#DejaVuSans-73" transform="translate(63.183594 0)"/>
      <use xlink:href="#DejaVuSans-74" transform="translate(115.283203 0)"/>
      <use xlink:href="#DejaVuSans-69" transform="translate(154.492188 0)"/>
      <use xlink:href="#DejaVuSans-6d" transform="translate(182.275391 0)"/>
      <use xlink:href="#DejaVuSans-61" transform="translate(279.6875 0)"/>
      <use xlink:href="#DejaVuSans-74" transform="translate(340.966797 0)"/>
      <use xlink:href="#DejaVuSans-65" transform="translate(380.175781 0)"/>
      <use xlink:href="#DejaVuSans-64" transform="translate(441.699219 0)"/>
      <use xlink:href="#DejaVuSans-20" transform="translate(505.175781 0)"/>
      <use xlink:href="#DejaVuSans-53" transform="translate(536.962891 0)"/>
      <use xlink:href="#DejaVuSans-4c" transform="translate(600.439453 0)"/>
      <use xlink:href="#DejaVuSans-41" transform="translate(658.402344 0)"/>
      <use xlink:href="#DejaVuSans-4d" transform="translate(726.810547 0)"/>
      <use xlink:href="#DejaVuSans-20" transform="translate(813.089844 0)"/>
      <use xlink:href="#DejaVuSans-43" transform="translate(844.876953 0)"/>
      <use xlink:href="#DejaVuSans-6f" transform="translate(914.701172 0)"/>
      <use xlink:href="#DejaVuSans-72" transform="translate(975.882812 0)"/>
      <use xlink:href="#DejaVuSans-72" transform="translate(1015.246094 0)"/>
      <use xlink:href="#DejaVuSans-65" transform="translate(1054.109375 0)"/>
      <use xlink:href="#DejaVuSans-63" transform="translate(1115.632812 0)"/>
      <use xlink:href="#DejaVuSans-74" transform="translate(1170.613281 0)"/>
      <use xlink:href="#DejaVuSans-65" transform="translate(1209.822266 0)"/>
      <use xlink:href="#DejaVuSans-64" transform="translate(1271.345703 0)"/>
     </g>
    </g>
    <g id="PathCollection_7">
     <g>
      <use xlink:href="#m029b72d551" x="514.323438" y="374.944688" style="fill: #008000; stroke: #008000"/>
     </g>
    </g>
    <g id="text_20">
     <!-- Start - Ground Truth -->
     <g transform="translate(532.323438 377.569688) scale(0.1 -0.1)">
      <use xlink:href="#DejaVuSans-53"/>
      <use xlink:href="#DejaVuSans-74" transform="translate(63.476562 0)"/>
      <use xlink:href="#DejaVuSans-61" transform="translate(102.685547 0)"/>
      <use xlink:href="#DejaVuSans-72" transform="translate(163.964844 0)"/>
      <use xlink:href="#DejaVuSans-74" transform="translate(205.078125 0)"/>
      <use xlink:href="#DejaVuSans-20" transform="translate(244.287109 0)"/>
      <use xlink:href="#DejaVuSans-2d" transform="translate(276.074219 0)"/>
      <use xlink:href="#DejaVuSans-20" transform="translate(312.158203 0)"/>
      <use xlink:href="#DejaVuSans-47" transform="translate(343.945312 0)"/>
      <use xlink:href="#DejaVuSans-72" transform="translate(421.435547 0)"/>
      <use xlink:href="#DejaVuSans-6f" transform="translate(460.298828 0)"/>
      <use xlink:href="#DejaVuSans-75" transform="translate(521.480469 0)"/>
      <use xlink:href="#DejaVuSans-6e" transform="translate(584.859375 0)"/>
      <use xlink:href="#DejaVuSans-64" transform="translate(648.238281 0)"/>
      <use xlink:href="#DejaVuSans-20" transform="translate(711.714844 0)"/>
      <use xlink:href="#DejaVuSans-54" transform="translate(743.501953 0)"/>
      <use xlink:href="#DejaVuSans-72" transform="translate(789.835938 0)"/>
      <use xlink:href="#DejaVuSans-75" transform="translate(830.949219 0)"/>
      <use xlink:href="#DejaVuSans-74" transform="translate(894.328125 0)"/>
      <use xlink:href="#DejaVuSans-68" transform="translate(933.537109 0)"/>
     </g>
    </g>
    <g id="PathCollection_8">
     <g>
      <use xlink:href="#me8da3ba423" x="514.323438" y="389.622813" style="fill: #ff0000; stroke: #ff0000"/>
     </g>
    </g>
    <g id="text_21">
     <!-- End - Ground Truth -->
     <g transform="translate(532.323438 392.247813) scale(0.1 -0.1)">
      <use xlink:href="#DejaVuSans-45"/>
      <use xlink:href="#DejaVuSans-6e" transform="translate(63.183594 0)"/>
      <use xlink:href="#DejaVuSans-64" transform="translate(126.5625 0)"/>
      <use xlink:href="#DejaVuSans-20" transform="translate(190.039062 0)"/>
      <use xlink:href="#DejaVuSans-2d" transform="translate(221.826172 0)"/>
      <use xlink:href="#DejaVuSans-20" transform="translate(257.910156 0)"/>
      <use xlink:href="#DejaVuSans-47" transform="translate(289.697266 0)"/>
      <use xlink:href="#DejaVuSans-72" transform="translate(367.1875 0)"/>
      <use xlink:href="#DejaVuSans-6f" transform="translate(406.050781 0)"/>
      <use xlink:href="#DejaVuSans-75" transform="translate(467.232422 0)"/>
      <use xlink:href="#DejaVuSans-6e" transform="translate(530.611328 0)"/>
      <use xlink:href="#DejaVuSans-64" transform="translate(593.990234 0)"/>
      <use xlink:href="#DejaVuSans-20" transform="translate(657.466797 0)"/>
      <use xlink:href="#DejaVuSans-54" transform="translate(689.253906 0)"/>
      <use xlink:href="#DejaVuSans-72" transform="translate(735.587891 0)"/>
      <use xlink:href="#DejaVuSans-75" transform="translate(776.701172 0)"/>
      <use xlink:href="#DejaVuSans-74" transform="translate(840.080078 0)"/>
      <use xlink:href="#DejaVuSans-68" transform="translate(879.289062 0)"/>
     </g>
    </g>
    <g id="PathCollection_9">
     <g>
      <use xlink:href="#me84af55821" x="514.323438" y="404.300938" style="fill: #00ffff; stroke: #00ffff; stroke-width: 1.5"/>
     </g>
    </g>
    <g id="text_22">
     <!-- Start - Estimated -->
     <g transform="translate(532.323438 406.925938) scale(0.1 -0.1)">
      <use xlink:href="#DejaVuSans-53"/>
      <use xlink:href="#DejaVuSans-74" transform="translate(63.476562 0)"/>
      <use xlink:href="#DejaVuSans-61" transform="translate(102.685547 0)"/>
      <use xlink:href="#DejaVuSans-72" transform="translate(163.964844 0)"/>
      <use xlink:href="#DejaVuSans-74" transform="translate(205.078125 0)"/>
      <use xlink:href="#DejaVuSans-20" transform="translate(244.287109 0)"/>
      <use xlink:href="#DejaVuSans-2d" transform="translate(276.074219 0)"/>
      <use xlink:href="#DejaVuSans-20" transform="translate(312.158203 0)"/>
      <use xlink:href="#DejaVuSans-45" transform="translate(343.945312 0)"/>
      <use xlink:href="#DejaVuSans-73" transform="translate(407.128906 0)"/>
      <use xlink:href="#DejaVuSans-74" transform="translate(459.228516 0)"/>
      <use xlink:href="#DejaVuSans-69" transform="translate(498.4375 0)"/>
      <use xlink:href="#DejaVuSans-6d" transform="translate(526.220703 0)"/>
      <use xlink:href="#DejaVuSans-61" transform="translate(623.632812 0)"/>
      <use xlink:href="#DejaVuSans-74" transform="translate(684.912109 0)"/>
      <use xlink:href="#DejaVuSans-65" transform="translate(724.121094 0)"/>
      <use xlink:href="#DejaVuSans-64" transform="translate(785.644531 0)"/>
     </g>
    </g>
    <g id="PathCollection_10">
     <g>
      <use xlink:href="#m8b9921a51b" x="514.323438" y="418.979063" style="fill: #ff00ff; stroke: #ff00ff; stroke-width: 1.5"/>
     </g>
    </g>
    <g id="text_23">
     <!-- End - Estimated -->
     <g transform="translate(532.323438 421.604063) scale(0.1 -0.1)">
      <use xlink:href="#DejaVuSans-45"/>
      <use xlink:href="#DejaVuSans-6e" transform="translate(63.183594 0)"/>
      <use xlink:href="#DejaVuSans-64" transform="translate(126.5625 0)"/>
      <use xlink:href="#DejaVuSans-20" transform="translate(190.039062 0)"/>
      <use xlink:href="#DejaVuSans-2d" transform="translate(221.826172 0)"/>
      <use xlink:href="#DejaVuSans-20" transform="translate(257.910156 0)"/>
      <use xlink:href="#DejaVuSans-45" transform="translate(289.697266 0)"/>
      <use xlink:href="#DejaVuSans-73" transform="translate(352.880859 0)"/>
      <use xlink:href="#DejaVuSans-74" transform="translate(404.980469 0)"/>
      <use xlink:href="#DejaVuSans-69" transform="translate(444.189453 0)"/>
      <use xlink:href="#DejaVuSans-6d" transform="translate(471.972656 0)"/>
      <use xlink:href="#DejaVuSans-61" transform="translate(569.384766 0)"/>
      <use xlink:href="#DejaVuSans-74" transform="translate(630.664062 0)"/>
      <use xlink:href="#DejaVuSans-65" transform="translate(669.873047 0)"/>
      <use xlink:href="#DejaVuSans-64" transform="translate(731.396484 0)"/>
     </g>
    </g>
    <g id="PathCollection_11">
     <g>
      <use xlink:href="#mcdf7d41f1f" x="514.323438" y="433.657188" style="fill: #0000ff; stroke: #0000ff; stroke-width: 1.5"/>
     </g>
    </g>
    <g id="text_24">
     <!-- Start - Estimated SLAM Corrected -->
     <g transform="translate(532.323438 436.282188) scale(0.1 -0.1)">
      <use xlink:href="#DejaVuSans-53"/>
      <use xlink:href="#DejaVuSans-74" transform="translate(63.476562 0)"/>
      <use xlink:href="#DejaVuSans-61" transform="translate(102.685547 0)"/>
      <use xlink:href="#DejaVuSans-72" transform="translate(163.964844 0)"/>
      <use xlink:href="#DejaVuSans-74" transform="translate(205.078125 0)"/>
      <use xlink:href="#DejaVuSans-20" transform="translate(244.287109 0)"/>
      <use xlink:href="#DejaVuSans-2d" transform="translate(276.074219 0)"/>
      <use xlink:href="#DejaVuSans-20" transform="translate(312.158203 0)"/>
      <use xlink:href="#DejaVuSans-45" transform="translate(343.945312 0)"/>
      <use xlink:href="#DejaVuSans-73" transform="translate(407.128906 0)"/>
      <use xlink:href="#DejaVuSans-74" transform="translate(459.228516 0)"/>
      <use xlink:href="#DejaVuSans-69" transform="translate(498.4375 0)"/>
      <use xlink:href="#DejaVuSans-6d" transform="translate(526.220703 0)"/>
      <use xlink:href="#DejaVuSans-61" transform="translate(623.632812 0)"/>
      <use xlink:href="#DejaVuSans-74" transform="translate(684.912109 0)"/>
      <use xlink:href="#DejaVuSans-65" transform="translate(724.121094 0)"/>
      <use xlink:href="#DejaVuSans-64" transform="translate(785.644531 0)"/>
      <use xlink:href="#DejaVuSans-20" transform="translate(849.121094 0)"/>
      <use xlink:href="#DejaVuSans-53" transform="translate(880.908203 0)"/>
      <use xlink:href="#DejaVuSans-4c" transform="translate(944.384766 0)"/>
      <use xlink:href="#DejaVuSans-41" transform="translate(1002.347656 0)"/>
      <use xlink:href="#DejaVuSans-4d" transform="translate(1070.755859 0)"/>
      <use xlink:href="#DejaVuSans-20" transform="translate(1157.035156 0)"/>
      <use xlink:href="#DejaVuSans-43" transform="translate(1188.822266 0)"/>
      <use xlink:href="#DejaVuSans-6f" transform="translate(1258.646484 0)"/>
      <use xlink:href="#DejaVuSans-72" transform="translate(1319.828125 0)"/>
      <use xlink:href="#DejaVuSans-72" transform="translate(1359.191406 0)"/>
      <use xlink:href="#DejaVuSans-65" transform="translate(1398.054688 0)"/>
      <use xlink:href="#DejaVuSans-63" transform="translate(1459.578125 0)"/>
      <use xlink:href="#DejaVuSans-74" transform="translate(1514.558594 0)"/>
      <use xlink:href="#DejaVuSans-65" transform="translate(1553.767578 0)"/>
      <use xlink:href="#DejaVuSans-64" transform="translate(1615.291016 0)"/>
     </g>
    </g>
    <g id="PathCollection_12">
     <g>
      <use xlink:href="#m62a826c410" x="514.323438" y="448.335312" style="fill: #800080; stroke: #800080; stroke-width: 1.5"/>
     </g>
    </g>
    <g id="text_25">
     <!-- End - Estimated SLAM Corrected -->
     <g transform="translate(532.323438 450.960312) scale(0.1 -0.1)">
      <use xlink:href="#DejaVuSans-45"/>
      <use xlink:href="#DejaVuSans-6e" transform="translate(63.183594 0)"/>
      <use xlink:href="#DejaVuSans-64" transform="translate(126.5625 0)"/>
      <use xlink:href="#DejaVuSans-20" transform="translate(190.039062 0)"/>
      <use xlink:href="#DejaVuSans-2d" transform="translate(221.826172 0)"/>
      <use xlink:href="#DejaVuSans-20" transform="translate(257.910156 0)"/>
      <use xlink:href="#DejaVuSans-45" transform="translate(289.697266 0)"/>
      <use xlink:href="#DejaVuSans-73" transform="translate(352.880859 0)"/>
      <use xlink:href="#DejaVuSans-74" transform="translate(404.980469 0)"/>
      <use xlink:href="#DejaVuSans-69" transform="translate(444.189453 0)"/>
      <use xlink:href="#DejaVuSans-6d" transform="translate(471.972656 0)"/>
      <use xlink:href="#DejaVuSans-61" transform="translate(569.384766 0)"/>
      <use xlink:href="#DejaVuSans-74" transform="translate(630.664062 0)"/>
      <use xlink:href="#DejaVuSans-65" transform="translate(669.873047 0)"/>
      <use xlink:href="#DejaVuSans-64" transform="translate(731.396484 0)"/>
      <use xlink:href="#DejaVuSans-20" transform="translate(794.873047 0)"/>
      <use xlink:href="#DejaVuSans-53" transform="translate(826.660156 0)"/>
      <use xlink:href="#DejaVuSans-4c" transform="translate(890.136719 0)"/>
      <use xlink:href="#DejaVuSans-41" transform="translate(948.099609 0)"/>
      <use xlink:href="#DejaVuSans-4d" transform="translate(1016.507812 0)"/>
      <use xlink:href="#DejaVuSans-20" transform="translate(1102.787109 0)"/>
      <use xlink:href="#DejaVuSans-43" transform="translate(1134.574219 0)"/>
      <use xlink:href="#DejaVuSans-6f" transform="translate(1204.398438 0)"/>
      <use xlink:href="#DejaVuSans-72" transform="translate(1265.580078 0)"/>
      <use xlink:href="#DejaVuSans-72" transform="translate(1304.943359 0)"/>
      <use xlink:href="#DejaVuSans-65" transform="translate(1343.806641 0)"/>
      <use xlink:href="#DejaVuSans-63" transform="translate(1405.330078 0)"/>
      <use xlink:href="#DejaVuSans-74" transform="translate(1460.310547 0)"/>
      <use xlink:href="#DejaVuSans-65" transform="translate(1499.519531 0)"/>
      <use xlink:href="#DejaVuSans-64" transform="translate(1561.042969 0)"/>
     </g>
    </g>
   </g>
  </g>
 </g>
 <defs>
  <clipPath id="p9c5b3e87b1">
   <rect x="50.87" y="26.88" width="658.33" height="435.16"/>
  </clipPath>
 </defs>
</svg>
