<?xml version="1.0" encoding="utf-8" standalone="no"?>
<!DOCTYPE svg PUBLIC "-//W3C//DTD SVG 1.1//EN"
  "http://www.w3.org/Graphics/SVG/1.1/DTD/svg11.dtd">
<svg xmlns:xlink="http://www.w3.org/1999/xlink" width="720pt" height="504pt" viewBox="0 0 720 504" xmlns="http://www.w3.org/2000/svg" version="1.1">
 <metadata>
  <rdf:RDF xmlns:dc="http://purl.org/dc/elements/1.1/" xmlns:cc="http://creativecommons.org/ns#" xmlns:rdf="http://www.w3.org/1999/02/22-rdf-syntax-ns#">
   <cc:Work>
    <dc:type rdf:resource="http://purl.org/dc/dcmitype/StillImage"/>
    <dc:date>2025-11-21T15:02:35.683682</dc:date>
    <dc:format>image/svg+xml</dc:format>
    <dc:creator>
     <cc:Agent>
      <dc:title>Matplotlib v3.10.3, https://matplotlib.org/</dc:title>
     </cc:Agent>
    </dc:creator>
   </cc:Work>
  </rdf:RDF>
 </metadata>
 <defs>
  <style type="text/css">*{stroke-linejoin: round; stroke-linecap: butt}</style>
 </defs>
 <g id="figure_1">
  <g id="patch_1">
   <path d="M 0 504 
L 720 504 
L 720 0 
L 0 0 
z
" style="fill: #ffffff"/>
  </g>
  <g id="axes_1">
   <g id="patch_2">
    <path d="M 50.87 462.04 
L 709.2 462.04 
L 709.2 26.88 
L 50.87 26.88 
z
" style="fill: #ffffff"/>
   </g>
   <g id="PathCollection_1">
    <defs>
     <path id="m28453913e8" d="M 0 4.472136 
C 1.186024 4.472136 2.323632 4.000923 3.162278 3.162278 
C 4.000923 2.323632 4.472136 1.186024 4.472136 0 
C 4.472136 -1.186024 4.000923 -2.323632 3.162278 -3.162278 
C 2.323632 -4.000923 1.186024 -4.472136 0 -4.472136 
C -1.186024 -4.472136 -2.323632 -4.000923 -3.162278 -3.162278 
C -4.000923 -2.323632 -4.472136 -1.186024 -4.472136 0 
C -4.472136 1.186024 -4.000923 2.323632 -3.162278 3.162278 
C -2.323632 4.000923 -1.186024 4.472136 0 4.472136 
z
" style="stroke: #008000"/>
    </defs>
    <g clip-path="url(#p53aa0914b4)">
     <use xlink:href="#m28453913e8" x="371.541152" y="407.56712" style="fill: #008000; stroke: #008000"/>
    </g>
   </g>
   <g id="PathCollection_2">
    <defs>
     <path id="ma3f366dfb8" d="M 0 4.472136 
C 1.186024 4.472136 2.323632 4.000923 3.162278 3.162278 
C 4.000923 2.323632 4.472136 1.186024 4.472136 0 
C 4.472136 -1.186024 4.000923 -2.323632 3.162278 -3.162278 
C 2.323632 -4.000923 1.186024 -4.472136 0 -4.472136 
C -1.186024 -4.472136 -2.323632 -4.000923 -3.162278 -3.162278 
C -4.000923 -2.323632 -4.472136 -1.186024 -4.472136 0 
C -4.472136 1.186024 -4.000923 2.323632 -3.162278 3.162278 
C -2.323632 4.000923 -1.186024 4.472136 0 4.472136 
z
" style="stroke: #ff0000"/>
    </defs>
    <g clip-path="url(#p53aa0914b4)">
     <use xlink:href="#ma3f366dfb8" x="361.409948" y="179.168482" style="fill: #ff0000; stroke: #ff0000"/>
    </g>
   </g>
   <g id="PathCollection_3">
    <defs>
     <path id="m98fde38773" d="M -4.472136 4.472136 
L 4.472136 -4.472136 
M -4.472136 -4.472136 
L 4.472136 4.472136 
" style="stroke: #00ffff; stroke-width: 1.5"/>
    </defs>
    <g clip-path="url(#p53aa0914b4)">
     <use xlink:href="#m98fde38773" x="371.541152" y="407.56712" style="fill: #00ffff; stroke: #00ffff; stroke-width: 1.5"/>
    </g>
   </g>
   <g id="PathCollection_4">
    <defs>
     <path id="m61690ed0f0" d="M -4.472136 4.472136 
L 4.472136 -4.472136 
M -4.472136 -4.472136 
L 4.472136 4.472136 
" style="stroke: #ff00ff; stroke-width: 1.5"/>
    </defs>
    <g clip-path="url(#p53aa0914b4)">
     <use xlink:href="#m61690ed0f0" x="350.938542" y="179.154534" style="fill: #ff00ff; stroke: #ff00ff; stroke-width: 1.5"/>
    </g>
   </g>
   <g id="PathCollection_5">
    <defs>
     <path id="m307f14d1af" d="M -4.472136 4.472136 
L 4.472136 -4.472136 
M -4.472136 -4.472136 
L 4.472136 4.472136 
" style="stroke: #0000ff; stroke-width: 1.5"/>
    </defs>
    <g clip-path="url(#p53aa0914b4)">
     <use xlink:href="#m307f14d1af" x="371.541152" y="407.56712" style="fill: #0000ff; stroke: #0000ff; stroke-width: 1.5"/>
    </g>
   </g>
   <g id="PathCollection_6">
    <defs>
     <path id="m6b2bc67fd3" d="M -4.472136 4.472136 
L 4.472136 -4.472136 
M -4.472136 -4.472136 
L 4.472136 4.472136 
" style="stroke: #800080; stroke-width: 1.5"/>
    </defs>
    <g clip-path="url(#p53aa0914b4)">
     <use xlink:href="#m6b2bc67fd3" x="351.055073" y="179.743817" style="fill: #800080; stroke: #800080; stroke-width: 1.5"/>
    </g>
   </g>
   <g id="matplotlib.axis_1">
    <g id="xtick_1">
     <g id="line2d_1">
      <path d="M 77.123565 462.04 
L 77.123565 26.88 
" clip-path="url(#p53aa0914b4)" style="fill: none; stroke: #b0b0b0; stroke-width: 0.8; stroke-linecap: square"/>
     </g>
     <g id="line2d_2">
      <defs>
       <path id="mc255d79891" d="M 0 0 
L 0 3.5 
" style="stroke: #000000; stroke-width: 0.8"/>
      </defs>
      <g>
       <use xlink:href="#mc255d79891" x="77.123565" y="462.04" style="stroke: #000000; stroke-width: 0.8"/>
      </g>
     </g>
     <g id="text_1">
      <!-- −400 -->
      <g transform="translate(63.389971 476.638438) scale(0.1 -0.1)">
       <defs>
        <path id="DejaVuSans-2212" d="M 678 2272 
L 4684 2272 
L 4684 1741 
L 678 1741 
L 678 2272 
z
" transform="scale(0.015625)"/>
        <path id="DejaVuSans-34" d="M 2419 4116 
L 825 1625 
L 2419 1625 
L 2419 4116 
z
M 2253 4666 
L 3047 4666 
L 3047 1625 
L 3713 1625 
L 3713 1100 
L 3047 1100 
L 3047 0 
L 2419 0 
L 2419 1100 
L 313 1100 
L 313 1709 
L 2253 4666 
z
" transform="scale(0.015625)"/>
        <path id="DejaVuSans-30" d="M 2034 4250 
Q 1547 4250 1301 3770 
Q 1056 3291 1056 2328 
Q 1056 1369 1301 889 
Q 1547 409 2034 409 
Q 2525 409 2770 889 
Q 3016 1369 3016 2328 
Q 3016 3291 2770 3770 
Q 2525 4250 2034 4250 
z
M 2034 4750 
Q 2819 4750 3233 4129 
Q 3647 3509 3647 2328 
Q 3647 1150 3233 529 
Q 2819 -91 2034 -91 
Q 1250 -91 836 529 
Q 422 1150 422 2328 
Q 422 3509 836 4129 
Q 1250 4750 2034 4750 
z
" transform="scale(0.015625)"/>
       </defs>
       <use xlink:href="#DejaVuSans-2212"/>
       <use xlink:href="#DejaVuSans-34" transform="translate(83.789062 0)"/>
       <use xlink:href="#DejaVuSans-30" transform="translate(147.412109 0)"/>
       <use xlink:href="#DejaVuSans-30" transform="translate(211.035156 0)"/>
      </g>
     </g>
    </g>
    <g id="xtick_2">
     <g id="line2d_3">
      <path d="M 150.727962 462.04 
L 150.727962 26.88 
" clip-path="url(#p53aa0914b4)" style="fill: none; stroke: #b0b0b0; stroke-width: 0.8; stroke-linecap: square"/>
     </g>
     <g id="line2d_4">
      <g>
       <use xlink:href="#mc255d79891" x="150.727962" y="462.04" style="stroke: #000000; stroke-width: 0.8"/>
      </g>
     </g>
     <g id="text_2">
      <!-- −300 -->
      <g transform="translate(136.994368 476.638438) scale(0.1 -0.1)">
       <defs>
        <path id="DejaVuSans-33" d="M 2597 2516 
Q 3050 2419 3304 2112 
Q 3559 1806 3559 1356 
Q 3559 666 3084 287 
Q 2609 -91 1734 -91 
Q 1441 -91 1130 -33 
Q 819 25 488 141 
L 488 750 
Q 750 597 1062 519 
Q 1375 441 1716 441 
Q 2309 441 2620 675 
Q 2931 909 2931 1356 
Q 2931 1769 2642 2001 
Q 2353 2234 1838 2234 
L 1294 2234 
L 1294 2753 
L 1863 2753 
Q 2328 2753 2575 2939 
Q 2822 3125 2822 3475 
Q 2822 3834 2567 4026 
Q 2313 4219 1838 4219 
Q 1578 4219 1281 4162 
Q 984 4106 628 3988 
L 628 4550 
Q 988 4650 1302 4700 
Q 1616 4750 1894 4750 
Q 2613 4750 3031 4423 
Q 3450 4097 3450 3541 
Q 3450 3153 3228 2886 
Q 3006 2619 2597 2516 
z
" transform="scale(0.015625)"/>
       </defs>
       <use xlink:href="#DejaVuSans-2212"/>
       <use xlink:href="#DejaVuSans-33" transform="translate(83.789062 0)"/>
       <use xlink:href="#DejaVuSans-30" transform="translate(147.412109 0)"/>
       <use xlink:href="#DejaVuSans-30" transform="translate(211.035156 0)"/>
      </g>
     </g>
    </g>
    <g id="xtick_3">
     <g id="line2d_5">
      <path d="M 224.332358 462.04 
L 224.332358 26.88 
" clip-path="url(#p53aa0914b4)" style="fill: none; stroke: #b0b0b0; stroke-width: 0.8; stroke-linecap: square"/>
     </g>
     <g id="line2d_6">
      <g>
       <use xlink:href="#mc255d79891" x="224.332358" y="462.04" style="stroke: #000000; stroke-width: 0.8"/>
      </g>
     </g>
     <g id="text_3">
      <!-- −200 -->
      <g transform="translate(210.598765 476.638438) scale(0.1 -0.1)">
       <defs>
        <path id="DejaVuSans-32" d="M 1228 531 
L 3431 531 
L 3431 0 
L 469 0 
L 469 531 
Q 828 903 1448 1529 
Q 2069 2156 2228 2338 
Q 2531 2678 2651 2914 
Q 2772 3150 2772 3378 
Q 2772 3750 2511 3984 
Q 2250 4219 1831 4219 
Q 1534 4219 1204 4116 
Q 875 4013 500 3803 
L 500 4441 
Q 881 4594 1212 4672 
Q 1544 4750 1819 4750 
Q 2544 4750 2975 4387 
Q 3406 4025 3406 3419 
Q 3406 3131 3298 2873 
Q 3191 2616 2906 2266 
Q 2828 2175 2409 1742 
Q 1991 1309 1228 531 
z
" transform="scale(0.015625)"/>
       </defs>
       <use xlink:href="#DejaVuSans-2212"/>
       <use xlink:href="#DejaVuSans-32" transform="translate(83.789062 0)"/>
       <use xlink:href="#DejaVuSans-30" transform="translate(147.412109 0)"/>
       <use xlink:href="#DejaVuSans-30" transform="translate(211.035156 0)"/>
      </g>
     </g>
    </g>
    <g id="xtick_4">
     <g id="line2d_7">
      <path d="M 297.936755 462.04 
L 297.936755 26.88 
" clip-path="url(#p53aa0914b4)" style="fill: none; stroke: #b0b0b0; stroke-width: 0.8; stroke-linecap: square"/>
     </g>
     <g id="line2d_8">
      <g>
       <use xlink:href="#mc255d79891" x="297.936755" y="462.04" style="stroke: #000000; stroke-width: 0.8"/>
      </g>
     </g>
     <g id="text_4">
      <!-- −100 -->
      <g transform="translate(284.203161 476.638438) scale(0.1 -0.1)">
       <defs>
        <path id="DejaVuSans-31" d="M 794 531 
L 1825 531 
L 1825 4091 
L 703 3866 
L 703 4441 
L 1819 4666 
L 2450 4666 
L 2450 531 
L 3481 531 
L 3481 0 
L 794 0 
L 794 531 
z
" transform="scale(0.015625)"/>
       </defs>
       <use xlink:href="#DejaVuSans-2212"/>
       <use xlink:href="#DejaVuSans-31" transform="translate(83.789062 0)"/>
       <use xlink:href="#DejaVuSans-30" transform="translate(147.412109 0)"/>
       <use xlink:href="#DejaVuSans-30" transform="translate(211.035156 0)"/>
      </g>
     </g>
    </g>
    <g id="xtick_5">
     <g id="line2d_9">
      <path d="M 371.541152 462.04 
L 371.541152 26.88 
" clip-path="url(#p53aa0914b4)" style="fill: none; stroke: #b0b0b0; stroke-width: 0.8; stroke-linecap: square"/>
     </g>
     <g id="line2d_10">
      <g>
       <use xlink:href="#mc255d79891" x="371.541152" y="462.04" style="stroke: #000000; stroke-width: 0.8"/>
      </g>
     </g>
     <g id="text_5">
      <!-- 0 -->
      <g transform="translate(368.359902 476.638438) scale(0.1 -0.1)">
       <use xlink:href="#DejaVuSans-30"/>
      </g>
     </g>
    </g>
    <g id="xtick_6">
     <g id="line2d_11">
      <path d="M 445.145549 462.04 
L 445.145549 26.88 
" clip-path="url(#p53aa0914b4)" style="fill: none; stroke: #b0b0b0; stroke-width: 0.8; stroke-linecap: square"/>
     </g>
     <g id="line2d_12">
      <g>
       <use xlink:href="#mc255d79891" x="445.145549" y="462.04" style="stroke: #000000; stroke-width: 0.8"/>
      </g>
     </g>
     <g id="text_6">
      <!-- 100 -->
      <g transform="translate(435.601799 476.638438) scale(0.1 -0.1)">
       <use xlink:href="#DejaVuSans-31"/>
       <use xlink:href="#DejaVuSans-30" transform="translate(63.623047 0)"/>
       <use xlink:href="#DejaVuSans-30" transform="translate(127.246094 0)"/>
      </g>
     </g>
    </g>
    <g id="xtick_7">
     <g id="line2d_13">
      <path d="M 518.749946 462.04 
L 518.749946 26.88 
" clip-path="url(#p53aa0914b4)" style="fill: none; stroke: #b0b0b0; stroke-width: 0.8; stroke-linecap: square"/>
     </g>
     <g id="line2d_14">
      <g>
       <use xlink:href="#mc255d79891" x="518.749946" y="462.04" style="stroke: #000000; stroke-width: 0.8"/>
      </g>
     </g>
     <g id="text_7">
      <!-- 200 -->
      <g transform="translate(509.206196 476.638438) scale(0.1 -0.1)">
       <use xlink:href="#DejaVuSans-32"/>
       <use xlink:href="#DejaVuSans-30" transform="translate(63.623047 0)"/>
       <use xlink:href="#DejaVuSans-30" transform="translate(127.246094 0)"/>
      </g>
     </g>
    </g>
    <g id="xtick_8">
     <g id="line2d_15">
      <path d="M 592.354342 462.04 
L 592.354342 26.88 
" clip-path="url(#p53aa0914b4)" style="fill: none; stroke: #b0b0b0; stroke-width: 0.8; stroke-linecap: square"/>
     </g>
     <g id="line2d_16">
      <g>
       <use xlink:href="#mc255d79891" x="592.354342" y="462.04" style="stroke: #000000; stroke-width: 0.8"/>
      </g>
     </g>
     <g id="text_8">
      <!-- 300 -->
      <g transform="translate(582.810592 476.638438) scale(0.1 -0.1)">
       <use xlink:href="#DejaVuSans-33"/>
       <use xlink:href="#DejaVuSans-30" transform="translate(63.623047 0)"/>
       <use xlink:href="#DejaVuSans-30" transform="translate(127.246094 0)"/>
      </g>
     </g>
    </g>
    <g id="xtick_9">
     <g id="line2d_17">
      <path d="M 665.958739 462.04 
L 665.958739 26.88 
" clip-path="url(#p53aa0914b4)" style="fill: none; stroke: #b0b0b0; stroke-width: 0.8; stroke-linecap: square"/>
     </g>
     <g id="line2d_18">
      <g>
       <use xlink:href="#mc255d79891" x="665.958739" y="462.04" style="stroke: #000000; stroke-width: 0.8"/>
      </g>
     </g>
     <g id="text_9">
      <!-- 400 -->
      <g transform="translate(656.414989 476.638438) scale(0.1 -0.1)">
       <use xlink:href="#DejaVuSans-34"/>
       <use xlink:href="#DejaVuSans-30" transform="translate(63.623047 0)"/>
       <use xlink:href="#DejaVuSans-30" transform="translate(127.246094 0)"/>
      </g>
     </g>
    </g>
    <g id="text_10">
     <!-- X (m) -->
     <g transform="translate(366.249063 490.316563) scale(0.1 -0.1)">
      <defs>
       <path id="DejaVuSans-58" d="M 403 4666 
L 1081 4666 
L 2241 2931 
L 3406 4666 
L 4084 4666 
L 2584 2425 
L 4184 0 
L 3506 0 
L 2194 1984 
L 872 0 
L 191 0 
L 1856 2491 
L 403 4666 
z
" transform="scale(0.015625)"/>
       <path id="DejaVuSans-20" transform="scale(0.015625)"/>
       <path id="DejaVuSans-28" d="M 1984 4856 
Q 1566 4138 1362 3434 
Q 1159 2731 1159 2009 
Q 1159 1288 1364 580 
Q 1569 -128 1984 -844 
L 1484 -844 
Q 1016 -109 783 600 
Q 550 1309 550 2009 
Q 550 2706 781 3412 
Q 1013 4119 1484 4856 
L 1984 4856 
z
" transform="scale(0.015625)"/>
       <path id="DejaVuSans-6d" d="M 3328 2828 
Q 3544 3216 3844 3400 
Q 4144 3584 4550 3584 
Q 5097 3584 5394 3201 
Q 5691 2819 5691 2113 
L 5691 0 
L 5113 0 
L 5113 2094 
Q 5113 2597 4934 2840 
Q 4756 3084 4391 3084 
Q 3944 3084 3684 2787 
Q 3425 2491 3425 1978 
L 3425 0 
L 2847 0 
L 2847 2094 
Q 2847 2600 2669 2842 
Q 2491 3084 2119 3084 
Q 1678 3084 1418 2786 
Q 1159 2488 1159 1978 
L 1159 0 
L 581 0 
L 581 3500 
L 1159 3500 
L 1159 2956 
Q 1356 3278 1631 3431 
Q 1906 3584 2284 3584 
Q 2666 3584 2933 3390 
Q 3200 3197 3328 2828 
z
" transform="scale(0.015625)"/>
       <path id="DejaVuSans-29" d="M 513 4856 
L 1013 4856 
Q 1481 4119 1714 3412 
Q 1947 2706 1947 2009 
Q 1947 1309 1714 600 
Q 1481 -109 1013 -844 
L 513 -844 
Q 928 -128 1133 580 
Q 1338 1288 1338 2009 
Q 1338 2731 1133 3434 
Q 928 4138 513 4856 
z
" transform="scale(0.015625)"/>
      </defs>
      <use xlink:href="#DejaVuSans-58"/>
      <use xlink:href="#DejaVuSans-20" transform="translate(68.505859 0)"/>
      <use xlink:href="#DejaVuSans-28" transform="translate(100.292969 0)"/>
      <use xlink:href="#DejaVuSans-6d" transform="translate(139.306641 0)"/>
      <use xlink:href="#DejaVuSans-29" transform="translate(236.71875 0)"/>
     </g>
    </g>
   </g>
   <g id="matplotlib.axis_2">
    <g id="ytick_1">
     <g id="line2d_19">
      <path d="M 50.87 407.56712 
L 709.2 407.56712 
" clip-path="url(#p53aa0914b4)" style="fill: none; stroke: #b0b0b0; stroke-width: 0.8; stroke-linecap: square"/>
     </g>
     <g id="line2d_20">
      <defs>
       <path id="m0060e74777" d="M 0 0 
L -3.5 0 
" style="stroke: #000000; stroke-width: 0.8"/>
      </defs>
      <g>
       <use xlink:href="#m0060e74777" x="50.87" y="407.56712" style="stroke: #000000; stroke-width: 0.8"/>
      </g>
     </g>
     <g id="text_11">
      <!-- 0 -->
      <g transform="translate(37.5075 411.366339) scale(0.1 -0.1)">
       <use xlink:href="#DejaVuSans-30"/>
      </g>
     </g>
    </g>
    <g id="ytick_2">
     <g id="line2d_21">
      <path d="M 50.87 333.962723 
L 709.2 333.962723 
" clip-path="url(#p53aa0914b4)" style="fill: none; stroke: #b0b0b0; stroke-width: 0.8; stroke-linecap: square"/>
     </g>
     <g id="line2d_22">
      <g>
       <use xlink:href="#m0060e74777" x="50.87" y="333.962723" style="stroke: #000000; stroke-width: 0.8"/>
      </g>
     </g>
     <g id="text_12">
      <!-- 100 -->
      <g transform="translate(24.7825 337.761942) scale(0.1 -0.1)">
       <use xlink:href="#DejaVuSans-31"/>
       <use xlink:href="#DejaVuSans-30" transform="translate(63.623047 0)"/>
       <use xlink:href="#DejaVuSans-30" transform="translate(127.246094 0)"/>
      </g>
     </g>
    </g>
    <g id="ytick_3">
     <g id="line2d_23">
      <path d="M 50.87 260.358327 
L 709.2 260.358327 
" clip-path="url(#p53aa0914b4)" style="fill: none; stroke: #b0b0b0; stroke-width: 0.8; stroke-linecap: square"/>
     </g>
     <g id="line2d_24">
      <g>
       <use xlink:href="#m0060e74777" x="50.87" y="260.358327" style="stroke: #000000; stroke-width: 0.8"/>
      </g>
     </g>
     <g id="text_13">
      <!-- 200 -->
      <g transform="translate(24.7825 264.157545) scale(0.1 -0.1)">
       <use xlink:href="#DejaVuSans-32"/>
       <use xlink:href="#DejaVuSans-30" transform="translate(63.623047 0)"/>
       <use xlink:href="#DejaVuSans-30" transform="translate(127.246094 0)"/>
      </g>
     </g>
    </g>
    <g id="ytick_4">
     <g id="line2d_25">
      <path d="M 50.87 186.75393 
L 709.2 186.75393 
" clip-path="url(#p53aa0914b4)" style="fill: none; stroke: #b0b0b0; stroke-width: 0.8; stroke-linecap: square"/>
     </g>
     <g id="line2d_26">
      <g>
       <use xlink:href="#m0060e74777" x="50.87" y="186.75393" style="stroke: #000000; stroke-width: 0.8"/>
      </g>
     </g>
     <g id="text_14">
      <!-- 300 -->
      <g transform="translate(24.7825 190.553149) scale(0.1 -0.1)">
       <use xlink:href="#DejaVuSans-33"/>
       <use xlink:href="#DejaVuSans-30" transform="translate(63.623047 0)"/>
       <use xlink:href="#DejaVuSans-30" transform="translate(127.246094 0)"/>
      </g>
     </g>
    </g>
    <g id="ytick_5">
     <g id="line2d_27">
      <path d="M 50.87 113.149533 
L 709.2 113.149533 
" clip-path="url(#p53aa0914b4)" style="fill: none; stroke: #b0b0b0; stroke-width: 0.8; stroke-linecap: square"/>
     </g>
     <g id="line2d_28">
      <g>
       <use xlink:href="#m0060e74777" x="50.87" y="113.149533" style="stroke: #000000; stroke-width: 0.8"/>
      </g>
     </g>
     <g id="text_15">
      <!-- 400 -->
      <g transform="translate(24.7825 116.948752) scale(0.1 -0.1)">
       <use xlink:href="#DejaVuSans-34"/>
       <use xlink:href="#DejaVuSans-30" transform="translate(63.623047 0)"/>
       <use xlink:href="#DejaVuSans-30" transform="translate(127.246094 0)"/>
      </g>
     </g>
    </g>
    <g id="ytick_6">
     <g id="line2d_29">
      <path d="M 50.87 39.545136 
L 709.2 39.545136 
" clip-path="url(#p53aa0914b4)" style="fill: none; stroke: #b0b0b0; stroke-width: 0.8; stroke-linecap: square"/>
     </g>
     <g id="line2d_30">
      <g>
       <use xlink:href="#m0060e74777" x="50.87" y="39.545136" style="stroke: #000000; stroke-width: 0.8"/>
      </g>
     </g>
     <g id="text_16">
      <!-- 500 -->
      <g transform="translate(24.7825 43.344355) scale(0.1 -0.1)">
       <defs>
        <path id="DejaVuSans-35" d="M 691 4666 
L 3169 4666 
L 3169 4134 
L 1269 4134 
L 1269 2991 
Q 1406 3038 1543 3061 
Q 1681 3084 1819 3084 
Q 2600 3084 3056 2656 
Q 3513 2228 3513 1497 
Q 3513 744 3044 326 
Q 2575 -91 1722 -91 
Q 1428 -91 1123 -41 
Q 819 9 494 109 
L 494 744 
Q 775 591 1075 516 
Q 1375 441 1709 441 
Q 2250 441 2565 725 
Q 2881 1009 2881 1497 
Q 2881 1984 2565 2268 
Q 2250 2553 1709 2553 
Q 1456 2553 1204 2497 
Q 953 2441 691 2322 
L 691 4666 
z
" transform="scale(0.015625)"/>
       </defs>
       <use xlink:href="#DejaVuSans-35"/>
       <use xlink:href="#DejaVuSans-30" transform="translate(63.623047 0)"/>
       <use xlink:href="#DejaVuSans-30" transform="translate(127.246094 0)"/>
      </g>
     </g>
    </g>
    <g id="text_17">
     <!-- Z (m) -->
     <g transform="translate(18.702813 258.245937) rotate(-90) scale(0.1 -0.1)">
      <defs>
       <path id="DejaVuSans-5a" d="M 359 4666 
L 4025 4666 
L 4025 4184 
L 1075 531 
L 4097 531 
L 4097 0 
L 288 0 
L 288 481 
L 3238 4134 
L 359 4134 
L 359 4666 
z
" transform="scale(0.015625)"/>
      </defs>
      <use xlink:href="#DejaVuSans-5a"/>
      <use xlink:href="#DejaVuSans-20" transform="translate(68.505859 0)"/>
      <use xlink:href="#DejaVuSans-28" transform="translate(100.292969 0)"/>
      <use xlink:href="#DejaVuSans-6d" transform="translate(139.306641 0)"/>
      <use xlink:href="#DejaVuSans-29" transform="translate(236.71875 0)"/>
     </g>
    </g>
   </g>
   <g id="line2d_31">
    <path d="M 371.541152 407.56712 
L 371.512925 397.619751 
L 370.949565 396.586743 
L 370.342667 395.910215 
L 368.615097 394.83897 
L 367.586936 394.465545 
L 366.380647 394.203697 
L 364.98831 394.074389 
L 362.310101 394.152616 
L 350.622525 394.732994 
L 344.916933 395.118416 
L 337.591418 395.882673 
L 326.031671 397.236912 
L 318.25427 397.671105 
L 232.876062 399.645594 
L 226.165329 399.820162 
L 218.616977 399.998726 
L 212.607031 399.914891 
L 201.538843 400.043559 
L 188.405684 400.154686 
L 178.287656 400.540091 
L 138.222943 401.838826 
L 104.327014 402.830168 
L 99.760523 402.917901 
L 97.590371 402.757308 
L 95.727076 402.334326 
L 94.521289 401.868747 
L 93.417812 401.212243 
L 92.149093 400.135719 
L 91.049222 398.773978 
L 90.180911 397.172177 
L 89.473205 395.310877 
L 88.940383 393.18474 
L 88.534381 390.823401 
L 88.222372 387.551001 
L 87.589668 380.101102 
L 87.288406 376.297764 
L 87.107633 368.986787 
L 87.089453 359.970027 
L 87.343756 358.29976 
L 87.980802 356.268639 
L 89.132932 354.039316 
L 90.43308 352.130938 
L 92.010275 350.623476 
L 93.513571 349.771292 
L 94.806064 349.275662 
L 96.684964 348.809982 
L 99.294387 348.480123 
L 102.714047 348.232555 
L 107.052437 348.156559 
L 113.59447 348.340938 
L 118.851885 348.400513 
L 125.953752 348.143111 
L 132.325464 347.930784 
L 138.619376 347.720791 
L 163.637878 346.40972 
L 172.472835 346.455347 
L 178.935669 346.559726 
L 183.47419 346.368332 
L 189.414212 345.804964 
L 194.080951 345.421478 
L 197.999134 345.325424 
L 201.815154 345.477329 
L 212.09997 346.018388 
L 213.309879 345.819965 
L 214.689373 345.263118 
L 215.854236 344.467536 
L 216.887347 343.390725 
L 217.783113 341.857097 
L 218.355608 340.258108 
L 218.711338 338.88094 
L 218.927072 337.365035 
L 219.04403 335.08221 
L 218.977123 331.278371 
L 218.811145 325.714026 
L 218.890933 320.056571 
L 219.071263 312.639309 
L 218.945253 306.978027 
L 218.742325 304.830177 
L 218.413387 303.306934 
L 217.858042 301.877536 
L 217.074082 300.621993 
L 216.338111 299.74794 
L 215.448897 298.928503 
L 214.404303 298.212921 
L 213.614969 297.82164 
L 212.27927 297.343064 
L 210.8155 297.025829 
L 208.144323 296.773955 
L 192.857573 296.168191 
L 188.097576 296.191008 
L 182.538236 296.46857 
L 164.693365 297.674799 
L 146.442493 298.168758 
L 131.245614 298.603686 
L 112.108986 299.152186 
L 97.536493 299.696491 
L 94.960854 299.598376 
L 92.801301 299.270984 
L 91.021105 298.750086 
L 89.496979 297.920785 
L 88.211258 296.829158 
L 87.288626 295.668638 
L 86.627144 294.578188 
L 86.100725 293.292467 
L 85.714523 291.840694 
L 85.385732 289.693212 
L 85.19517 286.69133 
L 84.983705 276.893186 
L 84.751041 260.445916 
L 85.004388 258.475011 
L 85.587187 256.652345 
L 86.251246 255.390692 
L 87.439074 253.936049 
L 88.158925 253.298414 
L 88.941266 252.673954 
L 91.220279 251.507913 
L 93.866136 250.717917 
L 96.851678 250.195179 
L 100.824843 249.770113 
L 108.057726 249.248111 
L 114.152244 249.050851 
L 121.774715 249.020673 
L 127.792905 249.291538 
L 135.264119 249.608993 
L 139.749424 249.563211 
L 145.767688 249.256428 
L 162.619267 248.3455 
L 171.047412 248.158619 
L 188.205112 247.812384 
L 197.026526 247.464529 
L 204.391455 247.29443 
L 207.444786 247.3698 
L 209.46692 247.651043 
L 211.083125 248.087517 
L 212.189105 248.561308 
L 213.128592 249.179953 
L 213.97092 250.005427 
L 214.70667 251.163003 
L 215.258114 252.678738 
L 215.603981 254.58995 
L 215.700918 256.398042 
L 215.794911 269.283522 
L 216.403472 285.122379 
L 217.252793 297.562479 
L 218.10918 304.763344 
L 218.157244 307.648416 
L 217.882111 314.988982 
L 217.70546 320.883958 
L 217.77509 325.292052 
L 218.451588 343.026207 
L 218.974032 347.514184 
L 219.486171 351.586369 
L 219.630436 354.176522 
L 219.522606 356.95146 
L 218.713472 366.267495 
L 218.736363 371.787361 
L 219.213688 391.872771 
L 219.510019 393.260847 
L 219.945978 394.427043 
L 220.63889 395.579687 
L 221.609658 396.607882 
L 222.53251 397.307146 
L 224.010266 398.10543 
L 226.379665 398.997655 
L 228.223381 399.526561 
L 230.042956 399.801834 
L 232.172184 399.836333 
L 238.438347 399.611699 
L 245.224819 399.117961 
L 250.567836 398.556536 
L 257.24162 397.802467 
L 260.325792 397.618029 
L 263.462811 397.639013 
L 271.53368 397.825446 
L 297.700191 397.776506 
L 334.103615 396.444252 
L 347.242869 395.677118 
L 349.888431 395.542613 
L 361.666688 395.280949 
L 362.504578 395.040668 
L 363.596367 394.426446 
L 364.343912 393.825017 
L 365.284791 392.676759 
L 366.24004 391.093131 
L 366.970744 389.437673 
L 367.565847 387.42739 
L 367.87157 385.646951 
L 368.018884 383.682839 
L 368.008865 380.086867 
L 367.794406 375.40141 
L 366.663229 354.479699 
L 366.668618 349.721749 
L 366.880118 348.159724 
L 367.323903 346.924119 
L 367.888761 345.945939 
L 368.538871 345.211551 
L 369.603247 344.498884 
L 370.261991 344.248783 
L 372.057552 343.952791 
L 379.949071 343.532296 
L 384.578758 343.648488 
L 387.201687 343.3761 
L 390.101664 343.11978 
L 393.741467 343.040913 
L 403.638793 342.934864 
L 414.680049 342.630068 
L 440.548233 342.251992 
L 446.918973 342.14383 
L 450.858428 342.136565 
L 451.508134 341.872716 
L 452.050304 341.426938 
L 452.674027 340.537252 
L 453.133098 339.505098 
L 453.416475 338.408819 
L 453.523348 337.028759 
L 453.373784 333.59529 
L 453.130227 328.907868 
L 452.644806 320.601833 
L 452.016225 310.673262 
L 451.595723 298.776951 
L 452.000105 295.058236 
L 452.200015 292.690751 
L 452.273693 290.357786 
L 452.256838 287.322267 
L 452.161962 276.849981 
L 452.133992 239.653189 
L 451.835452 237.390148 
L 451.032796 232.890049 
L 450.758105 230.130252 
L 450.559667 225.351119 
L 449.982241 200.118501 
L 450.249425 198.976897 
L 450.858648 197.704718 
L 451.582548 196.776861 
L 452.411333 195.766199 
L 452.918468 194.680903 
L 452.949897 193.890244 
L 452.778766 193.146987 
L 452.460575 192.405202 
L 451.863422 191.327486 
L 451.104046 189.996719 
L 450.525883 188.441016 
L 450.122016 186.840047 
L 449.764298 184.423615 
L 449.201887 177.9769 
L 449.151689 172.126013 
L 449.040252 161.513731 
L 448.542613 145.276159 
L 448.5736 143.597096 
L 448.80538 142.261102 
L 449.25525 141.094546 
L 449.912832 140.088448 
L 450.775402 139.243249 
L 451.431659 138.757754 
L 453.57524 137.58818 
L 455.177239 136.964088 
L 457.042301 136.511716 
L 458.615816 136.292154 
L 460.906605 136.176301 
L 466.767135 136.153483 
L 475.054916 136.082676 
L 484.076018 135.73887 
L 493.379099 135.311743 
L 515.258374 134.665938 
L 532.251126 134.125829 
L 555.888516 133.380806 
L 569.202079 133.000345 
L 591.932295 132.307801 
L 606.026065 132.18282 
L 613.522967 132.100678 
L 616.426366 131.845786 
L 618.534322 131.487627 
L 621.264236 130.731783 
L 623.254204 129.988453 
L 625.82101 128.784653 
L 628.322382 127.396842 
L 635.618344 123.093119 
L 638.088066 121.975878 
L 640.000382 121.304606 
L 641.960026 120.795411 
L 644.613611 120.359893 
L 647.384007 120.169405 
L 650.918343 120.159763 
L 654.583916 120.376675 
L 663.010809 121.175283 
L 668.255712 121.830068 
L 670.884125 122.327707 
L 672.583135 122.860676 
L 673.56487 123.310252 
L 674.422582 123.808848 
L 675.205292 124.348074 
L 675.966508 124.896648 
L 677.352258 126.739113 
L 677.82627 127.489804 
L 678.595289 129.691532 
L 678.873661 132.58183 
L 678.912598 136.453789 
L 678.881242 148.103304 
L 679.108459 153.8008 
L 679.27267 157.870313 
L 679.203777 161.871596 
L 678.826701 168.102281 
L 678.496071 169.975292 
L 677.798006 172.415793 
L 676.885017 174.78799 
L 676.063519 176.485012 
L 674.169751 179.727801 
L 671.801971 183.301663 
L 669.605837 186.224199 
L 666.61345 190.193537 
L 663.385309 194.804337 
L 658.902506 202.011533 
L 654.950981 208.992321 
L 649.783584 217.967346 
L 647.017899 222.483565 
L 641.938975 230.938944 
L 637.691412 237.929374 
L 634.436773 243.449704 
L 632.092841 247.219279 
L 625.677923 257.089703 
L 622.340626 262.599654 
L 618.995159 268.111078 
L 607.819436 286.977062 
L 605.161581 291.287262 
L 602.399355 295.745407 
L 599.429859 300.413692 
L 597.01431 304.080663 
L 593.088178 309.751588 
L 588.290128 317.141984 
L 580.365879 330.046234 
L 574.780041 339.103924 
L 558.494701 364.980117 
L 557.694694 366.780304 
L 557.076344 368.616873 
L 556.623971 370.485593 
L 556.311447 372.960961 
L 556.184332 375.938987 
L 556.025494 380.758787 
L 555.714 382.224015 
L 555.037208 384.058906 
L 554.341941 385.270317 
L 553.165448 386.670788 
L 552.128509 387.526145 
L 550.975275 388.200707 
L 549.754105 388.686415 
L 548.326695 388.985926 
L 547.112001 389.02869 
L 545.800297 388.763081 
L 544.69763 388.13617 
L 543.69742 386.981921 
L 543.411688 386.4907 
L 542.741814 384.69175 
L 542.535574 383.62227 
L 542.281271 381.635592 
L 541.935625 375.721898 
L 541.669398 367.213245 
L 541.3568 359.465904 
L 541.08174 355.107132 
L 540.213871 337.354083 
L 539.931377 331.438387 
L 539.56549 323.007887 
L 539.338052 316.007667 
L 538.574039 296.878915 
L 537.890107 275.371636 
L 537.199256 255.474454 
L 536.902409 246.704269 
L 536.350671 240.557125 
L 534.580043 211.056482 
L 534.226521 203.187804 
L 534.397872 199.558592 
L 534.523294 197.149594 
L 534.414581 195.397809 
L 534.233808 194.350861 
L 533.610968 192.774917 
L 533.094044 191.941421 
L 531.768208 190.515262 
L 531.010745 189.932609 
L 530.117777 189.403615 
L 527.871444 188.691786 
L 524.94935 188.55687 
L 513.463825 188.871749 
L 499.287765 189.422163 
L 494.846403 189.518069 
L 465.449174 190.297834 
L 460.479553 190.751532 
L 450.159112 192.136399 
L 446.268899 192.559256 
L 441.52107 192.864493 
L 409.421787 193.8385 
L 378.013242 194.467597 
L 375.282343 194.283218 
L 371.992388 193.798386 
L 369.056773 193.181949 
L 367.239632 192.653543 
L 365.775484 191.994342 
L 365.021335 191.419345 
L 363.797624 189.936805 
L 363.211136 188.940054 
L 362.533718 187.240308 
L 361.92063 184.645458 
L 361.596705 182.077769 
L 361.409948 179.168482 
L 361.409948 179.168482 
" clip-path="url(#p53aa0914b4)" style="fill: none; stroke: #000000; stroke-width: 2; stroke-linecap: square"/>
   </g>
   <g id="line2d_32">
    <path d="M 371.541152 407.56712 
L 371.479127 401.338105 
L 371.430458 396.462318 
L 371.117677 395.471798 
L 370.658509 394.669231 
L 369.964364 393.864524 
L 368.99747 393.131636 
L 368.061481 392.646833 
L 366.93821 392.27078 
L 365.159673 392.013098 
L 363.119713 392.011041 
L 346.843385 392.673025 
L 327.139056 394.414277 
L 311.59974 394.753951 
L 294.354223 395.008783 
L 279.007196 395.372751 
L 266.795103 395.687796 
L 249.487523 396.023937 
L 243.185968 396.120995 
L 226.811063 396.363132 
L 219.25386 396.596547 
L 197.967193 396.70922 
L 190.865128 396.818214 
L 182.566554 397.0854 
L 167.049386 397.672646 
L 144.365233 398.500152 
L 137.016128 398.767094 
L 116.009698 399.393106 
L 107.164821 399.658413 
L 102.792287 399.831626 
L 98.52574 399.725158 
L 96.93983 399.49728 
L 95.166482 398.918289 
L 93.961219 398.319669 
L 92.862607 397.557568 
L 91.919531 396.648745 
L 91.062579 395.605159 
L 90.134208 393.947613 
L 89.397833 392.037851 
L 88.586417 388.709784 
L 88.222066 386.251439 
L 87.725216 380.642021 
L 87.015666 367.250283 
L 86.802447 360.525848 
L 86.778949 358.046163 
L 86.905674 355.686097 
L 87.190499 354.050639 
L 87.784856 352.043555 
L 88.585962 350.266038 
L 89.359578 349.078364 
L 90.286628 348.062608 
L 91.331812 347.203153 
L 92.465965 346.550031 
L 94.139904 345.82861 
L 96.024241 345.335176 
L 99.141048 344.889645 
L 102.607265 344.6518 
L 108.913554 344.623649 
L 118.17443 344.691115 
L 147.251336 343.300019 
L 152.966117 342.826635 
L 159.540446 342.324447 
L 166.534819 342.115265 
L 173.915823 342.063182 
L 179.778729 341.950038 
L 183.711446 341.674266 
L 195.606638 340.4979 
L 198.85389 340.459681 
L 206.012613 340.699166 
L 211.252568 340.789909 
L 212.479034 340.609332 
L 213.668078 340.219637 
L 214.933505 339.512707 
L 216.049105 338.566331 
L 216.85702 337.511259 
L 217.540364 336.270738 
L 218.025982 334.69941 
L 218.345545 332.791081 
L 218.396925 330.017387 
L 218.048154 324.227653 
L 217.795768 319.20301 
L 217.544328 308.09804 
L 217.005946 300.756365 
L 216.620182 298.806748 
L 216.244637 297.728776 
L 215.613887 296.468649 
L 214.553849 295.038207 
L 213.094357 293.798783 
L 211.998767 293.156082 
L 210.706822 292.676387 
L 209.288729 292.382806 
L 207.237369 292.217051 
L 196.740496 292.255376 
L 190.121833 292.340909 
L 184.542185 292.712405 
L 178.273035 293.483497 
L 168.292854 294.82363 
L 162.826308 295.315203 
L 151.128017 296.180583 
L 136.785892 297.439118 
L 115.306709 299.060806 
L 104.306251 300.221042 
L 99.813619 300.653053 
L 94.997346 301.007424 
L 92.905752 301.022442 
L 91.059808 300.861731 
L 89.11557 300.505997 
L 87.814358 299.955803 
L 86.628938 299.206662 
L 85.561449 298.297891 
L 84.58047 297.111334 
L 83.948668 295.99044 
L 83.373119 294.646281 
L 82.996572 293.255858 
L 82.592486 291.092844 
L 82.218571 286.015172 
L 81.559342 275.327585 
L 80.823567 264.154507 
L 80.836892 261.497282 
L 81.019498 259.986088 
L 81.482837 258.582119 
L 82.35802 256.825331 
L 83.256243 255.663393 
L 84.349002 254.601867 
L 86.48512 253.212154 
L 87.853871 252.643293 
L 89.972014 252.005475 
L 92.300737 251.461537 
L 94.752051 251.01736 
L 100.817816 250.213 
L 105.924242 249.70922 
L 116.461379 249.035224 
L 123.10271 249.03211 
L 128.215619 249.051191 
L 131.808946 248.863165 
L 141.450824 248.005652 
L 153.225443 246.776999 
L 161.388321 246.132058 
L 178.247441 245.062055 
L 193.254118 243.930262 
L 194.740422 243.806624 
L 201.727888 243.552565 
L 203.595781 243.840279 
L 205.125286 244.282565 
L 206.439971 244.902721 
L 207.587772 245.720864 
L 208.276015 246.570575 
L 208.85258 247.60994 
L 209.293189 248.869318 
L 209.576161 250.903801 
L 209.697004 253.769515 
L 209.757135 257.809966 
L 210.596925 273.372563 
L 211.025944 279.278262 
L 212.730573 294.908482 
L 213.266208 298.439118 
L 213.663925 302.731376 
L 213.679291 305.17026 
L 213.685957 320.240315 
L 214.045545 325.28986 
L 214.300132 328.592481 
L 215.238424 340.119688 
L 216.817271 349.366477 
L 216.994403 352.0834 
L 216.912586 354.962049 
L 216.7455 359.756575 
L 216.855606 365.133222 
L 217.327642 372.600665 
L 217.62617 377.90891 
L 218.132961 386.494575 
L 218.393225 388.5247 
L 218.783455 390.086063 
L 219.168502 391.04114 
L 219.747891 391.993348 
L 220.481399 392.80836 
L 221.504887 393.605002 
L 222.930491 394.359678 
L 224.793929 395.02271 
L 227.019234 395.60502 
L 228.861921 395.844993 
L 230.655991 395.855717 
L 234.520257 395.591072 
L 242.13796 394.556671 
L 247.826755 393.697757 
L 258.869765 391.810136 
L 262.782936 391.510894 
L 269.243528 391.263421 
L 273.369202 391.025633 
L 308.776328 388.228454 
L 333.542826 385.4974 
L 349.132043 383.618693 
L 360.881797 382.417864 
L 361.978732 381.96654 
L 363.053003 381.155217 
L 363.642997 380.515552 
L 364.204873 379.753178 
L 364.67081 378.825876 
L 365.312273 376.925263 
L 365.771393 373.868048 
L 365.878878 372.692393 
L 365.810141 370.087384 
L 365.548041 367.203497 
L 363.924697 354.127355 
L 362.933742 346.020259 
L 362.294417 340.325419 
L 362.005068 336.950689 
L 362.035199 335.744395 
L 362.250488 334.72434 
L 362.649379 333.605357 
L 363.182515 332.741422 
L 363.862354 332.058544 
L 364.779239 331.40049 
L 366.220099 330.921995 
L 368.288064 330.599449 
L 371.321091 330.163735 
L 374.121718 329.927856 
L 378.639509 329.605688 
L 383.187402 328.820218 
L 389.486621 328.172853 
L 394.23873 327.732216 
L 444.350619 322.410776 
L 444.938693 322.029825 
L 445.565523 321.339512 
L 446.047078 320.437346 
L 446.413007 319.296076 
L 446.546089 318.145154 
L 446.444695 316.00091 
L 446.12145 312.605627 
L 445.148456 303.79757 
L 442.678383 285.151983 
L 441.664242 275.970958 
L 441.519273 273.332278 
L 438.79901 246.043812 
L 437.427641 235.110843 
L 437.203787 231.940882 
L 435.94801 221.743553 
L 435.53615 219.20679 
L 435.207969 217.840252 
L 434.280641 214.407897 
L 433.615225 211.223901 
L 433.061273 207.084109 
L 430.089174 180.8921 
L 430.305059 179.153637 
L 430.854803 177.566722 
L 431.631492 176.3195 
L 432.263828 175.291566 
L 432.530497 174.547146 
L 432.535763 173.835279 
L 432.312986 173.050444 
L 431.97125 172.482016 
L 430.622942 170.56654 
L 429.914802 169.060658 
L 429.257908 167.104181 
L 428.601826 164.18469 
L 427.580544 158.744483 
L 427.010327 153.605521 
L 425.885573 143.619431 
L 425.385481 139.360454 
L 425.029362 136.599672 
L 423.837277 128.095517 
L 423.453746 124.450542 
L 423.473908 123.256645 
L 423.7549 121.7007 
L 424.249701 120.549682 
L 424.815211 119.78318 
L 425.759308 118.781174 
L 427.752424 117.384407 
L 429.682924 116.420534 
L 431.567381 115.811704 
L 433.728902 115.388087 
L 436.829774 115.04092 
L 439.460778 114.777709 
L 456.326513 112.87618 
L 495.523438 107.969968 
L 512.676354 105.815251 
L 585.452477 96.857944 
L 588.776658 96.036856 
L 590.656737 95.396885 
L 593.015962 94.320367 
L 595.384337 92.956435 
L 598.18047 91.065793 
L 603.786917 86.89043 
L 606.108828 85.430185 
L 609.100929 83.928415 
L 611.599346 83.01838 
L 614.254522 82.316866 
L 616.950779 81.882767 
L 619.740524 81.601107 
L 625.604639 81.398254 
L 637.551567 81.48574 
L 639.530823 81.636453 
L 641.238427 82.010729 
L 642.757745 82.540661 
L 644.425705 83.465503 
L 645.50922 84.377618 
L 646.431336 85.425124 
L 647.18883 86.584657 
L 647.786802 87.873022 
L 648.214794 89.2466 
L 648.601299 91.231803 
L 649.006944 94.699471 
L 649.484844 99.941059 
L 650.921111 112.132955 
L 651.564541 116.129802 
L 651.923893 120.104911 
L 652.221731 126.393222 
L 652.118981 129.570493 
L 651.804303 131.442709 
L 651.009078 134.512969 
L 649.65003 138.048121 
L 648.095621 141.395734 
L 646.12896 145.121882 
L 643.651002 149.393466 
L 642.228966 152.133588 
L 639.971079 157.115028 
L 635.312227 168.414421 
L 631.894354 176.969616 
L 630.176317 180.766661 
L 612.515485 217.959072 
L 605.198743 233.19535 
L 602.838896 238.367513 
L 591.847936 262.749141 
L 577.645229 293.252633 
L 575.248939 298.569598 
L 568.316808 313.257003 
L 564.171859 322.085386 
L 559.072256 332.961345 
L 557.789726 336.075569 
L 557.195279 338.017027 
L 556.729618 339.929904 
L 556.445752 341.845962 
L 556.306934 343.759414 
L 556.384049 346.200567 
L 556.891045 353.450325 
L 556.697252 354.924872 
L 556.35815 356.379868 
L 555.818535 357.7389 
L 555.086224 358.972254 
L 554.215421 359.998272 
L 552.871378 361.164348 
L 551.792576 361.764299 
L 550.460351 362.241556 
L 549.105873 362.420426 
L 548.083988 362.291848 
L 547.190651 361.968658 
L 546.411756 361.460876 
L 545.879743 360.920892 
L 545.267566 359.976419 
L 544.62832 358.439306 
L 544.037898 355.775803 
L 542.826872 347.13181 
L 541.837869 338.18125 
L 541.358203 333.92623 
L 540.60077 328.146738 
L 531.267685 257.498588 
L 527.942609 233.986517 
L 524.142291 205.344933 
L 522.241499 192.130431 
L 520.444181 178.549847 
L 519.912986 171.562113 
L 519.503702 170.367865 
L 518.780716 169.149834 
L 517.946118 168.193616 
L 516.569002 167.096088 
L 515.107173 166.419923 
L 514.090731 166.220385 
L 512.489946 166.160594 
L 510.066426 166.449761 
L 499.639157 168.111185 
L 485.225627 170.512276 
L 452.699888 176.287826 
L 446.34517 177.922926 
L 440.313611 179.683656 
L 435.142184 181.086701 
L 429.808725 182.216178 
L 392.891123 188.86965 
L 384.125579 190.426452 
L 370.123473 192.713213 
L 365.714458 192.937521 
L 359.814789 192.685716 
L 357.416655 192.135897 
L 356.333926 191.576534 
L 355.551993 190.878265 
L 354.656519 189.934527 
L 353.709949 188.468259 
L 352.816679 186.487054 
L 351.937952 183.708635 
L 350.938542 179.154534 
L 350.938542 179.154534 
" clip-path="url(#p53aa0914b4)" style="fill: none; stroke-dasharray: 5.55,2.4; stroke-dashoffset: 0; stroke: #ff0000; stroke-width: 1.5"/>
   </g>
   <g id="line2d_33">
    <path d="M 371.541152 407.56712 
L 371.333452 403.342413 
L 370.467677 395.605741 
L 369.953659 394.361716 
L 369.338137 393.500487 
L 368.43814 392.712883 
L 367.162591 392.069486 
L 365.522557 391.742389 
L 364.057777 391.676792 
L 346.7837 392.67369 
L 332.171963 394.151007 
L 327.086004 394.446577 
L 319.385615 394.615898 
L 279.907216 395.33563 
L 268.693259 395.656477 
L 206.339947 396.673176 
L 193.554228 396.750608 
L 181.617394 397.127153 
L 175.204117 397.361067 
L 146.186149 398.435224 
L 129.605482 399.013616 
L 100.838827 399.84572 
L 98.520892 399.727359 
L 96.935075 399.499352 
L 94.758857 398.744272 
L 93.212301 397.825364 
L 91.9163 396.648998 
L 90.807395 395.206297 
L 90.132023 393.947296 
L 89.56755 392.549638 
L 89.104423 390.966594 
L 88.585469 388.709172 
L 88.020444 384.245931 
L 87.382936 375.423276 
L 87.002815 366.520216 
L 86.771489 358.666719 
L 86.848704 356.275764 
L 87.19027 354.050165 
L 87.609024 352.532059 
L 88.161562 351.13583 
L 88.822945 349.859312 
L 89.964045 348.383406 
L 91.33182 347.20289 
L 92.892131 346.343883 
L 94.13995 345.828447 
L 95.532406 345.441994 
L 97.536331 345.073863 
L 101.995703 344.686489 
L 108.254177 344.616267 
L 118.174469 344.691124 
L 141.127915 343.681155 
L 151.035232 342.986685 
L 160.936893 342.26649 
L 169.296544 342.077782 
L 181.101527 341.888873 
L 185.022066 341.53124 
L 192.971751 340.655976 
L 196.916823 340.463992 
L 202.617194 340.55149 
L 209.167456 340.789528 
L 211.252572 340.789911 
L 212.479038 340.609334 
L 213.38195 340.33456 
L 214.687432 339.673954 
L 215.837406 338.770075 
L 216.653097 337.816435 
L 217.393373 336.601674 
L 217.682405 335.893795 
L 218.025983 334.69941 
L 218.281956 333.321484 
L 218.416831 331.710759 
L 218.269283 327.571879 
L 217.795768 319.203009 
L 217.569903 308.763776 
L 217.167713 302.16407 
L 216.94485 300.331787 
L 216.516251 298.431784 
L 216.113544 297.407157 
L 215.613887 296.468649 
L 214.553849 295.038207 
L 213.421792 294.044081 
L 211.998767 293.156082 
L 210.247799 292.556458 
L 209.288729 292.382806 
L 207.769358 292.244835 
L 203.240635 292.240915 
L 190.8884 292.316311 
L 186.131813 292.564329 
L 181.38488 293.066229 
L 164.663766 295.174662 
L 141.728038 297.025698 
L 135.394247 297.540521 
L 114.062366 299.188022 
L 96.120135 300.947712 
L 93.922217 301.032123 
L 91.940879 300.961491 
L 89.11557 300.505997 
L 88.121685 300.114581 
L 86.348176 298.999526 
L 85.561449 298.297891 
L 84.357152 296.759741 
L 83.553091 295.127411 
L 83.228907 294.21255 
L 82.87934 292.734924 
L 82.364599 288.635691 
L 81.175698 269.724476 
L 80.806009 263.61029 
L 80.836892 261.497282 
L 81.019498 259.986088 
L 81.687011 258.126865 
L 82.632239 256.428206 
L 83.947724 254.94221 
L 85.624056 253.710202 
L 86.48512 253.212154 
L 87.853871 252.643293 
L 89.418129 252.144652 
L 91.70833 251.591095 
L 96.068196 250.835156 
L 102.225243 250.05969 
L 111.238895 249.312484 
L 115.692817 249.068132 
L 120.151018 249.002172 
L 126.78079 249.057728 
L 128.966195 249.032434 
L 135.510369 248.549384 
L 144.442609 247.673406 
L 151.072151 246.977649 
L 159.399533 246.255622 
L 185.766403 244.510804 
L 197.08049 243.686084 
L 201.040431 243.537951 
L 202.715958 243.686244 
L 204.168286 243.989096 
L 205.362092 244.37854 
L 206.827709 245.135017 
L 207.76357 245.90891 
L 208.442042 246.817419 
L 208.986175 247.91639 
L 209.20711 248.526118 
L 209.43432 249.625959 
L 209.692713 252.757758 
L 209.806018 259.096196 
L 210.206236 267.294393 
L 210.856907 277.354848 
L 211.453544 283.736803 
L 211.895358 287.670056 
L 212.272773 291.698966 
L 213.635201 302.135526 
L 213.666252 306.489874 
L 213.656404 319.495855 
L 214.119357 325.970765 
L 215.193795 339.816668 
L 215.860092 343.841814 
L 216.606942 347.840898 
L 216.867594 349.903303 
L 216.994569 352.083049 
L 216.828918 356.705792 
L 216.746307 360.387589 
L 216.81478 364.463759 
L 218.437296 388.775912 
L 218.842822 390.298701 
L 219.520669 391.680337 
L 220.308511 392.644908 
L 221.499003 393.605772 
L 223.260778 394.503581 
L 224.786296 395.025896 
L 227.010946 395.609511 
L 228.853259 395.850076 
L 230.647034 395.860948 
L 234.953224 395.541097 
L 243.331174 394.397347 
L 247.178202 393.802965 
L 260.37367 391.671516 
L 265.147638 391.412294 
L 272.479759 391.090148 
L 299.486962 389.096189 
L 309.662017 388.135885 
L 320.543337 386.984354 
L 328.36279 386.138431 
L 355.096198 382.978738 
L 363.242842 382.502343 
L 364.797717 382.673412 
L 366.888076 382.968762 
L 367.639471 382.661974 
L 367.973807 380.473565 
L 366.995097 373.591341 
L 365.840784 365.970944 
L 364.214454 355.846351 
L 363.640616 351.021365 
L 363.157758 344.521315 
L 362.901589 338.145572 
L 363.103025 335.925578 
L 363.341277 334.737206 
L 363.777228 333.598542 
L 364.595653 332.403751 
L 365.4191 331.808752 
L 366.043739 331.480906 
L 366.925185 331.184761 
L 370.818297 330.298678 
L 372.756598 330.019752 
L 378.883013 329.492483 
L 383.042357 328.840417 
L 391.467635 328.008344 
L 403.772391 326.676048 
L 417.58136 325.209096 
L 444.214266 322.451108 
L 444.835776 322.101823 
L 445.465116 321.452417 
L 445.793711 320.932843 
L 446.247781 319.882247 
L 446.517618 318.632067 
L 446.50154 316.998175 
L 446.12178 312.607495 
L 445.48236 306.39311 
L 444.66884 300.463702 
L 443.531084 292.4763 
L 442.357944 282.699001 
L 441.724127 276.888027 
L 441.33406 271.063521 
L 440.738844 264.611146 
L 439.862232 256.568433 
L 438.880714 246.687755 
L 437.543914 236.387595 
L 437.021577 230.241955 
L 435.773027 220.487648 
L 435.336129 218.304455 
L 434.280659 214.407946 
L 433.816653 212.33873 
L 433.126599 207.684428 
L 431.561677 194.519292 
L 430.777651 188.401636 
L 430.111282 182.036792 
L 430.133011 180.381132 
L 430.477888 178.525056 
L 431.045824 177.216493 
L 432.458179 174.855868 
L 432.562431 174.109571 
L 432.409613 173.27886 
L 432.052263 172.596131 
L 431.249923 171.476677 
L 430.387382 170.125114 
L 429.914803 169.060659 
L 429.363817 167.456122 
L 428.862249 165.540369 
L 427.660561 159.340062 
L 427.010327 153.605521 
L 425.556418 140.780984 
L 424.747671 134.576462 
L 423.465907 124.785886 
L 423.572585 122.452496 
L 424.031798 121.00508 
L 424.249701 120.549682 
L 425.132901 119.394149 
L 425.759308 118.781174 
L 427.417107 117.592008 
L 429.682924 116.420534 
L 431.053357 115.958255 
L 433.180007 115.481608 
L 439.460778 114.777709 
L 450.658718 113.572821 
L 525.793978 104.254605 
L 538.099174 102.747473 
L 573.707366 98.308446 
L 584.813178 96.9639 
L 588.776658 96.036856 
L 590.656737 95.396885 
L 592.421994 94.606639 
L 594.206649 93.664694 
L 597.643773 91.444859 
L 604.353936 86.516898 
L 606.108828 85.430185 
L 607.886163 84.492092 
L 609.731405 83.671215 
L 611.599346 83.01838 
L 613.568543 82.474059 
L 615.58093 82.077677 
L 619.740524 81.601107 
L 624.089049 81.426349 
L 633.185647 81.371511 
L 639.530823 81.636453 
L 641.238427 82.010729 
L 642.757745 82.540661 
L 644.425705 83.465503 
L 645.831856 84.710475 
L 646.946397 86.184094 
L 647.786802 87.873022 
L 648.098047 88.777073 
L 648.434893 90.230694 
L 648.958215 94.201146 
L 649.845067 103.648253 
L 650.493683 109.29244 
L 651.678711 117.221995 
L 652.044349 121.967254 
L 652.215786 125.753211 
L 652.229272 127.668743 
L 652.118981 129.570493 
L 651.804303 131.442709 
L 651.361552 133.288594 
L 650.138372 136.890169 
L 648.627935 140.305465 
L 646.436706 144.580223 
L 642.77294 151.040449 
L 640.944684 154.915693 
L 637.114583 163.765849 
L 631.166777 178.624453 
L 625.393626 190.9631 
L 622.824212 196.260727 
L 615.615268 211.785545 
L 611.441027 220.118182 
L 607.231746 228.801965 
L 600.228236 244.221567 
L 596.960271 251.618628 
L 593.778122 258.530408 
L 588.645904 269.724662 
L 580.758144 286.442842 
L 569.315953 311.135833 
L 558.278 334.808318 
L 557.557547 336.716515 
L 557.014567 338.645966 
L 556.6139 340.561283 
L 556.378443 342.481711 
L 556.301198 344.361362 
L 556.384049 346.200567 
L 556.929166 352.946812 
L 556.77538 354.434935 
L 556.195143 356.835143 
L 555.818535 357.7389 
L 554.808891 359.337209 
L 553.582915 360.608503 
L 552.175429 361.58243 
L 550.776713 362.161323 
L 549.105873 362.420426 
L 548.083988 362.291848 
L 547.190651 361.968658 
L 546.411756 361.460876 
L 545.719026 360.703197 
L 545.133802 359.691735 
L 544.540432 358.096384 
L 544.261594 356.975906 
L 543.332108 351.039677 
L 542.468729 344.112603 
L 541.062689 331.801397 
L 539.111514 316.379149 
L 538.217414 309.844593 
L 536.164061 293.958677 
L 529.682111 246.321768 
L 528.02302 234.634632 
L 524.658324 208.777616 
L 522.599192 194.711198 
L 520.475929 178.978737 
L 519.912986 171.562113 
L 519.395636 170.154142 
L 518.634652 168.95782 
L 517.533213 167.828747 
L 516.829831 167.258275 
L 515.434362 166.53131 
L 514.090731 166.220385 
L 512.489946 166.160594 
L 511.047226 166.292093 
L 503.348477 167.545887 
L 493.930544 169.048668 
L 483.487578 170.8164 
L 470.704517 173.055944 
L 458.274116 175.207806 
L 453.462791 176.120456 
L 448.720899 177.269648 
L 439.575022 179.895222 
L 435.142184 181.086701 
L 430.583267 182.075226 
L 413.746277 185.050386 
L 373.831916 192.177356 
L 369.657835 192.746827 
L 367.817667 192.912773 
L 361.804806 192.89599 
L 359.814789 192.685716 
L 358.140425 192.355494 
L 356.733718 191.828736 
L 356.139593 191.425974 
L 354.479724 189.689841 
L 353.905086 188.816084 
L 353.357808 187.739847 
L 352.659248 186.040139 
L 352.071198 184.212919 
L 351.055073 179.743817 
L 351.055073 179.743817 
" clip-path="url(#p53aa0914b4)" style="fill: none; stroke-dasharray: 9.6,2.4,1.5,2.4; stroke-dashoffset: 0; stroke: #0000ff; stroke-width: 1.5"/>
   </g>
   <g id="patch_3">
    <path d="M 50.87 462.04 
L 50.87 26.88 
" style="fill: none; stroke: #000000; stroke-width: 0.8; stroke-linejoin: miter; stroke-linecap: square"/>
   </g>
   <g id="patch_4">
    <path d="M 709.2 462.04 
L 709.2 26.88 
" style="fill: none; stroke: #000000; stroke-width: 0.8; stroke-linejoin: miter; stroke-linecap: square"/>
   </g>
   <g id="patch_5">
    <path d="M 50.87 462.04 
L 709.2 462.04 
" style="fill: none; stroke: #000000; stroke-width: 0.8; stroke-linejoin: miter; stroke-linecap: square"/>
   </g>
   <g id="patch_6">
    <path d="M 50.87 26.88 
L 709.2 26.88 
" style="fill: none; stroke: #000000; stroke-width: 0.8; stroke-linejoin: miter; stroke-linecap: square"/>
   </g>
   <g id="text_18">
    <!-- KITTI 08: Ground Truth vs Estimated Trajectory (Top-down X-Z) -->
    <g transform="translate(193.3 20.88) scale(0.12 -0.12)">
     <defs>
      <path id="DejaVuSans-4b" d="M 628 4666 
L 1259 4666 
L 1259 2694 
L 3353 4666 
L 4166 4666 
L 1850 2491 
L 4331 0 
L 3500 0 
L 1259 2247 
L 1259 0 
L 628 0 
L 628 4666 
z
" transform="scale(0.015625)"/>
      <path id="DejaVuSans-49" d="M 628 4666 
L 1259 4666 
L 1259 0 
L 628 0 
L 628 4666 
z
" transform="scale(0.015625)"/>
      <path id="DejaVuSans-54" d="M -19 4666 
L 3928 4666 
L 3928 4134 
L 2272 4134 
L 2272 0 
L 1638 0 
L 1638 4134 
L -19 4134 
L -19 4666 
z
" transform="scale(0.015625)"/>
      <path id="DejaVuSans-38" d="M 2034 2216 
Q 1584 2216 1326 1975 
Q 1069 1734 1069 1313 
Q 1069 891 1326 650 
Q 1584 409 2034 409 
Q 2484 409 2743 651 
Q 3003 894 3003 1313 
Q 3003 1734 2745 1975 
Q 2488 2216 2034 2216 
z
M 1403 2484 
Q 997 2584 770 2862 
Q 544 3141 544 3541 
Q 544 4100 942 4425 
Q 1341 4750 2034 4750 
Q 2731 4750 3128 4425 
Q 3525 4100 3525 3541 
Q 3525 3141 3298 2862 
Q 3072 2584 2669 2484 
Q 3125 2378 3379 2068 
Q 3634 1759 3634 1313 
Q 3634 634 3220 271 
Q 2806 -91 2034 -91 
Q 1263 -91 848 271 
Q 434 634 434 1313 
Q 434 1759 690 2068 
Q 947 2378 1403 2484 
z
M 1172 3481 
Q 1172 3119 1398 2916 
Q 1625 2713 2034 2713 
Q 2441 2713 2670 2916 
Q 2900 3119 2900 3481 
Q 2900 3844 2670 4047 
Q 2441 4250 2034 4250 
Q 1625 4250 1398 4047 
Q 1172 3844 1172 3481 
z
" transform="scale(0.015625)"/>
      <path id="DejaVuSans-3a" d="M 750 794 
L 1409 794 
L 1409 0 
L 750 0 
L 750 794 
z
M 750 3309 
L 1409 3309 
L 1409 2516 
L 750 2516 
L 750 3309 
z
" transform="scale(0.015625)"/>
      <path id="DejaVuSans-47" d="M 3809 666 
L 3809 1919 
L 2778 1919 
L 2778 2438 
L 4434 2438 
L 4434 434 
Q 4069 175 3628 42 
Q 3188 -91 2688 -91 
Q 1594 -91 976 548 
Q 359 1188 359 2328 
Q 359 3472 976 4111 
Q 1594 4750 2688 4750 
Q 3144 4750 3555 4637 
Q 3966 4525 4313 4306 
L 4313 3634 
Q 3963 3931 3569 4081 
Q 3175 4231 2741 4231 
Q 1884 4231 1454 3753 
Q 1025 3275 1025 2328 
Q 1025 1384 1454 906 
Q 1884 428 2741 428 
Q 3075 428 3337 486 
Q 3600 544 3809 666 
z
" transform="scale(0.015625)"/>
      <path id="DejaVuSans-72" d="M 2631 2963 
Q 2534 3019 2420 3045 
Q 2306 3072 2169 3072 
Q 1681 3072 1420 2755 
Q 1159 2438 1159 1844 
L 1159 0 
L 581 0 
L 581 3500 
L 1159 3500 
L 1159 2956 
Q 1341 3275 1631 3429 
Q 1922 3584 2338 3584 
Q 2397 3584 2469 3576 
Q 2541 3569 2628 3553 
L 2631 2963 
z
" transform="scale(0.015625)"/>
      <path id="DejaVuSans-6f" d="M 1959 3097 
Q 1497 3097 1228 2736 
Q 959 2375 959 1747 
Q 959 1119 1226 758 
Q 1494 397 1959 397 
Q 2419 397 2687 759 
Q 2956 1122 2956 1747 
Q 2956 2369 2687 2733 
Q 2419 3097 1959 3097 
z
M 1959 3584 
Q 2709 3584 3137 3096 
Q 3566 2609 3566 1747 
Q 3566 888 3137 398 
Q 2709 -91 1959 -91 
Q 1206 -91 779 398 
Q 353 888 353 1747 
Q 353 2609 779 3096 
Q 1206 3584 1959 3584 
z
" transform="scale(0.015625)"/>
      <path id="DejaVuSans-75" d="M 544 1381 
L 544 3500 
L 1119 3500 
L 1119 1403 
Q 1119 906 1312 657 
Q 1506 409 1894 409 
Q 2359 409 2629 706 
Q 2900 1003 2900 1516 
L 2900 3500 
L 3475 3500 
L 3475 0 
L 2900 0 
L 2900 538 
Q 2691 219 2414 64 
Q 2138 -91 1772 -91 
Q 1169 -91 856 284 
Q 544 659 544 1381 
z
M 1991 3584 
L 1991 3584 
z
" transform="scale(0.015625)"/>
      <path id="DejaVuSans-6e" d="M 3513 2113 
L 3513 0 
L 2938 0 
L 2938 2094 
Q 2938 2591 2744 2837 
Q 2550 3084 2163 3084 
Q 1697 3084 1428 2787 
Q 1159 2491 1159 1978 
L 1159 0 
L 581 0 
L 581 3500 
L 1159 3500 
L 1159 2956 
Q 1366 3272 1645 3428 
Q 1925 3584 2291 3584 
Q 2894 3584 3203 3211 
Q 3513 2838 3513 2113 
z
" transform="scale(0.015625)"/>
      <path id="DejaVuSans-64" d="M 2906 2969 
L 2906 4863 
L 3481 4863 
L 3481 0 
L 2906 0 
L 2906 525 
Q 2725 213 2448 61 
Q 2172 -91 1784 -91 
Q 1150 -91 751 415 
Q 353 922 353 1747 
Q 353 2572 751 3078 
Q 1150 3584 1784 3584 
Q 2172 3584 2448 3432 
Q 2725 3281 2906 2969 
z
M 947 1747 
Q 947 1113 1208 752 
Q 1469 391 1925 391 
Q 2381 391 2643 752 
Q 2906 1113 2906 1747 
Q 2906 2381 2643 2742 
Q 2381 3103 1925 3103 
Q 1469 3103 1208 2742 
Q 947 2381 947 1747 
z
" transform="scale(0.015625)"/>
      <path id="DejaVuSans-74" d="M 1172 4494 
L 1172 3500 
L 2356 3500 
L 2356 3053 
L 1172 3053 
L 1172 1153 
Q 1172 725 1289 603 
Q 1406 481 1766 481 
L 2356 481 
L 2356 0 
L 1766 0 
Q 1100 0 847 248 
Q 594 497 594 1153 
L 594 3053 
L 172 3053 
L 172 3500 
L 594 3500 
L 594 4494 
L 1172 4494 
z
" transform="scale(0.015625)"/>
      <path id="DejaVuSans-68" d="M 3513 2113 
L 3513 0 
L 2938 0 
L 2938 2094 
Q 2938 2591 2744 2837 
Q 2550 3084 2163 3084 
Q 1697 3084 1428 2787 
Q 1159 2491 1159 1978 
L 1159 0 
L 581 0 
L 581 4863 
L 1159 4863 
L 1159 2956 
Q 1366 3272 1645 3428 
Q 1925 3584 2291 3584 
Q 2894 3584 3203 3211 
Q 3513 2838 3513 2113 
z
" transform="scale(0.015625)"/>
      <path id="DejaVuSans-76" d="M 191 3500 
L 800 3500 
L 1894 563 
L 2988 3500 
L 3597 3500 
L 2284 0 
L 1503 0 
L 191 3500 
z
" transform="scale(0.015625)"/>
      <path id="DejaVuSans-73" d="M 2834 3397 
L 2834 2853 
Q 2591 2978 2328 3040 
Q 2066 3103 1784 3103 
Q 1356 3103 1142 2972 
Q 928 2841 928 2578 
Q 928 2378 1081 2264 
Q 1234 2150 1697 2047 
L 1894 2003 
Q 2506 1872 2764 1633 
Q 3022 1394 3022 966 
Q 3022 478 2636 193 
Q 2250 -91 1575 -91 
Q 1294 -91 989 -36 
Q 684 19 347 128 
L 347 722 
Q 666 556 975 473 
Q 1284 391 1588 391 
Q 1994 391 2212 530 
Q 2431 669 2431 922 
Q 2431 1156 2273 1281 
Q 2116 1406 1581 1522 
L 1381 1569 
Q 847 1681 609 1914 
Q 372 2147 372 2553 
Q 372 3047 722 3315 
Q 1072 3584 1716 3584 
Q 2034 3584 2315 3537 
Q 2597 3491 2834 3397 
z
" transform="scale(0.015625)"/>
      <path id="DejaVuSans-45" d="M 628 4666 
L 3578 4666 
L 3578 4134 
L 1259 4134 
L 1259 2753 
L 3481 2753 
L 3481 2222 
L 1259 2222 
L 1259 531 
L 3634 531 
L 3634 0 
L 628 0 
L 628 4666 
z
" transform="scale(0.015625)"/>
      <path id="DejaVuSans-69" d="M 603 3500 
L 1178 3500 
L 1178 0 
L 603 0 
L 603 3500 
z
M 603 4863 
L 1178 4863 
L 1178 4134 
L 603 4134 
L 603 4863 
z
" transform="scale(0.015625)"/>
      <path id="DejaVuSans-61" d="M 2194 1759 
Q 1497 1759 1228 1600 
Q 959 1441 959 1056 
Q 959 750 1161 570 
Q 1363 391 1709 391 
Q 2188 391 2477 730 
Q 2766 1069 2766 1631 
L 2766 1759 
L 2194 1759 
z
M 3341 1997 
L 3341 0 
L 2766 0 
L 2766 531 
Q 2569 213 2275 61 
Q 1981 -91 1556 -91 
Q 1019 -91 701 211 
Q 384 513 384 1019 
Q 384 1609 779 1909 
Q 1175 2209 1959 2209 
L 2766 2209 
L 2766 2266 
Q 2766 2663 2505 2880 
Q 2244 3097 1772 3097 
Q 1472 3097 1187 3025 
Q 903 2953 641 2809 
L 641 3341 
Q 956 3463 1253 3523 
Q 1550 3584 1831 3584 
Q 2591 3584 2966 3190 
Q 3341 2797 3341 1997 
z
" transform="scale(0.015625)"/>
      <path id="DejaVuSans-65" d="M 3597 1894 
L 3597 1613 
L 953 1613 
Q 991 1019 1311 708 
Q 1631 397 2203 397 
Q 2534 397 2845 478 
Q 3156 559 3463 722 
L 3463 178 
Q 3153 47 2828 -22 
Q 2503 -91 2169 -91 
Q 1331 -91 842 396 
Q 353 884 353 1716 
Q 353 2575 817 3079 
Q 1281 3584 2069 3584 
Q 2775 3584 3186 3129 
Q 3597 2675 3597 1894 
z
M 3022 2063 
Q 3016 2534 2758 2815 
Q 2500 3097 2075 3097 
Q 1594 3097 1305 2825 
Q 1016 2553 972 2059 
L 3022 2063 
z
" transform="scale(0.015625)"/>
      <path id="DejaVuSans-6a" d="M 603 3500 
L 1178 3500 
L 1178 -63 
Q 1178 -731 923 -1031 
Q 669 -1331 103 -1331 
L -116 -1331 
L -116 -844 
L 38 -844 
Q 366 -844 484 -692 
Q 603 -541 603 -63 
L 603 3500 
z
M 603 4863 
L 1178 4863 
L 1178 4134 
L 603 4134 
L 603 4863 
z
" transform="scale(0.015625)"/>
      <path id="DejaVuSans-63" d="M 3122 3366 
L 3122 2828 
Q 2878 2963 2633 3030 
Q 2388 3097 2138 3097 
Q 1578 3097 1268 2742 
Q 959 2388 959 1747 
Q 959 1106 1268 751 
Q 1578 397 2138 397 
Q 2388 397 2633 464 
Q 2878 531 3122 666 
L 3122 134 
Q 2881 22 2623 -34 
Q 2366 -91 2075 -91 
Q 1284 -91 818 406 
Q 353 903 353 1747 
Q 353 2603 823 3093 
Q 1294 3584 2113 3584 
Q 2378 3584 2631 3529 
Q 2884 3475 3122 3366 
z
" transform="scale(0.015625)"/>
      <path id="DejaVuSans-79" d="M 2059 -325 
Q 1816 -950 1584 -1140 
Q 1353 -1331 966 -1331 
L 506 -1331 
L 506 -850 
L 844 -850 
Q 1081 -850 1212 -737 
Q 1344 -625 1503 -206 
L 1606 56 
L 191 3500 
L 800 3500 
L 1894 763 
L 2988 3500 
L 3597 3500 
L 2059 -325 
z
" transform="scale(0.015625)"/>
      <path id="DejaVuSans-70" d="M 1159 525 
L 1159 -1331 
L 581 -1331 
L 581 3500 
L 1159 3500 
L 1159 2969 
Q 1341 3281 1617 3432 
Q 1894 3584 2278 3584 
Q 2916 3584 3314 3078 
Q 3713 2572 3713 1747 
Q 3713 922 3314 415 
Q 2916 -91 2278 -91 
Q 1894 -91 1617 61 
Q 1341 213 1159 525 
z
M 3116 1747 
Q 3116 2381 2855 2742 
Q 2594 3103 2138 3103 
Q 1681 3103 1420 2742 
Q 1159 2381 1159 1747 
Q 1159 1113 1420 752 
Q 1681 391 2138 391 
Q 2594 391 2855 752 
Q 3116 1113 3116 1747 
z
" transform="scale(0.015625)"/>
      <path id="DejaVuSans-2d" d="M 313 2009 
L 1997 2009 
L 1997 1497 
L 313 1497 
L 313 2009 
z
" transform="scale(0.015625)"/>
      <path id="DejaVuSans-77" d="M 269 3500 
L 844 3500 
L 1563 769 
L 2278 3500 
L 2956 3500 
L 3675 769 
L 4391 3500 
L 4966 3500 
L 4050 0 
L 3372 0 
L 2619 2869 
L 1863 0 
L 1184 0 
L 269 3500 
z
" transform="scale(0.015625)"/>
     </defs>
     <use xlink:href="#DejaVuSans-4b"/>
     <use xlink:href="#DejaVuSans-49" transform="translate(65.576172 0)"/>
     <use xlink:href="#DejaVuSans-54" transform="translate(95.068359 0)"/>
     <use xlink:href="#DejaVuSans-54" transform="translate(154.402344 0)"/>
     <use xlink:href="#DejaVuSans-49" transform="translate(215.486328 0)"/>
     <use xlink:href="#DejaVuSans-20" transform="translate(244.978516 0)"/>
     <use xlink:href="#DejaVuSans-30" transform="translate(276.765625 0)"/>
     <use xlink:href="#DejaVuSans-38" transform="translate(340.388672 0)"/>
     <use xlink:href="#DejaVuSans-3a" transform="translate(404.011719 0)"/>
     <use xlink:href="#DejaVuSans-20" transform="translate(437.703125 0)"/>
     <use xlink:href="#DejaVuSans-47" transform="translate(469.490234 0)"/>
     <use xlink:href="#DejaVuSans-72" transform="translate(546.980469 0)"/>
     <use xlink:href="#DejaVuSans-6f" transform="translate(585.84375 0)"/>
     <use xlink:href="#DejaVuSans-75" transform="translate(647.025391 0)"/>
     <use xlink:href="#DejaVuSans-6e" transform="translate(710.404297 0)"/>
     <use xlink:href="#DejaVuSans-64" transform="translate(773.783203 0)"/>
     <use xlink:href="#DejaVuSans-20" transform="translate(837.259766 0)"/>
     <use xlink:href="#DejaVuSans-54" transform="translate(869.046875 0)"/>
     <use xlink:href="#DejaVuSans-72" transform="translate(915.380859 0)"/>
     <use xlink:href="#DejaVuSans-75" transform="translate(956.494141 0)"/>
     <use xlink:href="#DejaVuSans-74" transform="translate(1019.873047 0)"/>
     <use xlink:href="#DejaVuSans-68" transform="translate(1059.082031 0)"/>
     <use xlink:href="#DejaVuSans-20" transform="translate(1122.460938 0)"/>
     <use xlink:href="#DejaVuSans-76" transform="translate(1154.248047 0)"/>
     <use xlink:href="#DejaVuSans-73" transform="translate(1213.427734 0)"/>
     <use xlink:href="#DejaVuSans-20" transform="translate(1265.527344 0)"/>
     <use xlink:href="#DejaVuSans-45" transform="translate(1297.314453 0)"/>
     <use xlink:href="#DejaVuSans-73" transform="translate(1360.498047 0)"/>
     <use xlink:href="#DejaVuSans-74" transform="translate(1412.597656 0)"/>
     <use xlink:href="#DejaVuSans-69" transform="translate(1451.806641 0)"/>
     <use xlink:href="#DejaVuSans-6d" transform="translate(1479.589844 0)"/>
     <use xlink:href="#DejaVuSans-61" transform="translate(1577.001953 0)"/>
     <use xlink:href="#DejaVuSans-74" transform="translate(1638.28125 0)"/>
     <use xlink:href="#DejaVuSans-65" transform="translate(1677.490234 0)"/>
     <use xlink:href="#DejaVuSans-64" transform="translate(1739.013672 0)"/>
     <use xlink:href="#DejaVuSans-20" transform="translate(1802.490234 0)"/>
     <use xlink:href="#DejaVuSans-54" transform="translate(1834.277344 0)"/>
     <use xlink:href="#DejaVuSans-72" transform="translate(1880.611328 0)"/>
     <use xlink:href="#DejaVuSans-61" transform="translate(1921.724609 0)"/>
     <use xlink:href="#DejaVuSans-6a" transform="translate(1983.003906 0)"/>
     <use xlink:href="#DejaVuSans-65" transform="translate(2010.787109 0)"/>
     <use xlink:href="#DejaVuSans-63" transform="translate(2072.310547 0)"/>
     <use xlink:href="#DejaVuSans-74" transform="translate(2127.291016 0)"/>
     <use xlink:href="#DejaVuSans-6f" transform="translate(2166.5 0)"/>
     <use xlink:href="#DejaVuSans-72" transform="translate(2227.681641 0)"/>
     <use xlink:href="#DejaVuSans-79" transform="translate(2268.794922 0)"/>
     <use xlink:href="#DejaVuSans-20" transform="translate(2327.974609 0)"/>
     <use xlink:href="#DejaVuSans-28" transform="translate(2359.761719 0)"/>
     <use xlink:href="#DejaVuSans-54" transform="translate(2398.775391 0)"/>
     <use xlink:href="#DejaVuSans-6f" transform="translate(2442.859375 0)"/>
     <use xlink:href="#DejaVuSans-70" transform="translate(2504.041016 0)"/>
     <use xlink:href="#DejaVuSans-2d" transform="translate(2567.517578 0)"/>
     <use xlink:href="#DejaVuSans-64" transform="translate(2603.601562 0)"/>
     <use xlink:href="#DejaVuSans-6f" transform="translate(2667.078125 0)"/>
     <use xlink:href="#DejaVuSans-77" transform="translate(2728.259766 0)"/>
     <use xlink:href="#DejaVuSans-6e" transform="translate(2810.046875 0)"/>
     <use xlink:href="#DejaVuSans-20" transform="translate(2873.425781 0)"/>
     <use xlink:href="#DejaVuSans-58" transform="translate(2905.212891 0)"/>
     <use xlink:href="#DejaVuSans-2d" transform="translate(2968.71875 0)"/>
     <use xlink:href="#DejaVuSans-5a" transform="translate(3004.802734 0)"/>
     <use xlink:href="#DejaVuSans-29" transform="translate(3073.308594 0)"/>
    </g>
   </g>
   <g id="legend_1">
    <g id="patch_7">
     <path d="M 57.87 166.983125 
L 257.746562 166.983125 
Q 259.746562 166.983125 259.746562 164.983125 
L 259.746562 33.88 
Q 259.746562 31.88 257.746562 31.88 
L 57.87 31.88 
Q 55.87 31.88 55.87 33.88 
L 55.87 164.983125 
Q 55.87 166.983125 57.87 166.983125 
z
" style="fill: #ffffff; opacity: 0.8; stroke: #cccccc; stroke-linejoin: miter"/>
    </g>
    <g id="line2d_34">
     <path d="M 59.87 39.978437 
L 69.87 39.978437 
L 79.87 39.978437 
" style="fill: none; stroke: #000000; stroke-width: 2; stroke-linecap: square"/>
    </g>
    <g id="text_19">
     <!-- Ground Truth -->
     <g transform="translate(87.87 43.478437) scale(0.1 -0.1)">
      <use xlink:href="#DejaVuSans-47"/>
      <use xlink:href="#DejaVuSans-72" transform="translate(77.490234 0)"/>
      <use xlink:href="#DejaVuSans-6f" transform="translate(116.353516 0)"/>
      <use xlink:href="#DejaVuSans-75" transform="translate(177.535156 0)"/>
      <use xlink:href="#DejaVuSans-6e" transform="translate(240.914062 0)"/>
      <use xlink:href="#DejaVuSans-64" transform="translate(304.292969 0)"/>
      <use xlink:href="#DejaVuSans-20" transform="translate(367.769531 0)"/>
      <use xlink:href="#DejaVuSans-54" transform="translate(399.556641 0)"/>
      <use xlink:href="#DejaVuSans-72" transform="translate(445.890625 0)"/>
      <use xlink:href="#DejaVuSans-75" transform="translate(487.003906 0)"/>
      <use xlink:href="#DejaVuSans-74" transform="translate(550.382812 0)"/>
      <use xlink:href="#DejaVuSans-68" transform="translate(589.591797 0)"/>
     </g>
    </g>
    <g id="line2d_35">
     <path d="M 59.87 54.656562 
L 69.87 54.656562 
L 79.87 54.656562 
" style="fill: none; stroke-dasharray: 5.55,2.4; stroke-dashoffset: 0; stroke: #ff0000; stroke-width: 1.5"/>
    </g>
    <g id="text_20">
     <!-- Estimated -->
     <g transform="translate(87.87 58.156562) scale(0.1 -0.1)">
      <use xlink:href="#DejaVuSans-45"/>
      <use xlink:href="#DejaVuSans-73" transform="translate(63.183594 0)"/>
      <use xlink:href="#DejaVuSans-74" transform="translate(115.283203 0)"/>
      <use xlink:href="#DejaVuSans-69" transform="translate(154.492188 0)"/>
      <use xlink:href="#DejaVuSans-6d" transform="translate(182.275391 0)"/>
      <use xlink:href="#DejaVuSans-61" transform="translate(279.6875 0)"/>
      <use xlink:href="#DejaVuSans-74" transform="translate(340.966797 0)"/>
      <use xlink:href="#DejaVuSans-65" transform="translate(380.175781 0)"/>
      <use xlink:href="#DejaVuSans-64" transform="translate(441.699219 0)"/>
     </g>
    </g>
    <g id="line2d_36">
     <path d="M 59.87 69.334687 
L 69.87 69.334687 
L 79.87 69.334687 
" style="fill: none; stroke-dasharray: 9.6,2.4,1.5,2.4; stroke-dashoffset: 0; stroke: #0000ff; stroke-width: 1.5"/>
    </g>
    <g id="text_21">
     <!-- Estimated SLAM Corrected -->
     <g transform="translate(87.87 72.834687) scale(0.1 -0.1)">
      <defs>
       <path id="DejaVuSans-53" d="M 3425 4513 
L 3425 3897 
Q 3066 4069 2747 4153 
Q 2428 4238 2131 4238 
Q 1616 4238 1336 4038 
Q 1056 3838 1056 3469 
Q 1056 3159 1242 3001 
Q 1428 2844 1947 2747 
L 2328 2669 
Q 3034 2534 3370 2195 
Q 3706 1856 3706 1288 
Q 3706 609 3251 259 
Q 2797 -91 1919 -91 
Q 1588 -91 1214 -16 
Q 841 59 441 206 
L 441 856 
Q 825 641 1194 531 
Q 1563 422 1919 422 
Q 2459 422 2753 634 
Q 3047 847 3047 1241 
Q 3047 1584 2836 1778 
Q 2625 1972 2144 2069 
L 1759 2144 
Q 1053 2284 737 2584 
Q 422 2884 422 3419 
Q 422 4038 858 4394 
Q 1294 4750 2059 4750 
Q 2388 4750 2728 4690 
Q 3069 4631 3425 4513 
z
" transform="scale(0.015625)"/>
       <path id="DejaVuSans-4c" d="M 628 4666 
L 1259 4666 
L 1259 531 
L 3531 531 
L 3531 0 
L 628 0 
L 628 4666 
z
" transform="scale(0.015625)"/>
       <path id="DejaVuSans-41" d="M 2188 4044 
L 1331 1722 
L 3047 1722 
L 2188 4044 
z
M 1831 4666 
L 2547 4666 
L 4325 0 
L 3669 0 
L 3244 1197 
L 1141 1197 
L 716 0 
L 50 0 
L 1831 4666 
z
" transform="scale(0.015625)"/>
       <path id="DejaVuSans-4d" d="M 628 4666 
L 1569 4666 
L 2759 1491 
L 3956 4666 
L 4897 4666 
L 4897 0 
L 4281 0 
L 4281 4097 
L 3078 897 
L 2444 897 
L 1241 4097 
L 1241 0 
L 628 0 
L 628 4666 
z
" transform="scale(0.015625)"/>
       <path id="DejaVuSans-43" d="M 4122 4306 
L 4122 3641 
Q 3803 3938 3442 4084 
Q 3081 4231 2675 4231 
Q 1875 4231 1450 3742 
Q 1025 3253 1025 2328 
Q 1025 1406 1450 917 
Q 1875 428 2675 428 
Q 3081 428 3442 575 
Q 3803 722 4122 1019 
L 4122 359 
Q 3791 134 3420 21 
Q 3050 -91 2638 -91 
Q 1578 -91 968 557 
Q 359 1206 359 2328 
Q 359 3453 968 4101 
Q 1578 4750 2638 4750 
Q 3056 4750 3426 4639 
Q 3797 4528 4122 4306 
z
" transform="scale(0.015625)"/>
      </defs>
      <use xlink:href="#DejaVuSans-45"/>
      <use xlink:href="#DejaVuSans-73" transform="translate(63.183594 0)"/>
      <use xlink:href="#DejaVuSans-74" transform="translate(115.283203 0)"/>
      <use xlink:href="#DejaVuSans-69" transform="translate(154.492188 0)"/>
      <use xlink:href="#DejaVuSans-6d" transform="translate(182.275391 0)"/>
      <use xlink:href="#DejaVuSans-61" transform="translate(279.6875 0)"/>
      <use xlink:href="#DejaVuSans-74" transform="translate(340.966797 0)"/>
      <use xlink:href="#DejaVuSans-65" transform="translate(380.175781 0)"/>
      <use xlink:href="#DejaVuSans-64" transform="translate(441.699219 0)"/>
      <use xlink:href="#DejaVuSans-20" transform="translate(505.175781 0)"/>
      <use xlink:href="#DejaVuSans-53" transform="translate(536.962891 0)"/>
      <use xlink:href="#DejaVuSans-4c" transform="translate(600.439453 0)"/>
      <use xlink:href="#DejaVuSans-41" transform="translate(658.402344 0)"/>
      <use xlink:href="#DejaVuSans-4d" transform="translate(726.810547 0)"/>
      <use xlink:href="#DejaVuSans-20" transform="translate(813.089844 0)"/>
      <use xlink:href="#DejaVuSans-43" transform="translate(844.876953 0)"/>
      <use xlink:href="#DejaVuSans-6f" transform="translate(914.701172 0)"/>
      <use xlink:href="#DejaVuSans-72" transform="translate(975.882812 0)"/>
      <use xlink:href="#DejaVuSans-72" transform="translate(1015.246094 0)"/>
      <use xlink:href="#DejaVuSans-65" transform="translate(1054.109375 0)"/>
      <use xlink:href="#DejaVuSans-63" transform="translate(1115.632812 0)"/>
      <use xlink:href="#DejaVuSans-74" transform="translate(1170.613281 0)"/>
      <use xlink:href="#DejaVuSans-65" transform="translate(1209.822266 0)"/>
      <use xlink:href="#DejaVuSans-64" transform="translate(1271.345703 0)"/>
     </g>
    </g>
    <g id="PathCollection_7">
     <g>
      <use xlink:href="#m28453913e8" x="69.87" y="84.887812" style="fill: #008000; stroke: #008000"/>
     </g>
    </g>
    <g id="text_22">
     <!-- Start - Ground Truth -->
     <g transform="translate(87.87 87.512812) scale(0.1 -0.1)">
      <use xlink:href="#DejaVuSans-53"/>
      <use xlink:href="#DejaVuSans-74" transform="translate(63.476562 0)"/>
      <use xlink:href="#DejaVuSans-61" transform="translate(102.685547 0)"/>
      <use xlink:href="#DejaVuSans-72" transform="translate(163.964844 0)"/>
      <use xlink:href="#DejaVuSans-74" transform="translate(205.078125 0)"/>
      <use xlink:href="#DejaVuSans-20" transform="translate(244.287109 0)"/>
      <use xlink:href="#DejaVuSans-2d" transform="translate(276.074219 0)"/>
      <use xlink:href="#DejaVuSans-20" transform="translate(312.158203 0)"/>
      <use xlink:href="#DejaVuSans-47" transform="translate(343.945312 0)"/>
      <use xlink:href="#DejaVuSans-72" transform="translate(421.435547 0)"/>
      <use xlink:href="#DejaVuSans-6f" transform="translate(460.298828 0)"/>
      <use xlink:href="#DejaVuSans-75" transform="translate(521.480469 0)"/>
      <use xlink:href="#DejaVuSans-6e" transform="translate(584.859375 0)"/>
      <use xlink:href="#DejaVuSans-64" transform="translate(648.238281 0)"/>
      <use xlink:href="#DejaVuSans-20" transform="translate(711.714844 0)"/>
      <use xlink:href="#DejaVuSans-54" transform="translate(743.501953 0)"/>
      <use xlink:href="#DejaVuSans-72" transform="translate(789.835938 0)"/>
      <use xlink:href="#DejaVuSans-75" transform="translate(830.949219 0)"/>
      <use xlink:href="#DejaVuSans-74" transform="translate(894.328125 0)"/>
      <use xlink:href="#DejaVuSans-68" transform="translate(933.537109 0)"/>
     </g>
    </g>
    <g id="PathCollection_8">
     <g>
      <use xlink:href="#ma3f366dfb8" x="69.87" y="99.565937" style="fill: #ff0000; stroke: #ff0000"/>
     </g>
    </g>
    <g id="text_23">
     <!-- End - Ground Truth -->
     <g transform="translate(87.87 102.190937) scale(0.1 -0.1)">
      <use xlink:href="#DejaVuSans-45"/>
      <use xlink:href="#DejaVuSans-6e" transform="translate(63.183594 0)"/>
      <use xlink:href="#DejaVuSans-64" transform="translate(126.5625 0)"/>
      <use xlink:href="#DejaVuSans-20" transform="translate(190.039062 0)"/>
      <use xlink:href="#DejaVuSans-2d" transform="translate(221.826172 0)"/>
      <use xlink:href="#DejaVuSans-20" transform="translate(257.910156 0)"/>
      <use xlink:href="#DejaVuSans-47" transform="translate(289.697266 0)"/>
      <use xlink:href="#DejaVuSans-72" transform="translate(367.1875 0)"/>
      <use xlink:href="#DejaVuSans-6f" transform="translate(406.050781 0)"/>
      <use xlink:href="#DejaVuSans-75" transform="translate(467.232422 0)"/>
      <use xlink:href="#DejaVuSans-6e" transform="translate(530.611328 0)"/>
      <use xlink:href="#DejaVuSans-64" transform="translate(593.990234 0)"/>
      <use xlink:href="#DejaVuSans-20" transform="translate(657.466797 0)"/>
      <use xlink:href="#DejaVuSans-54" transform="translate(689.253906 0)"/>
      <use xlink:href="#DejaVuSans-72" transform="translate(735.587891 0)"/>
      <use xlink:href="#DejaVuSans-75" transform="translate(776.701172 0)"/>
      <use xlink:href="#DejaVuSans-74" transform="translate(840.080078 0)"/>
      <use xlink:href="#DejaVuSans-68" transform="translate(879.289062 0)"/>
     </g>
    </g>
    <g id="PathCollection_9">
     <g>
      <use xlink:href="#m98fde38773" x="69.87" y="114.244062" style="fill: #00ffff; stroke: #00ffff; stroke-width: 1.5"/>
     </g>
    </g>
    <g id="text_24">
     <!-- Start - Estimated -->
     <g transform="translate(87.87 116.869062) scale(0.1 -0.1)">
      <use xlink:href="#DejaVuSans-53"/>
      <use xlink:href="#DejaVuSans-74" transform="translate(63.476562 0)"/>
      <use xlink:href="#DejaVuSans-61" transform="translate(102.685547 0)"/>
      <use xlink:href="#DejaVuSans-72" transform="translate(163.964844 0)"/>
      <use xlink:href="#DejaVuSans-74" transform="translate(205.078125 0)"/>
      <use xlink:href="#DejaVuSans-20" transform="translate(244.287109 0)"/>
      <use xlink:href="#DejaVuSans-2d" transform="translate(276.074219 0)"/>
      <use xlink:href="#DejaVuSans-20" transform="translate(312.158203 0)"/>
      <use xlink:href="#DejaVuSans-45" transform="translate(343.945312 0)"/>
      <use xlink:href="#DejaVuSans-73" transform="translate(407.128906 0)"/>
      <use xlink:href="#DejaVuSans-74" transform="translate(459.228516 0)"/>
      <use xlink:href="#DejaVuSans-69" transform="translate(498.4375 0)"/>
      <use xlink:href="#DejaVuSans-6d" transform="translate(526.220703 0)"/>
      <use xlink:href="#DejaVuSans-61" transform="translate(623.632812 0)"/>
      <use xlink:href="#DejaVuSans-74" transform="translate(684.912109 0)"/>
      <use xlink:href="#DejaVuSans-65" transform="translate(724.121094 0)"/>
      <use xlink:href="#DejaVuSans-64" transform="translate(785.644531 0)"/>
     </g>
    </g>
    <g id="PathCollection_10">
     <g>
      <use xlink:href="#m61690ed0f0" x="69.87" y="128.922187" style="fill: #ff00ff; stroke: #ff00ff; stroke-width: 1.5"/>
     </g>
    </g>
    <g id="text_25">
     <!-- End - Estimated -->
     <g transform="translate(87.87 131.547187) scale(0.1 -0.1)">
      <use xlink:href="#DejaVuSans-45"/>
      <use xlink:href="#DejaVuSans-6e" transform="translate(63.183594 0)"/>
      <use xlink:href="#DejaVuSans-64" transform="translate(126.5625 0)"/>
      <use xlink:href="#DejaVuSans-20" transform="translate(190.039062 0)"/>
      <use xlink:href="#DejaVuSans-2d" transform="translate(221.826172 0)"/>
      <use xlink:href="#DejaVuSans-20" transform="translate(257.910156 0)"/>
      <use xlink:href="#DejaVuSans-45" transform="translate(289.697266 0)"/>
      <use xlink:href="#DejaVuSans-73" transform="translate(352.880859 0)"/>
      <use xlink:href="#DejaVuSans-74" transform="translate(404.980469 0)"/>
      <use xlink:href="#DejaVuSans-69" transform="translate(444.189453 0)"/>
      <use xlink:href="#DejaVuSans-6d" transform="translate(471.972656 0)"/>
      <use xlink:href="#DejaVuSans-61" transform="translate(569.384766 0)"/>
      <use xlink:href="#DejaVuSans-74" transform="translate(630.664062 0)"/>
      <use xlink:href="#DejaVuSans-65" transform="translate(669.873047 0)"/>
      <use xlink:href="#DejaVuSans-64" transform="translate(731.396484 0)"/>
     </g>
    </g>
    <g id="PathCollection_11">
     <g>
      <use xlink:href="#m307f14d1af" x="69.87" y="143.600312" style="fill: #0000ff; stroke: #0000ff; stroke-width: 1.5"/>
     </g>
    </g>
    <g id="text_26">
     <!-- Start - Estimated SLAM Corrected -->
     <g transform="translate(87.87 146.225312) scale(0.1 -0.1)">
      <use xlink:href="#DejaVuSans-53"/>
      <use xlink:href="#DejaVuSans-74" transform="translate(63.476562 0)"/>
      <use xlink:href="#DejaVuSans-61" transform="translate(102.685547 0)"/>
      <use xlink:href="#DejaVuSans-72" transform="translate(163.964844 0)"/>
      <use xlink:href="#DejaVuSans-74" transform="translate(205.078125 0)"/>
      <use xlink:href="#DejaVuSans-20" transform="translate(244.287109 0)"/>
      <use xlink:href="#DejaVuSans-2d" transform="translate(276.074219 0)"/>
      <use xlink:href="#DejaVuSans-20" transform="translate(312.158203 0)"/>
      <use xlink:href="#DejaVuSans-45" transform="translate(343.945312 0)"/>
      <use xlink:href="#DejaVuSans-73" transform="translate(407.128906 0)"/>
      <use xlink:href="#DejaVuSans-74" transform="translate(459.228516 0)"/>
      <use xlink:href="#DejaVuSans-69" transform="translate(498.4375 0)"/>
      <use xlink:href="#DejaVuSans-6d" transform="translate(526.220703 0)"/>
      <use xlink:href="#DejaVuSans-61" transform="translate(623.632812 0)"/>
      <use xlink:href="#DejaVuSans-74" transform="translate(684.912109 0)"/>
      <use xlink:href="#DejaVuSans-65" transform="translate(724.121094 0)"/>
      <use xlink:href="#DejaVuSans-64" transform="translate(785.644531 0)"/>
      <use xlink:href="#DejaVuSans-20" transform="translate(849.121094 0)"/>
      <use xlink:href="#DejaVuSans-53" transform="translate(880.908203 0)"/>
      <use xlink:href="#DejaVuSans-4c" transform="translate(944.384766 0)"/>
      <use xlink:href="#DejaVuSans-41" transform="translate(1002.347656 0)"/>
      <use xlink:href="#DejaVuSans-4d" transform="translate(1070.755859 0)"/>
      <use xlink:href="#DejaVuSans-20" transform="translate(1157.035156 0)"/>
      <use xlink:href="#DejaVuSans-43" transform="translate(1188.822266 0)"/>
      <use xlink:href="#DejaVuSans-6f" transform="translate(1258.646484 0)"/>
      <use xlink:href="#DejaVuSans-72" transform="translate(1319.828125 0)"/>
      <use xlink:href="#DejaVuSans-72" transform="translate(1359.191406 0)"/>
      <use xlink:href="#DejaVuSans-65" transform="translate(1398.054688 0)"/>
      <use xlink:href="#DejaVuSans-63" transform="translate(1459.578125 0)"/>
      <use xlink:href="#DejaVuSans-74" transform="translate(1514.558594 0)"/>
      <use xlink:href="#DejaVuSans-65" transform="translate(1553.767578 0)"/>
      <use xlink:href="#DejaVuSans-64" transform="translate(1615.291016 0)"/>
     </g>
    </g>
    <g id="PathCollection_12">
     <g>
      <use xlink:href="#m6b2bc67fd3" x="69.87" y="158.278437" style="fill: #800080; stroke: #800080; stroke-width: 1.5"/>
     </g>
    </g>
    <g id="text_27">
     <!-- End - Estimated SLAM Corrected -->
     <g transform="translate(87.87 160.903437) scale(0.1 -0.1)">
      <use xlink:href="#DejaVuSans-45"/>
      <use xlink:href="#DejaVuSans-6e" transform="translate(63.183594 0)"/>
      <use xlink:href="#DejaVuSans-64" transform="translate(126.5625 0)"/>
      <use xlink:href="#DejaVuSans-20" transform="translate(190.039062 0)"/>
      <use xlink:href="#DejaVuSans-2d" transform="translate(221.826172 0)"/>
      <use xlink:href="#DejaVuSans-20" transform="translate(257.910156 0)"/>
      <use xlink:href="#DejaVuSans-45" transform="translate(289.697266 0)"/>
      <use xlink:href="#DejaVuSans-73" transform="translate(352.880859 0)"/>
      <use xlink:href="#DejaVuSans-74" transform="translate(404.980469 0)"/>
      <use xlink:href="#DejaVuSans-69" transform="translate(444.189453 0)"/>
      <use xlink:href="#DejaVuSans-6d" transform="translate(471.972656 0)"/>
      <use xlink:href="#DejaVuSans-61" transform="translate(569.384766 0)"/>
      <use xlink:href="#DejaVuSans-74" transform="translate(630.664062 0)"/>
      <use xlink:href="#DejaVuSans-65" transform="translate(669.873047 0)"/>
      <use xlink:href="#DejaVuSans-64" transform="translate(731.396484 0)"/>
      <use xlink:href="#DejaVuSans-20" transform="translate(794.873047 0)"/>
      <use xlink:href="#DejaVuSans-53" transform="translate(826.660156 0)"/>
      <use xlink:href="#DejaVuSans-4c" transform="translate(890.136719 0)"/>
      <use xlink:href="#DejaVuSans-41" transform="translate(948.099609 0)"/>
      <use xlink:href="#DejaVuSans-4d" transform="translate(1016.507812 0)"/>
      <use xlink:href="#DejaVuSans-20" transform="translate(1102.787109 0)"/>
      <use xlink:href="#DejaVuSans-43" transform="translate(1134.574219 0)"/>
      <use xlink:href="#DejaVuSans-6f" transform="translate(1204.398438 0)"/>
      <use xlink:href="#DejaVuSans-72" transform="translate(1265.580078 0)"/>
      <use xlink:href="#DejaVuSans-72" transform="translate(1304.943359 0)"/>
      <use xlink:href="#DejaVuSans-65" transform="translate(1343.806641 0)"/>
      <use xlink:href="#DejaVuSans-63" transform="translate(1405.330078 0)"/>
      <use xlink:href="#DejaVuSans-74" transform="translate(1460.310547 0)"/>
      <use xlink:href="#DejaVuSans-65" transform="translate(1499.519531 0)"/>
      <use xlink:href="#DejaVuSans-64" transform="translate(1561.042969 0)"/>
     </g>
    </g>
   </g>
  </g>
 </g>
 <defs>
  <clipPath id="p53aa0914b4">
   <rect x="50.87" y="26.88" width="658.33" height="435.16"/>
  </clipPath>
 </defs>
</svg>
