<?xml version="1.0" encoding="utf-8" standalone="no"?>
<!DOCTYPE svg PUBLIC "-//W3C//DTD SVG 1.1//EN"
  "http://www.w3.org/Graphics/SVG/1.1/DTD/svg11.dtd">
<svg xmlns:xlink="http://www.w3.org/1999/xlink" width="720pt" height="504pt" viewBox="0 0 720 504" xmlns="http://www.w3.org/2000/svg" version="1.1">
 <metadata>
  <rdf:RDF xmlns:dc="http://purl.org/dc/elements/1.1/" xmlns:cc="http://creativecommons.org/ns#" xmlns:rdf="http://www.w3.org/1999/02/22-rdf-syntax-ns#">
   <cc:Work>
    <dc:type rdf:resource="http://purl.org/dc/dcmitype/StillImage"/>
    <dc:date>2025-11-11T13:21:47.666110</dc:date>
    <dc:format>image/svg+xml</dc:format>
    <dc:creator>
     <cc:Agent>
      <dc:title>Matplotlib v3.10.3, https://matplotlib.org/</dc:title>
     </cc:Agent>
    </dc:creator>
   </cc:Work>
  </rdf:RDF>
 </metadata>
 <defs>
  <style type="text/css">*{stroke-linejoin: round; stroke-linecap: butt}</style>
 </defs>
 <g id="figure_1">
  <g id="patch_1">
   <path d="M 0 504 
L 720 504 
L 720 0 
L 0 0 
z
" style="fill: #ffffff"/>
  </g>
  <g id="axes_1">
   <g id="patch_2">
    <path d="M 50.87 462.04 
L 709.2 462.04 
L 709.2 26.88 
L 50.87 26.88 
z
" style="fill: #ffffff"/>
   </g>
   <g id="PathCollection_1">
    <defs>
     <path id="m110eef7129" d="M 0 4.472136 
C 1.186024 4.472136 2.323632 4.000923 3.162278 3.162278 
C 4.000923 2.323632 4.472136 1.186024 4.472136 0 
C 4.472136 -1.186024 4.000923 -2.323632 3.162278 -3.162278 
C 2.323632 -4.000923 1.186024 -4.472136 0 -4.472136 
C -1.186024 -4.472136 -2.323632 -4.000923 -3.162278 -3.162278 
C -4.000923 -2.323632 -4.472136 -1.186024 -4.472136 0 
C -4.472136 1.186024 -4.000923 2.323632 -3.162278 3.162278 
C -2.323632 4.000923 -1.186024 4.472136 0 4.472136 
z
" style="stroke: #008000"/>
    </defs>
    <g clip-path="url(#pb9a20a481c)">
     <use xlink:href="#m110eef7129" x="370.847872" y="404.886953" style="fill: #008000; stroke: #008000"/>
    </g>
   </g>
   <g id="PathCollection_2">
    <defs>
     <path id="mdb22090344" d="M 0 4.472136 
C 1.186024 4.472136 2.323632 4.000923 3.162278 3.162278 
C 4.000923 2.323632 4.472136 1.186024 4.472136 0 
C 4.472136 -1.186024 4.000923 -2.323632 3.162278 -3.162278 
C 2.323632 -4.000923 1.186024 -4.472136 0 -4.472136 
C -1.186024 -4.472136 -2.323632 -4.000923 -3.162278 -3.162278 
C -4.000923 -2.323632 -4.472136 -1.186024 -4.472136 0 
C -4.472136 1.186024 -4.000923 2.323632 -3.162278 3.162278 
C -2.323632 4.000923 -1.186024 4.472136 0 4.472136 
z
" style="stroke: #ff0000"/>
    </defs>
    <g clip-path="url(#pb9a20a481c)">
     <use xlink:href="#mdb22090344" x="360.661393" y="175.351442" style="fill: #ff0000; stroke: #ff0000"/>
    </g>
   </g>
   <g id="PathCollection_3">
    <defs>
     <path id="m53f0d2e43a" d="M -4.472136 4.472136 
L 4.472136 -4.472136 
M -4.472136 -4.472136 
L 4.472136 4.472136 
" style="stroke: #00ffff; stroke-width: 1.5"/>
    </defs>
    <g clip-path="url(#pb9a20a481c)">
     <use xlink:href="#m53f0d2e43a" x="370.847872" y="404.886953" style="fill: #00ffff; stroke: #00ffff; stroke-width: 1.5"/>
    </g>
   </g>
   <g id="PathCollection_4">
    <defs>
     <path id="ma8a050d173" d="M -4.472136 4.472136 
L 4.472136 -4.472136 
M -4.472136 -4.472136 
L 4.472136 4.472136 
" style="stroke: #ff00ff; stroke-width: 1.5"/>
    </defs>
    <g clip-path="url(#pb9a20a481c)">
     <use xlink:href="#ma8a050d173" x="349.053829" y="178.263213" style="fill: #ff00ff; stroke: #ff00ff; stroke-width: 1.5"/>
    </g>
   </g>
   <g id="matplotlib.axis_1">
    <g id="xtick_1">
     <g id="line2d_1">
      <path d="M 75.767007 462.04 
L 75.767007 26.88 
" clip-path="url(#pb9a20a481c)" style="fill: none; stroke: #b0b0b0; stroke-width: 0.8; stroke-linecap: square"/>
     </g>
     <g id="line2d_2">
      <defs>
       <path id="mfcc7529d1c" d="M 0 0 
L 0 3.5 
" style="stroke: #000000; stroke-width: 0.8"/>
      </defs>
      <g>
       <use xlink:href="#mfcc7529d1c" x="75.767007" y="462.04" style="stroke: #000000; stroke-width: 0.8"/>
      </g>
     </g>
     <g id="text_1">
      <!-- −400 -->
      <g transform="translate(62.033413 476.638438) scale(0.1 -0.1)">
       <defs>
        <path id="DejaVuSans-2212" d="M 678 2272 
L 4684 2272 
L 4684 1741 
L 678 1741 
L 678 2272 
z
" transform="scale(0.015625)"/>
        <path id="DejaVuSans-34" d="M 2419 4116 
L 825 1625 
L 2419 1625 
L 2419 4116 
z
M 2253 4666 
L 3047 4666 
L 3047 1625 
L 3713 1625 
L 3713 1100 
L 3047 1100 
L 3047 0 
L 2419 0 
L 2419 1100 
L 313 1100 
L 313 1709 
L 2253 4666 
z
" transform="scale(0.015625)"/>
        <path id="DejaVuSans-30" d="M 2034 4250 
Q 1547 4250 1301 3770 
Q 1056 3291 1056 2328 
Q 1056 1369 1301 889 
Q 1547 409 2034 409 
Q 2525 409 2770 889 
Q 3016 1369 3016 2328 
Q 3016 3291 2770 3770 
Q 2525 4250 2034 4250 
z
M 2034 4750 
Q 2819 4750 3233 4129 
Q 3647 3509 3647 2328 
Q 3647 1150 3233 529 
Q 2819 -91 2034 -91 
Q 1250 -91 836 529 
Q 422 1150 422 2328 
Q 422 3509 836 4129 
Q 1250 4750 2034 4750 
z
" transform="scale(0.015625)"/>
       </defs>
       <use xlink:href="#DejaVuSans-2212"/>
       <use xlink:href="#DejaVuSans-34" transform="translate(83.789062 0)"/>
       <use xlink:href="#DejaVuSans-30" transform="translate(147.412109 0)"/>
       <use xlink:href="#DejaVuSans-30" transform="translate(211.035156 0)"/>
      </g>
     </g>
    </g>
    <g id="xtick_2">
     <g id="line2d_3">
      <path d="M 149.537224 462.04 
L 149.537224 26.88 
" clip-path="url(#pb9a20a481c)" style="fill: none; stroke: #b0b0b0; stroke-width: 0.8; stroke-linecap: square"/>
     </g>
     <g id="line2d_4">
      <g>
       <use xlink:href="#mfcc7529d1c" x="149.537224" y="462.04" style="stroke: #000000; stroke-width: 0.8"/>
      </g>
     </g>
     <g id="text_2">
      <!-- −300 -->
      <g transform="translate(135.80363 476.638438) scale(0.1 -0.1)">
       <defs>
        <path id="DejaVuSans-33" d="M 2597 2516 
Q 3050 2419 3304 2112 
Q 3559 1806 3559 1356 
Q 3559 666 3084 287 
Q 2609 -91 1734 -91 
Q 1441 -91 1130 -33 
Q 819 25 488 141 
L 488 750 
Q 750 597 1062 519 
Q 1375 441 1716 441 
Q 2309 441 2620 675 
Q 2931 909 2931 1356 
Q 2931 1769 2642 2001 
Q 2353 2234 1838 2234 
L 1294 2234 
L 1294 2753 
L 1863 2753 
Q 2328 2753 2575 2939 
Q 2822 3125 2822 3475 
Q 2822 3834 2567 4026 
Q 2313 4219 1838 4219 
Q 1578 4219 1281 4162 
Q 984 4106 628 3988 
L 628 4550 
Q 988 4650 1302 4700 
Q 1616 4750 1894 4750 
Q 2613 4750 3031 4423 
Q 3450 4097 3450 3541 
Q 3450 3153 3228 2886 
Q 3006 2619 2597 2516 
z
" transform="scale(0.015625)"/>
       </defs>
       <use xlink:href="#DejaVuSans-2212"/>
       <use xlink:href="#DejaVuSans-33" transform="translate(83.789062 0)"/>
       <use xlink:href="#DejaVuSans-30" transform="translate(147.412109 0)"/>
       <use xlink:href="#DejaVuSans-30" transform="translate(211.035156 0)"/>
      </g>
     </g>
    </g>
    <g id="xtick_3">
     <g id="line2d_5">
      <path d="M 223.30744 462.04 
L 223.30744 26.88 
" clip-path="url(#pb9a20a481c)" style="fill: none; stroke: #b0b0b0; stroke-width: 0.8; stroke-linecap: square"/>
     </g>
     <g id="line2d_6">
      <g>
       <use xlink:href="#mfcc7529d1c" x="223.30744" y="462.04" style="stroke: #000000; stroke-width: 0.8"/>
      </g>
     </g>
     <g id="text_3">
      <!-- −200 -->
      <g transform="translate(209.573846 476.638438) scale(0.1 -0.1)">
       <defs>
        <path id="DejaVuSans-32" d="M 1228 531 
L 3431 531 
L 3431 0 
L 469 0 
L 469 531 
Q 828 903 1448 1529 
Q 2069 2156 2228 2338 
Q 2531 2678 2651 2914 
Q 2772 3150 2772 3378 
Q 2772 3750 2511 3984 
Q 2250 4219 1831 4219 
Q 1534 4219 1204 4116 
Q 875 4013 500 3803 
L 500 4441 
Q 881 4594 1212 4672 
Q 1544 4750 1819 4750 
Q 2544 4750 2975 4387 
Q 3406 4025 3406 3419 
Q 3406 3131 3298 2873 
Q 3191 2616 2906 2266 
Q 2828 2175 2409 1742 
Q 1991 1309 1228 531 
z
" transform="scale(0.015625)"/>
       </defs>
       <use xlink:href="#DejaVuSans-2212"/>
       <use xlink:href="#DejaVuSans-32" transform="translate(83.789062 0)"/>
       <use xlink:href="#DejaVuSans-30" transform="translate(147.412109 0)"/>
       <use xlink:href="#DejaVuSans-30" transform="translate(211.035156 0)"/>
      </g>
     </g>
    </g>
    <g id="xtick_4">
     <g id="line2d_7">
      <path d="M 297.077656 462.04 
L 297.077656 26.88 
" clip-path="url(#pb9a20a481c)" style="fill: none; stroke: #b0b0b0; stroke-width: 0.8; stroke-linecap: square"/>
     </g>
     <g id="line2d_8">
      <g>
       <use xlink:href="#mfcc7529d1c" x="297.077656" y="462.04" style="stroke: #000000; stroke-width: 0.8"/>
      </g>
     </g>
     <g id="text_4">
      <!-- −100 -->
      <g transform="translate(283.344062 476.638438) scale(0.1 -0.1)">
       <defs>
        <path id="DejaVuSans-31" d="M 794 531 
L 1825 531 
L 1825 4091 
L 703 3866 
L 703 4441 
L 1819 4666 
L 2450 4666 
L 2450 531 
L 3481 531 
L 3481 0 
L 794 0 
L 794 531 
z
" transform="scale(0.015625)"/>
       </defs>
       <use xlink:href="#DejaVuSans-2212"/>
       <use xlink:href="#DejaVuSans-31" transform="translate(83.789062 0)"/>
       <use xlink:href="#DejaVuSans-30" transform="translate(147.412109 0)"/>
       <use xlink:href="#DejaVuSans-30" transform="translate(211.035156 0)"/>
      </g>
     </g>
    </g>
    <g id="xtick_5">
     <g id="line2d_9">
      <path d="M 370.847872 462.04 
L 370.847872 26.88 
" clip-path="url(#pb9a20a481c)" style="fill: none; stroke: #b0b0b0; stroke-width: 0.8; stroke-linecap: square"/>
     </g>
     <g id="line2d_10">
      <g>
       <use xlink:href="#mfcc7529d1c" x="370.847872" y="462.04" style="stroke: #000000; stroke-width: 0.8"/>
      </g>
     </g>
     <g id="text_5">
      <!-- 0 -->
      <g transform="translate(367.666622 476.638438) scale(0.1 -0.1)">
       <use xlink:href="#DejaVuSans-30"/>
      </g>
     </g>
    </g>
    <g id="xtick_6">
     <g id="line2d_11">
      <path d="M 444.618089 462.04 
L 444.618089 26.88 
" clip-path="url(#pb9a20a481c)" style="fill: none; stroke: #b0b0b0; stroke-width: 0.8; stroke-linecap: square"/>
     </g>
     <g id="line2d_12">
      <g>
       <use xlink:href="#mfcc7529d1c" x="444.618089" y="462.04" style="stroke: #000000; stroke-width: 0.8"/>
      </g>
     </g>
     <g id="text_6">
      <!-- 100 -->
      <g transform="translate(435.074339 476.638438) scale(0.1 -0.1)">
       <use xlink:href="#DejaVuSans-31"/>
       <use xlink:href="#DejaVuSans-30" transform="translate(63.623047 0)"/>
       <use xlink:href="#DejaVuSans-30" transform="translate(127.246094 0)"/>
      </g>
     </g>
    </g>
    <g id="xtick_7">
     <g id="line2d_13">
      <path d="M 518.388305 462.04 
L 518.388305 26.88 
" clip-path="url(#pb9a20a481c)" style="fill: none; stroke: #b0b0b0; stroke-width: 0.8; stroke-linecap: square"/>
     </g>
     <g id="line2d_14">
      <g>
       <use xlink:href="#mfcc7529d1c" x="518.388305" y="462.04" style="stroke: #000000; stroke-width: 0.8"/>
      </g>
     </g>
     <g id="text_7">
      <!-- 200 -->
      <g transform="translate(508.844555 476.638438) scale(0.1 -0.1)">
       <use xlink:href="#DejaVuSans-32"/>
       <use xlink:href="#DejaVuSans-30" transform="translate(63.623047 0)"/>
       <use xlink:href="#DejaVuSans-30" transform="translate(127.246094 0)"/>
      </g>
     </g>
    </g>
    <g id="xtick_8">
     <g id="line2d_15">
      <path d="M 592.158521 462.04 
L 592.158521 26.88 
" clip-path="url(#pb9a20a481c)" style="fill: none; stroke: #b0b0b0; stroke-width: 0.8; stroke-linecap: square"/>
     </g>
     <g id="line2d_16">
      <g>
       <use xlink:href="#mfcc7529d1c" x="592.158521" y="462.04" style="stroke: #000000; stroke-width: 0.8"/>
      </g>
     </g>
     <g id="text_8">
      <!-- 300 -->
      <g transform="translate(582.614771 476.638438) scale(0.1 -0.1)">
       <use xlink:href="#DejaVuSans-33"/>
       <use xlink:href="#DejaVuSans-30" transform="translate(63.623047 0)"/>
       <use xlink:href="#DejaVuSans-30" transform="translate(127.246094 0)"/>
      </g>
     </g>
    </g>
    <g id="xtick_9">
     <g id="line2d_17">
      <path d="M 665.928738 462.04 
L 665.928738 26.88 
" clip-path="url(#pb9a20a481c)" style="fill: none; stroke: #b0b0b0; stroke-width: 0.8; stroke-linecap: square"/>
     </g>
     <g id="line2d_18">
      <g>
       <use xlink:href="#mfcc7529d1c" x="665.928738" y="462.04" style="stroke: #000000; stroke-width: 0.8"/>
      </g>
     </g>
     <g id="text_9">
      <!-- 400 -->
      <g transform="translate(656.384988 476.638438) scale(0.1 -0.1)">
       <use xlink:href="#DejaVuSans-34"/>
       <use xlink:href="#DejaVuSans-30" transform="translate(63.623047 0)"/>
       <use xlink:href="#DejaVuSans-30" transform="translate(127.246094 0)"/>
      </g>
     </g>
    </g>
    <g id="text_10">
     <!-- X (m) -->
     <g transform="translate(366.249063 490.316563) scale(0.1 -0.1)">
      <defs>
       <path id="DejaVuSans-58" d="M 403 4666 
L 1081 4666 
L 2241 2931 
L 3406 4666 
L 4084 4666 
L 2584 2425 
L 4184 0 
L 3506 0 
L 2194 1984 
L 872 0 
L 191 0 
L 1856 2491 
L 403 4666 
z
" transform="scale(0.015625)"/>
       <path id="DejaVuSans-20" transform="scale(0.015625)"/>
       <path id="DejaVuSans-28" d="M 1984 4856 
Q 1566 4138 1362 3434 
Q 1159 2731 1159 2009 
Q 1159 1288 1364 580 
Q 1569 -128 1984 -844 
L 1484 -844 
Q 1016 -109 783 600 
Q 550 1309 550 2009 
Q 550 2706 781 3412 
Q 1013 4119 1484 4856 
L 1984 4856 
z
" transform="scale(0.015625)"/>
       <path id="DejaVuSans-6d" d="M 3328 2828 
Q 3544 3216 3844 3400 
Q 4144 3584 4550 3584 
Q 5097 3584 5394 3201 
Q 5691 2819 5691 2113 
L 5691 0 
L 5113 0 
L 5113 2094 
Q 5113 2597 4934 2840 
Q 4756 3084 4391 3084 
Q 3944 3084 3684 2787 
Q 3425 2491 3425 1978 
L 3425 0 
L 2847 0 
L 2847 2094 
Q 2847 2600 2669 2842 
Q 2491 3084 2119 3084 
Q 1678 3084 1418 2786 
Q 1159 2488 1159 1978 
L 1159 0 
L 581 0 
L 581 3500 
L 1159 3500 
L 1159 2956 
Q 1356 3278 1631 3431 
Q 1906 3584 2284 3584 
Q 2666 3584 2933 3390 
Q 3200 3197 3328 2828 
z
" transform="scale(0.015625)"/>
       <path id="DejaVuSans-29" d="M 513 4856 
L 1013 4856 
Q 1481 4119 1714 3412 
Q 1947 2706 1947 2009 
Q 1947 1309 1714 600 
Q 1481 -109 1013 -844 
L 513 -844 
Q 928 -128 1133 580 
Q 1338 1288 1338 2009 
Q 1338 2731 1133 3434 
Q 928 4138 513 4856 
z
" transform="scale(0.015625)"/>
      </defs>
      <use xlink:href="#DejaVuSans-58"/>
      <use xlink:href="#DejaVuSans-20" transform="translate(68.505859 0)"/>
      <use xlink:href="#DejaVuSans-28" transform="translate(100.292969 0)"/>
      <use xlink:href="#DejaVuSans-6d" transform="translate(139.306641 0)"/>
      <use xlink:href="#DejaVuSans-29" transform="translate(236.71875 0)"/>
     </g>
    </g>
   </g>
   <g id="matplotlib.axis_2">
    <g id="ytick_1">
     <g id="line2d_19">
      <path d="M 50.87 404.886953 
L 709.2 404.886953 
" clip-path="url(#pb9a20a481c)" style="fill: none; stroke: #b0b0b0; stroke-width: 0.8; stroke-linecap: square"/>
     </g>
     <g id="line2d_20">
      <defs>
       <path id="mf294cb7030" d="M 0 0 
L -3.5 0 
" style="stroke: #000000; stroke-width: 0.8"/>
      </defs>
      <g>
       <use xlink:href="#mf294cb7030" x="50.87" y="404.886953" style="stroke: #000000; stroke-width: 0.8"/>
      </g>
     </g>
     <g id="text_11">
      <!-- 0 -->
      <g transform="translate(37.5075 408.686172) scale(0.1 -0.1)">
       <use xlink:href="#DejaVuSans-30"/>
      </g>
     </g>
    </g>
    <g id="ytick_2">
     <g id="line2d_21">
      <path d="M 50.87 331.116737 
L 709.2 331.116737 
" clip-path="url(#pb9a20a481c)" style="fill: none; stroke: #b0b0b0; stroke-width: 0.8; stroke-linecap: square"/>
     </g>
     <g id="line2d_22">
      <g>
       <use xlink:href="#mf294cb7030" x="50.87" y="331.116737" style="stroke: #000000; stroke-width: 0.8"/>
      </g>
     </g>
     <g id="text_12">
      <!-- 100 -->
      <g transform="translate(24.7825 334.915956) scale(0.1 -0.1)">
       <use xlink:href="#DejaVuSans-31"/>
       <use xlink:href="#DejaVuSans-30" transform="translate(63.623047 0)"/>
       <use xlink:href="#DejaVuSans-30" transform="translate(127.246094 0)"/>
      </g>
     </g>
    </g>
    <g id="ytick_3">
     <g id="line2d_23">
      <path d="M 50.87 257.346521 
L 709.2 257.346521 
" clip-path="url(#pb9a20a481c)" style="fill: none; stroke: #b0b0b0; stroke-width: 0.8; stroke-linecap: square"/>
     </g>
     <g id="line2d_24">
      <g>
       <use xlink:href="#mf294cb7030" x="50.87" y="257.346521" style="stroke: #000000; stroke-width: 0.8"/>
      </g>
     </g>
     <g id="text_13">
      <!-- 200 -->
      <g transform="translate(24.7825 261.145739) scale(0.1 -0.1)">
       <use xlink:href="#DejaVuSans-32"/>
       <use xlink:href="#DejaVuSans-30" transform="translate(63.623047 0)"/>
       <use xlink:href="#DejaVuSans-30" transform="translate(127.246094 0)"/>
      </g>
     </g>
    </g>
    <g id="ytick_4">
     <g id="line2d_25">
      <path d="M 50.87 183.576304 
L 709.2 183.576304 
" clip-path="url(#pb9a20a481c)" style="fill: none; stroke: #b0b0b0; stroke-width: 0.8; stroke-linecap: square"/>
     </g>
     <g id="line2d_26">
      <g>
       <use xlink:href="#mf294cb7030" x="50.87" y="183.576304" style="stroke: #000000; stroke-width: 0.8"/>
      </g>
     </g>
     <g id="text_14">
      <!-- 300 -->
      <g transform="translate(24.7825 187.375523) scale(0.1 -0.1)">
       <use xlink:href="#DejaVuSans-33"/>
       <use xlink:href="#DejaVuSans-30" transform="translate(63.623047 0)"/>
       <use xlink:href="#DejaVuSans-30" transform="translate(127.246094 0)"/>
      </g>
     </g>
    </g>
    <g id="ytick_5">
     <g id="line2d_27">
      <path d="M 50.87 109.806088 
L 709.2 109.806088 
" clip-path="url(#pb9a20a481c)" style="fill: none; stroke: #b0b0b0; stroke-width: 0.8; stroke-linecap: square"/>
     </g>
     <g id="line2d_28">
      <g>
       <use xlink:href="#mf294cb7030" x="50.87" y="109.806088" style="stroke: #000000; stroke-width: 0.8"/>
      </g>
     </g>
     <g id="text_15">
      <!-- 400 -->
      <g transform="translate(24.7825 113.605307) scale(0.1 -0.1)">
       <use xlink:href="#DejaVuSans-34"/>
       <use xlink:href="#DejaVuSans-30" transform="translate(63.623047 0)"/>
       <use xlink:href="#DejaVuSans-30" transform="translate(127.246094 0)"/>
      </g>
     </g>
    </g>
    <g id="ytick_6">
     <g id="line2d_29">
      <path d="M 50.87 36.035872 
L 709.2 36.035872 
" clip-path="url(#pb9a20a481c)" style="fill: none; stroke: #b0b0b0; stroke-width: 0.8; stroke-linecap: square"/>
     </g>
     <g id="line2d_30">
      <g>
       <use xlink:href="#mf294cb7030" x="50.87" y="36.035872" style="stroke: #000000; stroke-width: 0.8"/>
      </g>
     </g>
     <g id="text_16">
      <!-- 500 -->
      <g transform="translate(24.7825 39.835091) scale(0.1 -0.1)">
       <defs>
        <path id="DejaVuSans-35" d="M 691 4666 
L 3169 4666 
L 3169 4134 
L 1269 4134 
L 1269 2991 
Q 1406 3038 1543 3061 
Q 1681 3084 1819 3084 
Q 2600 3084 3056 2656 
Q 3513 2228 3513 1497 
Q 3513 744 3044 326 
Q 2575 -91 1722 -91 
Q 1428 -91 1123 -41 
Q 819 9 494 109 
L 494 744 
Q 775 591 1075 516 
Q 1375 441 1709 441 
Q 2250 441 2565 725 
Q 2881 1009 2881 1497 
Q 2881 1984 2565 2268 
Q 2250 2553 1709 2553 
Q 1456 2553 1204 2497 
Q 953 2441 691 2322 
L 691 4666 
z
" transform="scale(0.015625)"/>
       </defs>
       <use xlink:href="#DejaVuSans-35"/>
       <use xlink:href="#DejaVuSans-30" transform="translate(63.623047 0)"/>
       <use xlink:href="#DejaVuSans-30" transform="translate(127.246094 0)"/>
      </g>
     </g>
    </g>
    <g id="text_17">
     <!-- Z (m) -->
     <g transform="translate(18.702813 258.245937) rotate(-90) scale(0.1 -0.1)">
      <defs>
       <path id="DejaVuSans-5a" d="M 359 4666 
L 4025 4666 
L 4025 4184 
L 1075 531 
L 4097 531 
L 4097 0 
L 288 0 
L 288 481 
L 3238 4134 
L 359 4134 
L 359 4666 
z
" transform="scale(0.015625)"/>
      </defs>
      <use xlink:href="#DejaVuSans-5a"/>
      <use xlink:href="#DejaVuSans-20" transform="translate(68.505859 0)"/>
      <use xlink:href="#DejaVuSans-28" transform="translate(100.292969 0)"/>
      <use xlink:href="#DejaVuSans-6d" transform="translate(139.306641 0)"/>
      <use xlink:href="#DejaVuSans-29" transform="translate(236.71875 0)"/>
     </g>
    </g>
   </g>
   <g id="line2d_31">
    <path d="M 370.847872 404.886953 
L 370.819582 394.917174 
L 370.254952 393.881839 
L 369.646687 393.203787 
L 367.915225 392.130128 
L 366.884748 391.755862 
L 365.675741 391.493425 
L 364.280268 391.363825 
L 361.596025 391.442228 
L 349.882119 392.023914 
L 344.163673 392.410204 
L 336.821655 393.176182 
L 325.235866 394.533473 
L 317.440943 394.968644 
L 231.870391 396.947581 
L 225.14454 397.122542 
L 217.579183 397.301509 
L 211.555697 397.217484 
L 200.462574 397.346442 
L 187.299828 397.45782 
L 177.159006 397.844093 
L 137.004033 399.145754 
L 103.031741 400.139329 
L 98.454963 400.22726 
L 96.787093 400.125233 
L 95.314934 399.894314 
L 93.586867 399.339962 
L 92.457224 398.764137 
L 91.113942 397.721969 
L 90.263814 396.797334 
L 89.498817 395.703934 
L 88.656287 394.021191 
L 87.995306 392.093029 
L 87.49625 389.900888 
L 87.125112 387.474394 
L 86.78872 383.428798 
L 86.33164 378.123997 
L 85.954748 373.547152 
L 85.773568 366.219704 
L 85.755347 357.182631 
L 86.010223 355.508601 
L 86.648704 353.472904 
L 87.803429 351.238559 
L 89.106507 349.325882 
L 90.687255 347.815024 
L 92.193938 346.96092 
L 93.489343 346.464173 
L 95.372475 345.997444 
L 97.987777 345.666843 
L 101.415141 345.418716 
L 105.763305 345.342549 
L 112.320076 345.527343 
L 117.589335 345.587053 
L 124.707201 345.329071 
L 131.093268 345.116266 
L 137.401359 344.905799 
L 162.476224 343.591775 
L 171.331085 343.637505 
L 177.808479 343.742119 
L 182.357224 343.550294 
L 188.310628 342.985657 
L 192.987881 342.601306 
L 196.914891 342.505036 
L 200.739508 342.657283 
L 211.047494 343.199561 
L 212.260129 343.000691 
L 213.64273 342.44259 
L 214.810217 341.645215 
L 215.845656 340.565979 
L 216.74344 339.028895 
L 217.317224 337.426304 
L 217.673756 336.046033 
L 217.889976 334.526714 
L 218.007197 332.238745 
L 217.94014 328.426337 
L 217.773788 322.849456 
L 217.814214 317.846287 
L 218.007492 313.088255 
L 218.001738 306.699312 
L 217.845493 303.156645 
L 217.558748 301.148103 
L 217.130069 299.669379 
L 216.44917 298.312081 
L 215.554633 297.0917 
L 214.403965 296.003589 
L 213.357018 295.286395 
L 212.565906 294.894233 
L 211.227198 294.414579 
L 209.76013 294.096629 
L 207.082935 293.844188 
L 191.761746 293.237059 
L 186.991026 293.259928 
L 181.419162 293.538115 
L 163.534089 294.747061 
L 145.2421 295.242133 
L 130.010985 295.678041 
L 110.831245 296.227777 
L 96.225923 296.773308 
L 93.644481 296.674972 
L 91.480063 296.346842 
L 89.695857 295.82477 
L 88.168297 294.993601 
L 86.879679 293.899515 
L 85.954969 292.73638 
L 85.291996 291.643475 
L 84.764392 290.354856 
L 84.377319 288.899813 
L 84.047788 286.747493 
L 83.856797 283.738848 
L 83.644855 273.918631 
L 83.411667 257.434307 
L 83.665584 255.458962 
L 84.249697 253.63219 
L 84.915252 252.367695 
L 86.105755 250.909774 
L 86.827228 250.270703 
L 87.611332 249.644836 
L 89.895479 248.476169 
L 92.547297 247.684393 
L 95.539565 247.160477 
L 99.521681 246.734454 
L 106.770859 246.211275 
L 112.879106 246.013571 
L 120.51875 245.983325 
L 126.550498 246.2548 
L 134.038544 246.572971 
L 138.533953 246.527086 
L 144.565775 246.219611 
L 161.455318 245.306631 
L 169.902451 245.119329 
L 187.098805 244.772314 
L 195.940091 244.423676 
L 203.321613 244.253193 
L 206.381823 244.328733 
L 208.408512 244.610609 
L 210.028358 245.048067 
L 211.13683 245.522926 
L 212.078433 246.142964 
L 212.922659 246.970297 
L 213.660066 248.130481 
L 214.212752 249.649631 
L 214.559399 251.565149 
L 214.656554 253.377314 
L 214.750759 266.291823 
L 215.360691 282.166362 
L 216.211925 294.634488 
L 217.070242 301.851576 
L 217.118414 304.743147 
L 216.842661 312.100251 
L 216.665612 318.008507 
L 216.735399 322.426532 
L 217.413421 340.200639 
L 217.937042 344.698726 
L 218.450335 348.780086 
L 218.594925 351.376074 
L 218.486851 354.157263 
L 217.675895 363.494286 
L 217.698838 369.026587 
L 218.177238 389.157247 
L 218.474237 390.54845 
L 218.911178 391.717273 
L 219.483782 392.715185 
L 220.384664 393.728183 
L 221.503537 394.603865 
L 222.984621 395.403947 
L 225.359358 396.298182 
L 227.207229 396.82828 
L 229.030902 397.104173 
L 230.734847 397.144865 
L 236.449825 396.970354 
L 243.628331 396.472354 
L 249.602022 395.85607 
L 256.290841 395.100301 
L 259.381961 394.915448 
L 262.526047 394.93648 
L 270.615099 395.123332 
L 296.840559 395.074283 
L 333.325995 393.739027 
L 346.494849 392.970164 
L 349.146371 392.835357 
L 360.951163 392.573103 
L 361.790941 392.332281 
L 362.885189 391.716675 
L 363.634419 391.113892 
L 364.577417 389.963047 
L 365.534818 388.375851 
L 366.267168 386.716663 
L 366.863612 384.701851 
L 367.170024 382.917401 
L 367.317669 380.948865 
L 367.307628 377.344791 
L 367.092686 372.648779 
L 365.95896 351.679934 
L 365.964362 346.911265 
L 366.176338 345.345721 
L 366.621123 344.107333 
L 367.187253 343.126949 
L 367.838828 342.390906 
L 368.905601 341.676634 
L 369.565829 341.42597 
L 371.365436 341.12931 
L 379.274733 340.707868 
L 383.91485 340.824322 
L 386.543688 340.551321 
L 389.450198 340.294423 
L 393.098202 340.215378 
L 403.017824 340.10909 
L 414.083954 339.803608 
L 439.532842 339.436623 
L 448.13951 339.332312 
L 450.343838 339.308993 
L 450.995008 339.044549 
L 451.538399 338.597767 
L 452.163528 337.706077 
L 452.623633 336.671597 
L 452.907648 335.572849 
L 453.014762 334.18968 
L 452.864861 330.748476 
L 452.620756 326.050494 
L 452.134241 317.725746 
L 451.504243 307.774808 
L 451.082794 295.851697 
L 451.488088 292.124604 
L 451.688448 289.751785 
L 451.762292 287.413564 
L 451.745398 284.371207 
L 451.650308 273.875328 
L 451.622276 236.594738 
L 451.323064 234.326598 
L 450.518599 229.816361 
L 450.243289 227.050347 
L 450.044405 222.260447 
L 449.465677 196.970984 
L 449.733463 195.826808 
L 450.344059 194.551763 
L 451.069589 193.621816 
L 451.900242 192.608877 
L 452.408519 191.521135 
L 452.440019 190.728696 
L 452.268503 189.983764 
L 451.949594 189.240308 
L 451.351096 188.160164 
L 450.590009 186.826399 
L 450.010544 185.267192 
L 449.605767 183.662616 
L 449.247244 181.240739 
L 448.683565 174.779501 
L 448.633254 168.915433 
L 448.521566 158.279243 
L 448.022806 142.005091 
L 448.053863 140.322245 
L 448.286165 138.983241 
L 448.737049 137.814057 
L 449.396112 136.805692 
L 450.260625 135.958589 
L 450.91836 135.472 
L 453.06677 134.299792 
L 454.672379 133.674294 
L 456.541643 133.220902 
L 458.118702 133.000846 
L 460.414653 132.884731 
L 466.288385 132.861863 
L 474.594837 132.790896 
L 482.797864 132.513962 
L 487.843157 132.206341 
L 499.919489 131.793965 
L 580.396598 129.252286 
L 588.502101 129.055467 
L 610.411633 128.875763 
L 614.108111 128.753599 
L 616.990756 128.448559 
L 619.09247 128.012651 
L 621.807214 127.196826 
L 623.775034 126.403649 
L 626.334787 125.146088 
L 629.433136 123.33621 
L 634.906444 120.095263 
L 637.375164 118.899153 
L 639.9119 117.979533 
L 641.875959 117.469191 
L 644.535522 117.032692 
L 647.31216 116.841775 
L 650.854458 116.832111 
L 654.528288 117.049512 
L 662.974167 117.849919 
L 668.230885 118.506179 
L 670.865219 119.004939 
L 672.568057 119.539109 
L 673.552004 119.989698 
L 674.411649 120.489417 
L 675.196121 121.029858 
L 675.959053 121.579667 
L 677.347924 123.426283 
L 677.823005 124.178666 
L 678.593756 126.385354 
L 678.872755 129.282163 
L 678.911779 133.162845 
L 678.880353 144.838605 
L 679.108082 150.548936 
L 679.272663 154.627617 
L 679.203614 158.637914 
L 678.825689 164.882637 
L 678.494314 166.759867 
L 677.794677 169.205866 
L 676.879631 171.583407 
L 676.056282 173.284253 
L 674.158248 176.534347 
L 671.785134 180.11626 
L 669.584052 183.04538 
L 666.584924 187.02366 
L 663.34951 191.644848 
L 658.856608 198.86828 
L 654.89618 205.864795 
L 649.717142 214.86004 
L 646.945227 219.386433 
L 641.85486 227.86086 
L 637.597729 234.867039 
L 634.335757 240.399805 
L 631.986545 244.177873 
L 625.557175 254.070533 
L 622.21236 259.592898 
L 618.859356 265.116738 
L 607.658455 284.025224 
L 604.994613 288.345134 
L 602.226164 292.813323 
L 599.249978 297.492125 
L 596.828987 301.167357 
L 592.89401 306.851057 
L 588.085151 314.258103 
L 580.14305 327.191424 
L 574.544628 336.26952 
L 558.222599 362.204008 
L 557.42079 364.00825 
L 556.801047 365.848957 
L 556.347655 367.721887 
L 556.034427 370.202831 
L 555.907026 373.187567 
L 555.747829 378.018225 
L 555.435634 379.486754 
L 554.757317 381.325779 
L 554.060483 382.539919 
L 552.88134 383.943545 
L 551.842065 384.800828 
L 550.686234 385.47691 
L 549.462312 385.963713 
L 548.031686 386.263898 
L 546.814256 386.306759 
L 545.499597 386.040552 
L 544.394446 385.412229 
L 543.391982 384.255379 
L 543.105606 383.763051 
L 542.434223 381.960048 
L 542.227519 380.888159 
L 541.972643 378.897005 
L 541.649898 373.522358 
L 541.340137 363.771418 
L 541.096105 357.388952 
L 540.639837 349.362096 
L 538.517099 300.408925 
L 537.353374 266.955091 
L 536.973383 256.361762 
L 536.517114 243.06291 
L 536.192452 240.017749 
L 534.525466 213.703544 
L 533.899747 200.047202 
L 534.071484 196.409814 
L 534.197189 193.995388 
L 534.08823 192.239657 
L 533.90705 191.19035 
L 533.282807 189.610856 
L 532.764719 188.775482 
L 531.435896 187.34611 
L 530.676726 186.762145 
L 529.781746 186.231958 
L 527.530353 185.518527 
L 524.601675 185.383306 
L 513.090276 185.698895 
L 498.88228 186.250549 
L 494.430911 186.346671 
L 464.967455 187.128193 
L 459.986638 187.582912 
L 449.642947 188.970899 
L 445.74397 189.394709 
L 440.985444 189.700634 
L 408.813847 190.676835 
L 377.334543 191.307349 
L 374.597492 191.122555 
L 371.300125 190.636631 
L 368.357896 190.018805 
L 366.536661 189.489209 
L 365.069215 188.828523 
L 364.313367 188.25223 
L 363.086899 186.76635 
L 362.49909 185.767354 
L 361.820146 184.063778 
L 361.205677 181.463083 
L 360.881022 178.889609 
L 360.661393 175.351442 
L 360.661393 175.351442 
" clip-path="url(#pb9a20a481c)" style="fill: none; stroke: #000000; stroke-width: 2; stroke-linecap: square"/>
   </g>
   <g id="line2d_32">
    <path d="M 370.847872 404.886953 
L 370.751704 401.110493 
L 370.77613 398.461501 
L 370.884223 394.881646 
L 370.939701 393.937207 
L 370.765528 392.713966 
L 370.406261 391.802422 
L 369.918226 390.996086 
L 369.105734 390.179464 
L 368.071302 389.467889 
L 367.111519 389.035055 
L 365.943452 388.749497 
L 364.611176 388.600783 
L 362.182886 388.6695 
L 357.352017 388.848728 
L 351.531646 389.113533 
L 346.183604 389.485665 
L 331.512042 390.940147 
L 328.119139 391.14615 
L 319.569084 391.411757 
L 272.621218 392.422101 
L 266.136023 392.58201 
L 243.185215 393.027896 
L 224.540619 393.420226 
L 216.152826 393.658835 
L 208.53111 393.785062 
L 201.246088 393.777836 
L 184.413105 394.050339 
L 165.930487 394.750935 
L 162.365955 394.892869 
L 151.488474 395.222623 
L 133.053637 395.846145 
L 118.240751 396.253916 
L 108.89577 396.462496 
L 103.468235 396.593956 
L 98.117546 396.612229 
L 96.408736 396.448477 
L 94.407211 396.021209 
L 93.122295 395.523064 
L 91.95048 394.815212 
L 90.91182 393.983622 
L 90.014865 393.020146 
L 89.245379 391.923901 
L 88.596762 390.66661 
L 88.020187 389.239258 
L 87.433059 387.107142 
L 86.974803 384.775615 
L 86.60191 381.552694 
L 86.15689 375.735789 
L 85.641218 364.572479 
L 85.47399 356.993313 
L 85.538951 353.954348 
L 85.804385 351.664185 
L 86.451826 349.072012 
L 87.006202 347.668364 
L 87.667212 346.398049 
L 88.491402 345.275331 
L 89.48606 344.29875 
L 90.596477 343.481413 
L 91.814618 342.849235 
L 93.147648 342.323276 
L 95.007582 341.84833 
L 98.187964 341.45557 
L 101.715609 341.224948 
L 106.12613 341.17204 
L 117.377227 341.354608 
L 123.247583 341.112064 
L 129.086317 340.93934 
L 137.413213 340.78315 
L 148.665093 340.211814 
L 162.706779 339.417159 
L 174.308066 339.479471 
L 179.471017 339.471122 
L 183.427139 339.234557 
L 193.381759 338.290337 
L 197.298234 338.183676 
L 202.965937 338.433589 
L 210.719418 338.797594 
L 211.954112 338.683298 
L 213.138585 338.35632 
L 214.199964 337.855629 
L 215.152757 337.226546 
L 216.234225 336.178394 
L 217.023662 334.994914 
L 217.486795 333.943687 
L 218.054856 331.803526 
L 218.279818 329.77676 
L 218.27412 327.469191 
L 217.782427 313.540113 
L 217.66657 305.804336 
L 217.361534 299.854896 
L 217.136556 298.007954 
L 216.606813 295.738771 
L 216.185363 294.70737 
L 215.494469 293.470909 
L 214.844289 292.618132 
L 213.720017 291.525987 
L 212.677618 290.832776 
L 211.438099 290.268364 
L 210.057776 289.897327 
L 208.589902 289.69386 
L 205.84053 289.592547 
L 187.941404 289.624936 
L 183.203285 289.962609 
L 176.243509 290.751748 
L 168.456541 291.674149 
L 164.163297 292.037705 
L 150.58179 292.879404 
L 138.956388 293.730785 
L 124.573819 294.573278 
L 114.592413 295.209266 
L 104.914178 296.083456 
L 97.285581 296.717468 
L 92.942432 296.802407 
L 91.130453 296.624633 
L 89.547216 296.338181 
L 88.199789 295.83285 
L 86.96451 295.128958 
L 85.600231 293.987228 
L 84.314568 292.386378 
L 83.663555 291.144117 
L 83.177058 289.736354 
L 82.813411 288.192252 
L 82.475499 285.918606 
L 82.241414 282.752457 
L 81.704833 274.190282 
L 80.800452 257.672051 
L 80.990697 255.638626 
L 81.360766 254.186877 
L 81.936635 252.830968 
L 82.98583 251.184691 
L 84.002244 250.095603 
L 85.225262 249.154081 
L 86.567738 248.388556 
L 88.558562 247.577297 
L 90.782367 246.974297 
L 93.849752 246.394582 
L 98.61226 245.742474 
L 105.995223 244.962294 
L 112.836959 244.49491 
L 119.622702 244.291331 
L 124.177616 244.369173 
L 128.661392 244.432945 
L 133.144599 244.298898 
L 140.544349 243.645454 
L 158.111257 241.983378 
L 165.907506 241.50989 
L 179.135982 240.715667 
L 186.336583 240.224135 
L 202.369727 239.199053 
L 204.432096 239.379783 
L 206.401262 239.840463 
L 207.740744 240.366312 
L 208.937748 241.107524 
L 209.655562 241.811619 
L 210.314124 242.786433 
L 210.822397 243.969397 
L 211.166194 245.372087 
L 211.38286 247.049909 
L 211.498323 250.571936 
L 211.796437 259.525552 
L 212.502796 272.560527 
L 214.085555 288.941725 
L 214.431328 291.202441 
L 215.232254 297.541756 
L 215.313929 301.160598 
L 215.275352 305.228089 
L 215.244174 310.259887 
L 215.280494 315.43945 
L 215.541193 319.77238 
L 215.896716 324.463782 
L 216.087263 326.829523 
L 216.431076 331.611128 
L 216.69752 334.6989 
L 216.966929 336.805648 
L 218.385927 346.190859 
L 218.403728 349.544229 
L 217.997681 357.581849 
L 218.132374 362.409447 
L 219.310539 384.309415 
L 219.658213 385.954939 
L 220.083392 387.066273 
L 220.661263 388.041095 
L 221.382153 388.810154 
L 222.422043 389.641371 
L 223.830311 390.408476 
L 226.135296 391.239685 
L 228.400775 391.81513 
L 230.163373 392.006437 
L 232.349837 391.969705 
L 234.547252 391.818039 
L 240.860423 391.139059 
L 253.016788 389.356829 
L 258.291128 388.536784 
L 262.248298 388.17314 
L 265.420729 388.055573 
L 270.281785 387.916977 
L 277.848455 387.57668 
L 310.972886 385.480744 
L 336.674571 383.057668 
L 344.638287 382.256178 
L 353.186551 381.488479 
L 356.298689 381.369609 
L 361.303865 381.049253 
L 363.250215 380.562735 
L 364.703593 379.564901 
L 365.478125 378.715436 
L 366.0307 377.883416 
L 366.670039 376.498936 
L 367.188417 374.840055 
L 367.548683 372.847189 
L 367.727479 370.45815 
L 367.671835 368.457824 
L 367.306084 364.078103 
L 365.352979 347.085849 
L 364.212408 334.598 
L 364.342528 333.487374 
L 364.673468 332.265516 
L 365.164238 331.282866 
L 365.885756 330.422947 
L 366.965459 329.614325 
L 368.290498 329.169025 
L 371.54344 328.707245 
L 375.770407 328.24878 
L 381.536675 327.965124 
L 384.696509 327.443378 
L 388.274649 327.081643 
L 392.540609 326.778093 
L 398.750689 326.313011 
L 416.725547 324.708955 
L 420.709812 324.374835 
L 440.192893 322.841142 
L 447.349619 322.109338 
L 448.091185 321.511105 
L 448.605166 320.772421 
L 449.124211 319.546611 
L 449.335999 318.505705 
L 449.351014 316.566665 
L 449.000259 311.955552 
L 447.91531 301.034912 
L 446.670751 291.115791 
L 445.670789 281.717395 
L 445.237659 277.149032 
L 445.098136 273.778378 
L 444.251627 263.808259 
L 443.40829 254.963041 
L 442.419902 244.602982 
L 441.503381 236.651118 
L 441.015037 230.070706 
L 440.253535 223.437457 
L 439.798283 219.826551 
L 439.320889 217.574442 
L 438.208044 213.133624 
L 437.724265 210.411067 
L 437.107374 205.000573 
L 435.982693 195.464952 
L 435.598439 192.429248 
L 434.581216 183.020115 
L 434.472026 180.729582 
L 434.634822 179.203363 
L 434.958653 177.975291 
L 435.376307 177.060835 
L 436.311173 175.629224 
L 436.909999 174.532216 
L 437.036941 173.938559 
L 436.952818 173.097577 
L 436.526911 172.265503 
L 435.644391 170.984526 
L 434.387703 168.420519 
L 433.774343 166.382348 
L 432.826415 161.785237 
L 432.258653 158.325499 
L 431.790021 153.823296 
L 431.210116 147.519083 
L 430.070902 136.137697 
L 428.793373 126.666725 
L 428.581105 123.627501 
L 428.652372 122.46457 
L 428.947099 121.181259 
L 429.463242 120.032534 
L 430.065072 119.26161 
L 431.020506 118.292527 
L 433.039907 116.914566 
L 435.019231 115.986203 
L 436.933493 115.41527 
L 439.156151 115.03663 
L 443.550242 114.604342 
L 455.47951 113.594413 
L 470.305453 111.964831 
L 476.290551 111.37026 
L 530.73531 105.511439 
L 540.684001 104.492747 
L 574.523805 100.704962 
L 582.26876 99.898044 
L 593.309623 98.667755 
L 596.690884 97.867174 
L 599.30543 96.954471 
L 601.738274 95.754142 
L 604.669385 93.99337 
L 608.676434 91.192179 
L 611.532964 89.189277 
L 614.478155 87.424635 
L 616.328684 86.527711 
L 618.233894 85.790599 
L 620.84555 85.02847 
L 622.82344 84.636987 
L 627.025392 84.177073 
L 630.645153 84.051303 
L 637.477261 84.062369 
L 642.841441 84.139653 
L 646.430475 84.342904 
L 648.363368 84.574915 
L 649.500269 84.849955 
L 651.443868 85.633082 
L 652.692804 86.361026 
L 653.775589 87.27315 
L 654.932268 88.706509 
L 655.621697 89.91915 
L 656.267101 91.719685 
L 656.64151 93.678973 
L 656.916111 96.167174 
L 657.875634 108.016172 
L 658.431371 113.23864 
L 659.068519 117.583142 
L 659.42437 121.376845 
L 659.72079 126.20614 
L 659.686125 130.078954 
L 659.40599 133.15402 
L 658.88226 135.61729 
L 658.547502 136.827931 
L 657.452936 139.795381 
L 655.596684 143.724563 
L 653.210716 147.951312 
L 651.276043 151.116337 
L 649.746748 153.828573 
L 647.546588 158.229036 
L 642.219454 169.858505 
L 638.833884 177.869914 
L 636.00011 183.836827 
L 626.010278 203.588385 
L 621.849193 211.971805 
L 610.586488 233.614571 
L 606.287305 242.344993 
L 603.116731 249.079102 
L 600.581506 254.280132 
L 595.157476 265.291189 
L 592.35899 270.969097 
L 589.941701 275.61139 
L 586.321217 282.586202 
L 579.715234 295.941951 
L 577.449699 300.429276 
L 560.023004 334.904292 
L 558.99701 337.363131 
L 558.210749 339.874328 
L 557.746291 342.435934 
L 557.60483 344.355401 
L 557.616219 346.812102 
L 558.038191 353.534246 
L 557.751184 355.555399 
L 556.991111 357.902843 
L 556.272868 359.149615 
L 555.413576 360.221113 
L 554.414667 361.16713 
L 553.31397 361.910362 
L 552.187249 362.451433 
L 550.855725 362.793849 
L 549.779489 362.885452 
L 548.745232 362.764087 
L 547.854947 362.434554 
L 547.079265 361.914215 
L 546.389398 361.131018 
L 545.790002 360.096247 
L 545.276664 358.836219 
L 544.795325 356.583406 
L 543.706616 348.593752 
L 542.597339 337.772793 
L 542.091892 333.50114 
L 541.402262 327.747717 
L 539.623979 312.982274 
L 538.590167 304.892911 
L 537.471001 295.691016 
L 535.406735 279.221137 
L 533.76878 267.194804 
L 532.732232 259.191 
L 528.629042 227.890197 
L 527.725044 219.956237 
L 526.674028 211.01951 
L 525.117609 200.08899 
L 522.439941 178.885753 
L 522.36598 175.307843 
L 522.297782 172.968514 
L 522.062528 171.296233 
L 521.782699 170.318982 
L 521.119042 169.02425 
L 520.366571 168.051727 
L 519.571888 167.297618 
L 518.277334 166.398445 
L 517.051772 165.882336 
L 516.019501 165.622608 
L 514.808584 165.535572 
L 513.423165 165.583874 
L 510.197987 166.041555 
L 486.337352 169.796027 
L 452.211817 175.800159 
L 448.151713 176.843476 
L 435.080474 180.456603 
L 430.379796 181.467607 
L 423.936785 182.555967 
L 410.694853 184.784855 
L 399.560614 186.705283 
L 394.063848 187.610967 
L 383.572355 189.385713 
L 373.473798 191.053945 
L 366.10802 192.041162 
L 360.780207 192.101521 
L 358.001013 191.850822 
L 355.514092 191.263365 
L 354.500174 190.759056 
L 354.01575 190.374398 
L 352.967767 189.313034 
L 352.234962 188.275516 
L 351.338142 186.500804 
L 350.482302 184.286632 
L 349.660577 181.194542 
L 349.053829 178.263213 
L 349.053829 178.263213 
" clip-path="url(#pb9a20a481c)" style="fill: none; stroke-dasharray: 5.55,2.4; stroke-dashoffset: 0; stroke: #ff0000; stroke-width: 1.5"/>
   </g>
   <g id="patch_3">
    <path d="M 50.87 462.04 
L 50.87 26.88 
" style="fill: none; stroke: #000000; stroke-width: 0.8; stroke-linejoin: miter; stroke-linecap: square"/>
   </g>
   <g id="patch_4">
    <path d="M 709.2 462.04 
L 709.2 26.88 
" style="fill: none; stroke: #000000; stroke-width: 0.8; stroke-linejoin: miter; stroke-linecap: square"/>
   </g>
   <g id="patch_5">
    <path d="M 50.87 462.04 
L 709.2 462.04 
" style="fill: none; stroke: #000000; stroke-width: 0.8; stroke-linejoin: miter; stroke-linecap: square"/>
   </g>
   <g id="patch_6">
    <path d="M 50.87 26.88 
L 709.2 26.88 
" style="fill: none; stroke: #000000; stroke-width: 0.8; stroke-linejoin: miter; stroke-linecap: square"/>
   </g>
   <g id="text_18">
    <!-- KITTI 08: Ground Truth vs Estimated Trajectory (Top-down X-Z) -->
    <g transform="translate(193.3 20.88) scale(0.12 -0.12)">
     <defs>
      <path id="DejaVuSans-4b" d="M 628 4666 
L 1259 4666 
L 1259 2694 
L 3353 4666 
L 4166 4666 
L 1850 2491 
L 4331 0 
L 3500 0 
L 1259 2247 
L 1259 0 
L 628 0 
L 628 4666 
z
" transform="scale(0.015625)"/>
      <path id="DejaVuSans-49" d="M 628 4666 
L 1259 4666 
L 1259 0 
L 628 0 
L 628 4666 
z
" transform="scale(0.015625)"/>
      <path id="DejaVuSans-54" d="M -19 4666 
L 3928 4666 
L 3928 4134 
L 2272 4134 
L 2272 0 
L 1638 0 
L 1638 4134 
L -19 4134 
L -19 4666 
z
" transform="scale(0.015625)"/>
      <path id="DejaVuSans-38" d="M 2034 2216 
Q 1584 2216 1326 1975 
Q 1069 1734 1069 1313 
Q 1069 891 1326 650 
Q 1584 409 2034 409 
Q 2484 409 2743 651 
Q 3003 894 3003 1313 
Q 3003 1734 2745 1975 
Q 2488 2216 2034 2216 
z
M 1403 2484 
Q 997 2584 770 2862 
Q 544 3141 544 3541 
Q 544 4100 942 4425 
Q 1341 4750 2034 4750 
Q 2731 4750 3128 4425 
Q 3525 4100 3525 3541 
Q 3525 3141 3298 2862 
Q 3072 2584 2669 2484 
Q 3125 2378 3379 2068 
Q 3634 1759 3634 1313 
Q 3634 634 3220 271 
Q 2806 -91 2034 -91 
Q 1263 -91 848 271 
Q 434 634 434 1313 
Q 434 1759 690 2068 
Q 947 2378 1403 2484 
z
M 1172 3481 
Q 1172 3119 1398 2916 
Q 1625 2713 2034 2713 
Q 2441 2713 2670 2916 
Q 2900 3119 2900 3481 
Q 2900 3844 2670 4047 
Q 2441 4250 2034 4250 
Q 1625 4250 1398 4047 
Q 1172 3844 1172 3481 
z
" transform="scale(0.015625)"/>
      <path id="DejaVuSans-3a" d="M 750 794 
L 1409 794 
L 1409 0 
L 750 0 
L 750 794 
z
M 750 3309 
L 1409 3309 
L 1409 2516 
L 750 2516 
L 750 3309 
z
" transform="scale(0.015625)"/>
      <path id="DejaVuSans-47" d="M 3809 666 
L 3809 1919 
L 2778 1919 
L 2778 2438 
L 4434 2438 
L 4434 434 
Q 4069 175 3628 42 
Q 3188 -91 2688 -91 
Q 1594 -91 976 548 
Q 359 1188 359 2328 
Q 359 3472 976 4111 
Q 1594 4750 2688 4750 
Q 3144 4750 3555 4637 
Q 3966 4525 4313 4306 
L 4313 3634 
Q 3963 3931 3569 4081 
Q 3175 4231 2741 4231 
Q 1884 4231 1454 3753 
Q 1025 3275 1025 2328 
Q 1025 1384 1454 906 
Q 1884 428 2741 428 
Q 3075 428 3337 486 
Q 3600 544 3809 666 
z
" transform="scale(0.015625)"/>
      <path id="DejaVuSans-72" d="M 2631 2963 
Q 2534 3019 2420 3045 
Q 2306 3072 2169 3072 
Q 1681 3072 1420 2755 
Q 1159 2438 1159 1844 
L 1159 0 
L 581 0 
L 581 3500 
L 1159 3500 
L 1159 2956 
Q 1341 3275 1631 3429 
Q 1922 3584 2338 3584 
Q 2397 3584 2469 3576 
Q 2541 3569 2628 3553 
L 2631 2963 
z
" transform="scale(0.015625)"/>
      <path id="DejaVuSans-6f" d="M 1959 3097 
Q 1497 3097 1228 2736 
Q 959 2375 959 1747 
Q 959 1119 1226 758 
Q 1494 397 1959 397 
Q 2419 397 2687 759 
Q 2956 1122 2956 1747 
Q 2956 2369 2687 2733 
Q 2419 3097 1959 3097 
z
M 1959 3584 
Q 2709 3584 3137 3096 
Q 3566 2609 3566 1747 
Q 3566 888 3137 398 
Q 2709 -91 1959 -91 
Q 1206 -91 779 398 
Q 353 888 353 1747 
Q 353 2609 779 3096 
Q 1206 3584 1959 3584 
z
" transform="scale(0.015625)"/>
      <path id="DejaVuSans-75" d="M 544 1381 
L 544 3500 
L 1119 3500 
L 1119 1403 
Q 1119 906 1312 657 
Q 1506 409 1894 409 
Q 2359 409 2629 706 
Q 2900 1003 2900 1516 
L 2900 3500 
L 3475 3500 
L 3475 0 
L 2900 0 
L 2900 538 
Q 2691 219 2414 64 
Q 2138 -91 1772 -91 
Q 1169 -91 856 284 
Q 544 659 544 1381 
z
M 1991 3584 
L 1991 3584 
z
" transform="scale(0.015625)"/>
      <path id="DejaVuSans-6e" d="M 3513 2113 
L 3513 0 
L 2938 0 
L 2938 2094 
Q 2938 2591 2744 2837 
Q 2550 3084 2163 3084 
Q 1697 3084 1428 2787 
Q 1159 2491 1159 1978 
L 1159 0 
L 581 0 
L 581 3500 
L 1159 3500 
L 1159 2956 
Q 1366 3272 1645 3428 
Q 1925 3584 2291 3584 
Q 2894 3584 3203 3211 
Q 3513 2838 3513 2113 
z
" transform="scale(0.015625)"/>
      <path id="DejaVuSans-64" d="M 2906 2969 
L 2906 4863 
L 3481 4863 
L 3481 0 
L 2906 0 
L 2906 525 
Q 2725 213 2448 61 
Q 2172 -91 1784 -91 
Q 1150 -91 751 415 
Q 353 922 353 1747 
Q 353 2572 751 3078 
Q 1150 3584 1784 3584 
Q 2172 3584 2448 3432 
Q 2725 3281 2906 2969 
z
M 947 1747 
Q 947 1113 1208 752 
Q 1469 391 1925 391 
Q 2381 391 2643 752 
Q 2906 1113 2906 1747 
Q 2906 2381 2643 2742 
Q 2381 3103 1925 3103 
Q 1469 3103 1208 2742 
Q 947 2381 947 1747 
z
" transform="scale(0.015625)"/>
      <path id="DejaVuSans-74" d="M 1172 4494 
L 1172 3500 
L 2356 3500 
L 2356 3053 
L 1172 3053 
L 1172 1153 
Q 1172 725 1289 603 
Q 1406 481 1766 481 
L 2356 481 
L 2356 0 
L 1766 0 
Q 1100 0 847 248 
Q 594 497 594 1153 
L 594 3053 
L 172 3053 
L 172 3500 
L 594 3500 
L 594 4494 
L 1172 4494 
z
" transform="scale(0.015625)"/>
      <path id="DejaVuSans-68" d="M 3513 2113 
L 3513 0 
L 2938 0 
L 2938 2094 
Q 2938 2591 2744 2837 
Q 2550 3084 2163 3084 
Q 1697 3084 1428 2787 
Q 1159 2491 1159 1978 
L 1159 0 
L 581 0 
L 581 4863 
L 1159 4863 
L 1159 2956 
Q 1366 3272 1645 3428 
Q 1925 3584 2291 3584 
Q 2894 3584 3203 3211 
Q 3513 2838 3513 2113 
z
" transform="scale(0.015625)"/>
      <path id="DejaVuSans-76" d="M 191 3500 
L 800 3500 
L 1894 563 
L 2988 3500 
L 3597 3500 
L 2284 0 
L 1503 0 
L 191 3500 
z
" transform="scale(0.015625)"/>
      <path id="DejaVuSans-73" d="M 2834 3397 
L 2834 2853 
Q 2591 2978 2328 3040 
Q 2066 3103 1784 3103 
Q 1356 3103 1142 2972 
Q 928 2841 928 2578 
Q 928 2378 1081 2264 
Q 1234 2150 1697 2047 
L 1894 2003 
Q 2506 1872 2764 1633 
Q 3022 1394 3022 966 
Q 3022 478 2636 193 
Q 2250 -91 1575 -91 
Q 1294 -91 989 -36 
Q 684 19 347 128 
L 347 722 
Q 666 556 975 473 
Q 1284 391 1588 391 
Q 1994 391 2212 530 
Q 2431 669 2431 922 
Q 2431 1156 2273 1281 
Q 2116 1406 1581 1522 
L 1381 1569 
Q 847 1681 609 1914 
Q 372 2147 372 2553 
Q 372 3047 722 3315 
Q 1072 3584 1716 3584 
Q 2034 3584 2315 3537 
Q 2597 3491 2834 3397 
z
" transform="scale(0.015625)"/>
      <path id="DejaVuSans-45" d="M 628 4666 
L 3578 4666 
L 3578 4134 
L 1259 4134 
L 1259 2753 
L 3481 2753 
L 3481 2222 
L 1259 2222 
L 1259 531 
L 3634 531 
L 3634 0 
L 628 0 
L 628 4666 
z
" transform="scale(0.015625)"/>
      <path id="DejaVuSans-69" d="M 603 3500 
L 1178 3500 
L 1178 0 
L 603 0 
L 603 3500 
z
M 603 4863 
L 1178 4863 
L 1178 4134 
L 603 4134 
L 603 4863 
z
" transform="scale(0.015625)"/>
      <path id="DejaVuSans-61" d="M 2194 1759 
Q 1497 1759 1228 1600 
Q 959 1441 959 1056 
Q 959 750 1161 570 
Q 1363 391 1709 391 
Q 2188 391 2477 730 
Q 2766 1069 2766 1631 
L 2766 1759 
L 2194 1759 
z
M 3341 1997 
L 3341 0 
L 2766 0 
L 2766 531 
Q 2569 213 2275 61 
Q 1981 -91 1556 -91 
Q 1019 -91 701 211 
Q 384 513 384 1019 
Q 384 1609 779 1909 
Q 1175 2209 1959 2209 
L 2766 2209 
L 2766 2266 
Q 2766 2663 2505 2880 
Q 2244 3097 1772 3097 
Q 1472 3097 1187 3025 
Q 903 2953 641 2809 
L 641 3341 
Q 956 3463 1253 3523 
Q 1550 3584 1831 3584 
Q 2591 3584 2966 3190 
Q 3341 2797 3341 1997 
z
" transform="scale(0.015625)"/>
      <path id="DejaVuSans-65" d="M 3597 1894 
L 3597 1613 
L 953 1613 
Q 991 1019 1311 708 
Q 1631 397 2203 397 
Q 2534 397 2845 478 
Q 3156 559 3463 722 
L 3463 178 
Q 3153 47 2828 -22 
Q 2503 -91 2169 -91 
Q 1331 -91 842 396 
Q 353 884 353 1716 
Q 353 2575 817 3079 
Q 1281 3584 2069 3584 
Q 2775 3584 3186 3129 
Q 3597 2675 3597 1894 
z
M 3022 2063 
Q 3016 2534 2758 2815 
Q 2500 3097 2075 3097 
Q 1594 3097 1305 2825 
Q 1016 2553 972 2059 
L 3022 2063 
z
" transform="scale(0.015625)"/>
      <path id="DejaVuSans-6a" d="M 603 3500 
L 1178 3500 
L 1178 -63 
Q 1178 -731 923 -1031 
Q 669 -1331 103 -1331 
L -116 -1331 
L -116 -844 
L 38 -844 
Q 366 -844 484 -692 
Q 603 -541 603 -63 
L 603 3500 
z
M 603 4863 
L 1178 4863 
L 1178 4134 
L 603 4134 
L 603 4863 
z
" transform="scale(0.015625)"/>
      <path id="DejaVuSans-63" d="M 3122 3366 
L 3122 2828 
Q 2878 2963 2633 3030 
Q 2388 3097 2138 3097 
Q 1578 3097 1268 2742 
Q 959 2388 959 1747 
Q 959 1106 1268 751 
Q 1578 397 2138 397 
Q 2388 397 2633 464 
Q 2878 531 3122 666 
L 3122 134 
Q 2881 22 2623 -34 
Q 2366 -91 2075 -91 
Q 1284 -91 818 406 
Q 353 903 353 1747 
Q 353 2603 823 3093 
Q 1294 3584 2113 3584 
Q 2378 3584 2631 3529 
Q 2884 3475 3122 3366 
z
" transform="scale(0.015625)"/>
      <path id="DejaVuSans-79" d="M 2059 -325 
Q 1816 -950 1584 -1140 
Q 1353 -1331 966 -1331 
L 506 -1331 
L 506 -850 
L 844 -850 
Q 1081 -850 1212 -737 
Q 1344 -625 1503 -206 
L 1606 56 
L 191 3500 
L 800 3500 
L 1894 763 
L 2988 3500 
L 3597 3500 
L 2059 -325 
z
" transform="scale(0.015625)"/>
      <path id="DejaVuSans-70" d="M 1159 525 
L 1159 -1331 
L 581 -1331 
L 581 3500 
L 1159 3500 
L 1159 2969 
Q 1341 3281 1617 3432 
Q 1894 3584 2278 3584 
Q 2916 3584 3314 3078 
Q 3713 2572 3713 1747 
Q 3713 922 3314 415 
Q 2916 -91 2278 -91 
Q 1894 -91 1617 61 
Q 1341 213 1159 525 
z
M 3116 1747 
Q 3116 2381 2855 2742 
Q 2594 3103 2138 3103 
Q 1681 3103 1420 2742 
Q 1159 2381 1159 1747 
Q 1159 1113 1420 752 
Q 1681 391 2138 391 
Q 2594 391 2855 752 
Q 3116 1113 3116 1747 
z
" transform="scale(0.015625)"/>
      <path id="DejaVuSans-2d" d="M 313 2009 
L 1997 2009 
L 1997 1497 
L 313 1497 
L 313 2009 
z
" transform="scale(0.015625)"/>
      <path id="DejaVuSans-77" d="M 269 3500 
L 844 3500 
L 1563 769 
L 2278 3500 
L 2956 3500 
L 3675 769 
L 4391 3500 
L 4966 3500 
L 4050 0 
L 3372 0 
L 2619 2869 
L 1863 0 
L 1184 0 
L 269 3500 
z
" transform="scale(0.015625)"/>
     </defs>
     <use xlink:href="#DejaVuSans-4b"/>
     <use xlink:href="#DejaVuSans-49" transform="translate(65.576172 0)"/>
     <use xlink:href="#DejaVuSans-54" transform="translate(95.068359 0)"/>
     <use xlink:href="#DejaVuSans-54" transform="translate(154.402344 0)"/>
     <use xlink:href="#DejaVuSans-49" transform="translate(215.486328 0)"/>
     <use xlink:href="#DejaVuSans-20" transform="translate(244.978516 0)"/>
     <use xlink:href="#DejaVuSans-30" transform="translate(276.765625 0)"/>
     <use xlink:href="#DejaVuSans-38" transform="translate(340.388672 0)"/>
     <use xlink:href="#DejaVuSans-3a" transform="translate(404.011719 0)"/>
     <use xlink:href="#DejaVuSans-20" transform="translate(437.703125 0)"/>
     <use xlink:href="#DejaVuSans-47" transform="translate(469.490234 0)"/>
     <use xlink:href="#DejaVuSans-72" transform="translate(546.980469 0)"/>
     <use xlink:href="#DejaVuSans-6f" transform="translate(585.84375 0)"/>
     <use xlink:href="#DejaVuSans-75" transform="translate(647.025391 0)"/>
     <use xlink:href="#DejaVuSans-6e" transform="translate(710.404297 0)"/>
     <use xlink:href="#DejaVuSans-64" transform="translate(773.783203 0)"/>
     <use xlink:href="#DejaVuSans-20" transform="translate(837.259766 0)"/>
     <use xlink:href="#DejaVuSans-54" transform="translate(869.046875 0)"/>
     <use xlink:href="#DejaVuSans-72" transform="translate(915.380859 0)"/>
     <use xlink:href="#DejaVuSans-75" transform="translate(956.494141 0)"/>
     <use xlink:href="#DejaVuSans-74" transform="translate(1019.873047 0)"/>
     <use xlink:href="#DejaVuSans-68" transform="translate(1059.082031 0)"/>
     <use xlink:href="#DejaVuSans-20" transform="translate(1122.460938 0)"/>
     <use xlink:href="#DejaVuSans-76" transform="translate(1154.248047 0)"/>
     <use xlink:href="#DejaVuSans-73" transform="translate(1213.427734 0)"/>
     <use xlink:href="#DejaVuSans-20" transform="translate(1265.527344 0)"/>
     <use xlink:href="#DejaVuSans-45" transform="translate(1297.314453 0)"/>
     <use xlink:href="#DejaVuSans-73" transform="translate(1360.498047 0)"/>
     <use xlink:href="#DejaVuSans-74" transform="translate(1412.597656 0)"/>
     <use xlink:href="#DejaVuSans-69" transform="translate(1451.806641 0)"/>
     <use xlink:href="#DejaVuSans-6d" transform="translate(1479.589844 0)"/>
     <use xlink:href="#DejaVuSans-61" transform="translate(1577.001953 0)"/>
     <use xlink:href="#DejaVuSans-74" transform="translate(1638.28125 0)"/>
     <use xlink:href="#DejaVuSans-65" transform="translate(1677.490234 0)"/>
     <use xlink:href="#DejaVuSans-64" transform="translate(1739.013672 0)"/>
     <use xlink:href="#DejaVuSans-20" transform="translate(1802.490234 0)"/>
     <use xlink:href="#DejaVuSans-54" transform="translate(1834.277344 0)"/>
     <use xlink:href="#DejaVuSans-72" transform="translate(1880.611328 0)"/>
     <use xlink:href="#DejaVuSans-61" transform="translate(1921.724609 0)"/>
     <use xlink:href="#DejaVuSans-6a" transform="translate(1983.003906 0)"/>
     <use xlink:href="#DejaVuSans-65" transform="translate(2010.787109 0)"/>
     <use xlink:href="#DejaVuSans-63" transform="translate(2072.310547 0)"/>
     <use xlink:href="#DejaVuSans-74" transform="translate(2127.291016 0)"/>
     <use xlink:href="#DejaVuSans-6f" transform="translate(2166.5 0)"/>
     <use xlink:href="#DejaVuSans-72" transform="translate(2227.681641 0)"/>
     <use xlink:href="#DejaVuSans-79" transform="translate(2268.794922 0)"/>
     <use xlink:href="#DejaVuSans-20" transform="translate(2327.974609 0)"/>
     <use xlink:href="#DejaVuSans-28" transform="translate(2359.761719 0)"/>
     <use xlink:href="#DejaVuSans-54" transform="translate(2398.775391 0)"/>
     <use xlink:href="#DejaVuSans-6f" transform="translate(2442.859375 0)"/>
     <use xlink:href="#DejaVuSans-70" transform="translate(2504.041016 0)"/>
     <use xlink:href="#DejaVuSans-2d" transform="translate(2567.517578 0)"/>
     <use xlink:href="#DejaVuSans-64" transform="translate(2603.601562 0)"/>
     <use xlink:href="#DejaVuSans-6f" transform="translate(2667.078125 0)"/>
     <use xlink:href="#DejaVuSans-77" transform="translate(2728.259766 0)"/>
     <use xlink:href="#DejaVuSans-6e" transform="translate(2810.046875 0)"/>
     <use xlink:href="#DejaVuSans-20" transform="translate(2873.425781 0)"/>
     <use xlink:href="#DejaVuSans-58" transform="translate(2905.212891 0)"/>
     <use xlink:href="#DejaVuSans-2d" transform="translate(2968.71875 0)"/>
     <use xlink:href="#DejaVuSans-5a" transform="translate(3004.802734 0)"/>
     <use xlink:href="#DejaVuSans-29" transform="translate(3073.308594 0)"/>
    </g>
   </g>
   <g id="legend_1">
    <g id="patch_7">
     <path d="M 57.87 122.94875 
L 189.555938 122.94875 
Q 191.555938 122.94875 191.555938 120.94875 
L 191.555938 33.88 
Q 191.555938 31.88 189.555938 31.88 
L 57.87 31.88 
Q 55.87 31.88 55.87 33.88 
L 55.87 120.94875 
Q 55.87 122.94875 57.87 122.94875 
z
" style="fill: #ffffff; opacity: 0.8; stroke: #cccccc; stroke-linejoin: miter"/>
    </g>
    <g id="line2d_33">
     <path d="M 59.87 39.978437 
L 69.87 39.978437 
L 79.87 39.978437 
" style="fill: none; stroke: #000000; stroke-width: 2; stroke-linecap: square"/>
    </g>
    <g id="text_19">
     <!-- Ground Truth -->
     <g transform="translate(87.87 43.478437) scale(0.1 -0.1)">
      <use xlink:href="#DejaVuSans-47"/>
      <use xlink:href="#DejaVuSans-72" transform="translate(77.490234 0)"/>
      <use xlink:href="#DejaVuSans-6f" transform="translate(116.353516 0)"/>
      <use xlink:href="#DejaVuSans-75" transform="translate(177.535156 0)"/>
      <use xlink:href="#DejaVuSans-6e" transform="translate(240.914062 0)"/>
      <use xlink:href="#DejaVuSans-64" transform="translate(304.292969 0)"/>
      <use xlink:href="#DejaVuSans-20" transform="translate(367.769531 0)"/>
      <use xlink:href="#DejaVuSans-54" transform="translate(399.556641 0)"/>
      <use xlink:href="#DejaVuSans-72" transform="translate(445.890625 0)"/>
      <use xlink:href="#DejaVuSans-75" transform="translate(487.003906 0)"/>
      <use xlink:href="#DejaVuSans-74" transform="translate(550.382812 0)"/>
      <use xlink:href="#DejaVuSans-68" transform="translate(589.591797 0)"/>
     </g>
    </g>
    <g id="line2d_34">
     <path d="M 59.87 54.656563 
L 69.87 54.656563 
L 79.87 54.656563 
" style="fill: none; stroke-dasharray: 5.55,2.4; stroke-dashoffset: 0; stroke: #ff0000; stroke-width: 1.5"/>
    </g>
    <g id="text_20">
     <!-- Estimated -->
     <g transform="translate(87.87 58.156563) scale(0.1 -0.1)">
      <use xlink:href="#DejaVuSans-45"/>
      <use xlink:href="#DejaVuSans-73" transform="translate(63.183594 0)"/>
      <use xlink:href="#DejaVuSans-74" transform="translate(115.283203 0)"/>
      <use xlink:href="#DejaVuSans-69" transform="translate(154.492188 0)"/>
      <use xlink:href="#DejaVuSans-6d" transform="translate(182.275391 0)"/>
      <use xlink:href="#DejaVuSans-61" transform="translate(279.6875 0)"/>
      <use xlink:href="#DejaVuSans-74" transform="translate(340.966797 0)"/>
      <use xlink:href="#DejaVuSans-65" transform="translate(380.175781 0)"/>
      <use xlink:href="#DejaVuSans-64" transform="translate(441.699219 0)"/>
     </g>
    </g>
    <g id="PathCollection_5">
     <g>
      <use xlink:href="#m110eef7129" x="69.87" y="70.209687" style="fill: #008000; stroke: #008000"/>
     </g>
    </g>
    <g id="text_21">
     <!-- Start - Ground Truth -->
     <g transform="translate(87.87 72.834687) scale(0.1 -0.1)">
      <defs>
       <path id="DejaVuSans-53" d="M 3425 4513 
L 3425 3897 
Q 3066 4069 2747 4153 
Q 2428 4238 2131 4238 
Q 1616 4238 1336 4038 
Q 1056 3838 1056 3469 
Q 1056 3159 1242 3001 
Q 1428 2844 1947 2747 
L 2328 2669 
Q 3034 2534 3370 2195 
Q 3706 1856 3706 1288 
Q 3706 609 3251 259 
Q 2797 -91 1919 -91 
Q 1588 -91 1214 -16 
Q 841 59 441 206 
L 441 856 
Q 825 641 1194 531 
Q 1563 422 1919 422 
Q 2459 422 2753 634 
Q 3047 847 3047 1241 
Q 3047 1584 2836 1778 
Q 2625 1972 2144 2069 
L 1759 2144 
Q 1053 2284 737 2584 
Q 422 2884 422 3419 
Q 422 4038 858 4394 
Q 1294 4750 2059 4750 
Q 2388 4750 2728 4690 
Q 3069 4631 3425 4513 
z
" transform="scale(0.015625)"/>
      </defs>
      <use xlink:href="#DejaVuSans-53"/>
      <use xlink:href="#DejaVuSans-74" transform="translate(63.476562 0)"/>
      <use xlink:href="#DejaVuSans-61" transform="translate(102.685547 0)"/>
      <use xlink:href="#DejaVuSans-72" transform="translate(163.964844 0)"/>
      <use xlink:href="#DejaVuSans-74" transform="translate(205.078125 0)"/>
      <use xlink:href="#DejaVuSans-20" transform="translate(244.287109 0)"/>
      <use xlink:href="#DejaVuSans-2d" transform="translate(276.074219 0)"/>
      <use xlink:href="#DejaVuSans-20" transform="translate(312.158203 0)"/>
      <use xlink:href="#DejaVuSans-47" transform="translate(343.945312 0)"/>
      <use xlink:href="#DejaVuSans-72" transform="translate(421.435547 0)"/>
      <use xlink:href="#DejaVuSans-6f" transform="translate(460.298828 0)"/>
      <use xlink:href="#DejaVuSans-75" transform="translate(521.480469 0)"/>
      <use xlink:href="#DejaVuSans-6e" transform="translate(584.859375 0)"/>
      <use xlink:href="#DejaVuSans-64" transform="translate(648.238281 0)"/>
      <use xlink:href="#DejaVuSans-20" transform="translate(711.714844 0)"/>
      <use xlink:href="#DejaVuSans-54" transform="translate(743.501953 0)"/>
      <use xlink:href="#DejaVuSans-72" transform="translate(789.835938 0)"/>
      <use xlink:href="#DejaVuSans-75" transform="translate(830.949219 0)"/>
      <use xlink:href="#DejaVuSans-74" transform="translate(894.328125 0)"/>
      <use xlink:href="#DejaVuSans-68" transform="translate(933.537109 0)"/>
     </g>
    </g>
    <g id="PathCollection_6">
     <g>
      <use xlink:href="#mdb22090344" x="69.87" y="84.887812" style="fill: #ff0000; stroke: #ff0000"/>
     </g>
    </g>
    <g id="text_22">
     <!-- End - Ground Truth -->
     <g transform="translate(87.87 87.512812) scale(0.1 -0.1)">
      <use xlink:href="#DejaVuSans-45"/>
      <use xlink:href="#DejaVuSans-6e" transform="translate(63.183594 0)"/>
      <use xlink:href="#DejaVuSans-64" transform="translate(126.5625 0)"/>
      <use xlink:href="#DejaVuSans-20" transform="translate(190.039062 0)"/>
      <use xlink:href="#DejaVuSans-2d" transform="translate(221.826172 0)"/>
      <use xlink:href="#DejaVuSans-20" transform="translate(257.910156 0)"/>
      <use xlink:href="#DejaVuSans-47" transform="translate(289.697266 0)"/>
      <use xlink:href="#DejaVuSans-72" transform="translate(367.1875 0)"/>
      <use xlink:href="#DejaVuSans-6f" transform="translate(406.050781 0)"/>
      <use xlink:href="#DejaVuSans-75" transform="translate(467.232422 0)"/>
      <use xlink:href="#DejaVuSans-6e" transform="translate(530.611328 0)"/>
      <use xlink:href="#DejaVuSans-64" transform="translate(593.990234 0)"/>
      <use xlink:href="#DejaVuSans-20" transform="translate(657.466797 0)"/>
      <use xlink:href="#DejaVuSans-54" transform="translate(689.253906 0)"/>
      <use xlink:href="#DejaVuSans-72" transform="translate(735.587891 0)"/>
      <use xlink:href="#DejaVuSans-75" transform="translate(776.701172 0)"/>
      <use xlink:href="#DejaVuSans-74" transform="translate(840.080078 0)"/>
      <use xlink:href="#DejaVuSans-68" transform="translate(879.289062 0)"/>
     </g>
    </g>
    <g id="PathCollection_7">
     <g>
      <use xlink:href="#m53f0d2e43a" x="69.87" y="99.565938" style="fill: #00ffff; stroke: #00ffff; stroke-width: 1.5"/>
     </g>
    </g>
    <g id="text_23">
     <!-- Start - Estimated -->
     <g transform="translate(87.87 102.190938) scale(0.1 -0.1)">
      <use xlink:href="#DejaVuSans-53"/>
      <use xlink:href="#DejaVuSans-74" transform="translate(63.476562 0)"/>
      <use xlink:href="#DejaVuSans-61" transform="translate(102.685547 0)"/>
      <use xlink:href="#DejaVuSans-72" transform="translate(163.964844 0)"/>
      <use xlink:href="#DejaVuSans-74" transform="translate(205.078125 0)"/>
      <use xlink:href="#DejaVuSans-20" transform="translate(244.287109 0)"/>
      <use xlink:href="#DejaVuSans-2d" transform="translate(276.074219 0)"/>
      <use xlink:href="#DejaVuSans-20" transform="translate(312.158203 0)"/>
      <use xlink:href="#DejaVuSans-45" transform="translate(343.945312 0)"/>
      <use xlink:href="#DejaVuSans-73" transform="translate(407.128906 0)"/>
      <use xlink:href="#DejaVuSans-74" transform="translate(459.228516 0)"/>
      <use xlink:href="#DejaVuSans-69" transform="translate(498.4375 0)"/>
      <use xlink:href="#DejaVuSans-6d" transform="translate(526.220703 0)"/>
      <use xlink:href="#DejaVuSans-61" transform="translate(623.632812 0)"/>
      <use xlink:href="#DejaVuSans-74" transform="translate(684.912109 0)"/>
      <use xlink:href="#DejaVuSans-65" transform="translate(724.121094 0)"/>
      <use xlink:href="#DejaVuSans-64" transform="translate(785.644531 0)"/>
     </g>
    </g>
    <g id="PathCollection_8">
     <g>
      <use xlink:href="#ma8a050d173" x="69.87" y="114.244062" style="fill: #ff00ff; stroke: #ff00ff; stroke-width: 1.5"/>
     </g>
    </g>
    <g id="text_24">
     <!-- End - Estimated -->
     <g transform="translate(87.87 116.869062) scale(0.1 -0.1)">
      <use xlink:href="#DejaVuSans-45"/>
      <use xlink:href="#DejaVuSans-6e" transform="translate(63.183594 0)"/>
      <use xlink:href="#DejaVuSans-64" transform="translate(126.5625 0)"/>
      <use xlink:href="#DejaVuSans-20" transform="translate(190.039062 0)"/>
      <use xlink:href="#DejaVuSans-2d" transform="translate(221.826172 0)"/>
      <use xlink:href="#DejaVuSans-20" transform="translate(257.910156 0)"/>
      <use xlink:href="#DejaVuSans-45" transform="translate(289.697266 0)"/>
      <use xlink:href="#DejaVuSans-73" transform="translate(352.880859 0)"/>
      <use xlink:href="#DejaVuSans-74" transform="translate(404.980469 0)"/>
      <use xlink:href="#DejaVuSans-69" transform="translate(444.189453 0)"/>
      <use xlink:href="#DejaVuSans-6d" transform="translate(471.972656 0)"/>
      <use xlink:href="#DejaVuSans-61" transform="translate(569.384766 0)"/>
      <use xlink:href="#DejaVuSans-74" transform="translate(630.664062 0)"/>
      <use xlink:href="#DejaVuSans-65" transform="translate(669.873047 0)"/>
      <use xlink:href="#DejaVuSans-64" transform="translate(731.396484 0)"/>
     </g>
    </g>
   </g>
  </g>
 </g>
 <defs>
  <clipPath id="pb9a20a481c">
   <rect x="50.87" y="26.88" width="658.33" height="435.16"/>
  </clipPath>
 </defs>
</svg>
