<?xml version="1.0" encoding="utf-8" standalone="no"?>
<!DOCTYPE svg PUBLIC "-//W3C//DTD SVG 1.1//EN"
  "http://www.w3.org/Graphics/SVG/1.1/DTD/svg11.dtd">
<svg xmlns:xlink="http://www.w3.org/1999/xlink" width="720pt" height="504pt" viewBox="0 0 720 504" xmlns="http://www.w3.org/2000/svg" version="1.1">
 <metadata>
  <rdf:RDF xmlns:dc="http://purl.org/dc/elements/1.1/" xmlns:cc="http://creativecommons.org/ns#" xmlns:rdf="http://www.w3.org/1999/02/22-rdf-syntax-ns#">
   <cc:Work>
    <dc:type rdf:resource="http://purl.org/dc/dcmitype/StillImage"/>
    <dc:date>2025-11-21T15:15:20.808776</dc:date>
    <dc:format>image/svg+xml</dc:format>
    <dc:creator>
     <cc:Agent>
      <dc:title>Matplotlib v3.10.3, https://matplotlib.org/</dc:title>
     </cc:Agent>
    </dc:creator>
   </cc:Work>
  </rdf:RDF>
 </metadata>
 <defs>
  <style type="text/css">*{stroke-linejoin: round; stroke-linecap: butt}</style>
 </defs>
 <g id="figure_1">
  <g id="patch_1">
   <path d="M 0 504 
L 720 504 
L 720 0 
L 0 0 
z
" style="fill: #ffffff"/>
  </g>
  <g id="axes_1">
   <g id="patch_2">
    <path d="M 50.87 462.04 
L 709.2 462.04 
L 709.2 26.88 
L 50.87 26.88 
z
" style="fill: #ffffff"/>
   </g>
   <g id="PathCollection_1">
    <defs>
     <path id="md04c407e28" d="M 0 4.472136 
C 1.186024 4.472136 2.323632 4.000923 3.162278 3.162278 
C 4.000923 2.323632 4.472136 1.186024 4.472136 0 
C 4.472136 -1.186024 4.000923 -2.323632 3.162278 -3.162278 
C 2.323632 -4.000923 1.186024 -4.472136 0 -4.472136 
C -1.186024 -4.472136 -2.323632 -4.000923 -3.162278 -3.162278 
C -4.000923 -2.323632 -4.472136 -1.186024 -4.472136 0 
C -4.472136 1.186024 -4.000923 2.323632 -3.162278 3.162278 
C -2.323632 4.000923 -1.186024 4.472136 0 4.472136 
z
" style="stroke: #008000"/>
    </defs>
    <g clip-path="url(#p76f83b4b01)">
     <use xlink:href="#md04c407e28" x="393.4292" y="377.948598" style="fill: #008000; stroke: #008000"/>
    </g>
   </g>
   <g id="PathCollection_2">
    <defs>
     <path id="mda9a8057f2" d="M 0 4.472136 
C 1.186024 4.472136 2.323632 4.000923 3.162278 3.162278 
C 4.000923 2.323632 4.472136 1.186024 4.472136 0 
C 4.472136 -1.186024 4.000923 -2.323632 3.162278 -3.162278 
C 2.323632 -4.000923 1.186024 -4.472136 0 -4.472136 
C -1.186024 -4.472136 -2.323632 -4.000923 -3.162278 -3.162278 
C -4.000923 -2.323632 -4.472136 -1.186024 -4.472136 0 
C -4.472136 1.186024 -4.000923 2.323632 -3.162278 3.162278 
C -2.323632 4.000923 -1.186024 4.472136 0 4.472136 
z
" style="stroke: #ff0000"/>
    </defs>
    <g clip-path="url(#p76f83b4b01)">
     <use xlink:href="#mda9a8057f2" x="389.117868" y="49.887187" style="fill: #ff0000; stroke: #ff0000"/>
    </g>
   </g>
   <g id="PathCollection_3">
    <defs>
     <path id="m2b35862beb" d="M -4.472136 4.472136 
L 4.472136 -4.472136 
M -4.472136 -4.472136 
L 4.472136 4.472136 
" style="stroke: #00ffff; stroke-width: 1.5"/>
    </defs>
    <g clip-path="url(#p76f83b4b01)">
     <use xlink:href="#m2b35862beb" x="393.4292" y="377.948598" style="fill: #00ffff; stroke: #00ffff; stroke-width: 1.5"/>
    </g>
   </g>
   <g id="PathCollection_4">
    <defs>
     <path id="md99551ccd2" d="M -4.472136 4.472136 
L 4.472136 -4.472136 
M -4.472136 -4.472136 
L 4.472136 4.472136 
" style="stroke: #ff00ff; stroke-width: 1.5"/>
    </defs>
    <g clip-path="url(#p76f83b4b01)">
     <use xlink:href="#md99551ccd2" x="356.836006" y="47.180395" style="fill: #ff00ff; stroke: #ff00ff; stroke-width: 1.5"/>
    </g>
   </g>
   <g id="PathCollection_5">
    <defs>
     <path id="mbdec354ce4" d="M -4.472136 4.472136 
L 4.472136 -4.472136 
M -4.472136 -4.472136 
L 4.472136 4.472136 
" style="stroke: #0000ff; stroke-width: 1.5"/>
    </defs>
    <g clip-path="url(#p76f83b4b01)">
     <use xlink:href="#mbdec354ce4" x="393.4292" y="377.948598" style="fill: #0000ff; stroke: #0000ff; stroke-width: 1.5"/>
    </g>
   </g>
   <g id="PathCollection_6">
    <defs>
     <path id="m00de700015" d="M -4.472136 4.472136 
L 4.472136 -4.472136 
M -4.472136 -4.472136 
L 4.472136 4.472136 
" style="stroke: #800080; stroke-width: 1.5"/>
    </defs>
    <g clip-path="url(#p76f83b4b01)">
     <use xlink:href="#m00de700015" x="370.269799" y="46.66" style="fill: #800080; stroke: #800080; stroke-width: 1.5"/>
    </g>
   </g>
   <g id="matplotlib.axis_1">
    <g id="xtick_1">
     <g id="line2d_1">
      <path d="M 126.841494 462.04 
L 126.841494 26.88 
" clip-path="url(#p76f83b4b01)" style="fill: none; stroke: #b0b0b0; stroke-width: 0.8; stroke-linecap: square"/>
     </g>
     <g id="line2d_2">
      <defs>
       <path id="m128100d3a4" d="M 0 0 
L 0 3.5 
" style="stroke: #000000; stroke-width: 0.8"/>
      </defs>
      <g>
       <use xlink:href="#m128100d3a4" x="126.841494" y="462.04" style="stroke: #000000; stroke-width: 0.8"/>
      </g>
     </g>
     <g id="text_1">
      <!-- −300 -->
      <g transform="translate(113.1079 476.638438) scale(0.1 -0.1)">
       <defs>
        <path id="DejaVuSans-2212" d="M 678 2272 
L 4684 2272 
L 4684 1741 
L 678 1741 
L 678 2272 
z
" transform="scale(0.015625)"/>
        <path id="DejaVuSans-33" d="M 2597 2516 
Q 3050 2419 3304 2112 
Q 3559 1806 3559 1356 
Q 3559 666 3084 287 
Q 2609 -91 1734 -91 
Q 1441 -91 1130 -33 
Q 819 25 488 141 
L 488 750 
Q 750 597 1062 519 
Q 1375 441 1716 441 
Q 2309 441 2620 675 
Q 2931 909 2931 1356 
Q 2931 1769 2642 2001 
Q 2353 2234 1838 2234 
L 1294 2234 
L 1294 2753 
L 1863 2753 
Q 2328 2753 2575 2939 
Q 2822 3125 2822 3475 
Q 2822 3834 2567 4026 
Q 2313 4219 1838 4219 
Q 1578 4219 1281 4162 
Q 984 4106 628 3988 
L 628 4550 
Q 988 4650 1302 4700 
Q 1616 4750 1894 4750 
Q 2613 4750 3031 4423 
Q 3450 4097 3450 3541 
Q 3450 3153 3228 2886 
Q 3006 2619 2597 2516 
z
" transform="scale(0.015625)"/>
        <path id="DejaVuSans-30" d="M 2034 4250 
Q 1547 4250 1301 3770 
Q 1056 3291 1056 2328 
Q 1056 1369 1301 889 
Q 1547 409 2034 409 
Q 2525 409 2770 889 
Q 3016 1369 3016 2328 
Q 3016 3291 2770 3770 
Q 2525 4250 2034 4250 
z
M 2034 4750 
Q 2819 4750 3233 4129 
Q 3647 3509 3647 2328 
Q 3647 1150 3233 529 
Q 2819 -91 2034 -91 
Q 1250 -91 836 529 
Q 422 1150 422 2328 
Q 422 3509 836 4129 
Q 1250 4750 2034 4750 
z
" transform="scale(0.015625)"/>
       </defs>
       <use xlink:href="#DejaVuSans-2212"/>
       <use xlink:href="#DejaVuSans-33" transform="translate(83.789062 0)"/>
       <use xlink:href="#DejaVuSans-30" transform="translate(147.412109 0)"/>
       <use xlink:href="#DejaVuSans-30" transform="translate(211.035156 0)"/>
      </g>
     </g>
    </g>
    <g id="xtick_2">
     <g id="line2d_3">
      <path d="M 215.704063 462.04 
L 215.704063 26.88 
" clip-path="url(#p76f83b4b01)" style="fill: none; stroke: #b0b0b0; stroke-width: 0.8; stroke-linecap: square"/>
     </g>
     <g id="line2d_4">
      <g>
       <use xlink:href="#m128100d3a4" x="215.704063" y="462.04" style="stroke: #000000; stroke-width: 0.8"/>
      </g>
     </g>
     <g id="text_2">
      <!-- −200 -->
      <g transform="translate(201.970469 476.638438) scale(0.1 -0.1)">
       <defs>
        <path id="DejaVuSans-32" d="M 1228 531 
L 3431 531 
L 3431 0 
L 469 0 
L 469 531 
Q 828 903 1448 1529 
Q 2069 2156 2228 2338 
Q 2531 2678 2651 2914 
Q 2772 3150 2772 3378 
Q 2772 3750 2511 3984 
Q 2250 4219 1831 4219 
Q 1534 4219 1204 4116 
Q 875 4013 500 3803 
L 500 4441 
Q 881 4594 1212 4672 
Q 1544 4750 1819 4750 
Q 2544 4750 2975 4387 
Q 3406 4025 3406 3419 
Q 3406 3131 3298 2873 
Q 3191 2616 2906 2266 
Q 2828 2175 2409 1742 
Q 1991 1309 1228 531 
z
" transform="scale(0.015625)"/>
       </defs>
       <use xlink:href="#DejaVuSans-2212"/>
       <use xlink:href="#DejaVuSans-32" transform="translate(83.789062 0)"/>
       <use xlink:href="#DejaVuSans-30" transform="translate(147.412109 0)"/>
       <use xlink:href="#DejaVuSans-30" transform="translate(211.035156 0)"/>
      </g>
     </g>
    </g>
    <g id="xtick_3">
     <g id="line2d_5">
      <path d="M 304.566632 462.04 
L 304.566632 26.88 
" clip-path="url(#p76f83b4b01)" style="fill: none; stroke: #b0b0b0; stroke-width: 0.8; stroke-linecap: square"/>
     </g>
     <g id="line2d_6">
      <g>
       <use xlink:href="#m128100d3a4" x="304.566632" y="462.04" style="stroke: #000000; stroke-width: 0.8"/>
      </g>
     </g>
     <g id="text_3">
      <!-- −100 -->
      <g transform="translate(290.833038 476.638438) scale(0.1 -0.1)">
       <defs>
        <path id="DejaVuSans-31" d="M 794 531 
L 1825 531 
L 1825 4091 
L 703 3866 
L 703 4441 
L 1819 4666 
L 2450 4666 
L 2450 531 
L 3481 531 
L 3481 0 
L 794 0 
L 794 531 
z
" transform="scale(0.015625)"/>
       </defs>
       <use xlink:href="#DejaVuSans-2212"/>
       <use xlink:href="#DejaVuSans-31" transform="translate(83.789062 0)"/>
       <use xlink:href="#DejaVuSans-30" transform="translate(147.412109 0)"/>
       <use xlink:href="#DejaVuSans-30" transform="translate(211.035156 0)"/>
      </g>
     </g>
    </g>
    <g id="xtick_4">
     <g id="line2d_7">
      <path d="M 393.4292 462.04 
L 393.4292 26.88 
" clip-path="url(#p76f83b4b01)" style="fill: none; stroke: #b0b0b0; stroke-width: 0.8; stroke-linecap: square"/>
     </g>
     <g id="line2d_8">
      <g>
       <use xlink:href="#m128100d3a4" x="393.4292" y="462.04" style="stroke: #000000; stroke-width: 0.8"/>
      </g>
     </g>
     <g id="text_4">
      <!-- 0 -->
      <g transform="translate(390.24795 476.638438) scale(0.1 -0.1)">
       <use xlink:href="#DejaVuSans-30"/>
      </g>
     </g>
    </g>
    <g id="xtick_5">
     <g id="line2d_9">
      <path d="M 482.291769 462.04 
L 482.291769 26.88 
" clip-path="url(#p76f83b4b01)" style="fill: none; stroke: #b0b0b0; stroke-width: 0.8; stroke-linecap: square"/>
     </g>
     <g id="line2d_10">
      <g>
       <use xlink:href="#m128100d3a4" x="482.291769" y="462.04" style="stroke: #000000; stroke-width: 0.8"/>
      </g>
     </g>
     <g id="text_5">
      <!-- 100 -->
      <g transform="translate(472.748019 476.638438) scale(0.1 -0.1)">
       <use xlink:href="#DejaVuSans-31"/>
       <use xlink:href="#DejaVuSans-30" transform="translate(63.623047 0)"/>
       <use xlink:href="#DejaVuSans-30" transform="translate(127.246094 0)"/>
      </g>
     </g>
    </g>
    <g id="xtick_6">
     <g id="line2d_11">
      <path d="M 571.154338 462.04 
L 571.154338 26.88 
" clip-path="url(#p76f83b4b01)" style="fill: none; stroke: #b0b0b0; stroke-width: 0.8; stroke-linecap: square"/>
     </g>
     <g id="line2d_12">
      <g>
       <use xlink:href="#m128100d3a4" x="571.154338" y="462.04" style="stroke: #000000; stroke-width: 0.8"/>
      </g>
     </g>
     <g id="text_6">
      <!-- 200 -->
      <g transform="translate(561.610588 476.638438) scale(0.1 -0.1)">
       <use xlink:href="#DejaVuSans-32"/>
       <use xlink:href="#DejaVuSans-30" transform="translate(63.623047 0)"/>
       <use xlink:href="#DejaVuSans-30" transform="translate(127.246094 0)"/>
      </g>
     </g>
    </g>
    <g id="xtick_7">
     <g id="line2d_13">
      <path d="M 660.016907 462.04 
L 660.016907 26.88 
" clip-path="url(#p76f83b4b01)" style="fill: none; stroke: #b0b0b0; stroke-width: 0.8; stroke-linecap: square"/>
     </g>
     <g id="line2d_14">
      <g>
       <use xlink:href="#m128100d3a4" x="660.016907" y="462.04" style="stroke: #000000; stroke-width: 0.8"/>
      </g>
     </g>
     <g id="text_7">
      <!-- 300 -->
      <g transform="translate(650.473157 476.638438) scale(0.1 -0.1)">
       <use xlink:href="#DejaVuSans-33"/>
       <use xlink:href="#DejaVuSans-30" transform="translate(63.623047 0)"/>
       <use xlink:href="#DejaVuSans-30" transform="translate(127.246094 0)"/>
      </g>
     </g>
    </g>
    <g id="text_8">
     <!-- X (m) -->
     <g transform="translate(366.249063 490.316563) scale(0.1 -0.1)">
      <defs>
       <path id="DejaVuSans-58" d="M 403 4666 
L 1081 4666 
L 2241 2931 
L 3406 4666 
L 4084 4666 
L 2584 2425 
L 4184 0 
L 3506 0 
L 2194 1984 
L 872 0 
L 191 0 
L 1856 2491 
L 403 4666 
z
" transform="scale(0.015625)"/>
       <path id="DejaVuSans-20" transform="scale(0.015625)"/>
       <path id="DejaVuSans-28" d="M 1984 4856 
Q 1566 4138 1362 3434 
Q 1159 2731 1159 2009 
Q 1159 1288 1364 580 
Q 1569 -128 1984 -844 
L 1484 -844 
Q 1016 -109 783 600 
Q 550 1309 550 2009 
Q 550 2706 781 3412 
Q 1013 4119 1484 4856 
L 1984 4856 
z
" transform="scale(0.015625)"/>
       <path id="DejaVuSans-6d" d="M 3328 2828 
Q 3544 3216 3844 3400 
Q 4144 3584 4550 3584 
Q 5097 3584 5394 3201 
Q 5691 2819 5691 2113 
L 5691 0 
L 5113 0 
L 5113 2094 
Q 5113 2597 4934 2840 
Q 4756 3084 4391 3084 
Q 3944 3084 3684 2787 
Q 3425 2491 3425 1978 
L 3425 0 
L 2847 0 
L 2847 2094 
Q 2847 2600 2669 2842 
Q 2491 3084 2119 3084 
Q 1678 3084 1418 2786 
Q 1159 2488 1159 1978 
L 1159 0 
L 581 0 
L 581 3500 
L 1159 3500 
L 1159 2956 
Q 1356 3278 1631 3431 
Q 1906 3584 2284 3584 
Q 2666 3584 2933 3390 
Q 3200 3197 3328 2828 
z
" transform="scale(0.015625)"/>
       <path id="DejaVuSans-29" d="M 513 4856 
L 1013 4856 
Q 1481 4119 1714 3412 
Q 1947 2706 1947 2009 
Q 1947 1309 1714 600 
Q 1481 -109 1013 -844 
L 513 -844 
Q 928 -128 1133 580 
Q 1338 1288 1338 2009 
Q 1338 2731 1133 3434 
Q 928 4138 513 4856 
z
" transform="scale(0.015625)"/>
      </defs>
      <use xlink:href="#DejaVuSans-58"/>
      <use xlink:href="#DejaVuSans-20" transform="translate(68.505859 0)"/>
      <use xlink:href="#DejaVuSans-28" transform="translate(100.292969 0)"/>
      <use xlink:href="#DejaVuSans-6d" transform="translate(139.306641 0)"/>
      <use xlink:href="#DejaVuSans-29" transform="translate(236.71875 0)"/>
     </g>
    </g>
   </g>
   <g id="matplotlib.axis_2">
    <g id="ytick_1">
     <g id="line2d_15">
      <path d="M 50.87 377.948598 
L 709.2 377.948598 
" clip-path="url(#p76f83b4b01)" style="fill: none; stroke: #b0b0b0; stroke-width: 0.8; stroke-linecap: square"/>
     </g>
     <g id="line2d_16">
      <defs>
       <path id="m11ffa4c926" d="M 0 0 
L -3.5 0 
" style="stroke: #000000; stroke-width: 0.8"/>
      </defs>
      <g>
       <use xlink:href="#m11ffa4c926" x="50.87" y="377.948598" style="stroke: #000000; stroke-width: 0.8"/>
      </g>
     </g>
     <g id="text_9">
      <!-- 0 -->
      <g transform="translate(37.5075 381.747816) scale(0.1 -0.1)">
       <use xlink:href="#DejaVuSans-30"/>
      </g>
     </g>
    </g>
    <g id="ytick_2">
     <g id="line2d_17">
      <path d="M 50.87 289.086029 
L 709.2 289.086029 
" clip-path="url(#p76f83b4b01)" style="fill: none; stroke: #b0b0b0; stroke-width: 0.8; stroke-linecap: square"/>
     </g>
     <g id="line2d_18">
      <g>
       <use xlink:href="#m11ffa4c926" x="50.87" y="289.086029" style="stroke: #000000; stroke-width: 0.8"/>
      </g>
     </g>
     <g id="text_10">
      <!-- 100 -->
      <g transform="translate(24.7825 292.885247) scale(0.1 -0.1)">
       <use xlink:href="#DejaVuSans-31"/>
       <use xlink:href="#DejaVuSans-30" transform="translate(63.623047 0)"/>
       <use xlink:href="#DejaVuSans-30" transform="translate(127.246094 0)"/>
      </g>
     </g>
    </g>
    <g id="ytick_3">
     <g id="line2d_19">
      <path d="M 50.87 200.22346 
L 709.2 200.22346 
" clip-path="url(#p76f83b4b01)" style="fill: none; stroke: #b0b0b0; stroke-width: 0.8; stroke-linecap: square"/>
     </g>
     <g id="line2d_20">
      <g>
       <use xlink:href="#m11ffa4c926" x="50.87" y="200.22346" style="stroke: #000000; stroke-width: 0.8"/>
      </g>
     </g>
     <g id="text_11">
      <!-- 200 -->
      <g transform="translate(24.7825 204.022678) scale(0.1 -0.1)">
       <use xlink:href="#DejaVuSans-32"/>
       <use xlink:href="#DejaVuSans-30" transform="translate(63.623047 0)"/>
       <use xlink:href="#DejaVuSans-30" transform="translate(127.246094 0)"/>
      </g>
     </g>
    </g>
    <g id="ytick_4">
     <g id="line2d_21">
      <path d="M 50.87 111.360891 
L 709.2 111.360891 
" clip-path="url(#p76f83b4b01)" style="fill: none; stroke: #b0b0b0; stroke-width: 0.8; stroke-linecap: square"/>
     </g>
     <g id="line2d_22">
      <g>
       <use xlink:href="#m11ffa4c926" x="50.87" y="111.360891" style="stroke: #000000; stroke-width: 0.8"/>
      </g>
     </g>
     <g id="text_12">
      <!-- 300 -->
      <g transform="translate(24.7825 115.16011) scale(0.1 -0.1)">
       <use xlink:href="#DejaVuSans-33"/>
       <use xlink:href="#DejaVuSans-30" transform="translate(63.623047 0)"/>
       <use xlink:href="#DejaVuSans-30" transform="translate(127.246094 0)"/>
      </g>
     </g>
    </g>
    <g id="text_13">
     <!-- Z (m) -->
     <g transform="translate(18.702813 258.245937) rotate(-90) scale(0.1 -0.1)">
      <defs>
       <path id="DejaVuSans-5a" d="M 359 4666 
L 4025 4666 
L 4025 4184 
L 1075 531 
L 4097 531 
L 4097 0 
L 288 0 
L 288 481 
L 3238 4134 
L 359 4134 
L 359 4666 
z
" transform="scale(0.015625)"/>
      </defs>
      <use xlink:href="#DejaVuSans-5a"/>
      <use xlink:href="#DejaVuSans-20" transform="translate(68.505859 0)"/>
      <use xlink:href="#DejaVuSans-28" transform="translate(100.292969 0)"/>
      <use xlink:href="#DejaVuSans-6d" transform="translate(139.306641 0)"/>
      <use xlink:href="#DejaVuSans-29" transform="translate(236.71875 0)"/>
     </g>
    </g>
   </g>
   <g id="line2d_23">
    <path d="M 393.4292 377.948598 
L 393.351017 372.837858 
L 393.067923 359.295793 
L 392.707653 341.131938 
L 391.712648 307.645003 
L 391.074709 293.216308 
L 390.587212 285.987835 
L 390.708378 284.539642 
L 391.030411 283.2187 
L 391.554745 282.041982 
L 392.289249 281.044322 
L 393.210033 280.185909 
L 394.361842 279.55072 
L 396.036985 279.075127 
L 398.470065 278.851016 
L 401.48526 278.900246 
L 405.783053 279.004481 
L 418.041004 279.252052 
L 439.014685 279.996188 
L 443.765509 280.324535 
L 458.789068 281.926993 
L 467.299277 283.022758 
L 480.957809 284.669826 
L 491.85036 285.948736 
L 499.292245 287.04681 
L 504.50439 287.957918 
L 507.65057 288.680726 
L 511.321216 289.782649 
L 518.841299 292.147762 
L 524.184695 293.560277 
L 527.250187 294.129202 
L 529.259103 294.291474 
L 534.613339 294.500612 
L 537.324891 294.963248 
L 544.174685 296.615976 
L 547.990266 297.780476 
L 553.22667 299.398965 
L 556.431943 300.209809 
L 558.192311 300.430535 
L 559.897139 300.335772 
L 561.191334 300.08789 
L 562.475664 299.609801 
L 563.772791 298.832244 
L 564.709847 298.034951 
L 565.62682 297.005612 
L 566.501228 295.763624 
L 567.578864 293.785543 
L 568.860084 290.889814 
L 570.013432 287.572966 
L 572.79643 279.406229 
L 576.763077 267.830013 
L 579.364795 259.63333 
L 581.209049 253.071718 
L 582.339825 248.440823 
L 582.471164 246.905633 
L 582.400252 245.785343 
L 582.168676 244.715882 
L 581.608931 243.412445 
L 581.017817 242.565496 
L 580.310915 241.840822 
L 578.894001 240.986586 
L 576.943113 240.510549 
L 575.151021 240.304833 
L 571.60185 240.229388 
L 564.298947 240.424619 
L 560.600486 240.241474 
L 555.157921 239.674797 
L 534.647373 237.23623 
L 519.694025 235.199767 
L 513.033953 234.382053 
L 498.347103 233.030009 
L 475.110208 230.94556 
L 461.314214 229.368694 
L 450.781858 228.266798 
L 437.480038 227.201958 
L 427.155247 226.590495 
L 416.005154 226.120323 
L 408.560905 225.83072 
L 400.059902 225.186199 
L 397.073544 224.770411 
L 394.972872 224.266205 
L 393.539824 223.696418 
L 392.490566 223.096685 
L 391.386273 222.165139 
L 390.587691 221.18223 
L 389.879359 219.983029 
L 389.289194 218.530571 
L 388.953087 217.214872 
L 388.743166 215.753082 
L 388.642871 213.577549 
L 388.322605 190.548014 
L 387.88758 176.984476 
L 388.133762 175.531395 
L 388.637334 174.20601 
L 389.507964 172.753285 
L 390.717892 171.527781 
L 391.298662 171.08098 
L 393.041803 170.273753 
L 394.275904 169.946472 
L 396.151364 169.659446 
L 398.256614 169.533527 
L 401.855348 169.621768 
L 410.240355 170.027159 
L 416.048732 170.10287 
L 429.133647 170.252337 
L 454.679912 171.017088 
L 463.738189 171.367295 
L 468.539727 171.814363 
L 475.456683 172.76617 
L 484.416296 173.94742 
L 494.169407 174.840489 
L 503.87551 175.578226 
L 520.688663 176.643422 
L 525.608717 177.241289 
L 529.695596 177.961431 
L 533.775809 178.919547 
L 541.949833 180.939571 
L 546.852381 181.87716 
L 558.078833 183.669341 
L 567.773206 185.158055 
L 581.046697 186.944548 
L 583.820365 187.569785 
L 585.883309 188.203375 
L 587.555969 188.937114 
L 589.07854 189.875947 
L 590.61062 191.233411 
L 591.756147 192.638417 
L 592.759317 194.322008 
L 593.409791 195.746386 
L 594.039027 197.885486 
L 594.294773 199.601777 
L 594.360176 201.382494 
L 594.169921 203.886019 
L 593.75209 206.482139 
L 593.118766 209.155659 
L 592.050283 212.555896 
L 587.178392 226.607645 
L 584.660027 234.928203 
L 583.901496 236.678707 
L 583.216366 237.845561 
L 582.404784 238.849619 
L 581.446845 239.713808 
L 580.419683 240.384542 
L 578.884404 241.025153 
L 577.196193 241.354833 
L 575.311329 241.479507 
L 572.717431 241.441563 
L 569.201228 241.16129 
L 555.33529 239.683239 
L 510.749563 234.13386 
L 473.938635 230.599529 
L 458.343591 228.671567 
L 447.080607 227.670353 
L 432.79475 226.715791 
L 423.165051 226.244641 
L 410.594419 225.687384 
L 395.776605 223.589517 
L 390.765477 223.243664 
L 383.543506 222.926513 
L 376.834951 222.757674 
L 358.94728 222.320382 
L 324.885938 221.375861 
L 315.28631 221.29393 
L 306.559819 221.442419 
L 297.777265 221.821863 
L 281.984254 222.75101 
L 220.827701 226.943457 
L 213.645384 227.614813 
L 208.305276 228.401425 
L 201.182319 229.486881 
L 197.952254 229.690199 
L 194.955719 229.660963 
L 192.235014 229.407616 
L 188.869788 228.821212 
L 185.605155 228.249026 
L 183.902993 228.172515 
L 182.718544 228.342242 
L 181.631754 228.662503 
L 180.443218 229.298137 
L 179.029592 230.430157 
L 177.161523 232.350477 
L 176.327281 233.595531 
L 175.726659 234.77607 
L 174.991588 237.055484 
L 174.069283 241.174975 
L 173.623104 244.529181 
L 172.878969 252.844585 
L 172.083827 264.058064 
L 171.579709 274.506791 
L 171.122512 289.86921 
L 170.784301 302.730663 
L 168.516084 356.505704 
L 168.671415 359.925447 
L 169.061877 363.303238 
L 169.747008 366.651775 
L 170.455598 369.135454 
L 171.351955 371.598663 
L 172.436345 374.028472 
L 173.727073 376.408855 
L 175.705065 379.508582 
L 178.509035 383.339347 
L 187.935843 395.985611 
L 190.580393 400.070792 
L 197.954298 412.027135 
L 201.413362 417.447921 
L 204.300418 421.43681 
L 206.196212 423.706103 
L 207.709808 425.207924 
L 208.84094 426.057308 
L 210.266562 426.826201 
L 211.695206 427.279942 
L 213.310816 427.525878 
L 214.965704 427.544468 
L 217.026515 427.281275 
L 218.976782 426.847999 
L 221.20741 426.145389 
L 223.622162 425.098686 
L 225.514935 424.042199 
L 228.831641 421.86527 
L 236.280102 416.838981 
L 243.077111 412.483942 
L 248.589345 409.273097 
L 253.332562 406.749134 
L 260.962391 402.992522 
L 274.333186 396.517444 
L 290.131885 388.99888 
L 294.804279 387.190154 
L 302.334226 384.51929 
L 308.00197 382.61404 
L 313.763588 380.982063 
L 319.601378 379.61504 
L 329.300319 377.664242 
L 339.791381 375.813804 
L 350.036871 374.228929 
L 358.183897 373.203143 
L 370.413662 371.905888 
L 382.320482 370.847191 
L 385.190498 370.522857 
L 386.932582 370.020084 
L 388.15899 369.378556 
L 389.130624 368.609977 
L 390.146874 367.503753 
L 390.885796 366.402977 
L 391.54685 365.05263 
L 392.135053 363.447506 
L 392.625397 361.62122 
L 392.9421 359.575897 
L 393.096852 357.346024 
L 393.100422 353.225902 
L 392.673531 334.408596 
L 391.3212 293.050881 
L 391.134637 284.91242 
L 390.924621 266.188544 
L 390.565003 253.936795 
L 389.747416 229.217628 
L 388.132125 166.542413 
L 387.820663 160.119871 
L 387.276122 146.882281 
L 386.006893 115.282663 
L 385.860345 109.466607 
L 385.882252 102.425049 
L 386.132124 94.903099 
L 386.583759 87.979994 
L 388.154805 68.019772 
L 388.857958 55.76598 
L 389.117868 49.887187 
L 389.117868 49.887187 
" clip-path="url(#p76f83b4b01)" style="fill: none; stroke: #000000; stroke-width: 2; stroke-linecap: square"/>
   </g>
   <g id="line2d_24">
    <path d="M 393.4292 377.948598 
L 393.403791 373.796009 
L 393.199417 365.768766 
L 392.190051 334.600329 
L 391.509637 316.947906 
L 391.397974 313.006802 
L 391.207967 308.135578 
L 390.313752 290.583046 
L 389.979069 285.159706 
L 390.117551 283.719245 
L 390.436716 282.372279 
L 390.928313 281.189716 
L 391.644017 280.150878 
L 392.322456 279.496954 
L 393.162752 278.935245 
L 394.465274 278.367059 
L 395.539347 278.100713 
L 397.653698 277.851878 
L 399.562303 277.844881 
L 406.284468 277.959221 
L 414.266231 278.17819 
L 435.173845 279.119899 
L 442.516853 279.552428 
L 446.831025 280.005827 
L 452.068171 280.640956 
L 462.034584 281.937068 
L 477.566317 284.189151 
L 495.586942 286.733626 
L 504.70694 288.495115 
L 507.263946 289.13547 
L 516.207538 292.026438 
L 519.538946 293.037346 
L 525.318747 294.450025 
L 528.307376 294.818236 
L 534.596413 295.181964 
L 538.608777 296.032823 
L 543.76761 297.390097 
L 555.715111 301.170141 
L 557.14782 301.448612 
L 558.538505 301.547797 
L 560.241943 301.378432 
L 561.5644 301.030449 
L 562.785892 300.426385 
L 564.270665 299.240561 
L 565.456462 297.857057 
L 566.528357 296.071859 
L 567.560014 293.902517 
L 568.537128 291.448989 
L 571.111372 283.749209 
L 573.1288 277.528348 
L 579.596322 256.686387 
L 581.261188 250.073524 
L 581.525061 248.108466 
L 581.460341 246.962387 
L 581.193437 245.606281 
L 580.667306 244.360608 
L 580.120214 243.568948 
L 579.190029 242.701959 
L 578.36584 242.21116 
L 577.112047 241.782836 
L 575.439092 241.493831 
L 572.915528 241.312969 
L 570.943986 241.290151 
L 562.254108 241.607507 
L 557.621424 241.438303 
L 550.474677 240.850468 
L 516.727096 237.659726 
L 509.06507 237.010614 
L 493.216517 236.087557 
L 475.926887 235.271059 
L 449.470283 233.296094 
L 443.260322 233.010984 
L 440.610589 232.926962 
L 432.720619 232.694887 
L 414.347929 232.460261 
L 408.719025 232.615608 
L 397.509105 232.155097 
L 391.914981 231.524295 
L 389.734313 230.865244 
L 388.407249 230.197706 
L 387.447825 229.525095 
L 386.816636 228.889033 
L 385.893164 227.695043 
L 384.964863 225.909587 
L 384.536654 224.575851 
L 384.15334 221.967351 
L 383.951345 218.327735 
L 383.720809 212.847954 
L 383.105511 203.93298 
L 382.073944 192.740297 
L 381.744286 189.802521 
L 381.289944 183.999514 
L 381.438353 182.485808 
L 381.820289 181.071734 
L 382.371502 179.816246 
L 382.929471 178.972436 
L 384.151743 177.649155 
L 385.112452 177.012945 
L 386.600367 176.285434 
L 388.398073 175.797111 
L 390.943892 175.442055 
L 394.452252 175.352996 
L 411.325842 175.250818 
L 419.243959 175.152919 
L 425.477715 175.155252 
L 451.540111 175.07691 
L 455.492925 175.08021 
L 460.830961 175.340916 
L 466.866146 175.928117 
L 478.806779 177.138751 
L 486.635855 177.615352 
L 490.192565 177.746563 
L 492.694509 177.878382 
L 497.900661 178.013551 
L 511.512176 178.268304 
L 517.333987 178.692332 
L 523.025479 179.494699 
L 526.379055 180.147823 
L 532.116779 181.439938 
L 537.860359 182.412025 
L 544.97753 183.386322 
L 555.743641 184.779027 
L 562.646477 185.440147 
L 574.976802 186.587809 
L 579.057847 187.383357 
L 580.475408 187.883503 
L 582.072628 188.694849 
L 583.312356 189.610628 
L 584.524946 190.812978 
L 585.382188 191.944366 
L 586.180424 193.236533 
L 587.580985 196.372872 
L 587.929438 198.726774 
L 587.980612 200.516453 
L 587.640149 204.30769 
L 587.135219 206.963769 
L 586.199557 210.370603 
L 584.530268 215.293022 
L 582.671797 220.942346 
L 578.891668 233.925193 
L 577.883562 236.038241 
L 577.138214 237.136758 
L 576.266303 238.067031 
L 575.249865 238.85817 
L 573.767494 239.629437 
L 572.546273 240.014485 
L 571.249668 240.227397 
L 568.837302 240.374769 
L 565.495464 240.304179 
L 546.248488 238.740474 
L 535.282997 237.840641 
L 529.496835 237.37851 
L 516.01909 236.040659 
L 508.072829 235.329593 
L 493.840385 234.504904 
L 475.59508 233.571233 
L 465.966071 232.947679 
L 462.053842 232.580622 
L 444.950134 231.480019 
L 438.701016 231.25888 
L 422.449264 231.083013 
L 400.858401 231.366348 
L 396.310251 230.865361 
L 391.838846 230.326949 
L 387.191504 229.965503 
L 384.631858 229.871833 
L 383.160248 229.883161 
L 364.764897 230.495907 
L 355.292432 230.917728 
L 349.786297 231.116722 
L 319.633844 232.456883 
L 305.0294 233.334741 
L 288.411225 234.962524 
L 279.629131 236.0747 
L 253.664952 239.583545 
L 232.093677 242.673303 
L 207.435177 246.552743 
L 199.828815 248.283634 
L 194.778049 249.452309 
L 192.087858 249.914085 
L 187.662113 250.360379 
L 184.826147 250.417257 
L 181.776467 250.189479 
L 178.295305 249.836252 
L 176.487743 249.798103 
L 175.250951 249.972499 
L 173.573126 250.567267 
L 172.698484 251.151919 
L 171.317489 252.317628 
L 169.526864 254.312533 
L 168.868362 255.272488 
L 168.176341 256.707117 
L 167.751999 258.133869 
L 167.307666 260.30001 
L 166.982948 262.845154 
L 166.768416 266.825885 
L 166.733038 270.730697 
L 166.906672 286.390904 
L 167.298048 296.680119 
L 168.025514 307.841212 
L 169.16628 323.475985 
L 169.421491 329.343552 
L 169.913106 340.790939 
L 170.4219 350.138918 
L 171.113204 362.703904 
L 171.814389 376.606053 
L 172.247405 379.964652 
L 172.878706 383.342018 
L 173.506386 385.853122 
L 174.516707 388.811374 
L 175.543305 391.098756 
L 176.327419 392.593782 
L 177.65009 394.735144 
L 179.763982 397.698205 
L 181.548174 399.763523 
L 194.604718 413.883487 
L 198.168686 418.421788 
L 200.67318 421.503505 
L 208.86061 432.034515 
L 211.614747 435.210628 
L 214.984689 438.673548 
L 216.684428 440.12575 
L 217.969521 441.003288 
L 219.333957 441.645258 
L 220.328282 441.998159 
L 221.533087 442.207951 
L 223.395253 442.22432 
L 225.126865 442.013505 
L 226.756179 441.631723 
L 228.178452 441.184201 
L 230.339465 440.287667 
L 232.035651 439.425246 
L 234.307893 437.975353 
L 237.909164 435.147999 
L 242.636749 431.181051 
L 252.999322 422.819037 
L 256.564562 420.230647 
L 265.736938 414.160074 
L 293.652859 396.517686 
L 297.187393 394.583092 
L 305.343055 390.562326 
L 315.491929 385.863757 
L 318.333672 384.705355 
L 324.966837 382.358437 
L 336.376778 378.806236 
L 356.773967 373.128283 
L 368.248518 370.429611 
L 382.14443 367.531162 
L 387.727639 366.474996 
L 390.678289 365.58645 
L 392.145366 364.888513 
L 393.425236 363.925001 
L 394.36292 362.863162 
L 395.192429 361.429222 
L 395.727487 360.045224 
L 396.140337 358.459531 
L 396.442532 356.6695 
L 396.551824 354.709844 
L 396.486487 352.56025 
L 396.031379 348.529881 
L 394.298632 334.989912 
L 392.143748 320.105777 
L 391.482633 315.311468 
L 390.703378 310.38483 
L 390.027788 305.62975 
L 386.486125 281.940176 
L 384.718617 267.453569 
L 383.27735 256.530586 
L 381.030153 241.722719 
L 380.057355 235.160433 
L 379.047764 227.913041 
L 376.918629 212.475913 
L 375.86257 205.560405 
L 374.000052 192.78452 
L 373.043364 185.605982 
L 370.820535 168.400986 
L 370.096758 164.106517 
L 368.383651 153.960371 
L 360.884652 106.931686 
L 359.121046 89.223796 
L 358.101998 66.316265 
L 357.876841 61.067706 
L 356.976561 49.082372 
L 356.836006 47.180395 
L 356.836006 47.180395 
" clip-path="url(#p76f83b4b01)" style="fill: none; stroke-dasharray: 5.55,2.4; stroke-dashoffset: 0; stroke: #ff0000; stroke-width: 1.5"/>
   </g>
   <g id="line2d_25">
    <path d="M 393.4292 377.948598 
L 393.375448 372.670817 
L 392.470337 326.721879 
L 392.796384 314.946883 
L 392.944113 309.053076 
L 392.992397 300.494196 
L 392.789346 293.09042 
L 392.598166 290.397784 
L 391.825323 283.805806 
L 391.936142 281.712757 
L 392.252193 280.455861 
L 392.82081 279.344857 
L 393.67197 278.370928 
L 394.806198 277.519225 
L 396.12689 276.906415 
L 397.329529 276.524272 
L 399.066367 276.135071 
L 412.388 274.302539 
L 419.816891 273.451222 
L 428.25322 272.605206 
L 441.00501 271.523143 
L 445.880566 271.365373 
L 456.410365 271.319821 
L 467.554007 271.606921 
L 474.380396 271.840157 
L 485.836506 272.125699 
L 494.356357 272.52146 
L 502.364217 273.210984 
L 507.587407 273.864585 
L 512.615436 274.977274 
L 519.661955 276.61154 
L 524.611517 277.532241 
L 527.188109 277.84744 
L 529.680673 277.950589 
L 532.12891 277.812701 
L 534.550018 277.792748 
L 536.896034 277.973449 
L 541.370016 278.654731 
L 546.23149 279.697359 
L 558.168393 282.678718 
L 559.581519 282.80573 
L 561.645725 282.609031 
L 562.631264 282.36386 
L 564.205737 281.649394 
L 565.378516 280.78369 
L 566.528794 279.551151 
L 567.061001 278.814615 
L 568.580053 275.934903 
L 569.498323 273.599143 
L 571.883736 266.042737 
L 579.42884 239.830236 
L 581.088552 232.686875 
L 581.541782 230.193042 
L 581.669451 228.624819 
L 581.554306 227.482623 
L 581.097259 225.82454 
L 580.451093 224.662958 
L 579.573709 223.739858 
L 578.493563 223.047355 
L 577.254536 222.656194 
L 575.550237 222.445373 
L 571.741933 222.489417 
L 564.222658 223.288388 
L 559.068111 223.476084 
L 554.275019 223.433368 
L 525.459006 222.541871 
L 510.430091 221.875982 
L 491.898099 221.740104 
L 476.231635 221.691733 
L 460.339779 221.194324 
L 449.633451 220.846189 
L 444.296692 220.892246 
L 418.40929 222.22273 
L 405.244348 223.019728 
L 397.86942 223.131264 
L 395.335315 223.113506 
L 392.702765 222.980476 
L 389.161304 222.362666 
L 387.113809 221.554367 
L 386.363984 221.068512 
L 385.184739 219.918274 
L 384.293242 218.689352 
L 383.685621 217.588512 
L 383.197004 216.362658 
L 382.875397 214.892894 
L 381.933877 207.496694 
L 380.963549 197.353461 
L 379.943777 184.012715 
L 379.348711 179.168558 
L 379.004888 176.658609 
L 378.948331 174.73825 
L 379.104586 173.655374 
L 379.376681 172.58639 
L 380.102011 171.054963 
L 380.964208 169.969051 
L 381.475421 169.417112 
L 382.740752 168.560271 
L 383.482557 168.150132 
L 384.297477 167.839476 
L 385.664674 167.438705 
L 387.667441 167.076608 
L 393.003532 166.803095 
L 404.291508 166.465224 
L 415.800035 165.975811 
L 456.315552 164.805734 
L 464.209719 165.259846 
L 476.211315 166.0081 
L 489.307441 166.148874 
L 494.523248 166.061088 
L 509.811107 165.595697 
L 514.843088 165.690673 
L 519.767049 166.055877 
L 524.825518 166.744328 
L 529.810518 167.519232 
L 534.820494 168.04791 
L 544.291856 168.646133 
L 557.860883 169.190429 
L 575.265014 169.403752 
L 577.201948 169.681285 
L 578.668035 170.043626 
L 580.004358 170.542335 
L 581.060937 171.082608 
L 582.017429 171.724364 
L 583.02362 172.557992 
L 584.004765 173.595368 
L 585.766498 176.010175 
L 586.487888 177.315134 
L 587.082766 178.898019 
L 587.438486 180.678327 
L 587.63383 182.502811 
L 587.73065 185.013682 
L 587.596066 187.690793 
L 587.263966 190.445738 
L 586.262646 195.508072 
L 584.779753 202.79226 
L 583.591981 210.203856 
L 583.246252 212.539852 
L 582.735312 215.172702 
L 582.068968 217.512149 
L 581.559112 218.741638 
L 580.609795 220.218346 
L 579.39347 221.415343 
L 577.963954 222.323551 
L 576.267638 222.953966 
L 573.005508 223.672816 
L 570.285154 223.976861 
L 565.223203 223.87441 
L 550.324547 223.347978 
L 524.999579 222.490312 
L 511.86217 221.864317 
L 494.761437 221.75351 
L 477.483373 221.691591 
L 468.691595 221.349963 
L 453.775622 220.676312 
L 447.59158 220.602789 
L 441.358965 220.816637 
L 429.132744 221.462813 
L 415.057604 222.391337 
L 405.230789 222.980017 
L 402.479722 222.878633 
L 394.933754 222.220274 
L 390.119614 222.04729 
L 387.778843 221.994396 
L 376.08952 222.479749 
L 335.647763 223.945827 
L 315.609003 224.461423 
L 306.763032 224.81888 
L 297.907277 225.321532 
L 289.104035 226.003397 
L 212.074496 232.927409 
L 205.101784 233.923965 
L 200.56825 234.727137 
L 197.716594 235.190426 
L 195.000479 235.469088 
L 192.392956 235.617506 
L 187.714629 235.459422 
L 180.474217 234.305902 
L 178.766863 234.247427 
L 177.072863 234.613674 
L 176.213419 234.907173 
L 174.295333 236.2174 
L 172.536367 237.839194 
L 171.61852 238.940205 
L 170.507624 240.912255 
L 169.641387 243.685854 
L 169.12461 246.125418 
L 168.461531 251.426077 
L 167.746811 261.969267 
L 167.22964 271.520691 
L 166.861783 283.953567 
L 166.867608 296.211896 
L 166.908985 305.145485 
L 166.612927 316.882284 
L 166.200623 336.957476 
L 166.089552 345.149446 
L 165.735498 361.070922 
L 166.045903 366.205059 
L 166.371068 368.812812 
L 166.830432 371.397985 
L 167.462934 373.80077 
L 168.201407 376.070878 
L 169.204295 378.423473 
L 170.384868 380.683017 
L 171.789038 383.029818 
L 173.39017 385.338293 
L 186.112238 401.273335 
L 194.344702 413.356023 
L 198.795072 419.977692 
L 201.826154 424.049586 
L 204.992075 427.788238 
L 206.607231 429.376579 
L 207.841362 430.353815 
L 209.890541 431.432805 
L 211.843887 431.8991 
L 213.524213 431.968126 
L 214.57064 431.920665 
L 217.52194 431.386613 
L 219.677698 430.688651 
L 221.998023 429.710692 
L 223.737421 428.788227 
L 228.112572 425.769054 
L 234.590929 420.929839 
L 239.45454 417.337285 
L 244.817109 413.645104 
L 250.416737 410.168378 
L 255.220856 407.373777 
L 283.367267 391.964415 
L 286.12719 390.494973 
L 291.635185 388.06045 
L 300.093854 384.681994 
L 305.801165 382.509198 
L 311.630389 380.574545 
L 317.468792 379.022309 
L 329.13254 376.48318 
L 334.929908 375.369166 
L 349.160492 372.870147 
L 362.693874 371.229739 
L 372.601671 370.342082 
L 384.538282 369.562064 
L 386.694734 368.962273 
L 388.008094 368.326727 
L 389.013832 367.522755 
L 390.070275 366.359418 
L 391.107196 364.69578 
L 391.795235 363.17197 
L 392.418704 361.474443 
L 392.828919 359.563586 
L 393.087935 356.64331 
L 393.151397 348.702414 
L 392.952279 336.404578 
L 392.832533 330.210636 
L 392.945491 321.143639 
L 393.260478 309.289369 
L 393.274958 300.671512 
L 392.993551 289.632049 
L 392.795646 286.941718 
L 392.056453 281.632606 
L 391.624427 278.993548 
L 390.530876 270.570143 
L 387.980951 252.434823 
L 386.567708 243.46885 
L 385.129344 232.219119 
L 383.203646 212.690955 
L 381.883337 203.652995 
L 381.261036 197.580319 
L 379.665614 176.378378 
L 379.118827 168.896351 
L 378.049859 160.903551 
L 372.03937 109.773882 
L 371.588924 104.544292 
L 370.900031 93.282136 
L 370.754327 87.219917 
L 370.775456 80.975413 
L 370.719342 68.165082 
L 370.733053 61.787938 
L 370.518461 52.550204 
L 370.269799 46.66 
L 370.269799 46.66 
" clip-path="url(#p76f83b4b01)" style="fill: none; stroke-dasharray: 9.6,2.4,1.5,2.4; stroke-dashoffset: 0; stroke: #0000ff; stroke-width: 1.5"/>
   </g>
   <g id="patch_3">
    <path d="M 50.87 462.04 
L 50.87 26.88 
" style="fill: none; stroke: #000000; stroke-width: 0.8; stroke-linejoin: miter; stroke-linecap: square"/>
   </g>
   <g id="patch_4">
    <path d="M 709.2 462.04 
L 709.2 26.88 
" style="fill: none; stroke: #000000; stroke-width: 0.8; stroke-linejoin: miter; stroke-linecap: square"/>
   </g>
   <g id="patch_5">
    <path d="M 50.87 462.04 
L 709.2 462.04 
" style="fill: none; stroke: #000000; stroke-width: 0.8; stroke-linejoin: miter; stroke-linecap: square"/>
   </g>
   <g id="patch_6">
    <path d="M 50.87 26.88 
L 709.2 26.88 
" style="fill: none; stroke: #000000; stroke-width: 0.8; stroke-linejoin: miter; stroke-linecap: square"/>
   </g>
   <g id="text_14">
    <!-- KITTI 05: Ground Truth vs Visual Odometry vs SLAM (Top-down X-Z) -->
    <g transform="translate(178.155625 20.88) scale(0.12 -0.12)">
     <defs>
      <path id="DejaVuSans-4b" d="M 628 4666 
L 1259 4666 
L 1259 2694 
L 3353 4666 
L 4166 4666 
L 1850 2491 
L 4331 0 
L 3500 0 
L 1259 2247 
L 1259 0 
L 628 0 
L 628 4666 
z
" transform="scale(0.015625)"/>
      <path id="DejaVuSans-49" d="M 628 4666 
L 1259 4666 
L 1259 0 
L 628 0 
L 628 4666 
z
" transform="scale(0.015625)"/>
      <path id="DejaVuSans-54" d="M -19 4666 
L 3928 4666 
L 3928 4134 
L 2272 4134 
L 2272 0 
L 1638 0 
L 1638 4134 
L -19 4134 
L -19 4666 
z
" transform="scale(0.015625)"/>
      <path id="DejaVuSans-35" d="M 691 4666 
L 3169 4666 
L 3169 4134 
L 1269 4134 
L 1269 2991 
Q 1406 3038 1543 3061 
Q 1681 3084 1819 3084 
Q 2600 3084 3056 2656 
Q 3513 2228 3513 1497 
Q 3513 744 3044 326 
Q 2575 -91 1722 -91 
Q 1428 -91 1123 -41 
Q 819 9 494 109 
L 494 744 
Q 775 591 1075 516 
Q 1375 441 1709 441 
Q 2250 441 2565 725 
Q 2881 1009 2881 1497 
Q 2881 1984 2565 2268 
Q 2250 2553 1709 2553 
Q 1456 2553 1204 2497 
Q 953 2441 691 2322 
L 691 4666 
z
" transform="scale(0.015625)"/>
      <path id="DejaVuSans-3a" d="M 750 794 
L 1409 794 
L 1409 0 
L 750 0 
L 750 794 
z
M 750 3309 
L 1409 3309 
L 1409 2516 
L 750 2516 
L 750 3309 
z
" transform="scale(0.015625)"/>
      <path id="DejaVuSans-47" d="M 3809 666 
L 3809 1919 
L 2778 1919 
L 2778 2438 
L 4434 2438 
L 4434 434 
Q 4069 175 3628 42 
Q 3188 -91 2688 -91 
Q 1594 -91 976 548 
Q 359 1188 359 2328 
Q 359 3472 976 4111 
Q 1594 4750 2688 4750 
Q 3144 4750 3555 4637 
Q 3966 4525 4313 4306 
L 4313 3634 
Q 3963 3931 3569 4081 
Q 3175 4231 2741 4231 
Q 1884 4231 1454 3753 
Q 1025 3275 1025 2328 
Q 1025 1384 1454 906 
Q 1884 428 2741 428 
Q 3075 428 3337 486 
Q 3600 544 3809 666 
z
" transform="scale(0.015625)"/>
      <path id="DejaVuSans-72" d="M 2631 2963 
Q 2534 3019 2420 3045 
Q 2306 3072 2169 3072 
Q 1681 3072 1420 2755 
Q 1159 2438 1159 1844 
L 1159 0 
L 581 0 
L 581 3500 
L 1159 3500 
L 1159 2956 
Q 1341 3275 1631 3429 
Q 1922 3584 2338 3584 
Q 2397 3584 2469 3576 
Q 2541 3569 2628 3553 
L 2631 2963 
z
" transform="scale(0.015625)"/>
      <path id="DejaVuSans-6f" d="M 1959 3097 
Q 1497 3097 1228 2736 
Q 959 2375 959 1747 
Q 959 1119 1226 758 
Q 1494 397 1959 397 
Q 2419 397 2687 759 
Q 2956 1122 2956 1747 
Q 2956 2369 2687 2733 
Q 2419 3097 1959 3097 
z
M 1959 3584 
Q 2709 3584 3137 3096 
Q 3566 2609 3566 1747 
Q 3566 888 3137 398 
Q 2709 -91 1959 -91 
Q 1206 -91 779 398 
Q 353 888 353 1747 
Q 353 2609 779 3096 
Q 1206 3584 1959 3584 
z
" transform="scale(0.015625)"/>
      <path id="DejaVuSans-75" d="M 544 1381 
L 544 3500 
L 1119 3500 
L 1119 1403 
Q 1119 906 1312 657 
Q 1506 409 1894 409 
Q 2359 409 2629 706 
Q 2900 1003 2900 1516 
L 2900 3500 
L 3475 3500 
L 3475 0 
L 2900 0 
L 2900 538 
Q 2691 219 2414 64 
Q 2138 -91 1772 -91 
Q 1169 -91 856 284 
Q 544 659 544 1381 
z
M 1991 3584 
L 1991 3584 
z
" transform="scale(0.015625)"/>
      <path id="DejaVuSans-6e" d="M 3513 2113 
L 3513 0 
L 2938 0 
L 2938 2094 
Q 2938 2591 2744 2837 
Q 2550 3084 2163 3084 
Q 1697 3084 1428 2787 
Q 1159 2491 1159 1978 
L 1159 0 
L 581 0 
L 581 3500 
L 1159 3500 
L 1159 2956 
Q 1366 3272 1645 3428 
Q 1925 3584 2291 3584 
Q 2894 3584 3203 3211 
Q 3513 2838 3513 2113 
z
" transform="scale(0.015625)"/>
      <path id="DejaVuSans-64" d="M 2906 2969 
L 2906 4863 
L 3481 4863 
L 3481 0 
L 2906 0 
L 2906 525 
Q 2725 213 2448 61 
Q 2172 -91 1784 -91 
Q 1150 -91 751 415 
Q 353 922 353 1747 
Q 353 2572 751 3078 
Q 1150 3584 1784 3584 
Q 2172 3584 2448 3432 
Q 2725 3281 2906 2969 
z
M 947 1747 
Q 947 1113 1208 752 
Q 1469 391 1925 391 
Q 2381 391 2643 752 
Q 2906 1113 2906 1747 
Q 2906 2381 2643 2742 
Q 2381 3103 1925 3103 
Q 1469 3103 1208 2742 
Q 947 2381 947 1747 
z
" transform="scale(0.015625)"/>
      <path id="DejaVuSans-74" d="M 1172 4494 
L 1172 3500 
L 2356 3500 
L 2356 3053 
L 1172 3053 
L 1172 1153 
Q 1172 725 1289 603 
Q 1406 481 1766 481 
L 2356 481 
L 2356 0 
L 1766 0 
Q 1100 0 847 248 
Q 594 497 594 1153 
L 594 3053 
L 172 3053 
L 172 3500 
L 594 3500 
L 594 4494 
L 1172 4494 
z
" transform="scale(0.015625)"/>
      <path id="DejaVuSans-68" d="M 3513 2113 
L 3513 0 
L 2938 0 
L 2938 2094 
Q 2938 2591 2744 2837 
Q 2550 3084 2163 3084 
Q 1697 3084 1428 2787 
Q 1159 2491 1159 1978 
L 1159 0 
L 581 0 
L 581 4863 
L 1159 4863 
L 1159 2956 
Q 1366 3272 1645 3428 
Q 1925 3584 2291 3584 
Q 2894 3584 3203 3211 
Q 3513 2838 3513 2113 
z
" transform="scale(0.015625)"/>
      <path id="DejaVuSans-76" d="M 191 3500 
L 800 3500 
L 1894 563 
L 2988 3500 
L 3597 3500 
L 2284 0 
L 1503 0 
L 191 3500 
z
" transform="scale(0.015625)"/>
      <path id="DejaVuSans-73" d="M 2834 3397 
L 2834 2853 
Q 2591 2978 2328 3040 
Q 2066 3103 1784 3103 
Q 1356 3103 1142 2972 
Q 928 2841 928 2578 
Q 928 2378 1081 2264 
Q 1234 2150 1697 2047 
L 1894 2003 
Q 2506 1872 2764 1633 
Q 3022 1394 3022 966 
Q 3022 478 2636 193 
Q 2250 -91 1575 -91 
Q 1294 -91 989 -36 
Q 684 19 347 128 
L 347 722 
Q 666 556 975 473 
Q 1284 391 1588 391 
Q 1994 391 2212 530 
Q 2431 669 2431 922 
Q 2431 1156 2273 1281 
Q 2116 1406 1581 1522 
L 1381 1569 
Q 847 1681 609 1914 
Q 372 2147 372 2553 
Q 372 3047 722 3315 
Q 1072 3584 1716 3584 
Q 2034 3584 2315 3537 
Q 2597 3491 2834 3397 
z
" transform="scale(0.015625)"/>
      <path id="DejaVuSans-56" d="M 1831 0 
L 50 4666 
L 709 4666 
L 2188 738 
L 3669 4666 
L 4325 4666 
L 2547 0 
L 1831 0 
z
" transform="scale(0.015625)"/>
      <path id="DejaVuSans-69" d="M 603 3500 
L 1178 3500 
L 1178 0 
L 603 0 
L 603 3500 
z
M 603 4863 
L 1178 4863 
L 1178 4134 
L 603 4134 
L 603 4863 
z
" transform="scale(0.015625)"/>
      <path id="DejaVuSans-61" d="M 2194 1759 
Q 1497 1759 1228 1600 
Q 959 1441 959 1056 
Q 959 750 1161 570 
Q 1363 391 1709 391 
Q 2188 391 2477 730 
Q 2766 1069 2766 1631 
L 2766 1759 
L 2194 1759 
z
M 3341 1997 
L 3341 0 
L 2766 0 
L 2766 531 
Q 2569 213 2275 61 
Q 1981 -91 1556 -91 
Q 1019 -91 701 211 
Q 384 513 384 1019 
Q 384 1609 779 1909 
Q 1175 2209 1959 2209 
L 2766 2209 
L 2766 2266 
Q 2766 2663 2505 2880 
Q 2244 3097 1772 3097 
Q 1472 3097 1187 3025 
Q 903 2953 641 2809 
L 641 3341 
Q 956 3463 1253 3523 
Q 1550 3584 1831 3584 
Q 2591 3584 2966 3190 
Q 3341 2797 3341 1997 
z
" transform="scale(0.015625)"/>
      <path id="DejaVuSans-6c" d="M 603 4863 
L 1178 4863 
L 1178 0 
L 603 0 
L 603 4863 
z
" transform="scale(0.015625)"/>
      <path id="DejaVuSans-4f" d="M 2522 4238 
Q 1834 4238 1429 3725 
Q 1025 3213 1025 2328 
Q 1025 1447 1429 934 
Q 1834 422 2522 422 
Q 3209 422 3611 934 
Q 4013 1447 4013 2328 
Q 4013 3213 3611 3725 
Q 3209 4238 2522 4238 
z
M 2522 4750 
Q 3503 4750 4090 4092 
Q 4678 3434 4678 2328 
Q 4678 1225 4090 567 
Q 3503 -91 2522 -91 
Q 1538 -91 948 565 
Q 359 1222 359 2328 
Q 359 3434 948 4092 
Q 1538 4750 2522 4750 
z
" transform="scale(0.015625)"/>
      <path id="DejaVuSans-65" d="M 3597 1894 
L 3597 1613 
L 953 1613 
Q 991 1019 1311 708 
Q 1631 397 2203 397 
Q 2534 397 2845 478 
Q 3156 559 3463 722 
L 3463 178 
Q 3153 47 2828 -22 
Q 2503 -91 2169 -91 
Q 1331 -91 842 396 
Q 353 884 353 1716 
Q 353 2575 817 3079 
Q 1281 3584 2069 3584 
Q 2775 3584 3186 3129 
Q 3597 2675 3597 1894 
z
M 3022 2063 
Q 3016 2534 2758 2815 
Q 2500 3097 2075 3097 
Q 1594 3097 1305 2825 
Q 1016 2553 972 2059 
L 3022 2063 
z
" transform="scale(0.015625)"/>
      <path id="DejaVuSans-79" d="M 2059 -325 
Q 1816 -950 1584 -1140 
Q 1353 -1331 966 -1331 
L 506 -1331 
L 506 -850 
L 844 -850 
Q 1081 -850 1212 -737 
Q 1344 -625 1503 -206 
L 1606 56 
L 191 3500 
L 800 3500 
L 1894 763 
L 2988 3500 
L 3597 3500 
L 2059 -325 
z
" transform="scale(0.015625)"/>
      <path id="DejaVuSans-53" d="M 3425 4513 
L 3425 3897 
Q 3066 4069 2747 4153 
Q 2428 4238 2131 4238 
Q 1616 4238 1336 4038 
Q 1056 3838 1056 3469 
Q 1056 3159 1242 3001 
Q 1428 2844 1947 2747 
L 2328 2669 
Q 3034 2534 3370 2195 
Q 3706 1856 3706 1288 
Q 3706 609 3251 259 
Q 2797 -91 1919 -91 
Q 1588 -91 1214 -16 
Q 841 59 441 206 
L 441 856 
Q 825 641 1194 531 
Q 1563 422 1919 422 
Q 2459 422 2753 634 
Q 3047 847 3047 1241 
Q 3047 1584 2836 1778 
Q 2625 1972 2144 2069 
L 1759 2144 
Q 1053 2284 737 2584 
Q 422 2884 422 3419 
Q 422 4038 858 4394 
Q 1294 4750 2059 4750 
Q 2388 4750 2728 4690 
Q 3069 4631 3425 4513 
z
" transform="scale(0.015625)"/>
      <path id="DejaVuSans-4c" d="M 628 4666 
L 1259 4666 
L 1259 531 
L 3531 531 
L 3531 0 
L 628 0 
L 628 4666 
z
" transform="scale(0.015625)"/>
      <path id="DejaVuSans-41" d="M 2188 4044 
L 1331 1722 
L 3047 1722 
L 2188 4044 
z
M 1831 4666 
L 2547 4666 
L 4325 0 
L 3669 0 
L 3244 1197 
L 1141 1197 
L 716 0 
L 50 0 
L 1831 4666 
z
" transform="scale(0.015625)"/>
      <path id="DejaVuSans-4d" d="M 628 4666 
L 1569 4666 
L 2759 1491 
L 3956 4666 
L 4897 4666 
L 4897 0 
L 4281 0 
L 4281 4097 
L 3078 897 
L 2444 897 
L 1241 4097 
L 1241 0 
L 628 0 
L 628 4666 
z
" transform="scale(0.015625)"/>
      <path id="DejaVuSans-70" d="M 1159 525 
L 1159 -1331 
L 581 -1331 
L 581 3500 
L 1159 3500 
L 1159 2969 
Q 1341 3281 1617 3432 
Q 1894 3584 2278 3584 
Q 2916 3584 3314 3078 
Q 3713 2572 3713 1747 
Q 3713 922 3314 415 
Q 2916 -91 2278 -91 
Q 1894 -91 1617 61 
Q 1341 213 1159 525 
z
M 3116 1747 
Q 3116 2381 2855 2742 
Q 2594 3103 2138 3103 
Q 1681 3103 1420 2742 
Q 1159 2381 1159 1747 
Q 1159 1113 1420 752 
Q 1681 391 2138 391 
Q 2594 391 2855 752 
Q 3116 1113 3116 1747 
z
" transform="scale(0.015625)"/>
      <path id="DejaVuSans-2d" d="M 313 2009 
L 1997 2009 
L 1997 1497 
L 313 1497 
L 313 2009 
z
" transform="scale(0.015625)"/>
      <path id="DejaVuSans-77" d="M 269 3500 
L 844 3500 
L 1563 769 
L 2278 3500 
L 2956 3500 
L 3675 769 
L 4391 3500 
L 4966 3500 
L 4050 0 
L 3372 0 
L 2619 2869 
L 1863 0 
L 1184 0 
L 269 3500 
z
" transform="scale(0.015625)"/>
     </defs>
     <use xlink:href="#DejaVuSans-4b"/>
     <use xlink:href="#DejaVuSans-49" transform="translate(65.576172 0)"/>
     <use xlink:href="#DejaVuSans-54" transform="translate(95.068359 0)"/>
     <use xlink:href="#DejaVuSans-54" transform="translate(154.402344 0)"/>
     <use xlink:href="#DejaVuSans-49" transform="translate(215.486328 0)"/>
     <use xlink:href="#DejaVuSans-20" transform="translate(244.978516 0)"/>
     <use xlink:href="#DejaVuSans-30" transform="translate(276.765625 0)"/>
     <use xlink:href="#DejaVuSans-35" transform="translate(340.388672 0)"/>
     <use xlink:href="#DejaVuSans-3a" transform="translate(404.011719 0)"/>
     <use xlink:href="#DejaVuSans-20" transform="translate(437.703125 0)"/>
     <use xlink:href="#DejaVuSans-47" transform="translate(469.490234 0)"/>
     <use xlink:href="#DejaVuSans-72" transform="translate(546.980469 0)"/>
     <use xlink:href="#DejaVuSans-6f" transform="translate(585.84375 0)"/>
     <use xlink:href="#DejaVuSans-75" transform="translate(647.025391 0)"/>
     <use xlink:href="#DejaVuSans-6e" transform="translate(710.404297 0)"/>
     <use xlink:href="#DejaVuSans-64" transform="translate(773.783203 0)"/>
     <use xlink:href="#DejaVuSans-20" transform="translate(837.259766 0)"/>
     <use xlink:href="#DejaVuSans-54" transform="translate(869.046875 0)"/>
     <use xlink:href="#DejaVuSans-72" transform="translate(915.380859 0)"/>
     <use xlink:href="#DejaVuSans-75" transform="translate(956.494141 0)"/>
     <use xlink:href="#DejaVuSans-74" transform="translate(1019.873047 0)"/>
     <use xlink:href="#DejaVuSans-68" transform="translate(1059.082031 0)"/>
     <use xlink:href="#DejaVuSans-20" transform="translate(1122.460938 0)"/>
     <use xlink:href="#DejaVuSans-76" transform="translate(1154.248047 0)"/>
     <use xlink:href="#DejaVuSans-73" transform="translate(1213.427734 0)"/>
     <use xlink:href="#DejaVuSans-20" transform="translate(1265.527344 0)"/>
     <use xlink:href="#DejaVuSans-56" transform="translate(1297.314453 0)"/>
     <use xlink:href="#DejaVuSans-69" transform="translate(1363.472656 0)"/>
     <use xlink:href="#DejaVuSans-73" transform="translate(1391.255859 0)"/>
     <use xlink:href="#DejaVuSans-75" transform="translate(1443.355469 0)"/>
     <use xlink:href="#DejaVuSans-61" transform="translate(1506.734375 0)"/>
     <use xlink:href="#DejaVuSans-6c" transform="translate(1568.013672 0)"/>
     <use xlink:href="#DejaVuSans-20" transform="translate(1595.796875 0)"/>
     <use xlink:href="#DejaVuSans-4f" transform="translate(1627.583984 0)"/>
     <use xlink:href="#DejaVuSans-64" transform="translate(1706.294922 0)"/>
     <use xlink:href="#DejaVuSans-6f" transform="translate(1769.771484 0)"/>
     <use xlink:href="#DejaVuSans-6d" transform="translate(1830.953125 0)"/>
     <use xlink:href="#DejaVuSans-65" transform="translate(1928.365234 0)"/>
     <use xlink:href="#DejaVuSans-74" transform="translate(1989.888672 0)"/>
     <use xlink:href="#DejaVuSans-72" transform="translate(2029.097656 0)"/>
     <use xlink:href="#DejaVuSans-79" transform="translate(2070.210938 0)"/>
     <use xlink:href="#DejaVuSans-20" transform="translate(2129.390625 0)"/>
     <use xlink:href="#DejaVuSans-76" transform="translate(2161.177734 0)"/>
     <use xlink:href="#DejaVuSans-73" transform="translate(2220.357422 0)"/>
     <use xlink:href="#DejaVuSans-20" transform="translate(2272.457031 0)"/>
     <use xlink:href="#DejaVuSans-53" transform="translate(2304.244141 0)"/>
     <use xlink:href="#DejaVuSans-4c" transform="translate(2367.720703 0)"/>
     <use xlink:href="#DejaVuSans-41" transform="translate(2425.683594 0)"/>
     <use xlink:href="#DejaVuSans-4d" transform="translate(2494.091797 0)"/>
     <use xlink:href="#DejaVuSans-20" transform="translate(2580.371094 0)"/>
     <use xlink:href="#DejaVuSans-28" transform="translate(2612.158203 0)"/>
     <use xlink:href="#DejaVuSans-54" transform="translate(2651.171875 0)"/>
     <use xlink:href="#DejaVuSans-6f" transform="translate(2695.255859 0)"/>
     <use xlink:href="#DejaVuSans-70" transform="translate(2756.4375 0)"/>
     <use xlink:href="#DejaVuSans-2d" transform="translate(2819.914062 0)"/>
     <use xlink:href="#DejaVuSans-64" transform="translate(2855.998047 0)"/>
     <use xlink:href="#DejaVuSans-6f" transform="translate(2919.474609 0)"/>
     <use xlink:href="#DejaVuSans-77" transform="translate(2980.65625 0)"/>
     <use xlink:href="#DejaVuSans-6e" transform="translate(3062.443359 0)"/>
     <use xlink:href="#DejaVuSans-20" transform="translate(3125.822266 0)"/>
     <use xlink:href="#DejaVuSans-58" transform="translate(3157.609375 0)"/>
     <use xlink:href="#DejaVuSans-2d" transform="translate(3221.115234 0)"/>
     <use xlink:href="#DejaVuSans-5a" transform="translate(3257.199219 0)"/>
     <use xlink:href="#DejaVuSans-29" transform="translate(3325.705078 0)"/>
    </g>
   </g>
   <g id="legend_1">
    <g id="patch_7">
     <path d="M 570.514063 166.983125 
L 702.2 166.983125 
Q 704.2 166.983125 704.2 164.983125 
L 704.2 33.88 
Q 704.2 31.88 702.2 31.88 
L 570.514063 31.88 
Q 568.514063 31.88 568.514063 33.88 
L 568.514063 164.983125 
Q 568.514063 166.983125 570.514063 166.983125 
z
" style="fill: #ffffff; opacity: 0.8; stroke: #cccccc; stroke-linejoin: miter"/>
    </g>
    <g id="line2d_26">
     <path d="M 572.514063 39.978437 
L 582.514063 39.978437 
L 592.514063 39.978437 
" style="fill: none; stroke: #000000; stroke-width: 2; stroke-linecap: square"/>
    </g>
    <g id="text_15">
     <!-- Ground Truth -->
     <g transform="translate(600.514063 43.478437) scale(0.1 -0.1)">
      <use xlink:href="#DejaVuSans-47"/>
      <use xlink:href="#DejaVuSans-72" transform="translate(77.490234 0)"/>
      <use xlink:href="#DejaVuSans-6f" transform="translate(116.353516 0)"/>
      <use xlink:href="#DejaVuSans-75" transform="translate(177.535156 0)"/>
      <use xlink:href="#DejaVuSans-6e" transform="translate(240.914062 0)"/>
      <use xlink:href="#DejaVuSans-64" transform="translate(304.292969 0)"/>
      <use xlink:href="#DejaVuSans-20" transform="translate(367.769531 0)"/>
      <use xlink:href="#DejaVuSans-54" transform="translate(399.556641 0)"/>
      <use xlink:href="#DejaVuSans-72" transform="translate(445.890625 0)"/>
      <use xlink:href="#DejaVuSans-75" transform="translate(487.003906 0)"/>
      <use xlink:href="#DejaVuSans-74" transform="translate(550.382812 0)"/>
      <use xlink:href="#DejaVuSans-68" transform="translate(589.591797 0)"/>
     </g>
    </g>
    <g id="line2d_27">
     <path d="M 572.514063 54.656562 
L 582.514063 54.656562 
L 592.514063 54.656562 
" style="fill: none; stroke-dasharray: 5.55,2.4; stroke-dashoffset: 0; stroke: #ff0000; stroke-width: 1.5"/>
    </g>
    <g id="text_16">
     <!-- Visual Odometry -->
     <g transform="translate(600.514063 58.156562) scale(0.1 -0.1)">
      <use xlink:href="#DejaVuSans-56"/>
      <use xlink:href="#DejaVuSans-69" transform="translate(66.158203 0)"/>
      <use xlink:href="#DejaVuSans-73" transform="translate(93.941406 0)"/>
      <use xlink:href="#DejaVuSans-75" transform="translate(146.041016 0)"/>
      <use xlink:href="#DejaVuSans-61" transform="translate(209.419922 0)"/>
      <use xlink:href="#DejaVuSans-6c" transform="translate(270.699219 0)"/>
      <use xlink:href="#DejaVuSans-20" transform="translate(298.482422 0)"/>
      <use xlink:href="#DejaVuSans-4f" transform="translate(330.269531 0)"/>
      <use xlink:href="#DejaVuSans-64" transform="translate(408.980469 0)"/>
      <use xlink:href="#DejaVuSans-6f" transform="translate(472.457031 0)"/>
      <use xlink:href="#DejaVuSans-6d" transform="translate(533.638672 0)"/>
      <use xlink:href="#DejaVuSans-65" transform="translate(631.050781 0)"/>
      <use xlink:href="#DejaVuSans-74" transform="translate(692.574219 0)"/>
      <use xlink:href="#DejaVuSans-72" transform="translate(731.783203 0)"/>
      <use xlink:href="#DejaVuSans-79" transform="translate(772.896484 0)"/>
     </g>
    </g>
    <g id="line2d_28">
     <path d="M 572.514063 69.334687 
L 582.514063 69.334687 
L 592.514063 69.334687 
" style="fill: none; stroke-dasharray: 9.6,2.4,1.5,2.4; stroke-dashoffset: 0; stroke: #0000ff; stroke-width: 1.5"/>
    </g>
    <g id="text_17">
     <!-- SLAM -->
     <g transform="translate(600.514063 72.834687) scale(0.1 -0.1)">
      <use xlink:href="#DejaVuSans-53"/>
      <use xlink:href="#DejaVuSans-4c" transform="translate(63.476562 0)"/>
      <use xlink:href="#DejaVuSans-41" transform="translate(121.439453 0)"/>
      <use xlink:href="#DejaVuSans-4d" transform="translate(189.847656 0)"/>
     </g>
    </g>
    <g id="PathCollection_7">
     <g>
      <use xlink:href="#md04c407e28" x="582.514063" y="84.887812" style="fill: #008000; stroke: #008000"/>
     </g>
    </g>
    <g id="text_18">
     <!-- Start - Ground Truth -->
     <g transform="translate(600.514063 87.512812) scale(0.1 -0.1)">
      <use xlink:href="#DejaVuSans-53"/>
      <use xlink:href="#DejaVuSans-74" transform="translate(63.476562 0)"/>
      <use xlink:href="#DejaVuSans-61" transform="translate(102.685547 0)"/>
      <use xlink:href="#DejaVuSans-72" transform="translate(163.964844 0)"/>
      <use xlink:href="#DejaVuSans-74" transform="translate(205.078125 0)"/>
      <use xlink:href="#DejaVuSans-20" transform="translate(244.287109 0)"/>
      <use xlink:href="#DejaVuSans-2d" transform="translate(276.074219 0)"/>
      <use xlink:href="#DejaVuSans-20" transform="translate(312.158203 0)"/>
      <use xlink:href="#DejaVuSans-47" transform="translate(343.945312 0)"/>
      <use xlink:href="#DejaVuSans-72" transform="translate(421.435547 0)"/>
      <use xlink:href="#DejaVuSans-6f" transform="translate(460.298828 0)"/>
      <use xlink:href="#DejaVuSans-75" transform="translate(521.480469 0)"/>
      <use xlink:href="#DejaVuSans-6e" transform="translate(584.859375 0)"/>
      <use xlink:href="#DejaVuSans-64" transform="translate(648.238281 0)"/>
      <use xlink:href="#DejaVuSans-20" transform="translate(711.714844 0)"/>
      <use xlink:href="#DejaVuSans-54" transform="translate(743.501953 0)"/>
      <use xlink:href="#DejaVuSans-72" transform="translate(789.835938 0)"/>
      <use xlink:href="#DejaVuSans-75" transform="translate(830.949219 0)"/>
      <use xlink:href="#DejaVuSans-74" transform="translate(894.328125 0)"/>
      <use xlink:href="#DejaVuSans-68" transform="translate(933.537109 0)"/>
     </g>
    </g>
    <g id="PathCollection_8">
     <g>
      <use xlink:href="#mda9a8057f2" x="582.514063" y="99.565937" style="fill: #ff0000; stroke: #ff0000"/>
     </g>
    </g>
    <g id="text_19">
     <!-- End - Ground Truth -->
     <g transform="translate(600.514063 102.190937) scale(0.1 -0.1)">
      <defs>
       <path id="DejaVuSans-45" d="M 628 4666 
L 3578 4666 
L 3578 4134 
L 1259 4134 
L 1259 2753 
L 3481 2753 
L 3481 2222 
L 1259 2222 
L 1259 531 
L 3634 531 
L 3634 0 
L 628 0 
L 628 4666 
z
" transform="scale(0.015625)"/>
      </defs>
      <use xlink:href="#DejaVuSans-45"/>
      <use xlink:href="#DejaVuSans-6e" transform="translate(63.183594 0)"/>
      <use xlink:href="#DejaVuSans-64" transform="translate(126.5625 0)"/>
      <use xlink:href="#DejaVuSans-20" transform="translate(190.039062 0)"/>
      <use xlink:href="#DejaVuSans-2d" transform="translate(221.826172 0)"/>
      <use xlink:href="#DejaVuSans-20" transform="translate(257.910156 0)"/>
      <use xlink:href="#DejaVuSans-47" transform="translate(289.697266 0)"/>
      <use xlink:href="#DejaVuSans-72" transform="translate(367.1875 0)"/>
      <use xlink:href="#DejaVuSans-6f" transform="translate(406.050781 0)"/>
      <use xlink:href="#DejaVuSans-75" transform="translate(467.232422 0)"/>
      <use xlink:href="#DejaVuSans-6e" transform="translate(530.611328 0)"/>
      <use xlink:href="#DejaVuSans-64" transform="translate(593.990234 0)"/>
      <use xlink:href="#DejaVuSans-20" transform="translate(657.466797 0)"/>
      <use xlink:href="#DejaVuSans-54" transform="translate(689.253906 0)"/>
      <use xlink:href="#DejaVuSans-72" transform="translate(735.587891 0)"/>
      <use xlink:href="#DejaVuSans-75" transform="translate(776.701172 0)"/>
      <use xlink:href="#DejaVuSans-74" transform="translate(840.080078 0)"/>
      <use xlink:href="#DejaVuSans-68" transform="translate(879.289062 0)"/>
     </g>
    </g>
    <g id="PathCollection_9">
     <g>
      <use xlink:href="#m2b35862beb" x="582.514063" y="114.244062" style="fill: #00ffff; stroke: #00ffff; stroke-width: 1.5"/>
     </g>
    </g>
    <g id="text_20">
     <!-- Start - VO -->
     <g transform="translate(600.514063 116.869062) scale(0.1 -0.1)">
      <use xlink:href="#DejaVuSans-53"/>
      <use xlink:href="#DejaVuSans-74" transform="translate(63.476562 0)"/>
      <use xlink:href="#DejaVuSans-61" transform="translate(102.685547 0)"/>
      <use xlink:href="#DejaVuSans-72" transform="translate(163.964844 0)"/>
      <use xlink:href="#DejaVuSans-74" transform="translate(205.078125 0)"/>
      <use xlink:href="#DejaVuSans-20" transform="translate(244.287109 0)"/>
      <use xlink:href="#DejaVuSans-2d" transform="translate(276.074219 0)"/>
      <use xlink:href="#DejaVuSans-20" transform="translate(312.158203 0)"/>
      <use xlink:href="#DejaVuSans-56" transform="translate(343.945312 0)"/>
      <use xlink:href="#DejaVuSans-4f" transform="translate(410.603516 0)"/>
     </g>
    </g>
    <g id="PathCollection_10">
     <g>
      <use xlink:href="#md99551ccd2" x="582.514063" y="128.922187" style="fill: #ff00ff; stroke: #ff00ff; stroke-width: 1.5"/>
     </g>
    </g>
    <g id="text_21">
     <!-- End - VO -->
     <g transform="translate(600.514063 131.547187) scale(0.1 -0.1)">
      <use xlink:href="#DejaVuSans-45"/>
      <use xlink:href="#DejaVuSans-6e" transform="translate(63.183594 0)"/>
      <use xlink:href="#DejaVuSans-64" transform="translate(126.5625 0)"/>
      <use xlink:href="#DejaVuSans-20" transform="translate(190.039062 0)"/>
      <use xlink:href="#DejaVuSans-2d" transform="translate(221.826172 0)"/>
      <use xlink:href="#DejaVuSans-20" transform="translate(257.910156 0)"/>
      <use xlink:href="#DejaVuSans-56" transform="translate(289.697266 0)"/>
      <use xlink:href="#DejaVuSans-4f" transform="translate(356.355469 0)"/>
     </g>
    </g>
    <g id="PathCollection_11">
     <g>
      <use xlink:href="#mbdec354ce4" x="582.514063" y="143.600312" style="fill: #0000ff; stroke: #0000ff; stroke-width: 1.5"/>
     </g>
    </g>
    <g id="text_22">
     <!-- Start - SLAM -->
     <g transform="translate(600.514063 146.225312) scale(0.1 -0.1)">
      <use xlink:href="#DejaVuSans-53"/>
      <use xlink:href="#DejaVuSans-74" transform="translate(63.476562 0)"/>
      <use xlink:href="#DejaVuSans-61" transform="translate(102.685547 0)"/>
      <use xlink:href="#DejaVuSans-72" transform="translate(163.964844 0)"/>
      <use xlink:href="#DejaVuSans-74" transform="translate(205.078125 0)"/>
      <use xlink:href="#DejaVuSans-20" transform="translate(244.287109 0)"/>
      <use xlink:href="#DejaVuSans-2d" transform="translate(276.074219 0)"/>
      <use xlink:href="#DejaVuSans-20" transform="translate(312.158203 0)"/>
      <use xlink:href="#DejaVuSans-53" transform="translate(343.945312 0)"/>
      <use xlink:href="#DejaVuSans-4c" transform="translate(407.421875 0)"/>
      <use xlink:href="#DejaVuSans-41" transform="translate(465.384766 0)"/>
      <use xlink:href="#DejaVuSans-4d" transform="translate(533.792969 0)"/>
     </g>
    </g>
    <g id="PathCollection_12">
     <g>
      <use xlink:href="#m00de700015" x="582.514063" y="158.278437" style="fill: #800080; stroke: #800080; stroke-width: 1.5"/>
     </g>
    </g>
    <g id="text_23">
     <!-- End - SLAM -->
     <g transform="translate(600.514063 160.903437) scale(0.1 -0.1)">
      <use xlink:href="#DejaVuSans-45"/>
      <use xlink:href="#DejaVuSans-6e" transform="translate(63.183594 0)"/>
      <use xlink:href="#DejaVuSans-64" transform="translate(126.5625 0)"/>
      <use xlink:href="#DejaVuSans-20" transform="translate(190.039062 0)"/>
      <use xlink:href="#DejaVuSans-2d" transform="translate(221.826172 0)"/>
      <use xlink:href="#DejaVuSans-20" transform="translate(257.910156 0)"/>
      <use xlink:href="#DejaVuSans-53" transform="translate(289.697266 0)"/>
      <use xlink:href="#DejaVuSans-4c" transform="translate(353.173828 0)"/>
      <use xlink:href="#DejaVuSans-41" transform="translate(411.136719 0)"/>
      <use xlink:href="#DejaVuSans-4d" transform="translate(479.544922 0)"/>
     </g>
    </g>
   </g>
  </g>
 </g>
 <defs>
  <clipPath id="p76f83b4b01">
   <rect x="50.87" y="26.88" width="658.33" height="435.16"/>
  </clipPath>
 </defs>
</svg>
