<?xml version="1.0" encoding="utf-8" standalone="no"?>
<!DOCTYPE svg PUBLIC "-//W3C//DTD SVG 1.1//EN"
  "http://www.w3.org/Graphics/SVG/1.1/DTD/svg11.dtd">
<svg xmlns:xlink="http://www.w3.org/1999/xlink" width="720pt" height="504pt" viewBox="0 0 720 504" xmlns="http://www.w3.org/2000/svg" version="1.1">
 <metadata>
  <rdf:RDF xmlns:dc="http://purl.org/dc/elements/1.1/" xmlns:cc="http://creativecommons.org/ns#" xmlns:rdf="http://www.w3.org/1999/02/22-rdf-syntax-ns#">
   <cc:Work>
    <dc:type rdf:resource="http://purl.org/dc/dcmitype/StillImage"/>
    <dc:date>2025-11-21T15:02:30.438944</dc:date>
    <dc:format>image/svg+xml</dc:format>
    <dc:creator>
     <cc:Agent>
      <dc:title>Matplotlib v3.10.3, https://matplotlib.org/</dc:title>
     </cc:Agent>
    </dc:creator>
   </cc:Work>
  </rdf:RDF>
 </metadata>
 <defs>
  <style type="text/css">*{stroke-linejoin: round; stroke-linecap: butt}</style>
 </defs>
 <g id="figure_1">
  <g id="patch_1">
   <path d="M 0 504 
L 720 504 
L 720 0 
L 0 0 
z
" style="fill: #ffffff"/>
  </g>
  <g id="axes_1">
   <g id="patch_2">
    <path d="M 52.85 462.04 
L 709.2 462.04 
L 709.2 26.88 
L 52.85 26.88 
z
" style="fill: #ffffff"/>
   </g>
   <g id="PathCollection_1">
    <defs>
     <path id="m56ca498167" d="M 0 4.472136 
C 1.186024 4.472136 2.323632 4.000923 3.162278 3.162278 
C 4.000923 2.323632 4.472136 1.186024 4.472136 0 
C 4.472136 -1.186024 4.000923 -2.323632 3.162278 -3.162278 
C 2.323632 -4.000923 1.186024 -4.472136 0 -4.472136 
C -1.186024 -4.472136 -2.323632 -4.000923 -3.162278 -3.162278 
C -4.000923 -2.323632 -4.472136 -1.186024 -4.472136 0 
C -4.472136 1.186024 -4.000923 2.323632 -3.162278 3.162278 
C -2.323632 4.000923 -1.186024 4.472136 0 4.472136 
z
" style="stroke: #008000"/>
    </defs>
    <g clip-path="url(#p2ebf6253ff)">
     <use xlink:href="#m56ca498167" x="547.233257" y="274.796638" style="fill: #008000; stroke: #008000"/>
    </g>
   </g>
   <g id="PathCollection_2">
    <defs>
     <path id="me9c391cd31" d="M 0 4.472136 
C 1.186024 4.472136 2.323632 4.000923 3.162278 3.162278 
C 4.000923 2.323632 4.472136 1.186024 4.472136 0 
C 4.472136 -1.186024 4.000923 -2.323632 3.162278 -3.162278 
C 2.323632 -4.000923 1.186024 -4.472136 0 -4.472136 
C -1.186024 -4.472136 -2.323632 -4.000923 -3.162278 -3.162278 
C -4.000923 -2.323632 -4.472136 -1.186024 -4.472136 0 
C -4.472136 1.186024 -4.000923 2.323632 -3.162278 3.162278 
C -2.323632 4.000923 -1.186024 4.472136 0 4.472136 
z
" style="stroke: #ff0000"/>
    </defs>
    <g clip-path="url(#p2ebf6253ff)">
     <use xlink:href="#me9c391cd31" x="544.130138" y="257.106893" style="fill: #ff0000; stroke: #ff0000"/>
    </g>
   </g>
   <g id="PathCollection_3">
    <defs>
     <path id="m91465d3c30" d="M -4.472136 4.472136 
L 4.472136 -4.472136 
M -4.472136 -4.472136 
L 4.472136 4.472136 
" style="stroke: #00ffff; stroke-width: 1.5"/>
    </defs>
    <g clip-path="url(#p2ebf6253ff)">
     <use xlink:href="#m91465d3c30" x="547.233257" y="274.796638" style="fill: #00ffff; stroke: #00ffff; stroke-width: 1.5"/>
    </g>
   </g>
   <g id="PathCollection_4">
    <defs>
     <path id="m7b0b1acf58" d="M -4.472136 4.472136 
L 4.472136 -4.472136 
M -4.472136 -4.472136 
L 4.472136 4.472136 
" style="stroke: #ff00ff; stroke-width: 1.5"/>
    </defs>
    <g clip-path="url(#p2ebf6253ff)">
     <use xlink:href="#m7b0b1acf58" x="544.09145" y="238.71394" style="fill: #ff00ff; stroke: #ff00ff; stroke-width: 1.5"/>
    </g>
   </g>
   <g id="PathCollection_5">
    <defs>
     <path id="m5365e3b458" d="M -4.472136 4.472136 
L 4.472136 -4.472136 
M -4.472136 -4.472136 
L 4.472136 4.472136 
" style="stroke: #0000ff; stroke-width: 1.5"/>
    </defs>
    <g clip-path="url(#p2ebf6253ff)">
     <use xlink:href="#m5365e3b458" x="547.233257" y="274.796638" style="fill: #0000ff; stroke: #0000ff; stroke-width: 1.5"/>
    </g>
   </g>
   <g id="PathCollection_6">
    <defs>
     <path id="m3d95e0cbd0" d="M -4.472136 4.472136 
L 4.472136 -4.472136 
M -4.472136 -4.472136 
L 4.472136 4.472136 
" style="stroke: #800080; stroke-width: 1.5"/>
    </defs>
    <g clip-path="url(#p2ebf6253ff)">
     <use xlink:href="#m3d95e0cbd0" x="544.216855" y="260.343598" style="fill: #800080; stroke: #800080; stroke-width: 1.5"/>
    </g>
   </g>
   <g id="matplotlib.axis_1">
    <g id="xtick_1">
     <g id="line2d_1">
      <path d="M 75.269149 462.04 
L 75.269149 26.88 
" clip-path="url(#p2ebf6253ff)" style="fill: none; stroke: #b0b0b0; stroke-width: 0.8; stroke-linecap: square"/>
     </g>
     <g id="line2d_2">
      <defs>
       <path id="m2e01ae6fcb" d="M 0 0 
L 0 3.5 
" style="stroke: #000000; stroke-width: 0.8"/>
      </defs>
      <g>
       <use xlink:href="#m2e01ae6fcb" x="75.269149" y="462.04" style="stroke: #000000; stroke-width: 0.8"/>
      </g>
     </g>
     <g id="text_1">
      <!-- −250 -->
      <g transform="translate(61.535555 476.638438) scale(0.1 -0.1)">
       <defs>
        <path id="DejaVuSans-2212" d="M 678 2272 
L 4684 2272 
L 4684 1741 
L 678 1741 
L 678 2272 
z
" transform="scale(0.015625)"/>
        <path id="DejaVuSans-32" d="M 1228 531 
L 3431 531 
L 3431 0 
L 469 0 
L 469 531 
Q 828 903 1448 1529 
Q 2069 2156 2228 2338 
Q 2531 2678 2651 2914 
Q 2772 3150 2772 3378 
Q 2772 3750 2511 3984 
Q 2250 4219 1831 4219 
Q 1534 4219 1204 4116 
Q 875 4013 500 3803 
L 500 4441 
Q 881 4594 1212 4672 
Q 1544 4750 1819 4750 
Q 2544 4750 2975 4387 
Q 3406 4025 3406 3419 
Q 3406 3131 3298 2873 
Q 3191 2616 2906 2266 
Q 2828 2175 2409 1742 
Q 1991 1309 1228 531 
z
" transform="scale(0.015625)"/>
        <path id="DejaVuSans-35" d="M 691 4666 
L 3169 4666 
L 3169 4134 
L 1269 4134 
L 1269 2991 
Q 1406 3038 1543 3061 
Q 1681 3084 1819 3084 
Q 2600 3084 3056 2656 
Q 3513 2228 3513 1497 
Q 3513 744 3044 326 
Q 2575 -91 1722 -91 
Q 1428 -91 1123 -41 
Q 819 9 494 109 
L 494 744 
Q 775 591 1075 516 
Q 1375 441 1709 441 
Q 2250 441 2565 725 
Q 2881 1009 2881 1497 
Q 2881 1984 2565 2268 
Q 2250 2553 1709 2553 
Q 1456 2553 1204 2497 
Q 953 2441 691 2322 
L 691 4666 
z
" transform="scale(0.015625)"/>
        <path id="DejaVuSans-30" d="M 2034 4250 
Q 1547 4250 1301 3770 
Q 1056 3291 1056 2328 
Q 1056 1369 1301 889 
Q 1547 409 2034 409 
Q 2525 409 2770 889 
Q 3016 1369 3016 2328 
Q 3016 3291 2770 3770 
Q 2525 4250 2034 4250 
z
M 2034 4750 
Q 2819 4750 3233 4129 
Q 3647 3509 3647 2328 
Q 3647 1150 3233 529 
Q 2819 -91 2034 -91 
Q 1250 -91 836 529 
Q 422 1150 422 2328 
Q 422 3509 836 4129 
Q 1250 4750 2034 4750 
z
" transform="scale(0.015625)"/>
       </defs>
       <use xlink:href="#DejaVuSans-2212"/>
       <use xlink:href="#DejaVuSans-32" transform="translate(83.789062 0)"/>
       <use xlink:href="#DejaVuSans-35" transform="translate(147.412109 0)"/>
       <use xlink:href="#DejaVuSans-30" transform="translate(211.035156 0)"/>
      </g>
     </g>
    </g>
    <g id="xtick_2">
     <g id="line2d_3">
      <path d="M 169.661971 462.04 
L 169.661971 26.88 
" clip-path="url(#p2ebf6253ff)" style="fill: none; stroke: #b0b0b0; stroke-width: 0.8; stroke-linecap: square"/>
     </g>
     <g id="line2d_4">
      <g>
       <use xlink:href="#m2e01ae6fcb" x="169.661971" y="462.04" style="stroke: #000000; stroke-width: 0.8"/>
      </g>
     </g>
     <g id="text_2">
      <!-- −200 -->
      <g transform="translate(155.928377 476.638438) scale(0.1 -0.1)">
       <use xlink:href="#DejaVuSans-2212"/>
       <use xlink:href="#DejaVuSans-32" transform="translate(83.789062 0)"/>
       <use xlink:href="#DejaVuSans-30" transform="translate(147.412109 0)"/>
       <use xlink:href="#DejaVuSans-30" transform="translate(211.035156 0)"/>
      </g>
     </g>
    </g>
    <g id="xtick_3">
     <g id="line2d_5">
      <path d="M 264.054792 462.04 
L 264.054792 26.88 
" clip-path="url(#p2ebf6253ff)" style="fill: none; stroke: #b0b0b0; stroke-width: 0.8; stroke-linecap: square"/>
     </g>
     <g id="line2d_6">
      <g>
       <use xlink:href="#m2e01ae6fcb" x="264.054792" y="462.04" style="stroke: #000000; stroke-width: 0.8"/>
      </g>
     </g>
     <g id="text_3">
      <!-- −150 -->
      <g transform="translate(250.321199 476.638438) scale(0.1 -0.1)">
       <defs>
        <path id="DejaVuSans-31" d="M 794 531 
L 1825 531 
L 1825 4091 
L 703 3866 
L 703 4441 
L 1819 4666 
L 2450 4666 
L 2450 531 
L 3481 531 
L 3481 0 
L 794 0 
L 794 531 
z
" transform="scale(0.015625)"/>
       </defs>
       <use xlink:href="#DejaVuSans-2212"/>
       <use xlink:href="#DejaVuSans-31" transform="translate(83.789062 0)"/>
       <use xlink:href="#DejaVuSans-35" transform="translate(147.412109 0)"/>
       <use xlink:href="#DejaVuSans-30" transform="translate(211.035156 0)"/>
      </g>
     </g>
    </g>
    <g id="xtick_4">
     <g id="line2d_7">
      <path d="M 358.447614 462.04 
L 358.447614 26.88 
" clip-path="url(#p2ebf6253ff)" style="fill: none; stroke: #b0b0b0; stroke-width: 0.8; stroke-linecap: square"/>
     </g>
     <g id="line2d_8">
      <g>
       <use xlink:href="#m2e01ae6fcb" x="358.447614" y="462.04" style="stroke: #000000; stroke-width: 0.8"/>
      </g>
     </g>
     <g id="text_4">
      <!-- −100 -->
      <g transform="translate(344.71402 476.638438) scale(0.1 -0.1)">
       <use xlink:href="#DejaVuSans-2212"/>
       <use xlink:href="#DejaVuSans-31" transform="translate(83.789062 0)"/>
       <use xlink:href="#DejaVuSans-30" transform="translate(147.412109 0)"/>
       <use xlink:href="#DejaVuSans-30" transform="translate(211.035156 0)"/>
      </g>
     </g>
    </g>
    <g id="xtick_5">
     <g id="line2d_9">
      <path d="M 452.840435 462.04 
L 452.840435 26.88 
" clip-path="url(#p2ebf6253ff)" style="fill: none; stroke: #b0b0b0; stroke-width: 0.8; stroke-linecap: square"/>
     </g>
     <g id="line2d_10">
      <g>
       <use xlink:href="#m2e01ae6fcb" x="452.840435" y="462.04" style="stroke: #000000; stroke-width: 0.8"/>
      </g>
     </g>
     <g id="text_5">
      <!-- −50 -->
      <g transform="translate(442.288092 476.638438) scale(0.1 -0.1)">
       <use xlink:href="#DejaVuSans-2212"/>
       <use xlink:href="#DejaVuSans-35" transform="translate(83.789062 0)"/>
       <use xlink:href="#DejaVuSans-30" transform="translate(147.412109 0)"/>
      </g>
     </g>
    </g>
    <g id="xtick_6">
     <g id="line2d_11">
      <path d="M 547.233257 462.04 
L 547.233257 26.88 
" clip-path="url(#p2ebf6253ff)" style="fill: none; stroke: #b0b0b0; stroke-width: 0.8; stroke-linecap: square"/>
     </g>
     <g id="line2d_12">
      <g>
       <use xlink:href="#m2e01ae6fcb" x="547.233257" y="462.04" style="stroke: #000000; stroke-width: 0.8"/>
      </g>
     </g>
     <g id="text_6">
      <!-- 0 -->
      <g transform="translate(544.052007 476.638438) scale(0.1 -0.1)">
       <use xlink:href="#DejaVuSans-30"/>
      </g>
     </g>
    </g>
    <g id="xtick_7">
     <g id="line2d_13">
      <path d="M 641.626078 462.04 
L 641.626078 26.88 
" clip-path="url(#p2ebf6253ff)" style="fill: none; stroke: #b0b0b0; stroke-width: 0.8; stroke-linecap: square"/>
     </g>
     <g id="line2d_14">
      <g>
       <use xlink:href="#m2e01ae6fcb" x="641.626078" y="462.04" style="stroke: #000000; stroke-width: 0.8"/>
      </g>
     </g>
     <g id="text_7">
      <!-- 50 -->
      <g transform="translate(635.263578 476.638438) scale(0.1 -0.1)">
       <use xlink:href="#DejaVuSans-35"/>
       <use xlink:href="#DejaVuSans-30" transform="translate(63.623047 0)"/>
      </g>
     </g>
    </g>
    <g id="text_8">
     <!-- X (m) -->
     <g transform="translate(367.239063 490.316563) scale(0.1 -0.1)">
      <defs>
       <path id="DejaVuSans-58" d="M 403 4666 
L 1081 4666 
L 2241 2931 
L 3406 4666 
L 4084 4666 
L 2584 2425 
L 4184 0 
L 3506 0 
L 2194 1984 
L 872 0 
L 191 0 
L 1856 2491 
L 403 4666 
z
" transform="scale(0.015625)"/>
       <path id="DejaVuSans-20" transform="scale(0.015625)"/>
       <path id="DejaVuSans-28" d="M 1984 4856 
Q 1566 4138 1362 3434 
Q 1159 2731 1159 2009 
Q 1159 1288 1364 580 
Q 1569 -128 1984 -844 
L 1484 -844 
Q 1016 -109 783 600 
Q 550 1309 550 2009 
Q 550 2706 781 3412 
Q 1013 4119 1484 4856 
L 1984 4856 
z
" transform="scale(0.015625)"/>
       <path id="DejaVuSans-6d" d="M 3328 2828 
Q 3544 3216 3844 3400 
Q 4144 3584 4550 3584 
Q 5097 3584 5394 3201 
Q 5691 2819 5691 2113 
L 5691 0 
L 5113 0 
L 5113 2094 
Q 5113 2597 4934 2840 
Q 4756 3084 4391 3084 
Q 3944 3084 3684 2787 
Q 3425 2491 3425 1978 
L 3425 0 
L 2847 0 
L 2847 2094 
Q 2847 2600 2669 2842 
Q 2491 3084 2119 3084 
Q 1678 3084 1418 2786 
Q 1159 2488 1159 1978 
L 1159 0 
L 581 0 
L 581 3500 
L 1159 3500 
L 1159 2956 
Q 1356 3278 1631 3431 
Q 1906 3584 2284 3584 
Q 2666 3584 2933 3390 
Q 3200 3197 3328 2828 
z
" transform="scale(0.015625)"/>
       <path id="DejaVuSans-29" d="M 513 4856 
L 1013 4856 
Q 1481 4119 1714 3412 
Q 1947 2706 1947 2009 
Q 1947 1309 1714 600 
Q 1481 -109 1013 -844 
L 513 -844 
Q 928 -128 1133 580 
Q 1338 1288 1338 2009 
Q 1338 2731 1133 3434 
Q 928 4138 513 4856 
z
" transform="scale(0.015625)"/>
      </defs>
      <use xlink:href="#DejaVuSans-58"/>
      <use xlink:href="#DejaVuSans-20" transform="translate(68.505859 0)"/>
      <use xlink:href="#DejaVuSans-28" transform="translate(100.292969 0)"/>
      <use xlink:href="#DejaVuSans-6d" transform="translate(139.306641 0)"/>
      <use xlink:href="#DejaVuSans-29" transform="translate(236.71875 0)"/>
     </g>
    </g>
   </g>
   <g id="matplotlib.axis_2">
    <g id="ytick_1">
     <g id="line2d_15">
      <path d="M 52.85 369.18946 
L 709.2 369.18946 
" clip-path="url(#p2ebf6253ff)" style="fill: none; stroke: #b0b0b0; stroke-width: 0.8; stroke-linecap: square"/>
     </g>
     <g id="line2d_16">
      <defs>
       <path id="m017088011a" d="M 0 0 
L -3.5 0 
" style="stroke: #000000; stroke-width: 0.8"/>
      </defs>
      <g>
       <use xlink:href="#m017088011a" x="52.85" y="369.18946" style="stroke: #000000; stroke-width: 0.8"/>
      </g>
     </g>
     <g id="text_9">
      <!-- −50 -->
      <g transform="translate(24.745313 372.988678) scale(0.1 -0.1)">
       <use xlink:href="#DejaVuSans-2212"/>
       <use xlink:href="#DejaVuSans-35" transform="translate(83.789062 0)"/>
       <use xlink:href="#DejaVuSans-30" transform="translate(147.412109 0)"/>
      </g>
     </g>
    </g>
    <g id="ytick_2">
     <g id="line2d_17">
      <path d="M 52.85 274.796638 
L 709.2 274.796638 
" clip-path="url(#p2ebf6253ff)" style="fill: none; stroke: #b0b0b0; stroke-width: 0.8; stroke-linecap: square"/>
     </g>
     <g id="line2d_18">
      <g>
       <use xlink:href="#m017088011a" x="52.85" y="274.796638" style="stroke: #000000; stroke-width: 0.8"/>
      </g>
     </g>
     <g id="text_10">
      <!-- 0 -->
      <g transform="translate(39.4875 278.595857) scale(0.1 -0.1)">
       <use xlink:href="#DejaVuSans-30"/>
      </g>
     </g>
    </g>
    <g id="ytick_3">
     <g id="line2d_19">
      <path d="M 52.85 180.403817 
L 709.2 180.403817 
" clip-path="url(#p2ebf6253ff)" style="fill: none; stroke: #b0b0b0; stroke-width: 0.8; stroke-linecap: square"/>
     </g>
     <g id="line2d_20">
      <g>
       <use xlink:href="#m017088011a" x="52.85" y="180.403817" style="stroke: #000000; stroke-width: 0.8"/>
      </g>
     </g>
     <g id="text_11">
      <!-- 50 -->
      <g transform="translate(33.125 184.203035) scale(0.1 -0.1)">
       <use xlink:href="#DejaVuSans-35"/>
       <use xlink:href="#DejaVuSans-30" transform="translate(63.623047 0)"/>
      </g>
     </g>
    </g>
    <g id="ytick_4">
     <g id="line2d_21">
      <path d="M 52.85 86.010995 
L 709.2 86.010995 
" clip-path="url(#p2ebf6253ff)" style="fill: none; stroke: #b0b0b0; stroke-width: 0.8; stroke-linecap: square"/>
     </g>
     <g id="line2d_22">
      <g>
       <use xlink:href="#m017088011a" x="52.85" y="86.010995" style="stroke: #000000; stroke-width: 0.8"/>
      </g>
     </g>
     <g id="text_12">
      <!-- 100 -->
      <g transform="translate(26.7625 89.810214) scale(0.1 -0.1)">
       <use xlink:href="#DejaVuSans-31"/>
       <use xlink:href="#DejaVuSans-30" transform="translate(63.623047 0)"/>
       <use xlink:href="#DejaVuSans-30" transform="translate(127.246094 0)"/>
      </g>
     </g>
    </g>
    <g id="text_13">
     <!-- Z (m) -->
     <g transform="translate(18.665625 258.245937) rotate(-90) scale(0.1 -0.1)">
      <defs>
       <path id="DejaVuSans-5a" d="M 359 4666 
L 4025 4666 
L 4025 4184 
L 1075 531 
L 4097 531 
L 4097 0 
L 288 0 
L 288 481 
L 3238 4134 
L 359 4134 
L 359 4666 
z
" transform="scale(0.015625)"/>
      </defs>
      <use xlink:href="#DejaVuSans-5a"/>
      <use xlink:href="#DejaVuSans-20" transform="translate(68.505859 0)"/>
      <use xlink:href="#DejaVuSans-28" transform="translate(100.292969 0)"/>
      <use xlink:href="#DejaVuSans-6d" transform="translate(139.306641 0)"/>
      <use xlink:href="#DejaVuSans-29" transform="translate(236.71875 0)"/>
     </g>
    </g>
   </g>
   <g id="line2d_23">
    <path d="M 547.233257 274.796638 
L 547.077024 273.348766 
L 546.794209 272.105229 
L 546.246867 270.694288 
L 545.404379 269.226676 
L 544.279807 267.799738 
L 542.673089 266.523313 
L 541.162832 265.688799 
L 539.989637 265.249237 
L 537.961852 264.786372 
L 536.469913 264.599015 
L 534.001099 264.556873 
L 530.331265 264.770744 
L 522.758576 265.542721 
L 509.49816 266.82399 
L 487.735838 268.619591 
L 461.031448 270.838522 
L 450.332022 271.82269 
L 429.015272 273.924981 
L 423.028615 274.300572 
L 419.846878 274.241288 
L 417.948809 274.010382 
L 416.208922 273.642989 
L 414.572698 273.105921 
L 413.065924 272.369334 
L 411.658376 271.485661 
L 410.349658 270.460338 
L 408.69246 268.716187 
L 407.695502 267.412722 
L 406.77351 265.888769 
L 405.609741 263.261369 
L 404.926847 261.294734 
L 404.063927 258.043037 
L 403.040614 253.246776 
L 402.252339 247.965479 
L 401.492987 240.827324 
L 400.884493 233.560266 
L 398.41614 198.594182 
L 396.029682 167.810625 
L 394.890719 153.716531 
L 393.718719 143.13838 
L 392.837864 137.319289 
L 391.547231 130.196841 
L 390.350141 124.628779 
L 388.924356 119.179311 
L 387.279882 113.75684 
L 385.393593 108.44243 
L 383.253311 103.156337 
L 381.474743 99.219364 
L 377.165805 90.070339 
L 373.180124 82.321935 
L 369.746302 76.0669 
L 364.260758 66.664054 
L 358.141215 56.760359 
L 356.389095 54.22931 
L 354.239204 51.414893 
L 352.654915 49.922732 
L 350.616597 48.558944 
L 349.138216 47.903858 
L 347.495026 47.400555 
L 345.334563 47.082263 
L 344.04308 47.03922 
L 342.00193 47.251792 
L 340.505615 47.543277 
L 338.179965 48.312768 
L 335.714235 49.528547 
L 333.981183 50.578573 
L 330.364617 53.208546 
L 325.359532 57.142083 
L 316.295178 64.636307 
L 292.015456 85.273976 
L 249.213598 121.263486 
L 238.269505 130.597954 
L 227.465869 139.602199 
L 206.239378 157.161642 
L 201.588455 161.316984 
L 198.334357 164.620091 
L 196.94244 166.323541 
L 195.738743 168.061823 
L 194.30888 170.727344 
L 193.406107 173.429773 
L 192.898652 176.150929 
L 192.746113 177.966632 
L 193.062895 181.529451 
L 193.476147 183.219139 
L 194.03061 184.807091 
L 195.189188 187.142407 
L 196.575818 189.432452 
L 198.17219 191.647606 
L 201.80688 196.207856 
L 210.888791 207.118533 
L 215.545377 212.644497 
L 231.660875 232.057079 
L 241.493964 244.319292 
L 247.81413 252.376719 
L 250.636098 256.510881 
L 252.324219 259.339855 
L 253.796747 262.260282 
L 255.077846 265.231389 
L 256.163741 268.235854 
L 257.086903 271.330375 
L 258.17091 276.089668 
L 259.034604 281.030047 
L 259.667792 286.130275 
L 260.835242 296.877932 
L 263.658342 322.170394 
L 265.201665 337.94317 
L 266.166548 349.534779 
L 268.623971 383.027825 
L 270.403653 405.057259 
L 270.633594 412.023733 
L 270.624344 418.7442 
L 270.490495 429.019047 
L 270.53788 430.011097 
L 270.495781 430.326539 
L 270.707787 431.070524 
L 271.170312 432.262837 
L 271.833705 433.576993 
L 272.898833 435.039459 
L 274.135757 436.330923 
L 275.235622 437.275681 
L 276.569959 438.268788 
L 278.207486 439.206336 
L 281.090431 440.458683 
L 283.31376 441.093342 
L 285.748906 441.567591 
L 288.383976 441.874707 
L 292.702258 442.148428 
L 297.417557 442.26 
L 302.508162 442.154223 
L 317.933837 441.483562 
L 335.450313 440.058155 
L 371.230516 437.185366 
L 403.426076 434.669722 
L 444.60385 431.034655 
L 482.434227 428.049916 
L 501.686531 426.665494 
L 521.062998 425.317225 
L 528.395098 424.592099 
L 532.290069 424.034691 
L 535.776183 423.364124 
L 538.959449 422.518685 
L 541.824854 421.504397 
L 544.45858 420.264434 
L 546.0936 419.280219 
L 547.548163 418.107444 
L 548.855372 416.842373 
L 550.014156 415.459537 
L 551.407815 413.174778 
L 552.189998 411.538875 
L 552.984257 408.935313 
L 553.383767 407.140282 
L 553.851606 403.353677 
L 554.119727 399.301412 
L 554.172955 394.795155 
L 553.947213 388.463719 
L 553.147649 374.23621 
L 551.250919 350.033966 
L 547.099479 289.48112 
L 546.741444 286.480281 
L 546.500045 283.456 
L 546.312101 277.734666 
L 546.338911 272.740951 
L 546.537436 269.757549 
L 546.249197 266.214818 
L 545.649458 263.560889 
L 544.342771 258.275355 
L 544.146674 257.040457 
L 544.130138 257.106893 
" clip-path="url(#p2ebf6253ff)" style="fill: none; stroke: #000000; stroke-width: 2; stroke-linecap: square"/>
   </g>
   <g id="line2d_24">
    <path d="M 547.233257 274.796638 
L 547.144462 273.859424 
L 546.905016 272.720125 
L 545.94886 270.440577 
L 544.757494 268.652382 
L 543.721816 267.634593 
L 542.488947 266.699195 
L 540.93908 265.932546 
L 539.301407 265.406442 
L 537.31176 265.107141 
L 534.883083 265.058518 
L 532.257679 265.228408 
L 507.147988 267.768795 
L 497.858111 268.589642 
L 485.065778 269.696149 
L 447.771976 273.028851 
L 440.420858 273.822224 
L 433.354509 274.567396 
L 428.0315 275.156293 
L 423.287098 275.43249 
L 421.106586 275.388249 
L 419.083085 275.22114 
L 417.213692 274.893501 
L 415.443055 274.447799 
L 413.788973 273.805656 
L 412.289347 273.04531 
L 410.871686 272.136986 
L 409.630607 271.015441 
L 408.484673 269.835176 
L 407.390423 268.482863 
L 406.44579 266.927175 
L 405.615783 265.177655 
L 404.486259 262.13091 
L 403.391145 257.681149 
L 402.855802 255.260535 
L 401.717324 248.614373 
L 400.818596 240.087539 
L 400.176006 231.492428 
L 399.43178 221.401541 
L 398.96364 212.847604 
L 394.673378 152.97277 
L 393.552368 142.413984 
L 391.65987 130.842857 
L 390.470337 125.190096 
L 389.446139 121.090757 
L 386.846318 112.924424 
L 384.345199 106.26359 
L 382.727802 102.249795 
L 375.342536 86.412367 
L 371.354208 78.665012 
L 368.633655 73.709759 
L 365.286477 67.791629 
L 363.405952 64.570239 
L 361.659553 61.57726 
L 358.400768 55.892453 
L 355.425664 51.615056 
L 354.183234 50.243557 
L 353.269143 49.470172 
L 351.335173 48.060357 
L 350.25543 47.529543 
L 348.696821 47.004258 
L 346.606709 46.686667 
L 344.733621 46.706022 
L 342.577588 46.933008 
L 341.056244 47.314858 
L 338.599416 48.221014 
L 336.947602 49.063858 
L 335.195455 50.152413 
L 328.667697 55.05716 
L 322.191281 60.491205 
L 306.047004 74.412747 
L 276.644126 100.540489 
L 264.197891 111.613216 
L 251.857644 122.477784 
L 243.860288 129.634725 
L 226.842084 144.692097 
L 222.046748 148.889269 
L 206.138213 162.792732 
L 203.695411 165.273892 
L 201.489622 167.790419 
L 199.720041 170.450579 
L 198.381029 173.063126 
L 197.777946 174.784756 
L 197.114693 177.478142 
L 196.887339 179.295473 
L 196.897172 181.146478 
L 197.163564 183.748755 
L 197.564491 185.403387 
L 198.476302 187.869513 
L 199.28446 189.408973 
L 200.759474 191.664329 
L 202.430312 193.848579 
L 206.877224 199.11563 
L 233.430095 229.003566 
L 236.906007 233.024629 
L 239.205927 235.789497 
L 243.823987 241.074794 
L 252.829325 251.679781 
L 254.918138 254.295997 
L 257.843227 258.53391 
L 259.612206 261.477322 
L 261.285285 264.505183 
L 263.308343 269.089021 
L 264.714576 273.641672 
L 265.549605 276.887387 
L 266.599314 281.812947 
L 267.166606 285.195595 
L 268.598277 295.746809 
L 271.277185 314.872705 
L 272.335642 322.847094 
L 273.320559 330.866403 
L 275.220428 346.362954 
L 279.317518 387.107091 
L 281.116282 402.42807 
L 281.649021 412.609263 
L 281.538864 421.43404 
L 281.373139 423.824163 
L 281.225522 424.45569 
L 283.176999 424.711032 
L 285.346313 424.873433 
L 285.410048 425.791799 
L 285.388686 426.528893 
L 285.755561 429.95918 
L 286.018254 430.581471 
L 286.265307 430.963846 
L 288.675573 434.874877 
L 289.390192 435.655357 
L 290.345545 436.486257 
L 291.556354 437.352495 
L 293.100913 438.212251 
L 294.921277 438.997811 
L 296.994099 439.708088 
L 299.304448 440.180191 
L 301.836951 440.458698 
L 304.553766 440.569179 
L 312.068985 440.295351 
L 315.34086 440.00417 
L 322.377495 439.174364 
L 328.139873 438.50626 
L 334.241572 437.70519 
L 342.668481 436.38833 
L 356.159761 434.249685 
L 374.274829 431.500841 
L 389.790045 429.090779 
L 402.937965 427.291029 
L 409.420496 426.399643 
L 415.826856 425.39488 
L 424.13964 423.934803 
L 440.368599 421.062229 
L 464.770361 417.233535 
L 470.762796 416.311136 
L 500.640365 411.748533 
L 506.357765 410.812269 
L 515.931898 409.350543 
L 519.62248 408.703376 
L 543.251742 405.007262 
L 548.547644 403.917923 
L 552.14542 402.94225 
L 555.461289 401.82589 
L 559.441013 400.098658 
L 562.159329 398.546463 
L 563.88091 397.366398 
L 565.182044 396.129131 
L 566.31552 394.755024 
L 567.085089 393.352673 
L 568.064393 391.051715 
L 568.597133 389.427624 
L 569.093999 386.800074 
L 569.235072 385.017034 
L 569.303887 382.178371 
L 569.076555 376.263694 
L 568.51562 371.554536 
L 567.53301 363.839035 
L 564.018 342.719292 
L 561.393427 327.521803 
L 557.936367 307.279601 
L 554.420616 288.555337 
L 551.924436 274.47215 
L 551.077841 271.270606 
L 550.39144 268.271112 
L 549.867451 265.812657 
L 549.356724 262.606872 
L 548.785027 259.030009 
L 548.454913 255.780277 
L 548.15974 253.507846 
L 547.999182 251.278024 
L 547.553288 248.690395 
L 547.266954 247.450558 
L 546.209993 244.539873 
L 544.973237 241.476819 
L 544.171184 238.841125 
L 544.076155 238.655729 
L 544.09145 238.71394 
" clip-path="url(#p2ebf6253ff)" style="fill: none; stroke-dasharray: 5.55,2.4; stroke-dashoffset: 0; stroke: #ff0000; stroke-width: 1.5"/>
   </g>
   <g id="line2d_25">
    <path d="M 547.233257 274.796638 
L 547.001371 273.092547 
L 546.10533 270.994964 
L 544.72941 269.036804 
L 543.301255 267.70711 
L 542.445564 267.101092 
L 541.425132 266.567633 
L 540.30423 266.126354 
L 539.249033 265.830698 
L 538.016354 265.613843 
L 536.432187 265.508134 
L 534.034016 265.546861 
L 524.761294 266.5162 
L 514.51046 267.638653 
L 483.473953 270.532643 
L 461.427464 272.479 
L 449.248372 273.714138 
L 426.799314 276.144028 
L 421.105833 276.308692 
L 418.121344 276.012656 
L 415.440995 275.388543 
L 413.784916 274.752105 
L 412.282855 273.99698 
L 410.86289 273.094177 
L 408.469085 270.801633 
L 407.371482 269.454286 
L 406.422216 267.902633 
L 405.58612 266.156168 
L 404.792301 264.158037 
L 403.895934 260.99071 
L 402.79243 256.250189 
L 401.880711 251.035843 
L 401.123732 245.376786 
L 399.670216 228.171923 
L 398.953597 216.741992 
L 397.768429 198.986628 
L 396.266714 179.477028 
L 394.422556 153.989367 
L 393.834492 147.903975 
L 393.087122 141.936284 
L 392.212311 136.156636 
L 391.181835 130.43298 
L 389.978988 124.816824 
L 388.438528 119.329831 
L 386.716825 113.920381 
L 384.747061 108.556991 
L 382.660639 103.225673 
L 377.936933 92.6167 
L 372.801749 82.123685 
L 367.49393 72.13864 
L 362.485105 63.332511 
L 360.01521 58.840737 
L 357.543493 54.777464 
L 355.244573 51.593391 
L 354.072964 50.409956 
L 351.838785 48.719781 
L 350.770219 48.171706 
L 349.643706 47.751937 
L 348.245994 47.414412 
L 347.140368 47.261791 
L 345.91356 47.211096 
L 343.112988 47.425991 
L 341.58489 47.773843 
L 339.968663 48.288451 
L 338.257805 48.99354 
L 336.566643 49.930364 
L 330.014397 54.444629 
L 325.760235 57.736019 
L 304.46454 75.064915 
L 282.894145 93.004024 
L 257.085272 114.334341 
L 236.338297 131.440275 
L 228.260882 138.078482 
L 215.65079 148.259497 
L 206.758253 155.415368 
L 202.864085 158.627326 
L 198.759793 162.624256 
L 196.151279 166.027936 
L 194.709788 168.585299 
L 194.038109 170.280982 
L 193.479565 172.050313 
L 193.08261 173.838383 
L 192.890528 175.684542 
L 193.065083 179.208715 
L 193.400146 180.87703 
L 193.910777 182.570876 
L 194.558032 184.180716 
L 195.40823 185.738739 
L 196.850344 188.015157 
L 202.836857 195.747528 
L 229.738564 228.52008 
L 233.005752 232.744409 
L 242.84004 244.981145 
L 246.00583 249.095949 
L 248.960243 253.26649 
L 251.579275 257.551859 
L 253.974339 262.195195 
L 255.824929 266.839252 
L 257.058342 271.428035 
L 258.083723 276.350477 
L 258.901146 281.350667 
L 261.788107 308.863596 
L 263.00186 320.806771 
L 264.0981 332.767656 
L 265.153044 344.368209 
L 265.962385 355.941794 
L 266.258319 361.670039 
L 268.929682 393.935141 
L 269.412166 398.910702 
L 269.796964 405.113988 
L 269.88253 410.6627 
L 269.518811 420.279772 
L 273.361976 423.430892 
L 273.704013 428.244719 
L 274.962465 431.019882 
L 275.458671 431.905221 
L 276.842201 433.540823 
L 278.780072 435.31756 
L 280.099266 436.432169 
L 281.784896 437.424211 
L 283.769257 438.341143 
L 286.015613 439.043191 
L 288.50128 439.572381 
L 292.537744 440.04434 
L 298.682312 440.413157 
L 303.682586 440.424208 
L 320.987036 439.947665 
L 361.395197 437.40355 
L 381.405865 436.146433 
L 394.672366 435.448641 
L 401.211329 435.040702 
L 413.786112 433.911577 
L 438.51544 431.713516 
L 468.937623 429.517966 
L 481.018191 428.590836 
L 531.901406 424.311818 
L 537.264357 423.597368 
L 542.067662 422.596404 
L 546.420556 421.295631 
L 549.45632 420.074141 
L 552.140261 418.658304 
L 553.765443 417.548961 
L 555.048829 416.341085 
L 556.065705 415.053622 
L 556.898644 413.625632 
L 557.637249 412.103245 
L 558.279357 410.517404 
L 558.749006 408.797997 
L 559.210984 406.15754 
L 559.505089 402.333676 
L 559.636002 397.408445 
L 559.115937 387.62111 
L 558.706518 382.026801 
L 556.965311 365.012688 
L 555.152096 348.249697 
L 553.666343 333.661212 
L 552.455435 323.260864 
L 551.101621 312.551607 
L 549.48182 297.160304 
L 547.788034 287.18336 
L 547.174908 282.336759 
L 546.809008 277.523341 
L 546.639273 272.480918 
L 546.201798 267.724114 
L 545.624659 265.270174 
L 544.216855 260.343598 
L 544.216855 260.343598 
" clip-path="url(#p2ebf6253ff)" style="fill: none; stroke-dasharray: 9.6,2.4,1.5,2.4; stroke-dashoffset: 0; stroke: #0000ff; stroke-width: 1.5"/>
   </g>
   <g id="patch_3">
    <path d="M 52.85 462.04 
L 52.85 26.88 
" style="fill: none; stroke: #000000; stroke-width: 0.8; stroke-linejoin: miter; stroke-linecap: square"/>
   </g>
   <g id="patch_4">
    <path d="M 709.2 462.04 
L 709.2 26.88 
" style="fill: none; stroke: #000000; stroke-width: 0.8; stroke-linejoin: miter; stroke-linecap: square"/>
   </g>
   <g id="patch_5">
    <path d="M 52.85 462.04 
L 709.2 462.04 
" style="fill: none; stroke: #000000; stroke-width: 0.8; stroke-linejoin: miter; stroke-linecap: square"/>
   </g>
   <g id="patch_6">
    <path d="M 52.85 26.88 
L 709.2 26.88 
" style="fill: none; stroke: #000000; stroke-width: 0.8; stroke-linejoin: miter; stroke-linecap: square"/>
   </g>
   <g id="text_14">
    <!-- KITTI 07: Ground Truth vs Estimated Trajectory (Top-down X-Z) -->
    <g transform="translate(194.29 20.88) scale(0.12 -0.12)">
     <defs>
      <path id="DejaVuSans-4b" d="M 628 4666 
L 1259 4666 
L 1259 2694 
L 3353 4666 
L 4166 4666 
L 1850 2491 
L 4331 0 
L 3500 0 
L 1259 2247 
L 1259 0 
L 628 0 
L 628 4666 
z
" transform="scale(0.015625)"/>
      <path id="DejaVuSans-49" d="M 628 4666 
L 1259 4666 
L 1259 0 
L 628 0 
L 628 4666 
z
" transform="scale(0.015625)"/>
      <path id="DejaVuSans-54" d="M -19 4666 
L 3928 4666 
L 3928 4134 
L 2272 4134 
L 2272 0 
L 1638 0 
L 1638 4134 
L -19 4134 
L -19 4666 
z
" transform="scale(0.015625)"/>
      <path id="DejaVuSans-37" d="M 525 4666 
L 3525 4666 
L 3525 4397 
L 1831 0 
L 1172 0 
L 2766 4134 
L 525 4134 
L 525 4666 
z
" transform="scale(0.015625)"/>
      <path id="DejaVuSans-3a" d="M 750 794 
L 1409 794 
L 1409 0 
L 750 0 
L 750 794 
z
M 750 3309 
L 1409 3309 
L 1409 2516 
L 750 2516 
L 750 3309 
z
" transform="scale(0.015625)"/>
      <path id="DejaVuSans-47" d="M 3809 666 
L 3809 1919 
L 2778 1919 
L 2778 2438 
L 4434 2438 
L 4434 434 
Q 4069 175 3628 42 
Q 3188 -91 2688 -91 
Q 1594 -91 976 548 
Q 359 1188 359 2328 
Q 359 3472 976 4111 
Q 1594 4750 2688 4750 
Q 3144 4750 3555 4637 
Q 3966 4525 4313 4306 
L 4313 3634 
Q 3963 3931 3569 4081 
Q 3175 4231 2741 4231 
Q 1884 4231 1454 3753 
Q 1025 3275 1025 2328 
Q 1025 1384 1454 906 
Q 1884 428 2741 428 
Q 3075 428 3337 486 
Q 3600 544 3809 666 
z
" transform="scale(0.015625)"/>
      <path id="DejaVuSans-72" d="M 2631 2963 
Q 2534 3019 2420 3045 
Q 2306 3072 2169 3072 
Q 1681 3072 1420 2755 
Q 1159 2438 1159 1844 
L 1159 0 
L 581 0 
L 581 3500 
L 1159 3500 
L 1159 2956 
Q 1341 3275 1631 3429 
Q 1922 3584 2338 3584 
Q 2397 3584 2469 3576 
Q 2541 3569 2628 3553 
L 2631 2963 
z
" transform="scale(0.015625)"/>
      <path id="DejaVuSans-6f" d="M 1959 3097 
Q 1497 3097 1228 2736 
Q 959 2375 959 1747 
Q 959 1119 1226 758 
Q 1494 397 1959 397 
Q 2419 397 2687 759 
Q 2956 1122 2956 1747 
Q 2956 2369 2687 2733 
Q 2419 3097 1959 3097 
z
M 1959 3584 
Q 2709 3584 3137 3096 
Q 3566 2609 3566 1747 
Q 3566 888 3137 398 
Q 2709 -91 1959 -91 
Q 1206 -91 779 398 
Q 353 888 353 1747 
Q 353 2609 779 3096 
Q 1206 3584 1959 3584 
z
" transform="scale(0.015625)"/>
      <path id="DejaVuSans-75" d="M 544 1381 
L 544 3500 
L 1119 3500 
L 1119 1403 
Q 1119 906 1312 657 
Q 1506 409 1894 409 
Q 2359 409 2629 706 
Q 2900 1003 2900 1516 
L 2900 3500 
L 3475 3500 
L 3475 0 
L 2900 0 
L 2900 538 
Q 2691 219 2414 64 
Q 2138 -91 1772 -91 
Q 1169 -91 856 284 
Q 544 659 544 1381 
z
M 1991 3584 
L 1991 3584 
z
" transform="scale(0.015625)"/>
      <path id="DejaVuSans-6e" d="M 3513 2113 
L 3513 0 
L 2938 0 
L 2938 2094 
Q 2938 2591 2744 2837 
Q 2550 3084 2163 3084 
Q 1697 3084 1428 2787 
Q 1159 2491 1159 1978 
L 1159 0 
L 581 0 
L 581 3500 
L 1159 3500 
L 1159 2956 
Q 1366 3272 1645 3428 
Q 1925 3584 2291 3584 
Q 2894 3584 3203 3211 
Q 3513 2838 3513 2113 
z
" transform="scale(0.015625)"/>
      <path id="DejaVuSans-64" d="M 2906 2969 
L 2906 4863 
L 3481 4863 
L 3481 0 
L 2906 0 
L 2906 525 
Q 2725 213 2448 61 
Q 2172 -91 1784 -91 
Q 1150 -91 751 415 
Q 353 922 353 1747 
Q 353 2572 751 3078 
Q 1150 3584 1784 3584 
Q 2172 3584 2448 3432 
Q 2725 3281 2906 2969 
z
M 947 1747 
Q 947 1113 1208 752 
Q 1469 391 1925 391 
Q 2381 391 2643 752 
Q 2906 1113 2906 1747 
Q 2906 2381 2643 2742 
Q 2381 3103 1925 3103 
Q 1469 3103 1208 2742 
Q 947 2381 947 1747 
z
" transform="scale(0.015625)"/>
      <path id="DejaVuSans-74" d="M 1172 4494 
L 1172 3500 
L 2356 3500 
L 2356 3053 
L 1172 3053 
L 1172 1153 
Q 1172 725 1289 603 
Q 1406 481 1766 481 
L 2356 481 
L 2356 0 
L 1766 0 
Q 1100 0 847 248 
Q 594 497 594 1153 
L 594 3053 
L 172 3053 
L 172 3500 
L 594 3500 
L 594 4494 
L 1172 4494 
z
" transform="scale(0.015625)"/>
      <path id="DejaVuSans-68" d="M 3513 2113 
L 3513 0 
L 2938 0 
L 2938 2094 
Q 2938 2591 2744 2837 
Q 2550 3084 2163 3084 
Q 1697 3084 1428 2787 
Q 1159 2491 1159 1978 
L 1159 0 
L 581 0 
L 581 4863 
L 1159 4863 
L 1159 2956 
Q 1366 3272 1645 3428 
Q 1925 3584 2291 3584 
Q 2894 3584 3203 3211 
Q 3513 2838 3513 2113 
z
" transform="scale(0.015625)"/>
      <path id="DejaVuSans-76" d="M 191 3500 
L 800 3500 
L 1894 563 
L 2988 3500 
L 3597 3500 
L 2284 0 
L 1503 0 
L 191 3500 
z
" transform="scale(0.015625)"/>
      <path id="DejaVuSans-73" d="M 2834 3397 
L 2834 2853 
Q 2591 2978 2328 3040 
Q 2066 3103 1784 3103 
Q 1356 3103 1142 2972 
Q 928 2841 928 2578 
Q 928 2378 1081 2264 
Q 1234 2150 1697 2047 
L 1894 2003 
Q 2506 1872 2764 1633 
Q 3022 1394 3022 966 
Q 3022 478 2636 193 
Q 2250 -91 1575 -91 
Q 1294 -91 989 -36 
Q 684 19 347 128 
L 347 722 
Q 666 556 975 473 
Q 1284 391 1588 391 
Q 1994 391 2212 530 
Q 2431 669 2431 922 
Q 2431 1156 2273 1281 
Q 2116 1406 1581 1522 
L 1381 1569 
Q 847 1681 609 1914 
Q 372 2147 372 2553 
Q 372 3047 722 3315 
Q 1072 3584 1716 3584 
Q 2034 3584 2315 3537 
Q 2597 3491 2834 3397 
z
" transform="scale(0.015625)"/>
      <path id="DejaVuSans-45" d="M 628 4666 
L 3578 4666 
L 3578 4134 
L 1259 4134 
L 1259 2753 
L 3481 2753 
L 3481 2222 
L 1259 2222 
L 1259 531 
L 3634 531 
L 3634 0 
L 628 0 
L 628 4666 
z
" transform="scale(0.015625)"/>
      <path id="DejaVuSans-69" d="M 603 3500 
L 1178 3500 
L 1178 0 
L 603 0 
L 603 3500 
z
M 603 4863 
L 1178 4863 
L 1178 4134 
L 603 4134 
L 603 4863 
z
" transform="scale(0.015625)"/>
      <path id="DejaVuSans-61" d="M 2194 1759 
Q 1497 1759 1228 1600 
Q 959 1441 959 1056 
Q 959 750 1161 570 
Q 1363 391 1709 391 
Q 2188 391 2477 730 
Q 2766 1069 2766 1631 
L 2766 1759 
L 2194 1759 
z
M 3341 1997 
L 3341 0 
L 2766 0 
L 2766 531 
Q 2569 213 2275 61 
Q 1981 -91 1556 -91 
Q 1019 -91 701 211 
Q 384 513 384 1019 
Q 384 1609 779 1909 
Q 1175 2209 1959 2209 
L 2766 2209 
L 2766 2266 
Q 2766 2663 2505 2880 
Q 2244 3097 1772 3097 
Q 1472 3097 1187 3025 
Q 903 2953 641 2809 
L 641 3341 
Q 956 3463 1253 3523 
Q 1550 3584 1831 3584 
Q 2591 3584 2966 3190 
Q 3341 2797 3341 1997 
z
" transform="scale(0.015625)"/>
      <path id="DejaVuSans-65" d="M 3597 1894 
L 3597 1613 
L 953 1613 
Q 991 1019 1311 708 
Q 1631 397 2203 397 
Q 2534 397 2845 478 
Q 3156 559 3463 722 
L 3463 178 
Q 3153 47 2828 -22 
Q 2503 -91 2169 -91 
Q 1331 -91 842 396 
Q 353 884 353 1716 
Q 353 2575 817 3079 
Q 1281 3584 2069 3584 
Q 2775 3584 3186 3129 
Q 3597 2675 3597 1894 
z
M 3022 2063 
Q 3016 2534 2758 2815 
Q 2500 3097 2075 3097 
Q 1594 3097 1305 2825 
Q 1016 2553 972 2059 
L 3022 2063 
z
" transform="scale(0.015625)"/>
      <path id="DejaVuSans-6a" d="M 603 3500 
L 1178 3500 
L 1178 -63 
Q 1178 -731 923 -1031 
Q 669 -1331 103 -1331 
L -116 -1331 
L -116 -844 
L 38 -844 
Q 366 -844 484 -692 
Q 603 -541 603 -63 
L 603 3500 
z
M 603 4863 
L 1178 4863 
L 1178 4134 
L 603 4134 
L 603 4863 
z
" transform="scale(0.015625)"/>
      <path id="DejaVuSans-63" d="M 3122 3366 
L 3122 2828 
Q 2878 2963 2633 3030 
Q 2388 3097 2138 3097 
Q 1578 3097 1268 2742 
Q 959 2388 959 1747 
Q 959 1106 1268 751 
Q 1578 397 2138 397 
Q 2388 397 2633 464 
Q 2878 531 3122 666 
L 3122 134 
Q 2881 22 2623 -34 
Q 2366 -91 2075 -91 
Q 1284 -91 818 406 
Q 353 903 353 1747 
Q 353 2603 823 3093 
Q 1294 3584 2113 3584 
Q 2378 3584 2631 3529 
Q 2884 3475 3122 3366 
z
" transform="scale(0.015625)"/>
      <path id="DejaVuSans-79" d="M 2059 -325 
Q 1816 -950 1584 -1140 
Q 1353 -1331 966 -1331 
L 506 -1331 
L 506 -850 
L 844 -850 
Q 1081 -850 1212 -737 
Q 1344 -625 1503 -206 
L 1606 56 
L 191 3500 
L 800 3500 
L 1894 763 
L 2988 3500 
L 3597 3500 
L 2059 -325 
z
" transform="scale(0.015625)"/>
      <path id="DejaVuSans-70" d="M 1159 525 
L 1159 -1331 
L 581 -1331 
L 581 3500 
L 1159 3500 
L 1159 2969 
Q 1341 3281 1617 3432 
Q 1894 3584 2278 3584 
Q 2916 3584 3314 3078 
Q 3713 2572 3713 1747 
Q 3713 922 3314 415 
Q 2916 -91 2278 -91 
Q 1894 -91 1617 61 
Q 1341 213 1159 525 
z
M 3116 1747 
Q 3116 2381 2855 2742 
Q 2594 3103 2138 3103 
Q 1681 3103 1420 2742 
Q 1159 2381 1159 1747 
Q 1159 1113 1420 752 
Q 1681 391 2138 391 
Q 2594 391 2855 752 
Q 3116 1113 3116 1747 
z
" transform="scale(0.015625)"/>
      <path id="DejaVuSans-2d" d="M 313 2009 
L 1997 2009 
L 1997 1497 
L 313 1497 
L 313 2009 
z
" transform="scale(0.015625)"/>
      <path id="DejaVuSans-77" d="M 269 3500 
L 844 3500 
L 1563 769 
L 2278 3500 
L 2956 3500 
L 3675 769 
L 4391 3500 
L 4966 3500 
L 4050 0 
L 3372 0 
L 2619 2869 
L 1863 0 
L 1184 0 
L 269 3500 
z
" transform="scale(0.015625)"/>
     </defs>
     <use xlink:href="#DejaVuSans-4b"/>
     <use xlink:href="#DejaVuSans-49" transform="translate(65.576172 0)"/>
     <use xlink:href="#DejaVuSans-54" transform="translate(95.068359 0)"/>
     <use xlink:href="#DejaVuSans-54" transform="translate(154.402344 0)"/>
     <use xlink:href="#DejaVuSans-49" transform="translate(215.486328 0)"/>
     <use xlink:href="#DejaVuSans-20" transform="translate(244.978516 0)"/>
     <use xlink:href="#DejaVuSans-30" transform="translate(276.765625 0)"/>
     <use xlink:href="#DejaVuSans-37" transform="translate(340.388672 0)"/>
     <use xlink:href="#DejaVuSans-3a" transform="translate(404.011719 0)"/>
     <use xlink:href="#DejaVuSans-20" transform="translate(437.703125 0)"/>
     <use xlink:href="#DejaVuSans-47" transform="translate(469.490234 0)"/>
     <use xlink:href="#DejaVuSans-72" transform="translate(546.980469 0)"/>
     <use xlink:href="#DejaVuSans-6f" transform="translate(585.84375 0)"/>
     <use xlink:href="#DejaVuSans-75" transform="translate(647.025391 0)"/>
     <use xlink:href="#DejaVuSans-6e" transform="translate(710.404297 0)"/>
     <use xlink:href="#DejaVuSans-64" transform="translate(773.783203 0)"/>
     <use xlink:href="#DejaVuSans-20" transform="translate(837.259766 0)"/>
     <use xlink:href="#DejaVuSans-54" transform="translate(869.046875 0)"/>
     <use xlink:href="#DejaVuSans-72" transform="translate(915.380859 0)"/>
     <use xlink:href="#DejaVuSans-75" transform="translate(956.494141 0)"/>
     <use xlink:href="#DejaVuSans-74" transform="translate(1019.873047 0)"/>
     <use xlink:href="#DejaVuSans-68" transform="translate(1059.082031 0)"/>
     <use xlink:href="#DejaVuSans-20" transform="translate(1122.460938 0)"/>
     <use xlink:href="#DejaVuSans-76" transform="translate(1154.248047 0)"/>
     <use xlink:href="#DejaVuSans-73" transform="translate(1213.427734 0)"/>
     <use xlink:href="#DejaVuSans-20" transform="translate(1265.527344 0)"/>
     <use xlink:href="#DejaVuSans-45" transform="translate(1297.314453 0)"/>
     <use xlink:href="#DejaVuSans-73" transform="translate(1360.498047 0)"/>
     <use xlink:href="#DejaVuSans-74" transform="translate(1412.597656 0)"/>
     <use xlink:href="#DejaVuSans-69" transform="translate(1451.806641 0)"/>
     <use xlink:href="#DejaVuSans-6d" transform="translate(1479.589844 0)"/>
     <use xlink:href="#DejaVuSans-61" transform="translate(1577.001953 0)"/>
     <use xlink:href="#DejaVuSans-74" transform="translate(1638.28125 0)"/>
     <use xlink:href="#DejaVuSans-65" transform="translate(1677.490234 0)"/>
     <use xlink:href="#DejaVuSans-64" transform="translate(1739.013672 0)"/>
     <use xlink:href="#DejaVuSans-20" transform="translate(1802.490234 0)"/>
     <use xlink:href="#DejaVuSans-54" transform="translate(1834.277344 0)"/>
     <use xlink:href="#DejaVuSans-72" transform="translate(1880.611328 0)"/>
     <use xlink:href="#DejaVuSans-61" transform="translate(1921.724609 0)"/>
     <use xlink:href="#DejaVuSans-6a" transform="translate(1983.003906 0)"/>
     <use xlink:href="#DejaVuSans-65" transform="translate(2010.787109 0)"/>
     <use xlink:href="#DejaVuSans-63" transform="translate(2072.310547 0)"/>
     <use xlink:href="#DejaVuSans-74" transform="translate(2127.291016 0)"/>
     <use xlink:href="#DejaVuSans-6f" transform="translate(2166.5 0)"/>
     <use xlink:href="#DejaVuSans-72" transform="translate(2227.681641 0)"/>
     <use xlink:href="#DejaVuSans-79" transform="translate(2268.794922 0)"/>
     <use xlink:href="#DejaVuSans-20" transform="translate(2327.974609 0)"/>
     <use xlink:href="#DejaVuSans-28" transform="translate(2359.761719 0)"/>
     <use xlink:href="#DejaVuSans-54" transform="translate(2398.775391 0)"/>
     <use xlink:href="#DejaVuSans-6f" transform="translate(2442.859375 0)"/>
     <use xlink:href="#DejaVuSans-70" transform="translate(2504.041016 0)"/>
     <use xlink:href="#DejaVuSans-2d" transform="translate(2567.517578 0)"/>
     <use xlink:href="#DejaVuSans-64" transform="translate(2603.601562 0)"/>
     <use xlink:href="#DejaVuSans-6f" transform="translate(2667.078125 0)"/>
     <use xlink:href="#DejaVuSans-77" transform="translate(2728.259766 0)"/>
     <use xlink:href="#DejaVuSans-6e" transform="translate(2810.046875 0)"/>
     <use xlink:href="#DejaVuSans-20" transform="translate(2873.425781 0)"/>
     <use xlink:href="#DejaVuSans-58" transform="translate(2905.212891 0)"/>
     <use xlink:href="#DejaVuSans-2d" transform="translate(2968.71875 0)"/>
     <use xlink:href="#DejaVuSans-5a" transform="translate(3004.802734 0)"/>
     <use xlink:href="#DejaVuSans-29" transform="translate(3073.308594 0)"/>
    </g>
   </g>
   <g id="legend_1">
    <g id="patch_7">
     <path d="M 502.323438 166.983125 
L 702.2 166.983125 
Q 704.2 166.983125 704.2 164.983125 
L 704.2 33.88 
Q 704.2 31.88 702.2 31.88 
L 502.323438 31.88 
Q 500.323438 31.88 500.323438 33.88 
L 500.323438 164.983125 
Q 500.323438 166.983125 502.323438 166.983125 
z
" style="fill: #ffffff; opacity: 0.8; stroke: #cccccc; stroke-linejoin: miter"/>
    </g>
    <g id="line2d_26">
     <path d="M 504.323438 39.978437 
L 514.323438 39.978437 
L 524.323438 39.978437 
" style="fill: none; stroke: #000000; stroke-width: 2; stroke-linecap: square"/>
    </g>
    <g id="text_15">
     <!-- Ground Truth -->
     <g transform="translate(532.323438 43.478437) scale(0.1 -0.1)">
      <use xlink:href="#DejaVuSans-47"/>
      <use xlink:href="#DejaVuSans-72" transform="translate(77.490234 0)"/>
      <use xlink:href="#DejaVuSans-6f" transform="translate(116.353516 0)"/>
      <use xlink:href="#DejaVuSans-75" transform="translate(177.535156 0)"/>
      <use xlink:href="#DejaVuSans-6e" transform="translate(240.914062 0)"/>
      <use xlink:href="#DejaVuSans-64" transform="translate(304.292969 0)"/>
      <use xlink:href="#DejaVuSans-20" transform="translate(367.769531 0)"/>
      <use xlink:href="#DejaVuSans-54" transform="translate(399.556641 0)"/>
      <use xlink:href="#DejaVuSans-72" transform="translate(445.890625 0)"/>
      <use xlink:href="#DejaVuSans-75" transform="translate(487.003906 0)"/>
      <use xlink:href="#DejaVuSans-74" transform="translate(550.382812 0)"/>
      <use xlink:href="#DejaVuSans-68" transform="translate(589.591797 0)"/>
     </g>
    </g>
    <g id="line2d_27">
     <path d="M 504.323438 54.656562 
L 514.323438 54.656562 
L 524.323438 54.656562 
" style="fill: none; stroke-dasharray: 5.55,2.4; stroke-dashoffset: 0; stroke: #ff0000; stroke-width: 1.5"/>
    </g>
    <g id="text_16">
     <!-- Estimated -->
     <g transform="translate(532.323438 58.156562) scale(0.1 -0.1)">
      <use xlink:href="#DejaVuSans-45"/>
      <use xlink:href="#DejaVuSans-73" transform="translate(63.183594 0)"/>
      <use xlink:href="#DejaVuSans-74" transform="translate(115.283203 0)"/>
      <use xlink:href="#DejaVuSans-69" transform="translate(154.492188 0)"/>
      <use xlink:href="#DejaVuSans-6d" transform="translate(182.275391 0)"/>
      <use xlink:href="#DejaVuSans-61" transform="translate(279.6875 0)"/>
      <use xlink:href="#DejaVuSans-74" transform="translate(340.966797 0)"/>
      <use xlink:href="#DejaVuSans-65" transform="translate(380.175781 0)"/>
      <use xlink:href="#DejaVuSans-64" transform="translate(441.699219 0)"/>
     </g>
    </g>
    <g id="line2d_28">
     <path d="M 504.323438 69.334687 
L 514.323438 69.334687 
L 524.323438 69.334687 
" style="fill: none; stroke-dasharray: 9.6,2.4,1.5,2.4; stroke-dashoffset: 0; stroke: #0000ff; stroke-width: 1.5"/>
    </g>
    <g id="text_17">
     <!-- Estimated SLAM Corrected -->
     <g transform="translate(532.323438 72.834687) scale(0.1 -0.1)">
      <defs>
       <path id="DejaVuSans-53" d="M 3425 4513 
L 3425 3897 
Q 3066 4069 2747 4153 
Q 2428 4238 2131 4238 
Q 1616 4238 1336 4038 
Q 1056 3838 1056 3469 
Q 1056 3159 1242 3001 
Q 1428 2844 1947 2747 
L 2328 2669 
Q 3034 2534 3370 2195 
Q 3706 1856 3706 1288 
Q 3706 609 3251 259 
Q 2797 -91 1919 -91 
Q 1588 -91 1214 -16 
Q 841 59 441 206 
L 441 856 
Q 825 641 1194 531 
Q 1563 422 1919 422 
Q 2459 422 2753 634 
Q 3047 847 3047 1241 
Q 3047 1584 2836 1778 
Q 2625 1972 2144 2069 
L 1759 2144 
Q 1053 2284 737 2584 
Q 422 2884 422 3419 
Q 422 4038 858 4394 
Q 1294 4750 2059 4750 
Q 2388 4750 2728 4690 
Q 3069 4631 3425 4513 
z
" transform="scale(0.015625)"/>
       <path id="DejaVuSans-4c" d="M 628 4666 
L 1259 4666 
L 1259 531 
L 3531 531 
L 3531 0 
L 628 0 
L 628 4666 
z
" transform="scale(0.015625)"/>
       <path id="DejaVuSans-41" d="M 2188 4044 
L 1331 1722 
L 3047 1722 
L 2188 4044 
z
M 1831 4666 
L 2547 4666 
L 4325 0 
L 3669 0 
L 3244 1197 
L 1141 1197 
L 716 0 
L 50 0 
L 1831 4666 
z
" transform="scale(0.015625)"/>
       <path id="DejaVuSans-4d" d="M 628 4666 
L 1569 4666 
L 2759 1491 
L 3956 4666 
L 4897 4666 
L 4897 0 
L 4281 0 
L 4281 4097 
L 3078 897 
L 2444 897 
L 1241 4097 
L 1241 0 
L 628 0 
L 628 4666 
z
" transform="scale(0.015625)"/>
       <path id="DejaVuSans-43" d="M 4122 4306 
L 4122 3641 
Q 3803 3938 3442 4084 
Q 3081 4231 2675 4231 
Q 1875 4231 1450 3742 
Q 1025 3253 1025 2328 
Q 1025 1406 1450 917 
Q 1875 428 2675 428 
Q 3081 428 3442 575 
Q 3803 722 4122 1019 
L 4122 359 
Q 3791 134 3420 21 
Q 3050 -91 2638 -91 
Q 1578 -91 968 557 
Q 359 1206 359 2328 
Q 359 3453 968 4101 
Q 1578 4750 2638 4750 
Q 3056 4750 3426 4639 
Q 3797 4528 4122 4306 
z
" transform="scale(0.015625)"/>
      </defs>
      <use xlink:href="#DejaVuSans-45"/>
      <use xlink:href="#DejaVuSans-73" transform="translate(63.183594 0)"/>
      <use xlink:href="#DejaVuSans-74" transform="translate(115.283203 0)"/>
      <use xlink:href="#DejaVuSans-69" transform="translate(154.492188 0)"/>
      <use xlink:href="#DejaVuSans-6d" transform="translate(182.275391 0)"/>
      <use xlink:href="#DejaVuSans-61" transform="translate(279.6875 0)"/>
      <use xlink:href="#DejaVuSans-74" transform="translate(340.966797 0)"/>
      <use xlink:href="#DejaVuSans-65" transform="translate(380.175781 0)"/>
      <use xlink:href="#DejaVuSans-64" transform="translate(441.699219 0)"/>
      <use xlink:href="#DejaVuSans-20" transform="translate(505.175781 0)"/>
      <use xlink:href="#DejaVuSans-53" transform="translate(536.962891 0)"/>
      <use xlink:href="#DejaVuSans-4c" transform="translate(600.439453 0)"/>
      <use xlink:href="#DejaVuSans-41" transform="translate(658.402344 0)"/>
      <use xlink:href="#DejaVuSans-4d" transform="translate(726.810547 0)"/>
      <use xlink:href="#DejaVuSans-20" transform="translate(813.089844 0)"/>
      <use xlink:href="#DejaVuSans-43" transform="translate(844.876953 0)"/>
      <use xlink:href="#DejaVuSans-6f" transform="translate(914.701172 0)"/>
      <use xlink:href="#DejaVuSans-72" transform="translate(975.882812 0)"/>
      <use xlink:href="#DejaVuSans-72" transform="translate(1015.246094 0)"/>
      <use xlink:href="#DejaVuSans-65" transform="translate(1054.109375 0)"/>
      <use xlink:href="#DejaVuSans-63" transform="translate(1115.632812 0)"/>
      <use xlink:href="#DejaVuSans-74" transform="translate(1170.613281 0)"/>
      <use xlink:href="#DejaVuSans-65" transform="translate(1209.822266 0)"/>
      <use xlink:href="#DejaVuSans-64" transform="translate(1271.345703 0)"/>
     </g>
    </g>
    <g id="PathCollection_7">
     <g>
      <use xlink:href="#m56ca498167" x="514.323438" y="84.887812" style="fill: #008000; stroke: #008000"/>
     </g>
    </g>
    <g id="text_18">
     <!-- Start - Ground Truth -->
     <g transform="translate(532.323438 87.512812) scale(0.1 -0.1)">
      <use xlink:href="#DejaVuSans-53"/>
      <use xlink:href="#DejaVuSans-74" transform="translate(63.476562 0)"/>
      <use xlink:href="#DejaVuSans-61" transform="translate(102.685547 0)"/>
      <use xlink:href="#DejaVuSans-72" transform="translate(163.964844 0)"/>
      <use xlink:href="#DejaVuSans-74" transform="translate(205.078125 0)"/>
      <use xlink:href="#DejaVuSans-20" transform="translate(244.287109 0)"/>
      <use xlink:href="#DejaVuSans-2d" transform="translate(276.074219 0)"/>
      <use xlink:href="#DejaVuSans-20" transform="translate(312.158203 0)"/>
      <use xlink:href="#DejaVuSans-47" transform="translate(343.945312 0)"/>
      <use xlink:href="#DejaVuSans-72" transform="translate(421.435547 0)"/>
      <use xlink:href="#DejaVuSans-6f" transform="translate(460.298828 0)"/>
      <use xlink:href="#DejaVuSans-75" transform="translate(521.480469 0)"/>
      <use xlink:href="#DejaVuSans-6e" transform="translate(584.859375 0)"/>
      <use xlink:href="#DejaVuSans-64" transform="translate(648.238281 0)"/>
      <use xlink:href="#DejaVuSans-20" transform="translate(711.714844 0)"/>
      <use xlink:href="#DejaVuSans-54" transform="translate(743.501953 0)"/>
      <use xlink:href="#DejaVuSans-72" transform="translate(789.835938 0)"/>
      <use xlink:href="#DejaVuSans-75" transform="translate(830.949219 0)"/>
      <use xlink:href="#DejaVuSans-74" transform="translate(894.328125 0)"/>
      <use xlink:href="#DejaVuSans-68" transform="translate(933.537109 0)"/>
     </g>
    </g>
    <g id="PathCollection_8">
     <g>
      <use xlink:href="#me9c391cd31" x="514.323438" y="99.565937" style="fill: #ff0000; stroke: #ff0000"/>
     </g>
    </g>
    <g id="text_19">
     <!-- End - Ground Truth -->
     <g transform="translate(532.323438 102.190937) scale(0.1 -0.1)">
      <use xlink:href="#DejaVuSans-45"/>
      <use xlink:href="#DejaVuSans-6e" transform="translate(63.183594 0)"/>
      <use xlink:href="#DejaVuSans-64" transform="translate(126.5625 0)"/>
      <use xlink:href="#DejaVuSans-20" transform="translate(190.039062 0)"/>
      <use xlink:href="#DejaVuSans-2d" transform="translate(221.826172 0)"/>
      <use xlink:href="#DejaVuSans-20" transform="translate(257.910156 0)"/>
      <use xlink:href="#DejaVuSans-47" transform="translate(289.697266 0)"/>
      <use xlink:href="#DejaVuSans-72" transform="translate(367.1875 0)"/>
      <use xlink:href="#DejaVuSans-6f" transform="translate(406.050781 0)"/>
      <use xlink:href="#DejaVuSans-75" transform="translate(467.232422 0)"/>
      <use xlink:href="#DejaVuSans-6e" transform="translate(530.611328 0)"/>
      <use xlink:href="#DejaVuSans-64" transform="translate(593.990234 0)"/>
      <use xlink:href="#DejaVuSans-20" transform="translate(657.466797 0)"/>
      <use xlink:href="#DejaVuSans-54" transform="translate(689.253906 0)"/>
      <use xlink:href="#DejaVuSans-72" transform="translate(735.587891 0)"/>
      <use xlink:href="#DejaVuSans-75" transform="translate(776.701172 0)"/>
      <use xlink:href="#DejaVuSans-74" transform="translate(840.080078 0)"/>
      <use xlink:href="#DejaVuSans-68" transform="translate(879.289062 0)"/>
     </g>
    </g>
    <g id="PathCollection_9">
     <g>
      <use xlink:href="#m91465d3c30" x="514.323438" y="114.244062" style="fill: #00ffff; stroke: #00ffff; stroke-width: 1.5"/>
     </g>
    </g>
    <g id="text_20">
     <!-- Start - Estimated -->
     <g transform="translate(532.323438 116.869062) scale(0.1 -0.1)">
      <use xlink:href="#DejaVuSans-53"/>
      <use xlink:href="#DejaVuSans-74" transform="translate(63.476562 0)"/>
      <use xlink:href="#DejaVuSans-61" transform="translate(102.685547 0)"/>
      <use xlink:href="#DejaVuSans-72" transform="translate(163.964844 0)"/>
      <use xlink:href="#DejaVuSans-74" transform="translate(205.078125 0)"/>
      <use xlink:href="#DejaVuSans-20" transform="translate(244.287109 0)"/>
      <use xlink:href="#DejaVuSans-2d" transform="translate(276.074219 0)"/>
      <use xlink:href="#DejaVuSans-20" transform="translate(312.158203 0)"/>
      <use xlink:href="#DejaVuSans-45" transform="translate(343.945312 0)"/>
      <use xlink:href="#DejaVuSans-73" transform="translate(407.128906 0)"/>
      <use xlink:href="#DejaVuSans-74" transform="translate(459.228516 0)"/>
      <use xlink:href="#DejaVuSans-69" transform="translate(498.4375 0)"/>
      <use xlink:href="#DejaVuSans-6d" transform="translate(526.220703 0)"/>
      <use xlink:href="#DejaVuSans-61" transform="translate(623.632812 0)"/>
      <use xlink:href="#DejaVuSans-74" transform="translate(684.912109 0)"/>
      <use xlink:href="#DejaVuSans-65" transform="translate(724.121094 0)"/>
      <use xlink:href="#DejaVuSans-64" transform="translate(785.644531 0)"/>
     </g>
    </g>
    <g id="PathCollection_10">
     <g>
      <use xlink:href="#m7b0b1acf58" x="514.323438" y="128.922187" style="fill: #ff00ff; stroke: #ff00ff; stroke-width: 1.5"/>
     </g>
    </g>
    <g id="text_21">
     <!-- End - Estimated -->
     <g transform="translate(532.323438 131.547187) scale(0.1 -0.1)">
      <use xlink:href="#DejaVuSans-45"/>
      <use xlink:href="#DejaVuSans-6e" transform="translate(63.183594 0)"/>
      <use xlink:href="#DejaVuSans-64" transform="translate(126.5625 0)"/>
      <use xlink:href="#DejaVuSans-20" transform="translate(190.039062 0)"/>
      <use xlink:href="#DejaVuSans-2d" transform="translate(221.826172 0)"/>
      <use xlink:href="#DejaVuSans-20" transform="translate(257.910156 0)"/>
      <use xlink:href="#DejaVuSans-45" transform="translate(289.697266 0)"/>
      <use xlink:href="#DejaVuSans-73" transform="translate(352.880859 0)"/>
      <use xlink:href="#DejaVuSans-74" transform="translate(404.980469 0)"/>
      <use xlink:href="#DejaVuSans-69" transform="translate(444.189453 0)"/>
      <use xlink:href="#DejaVuSans-6d" transform="translate(471.972656 0)"/>
      <use xlink:href="#DejaVuSans-61" transform="translate(569.384766 0)"/>
      <use xlink:href="#DejaVuSans-74" transform="translate(630.664062 0)"/>
      <use xlink:href="#DejaVuSans-65" transform="translate(669.873047 0)"/>
      <use xlink:href="#DejaVuSans-64" transform="translate(731.396484 0)"/>
     </g>
    </g>
    <g id="PathCollection_11">
     <g>
      <use xlink:href="#m5365e3b458" x="514.323438" y="143.600312" style="fill: #0000ff; stroke: #0000ff; stroke-width: 1.5"/>
     </g>
    </g>
    <g id="text_22">
     <!-- Start - Estimated SLAM Corrected -->
     <g transform="translate(532.323438 146.225312) scale(0.1 -0.1)">
      <use xlink:href="#DejaVuSans-53"/>
      <use xlink:href="#DejaVuSans-74" transform="translate(63.476562 0)"/>
      <use xlink:href="#DejaVuSans-61" transform="translate(102.685547 0)"/>
      <use xlink:href="#DejaVuSans-72" transform="translate(163.964844 0)"/>
      <use xlink:href="#DejaVuSans-74" transform="translate(205.078125 0)"/>
      <use xlink:href="#DejaVuSans-20" transform="translate(244.287109 0)"/>
      <use xlink:href="#DejaVuSans-2d" transform="translate(276.074219 0)"/>
      <use xlink:href="#DejaVuSans-20" transform="translate(312.158203 0)"/>
      <use xlink:href="#DejaVuSans-45" transform="translate(343.945312 0)"/>
      <use xlink:href="#DejaVuSans-73" transform="translate(407.128906 0)"/>
      <use xlink:href="#DejaVuSans-74" transform="translate(459.228516 0)"/>
      <use xlink:href="#DejaVuSans-69" transform="translate(498.4375 0)"/>
      <use xlink:href="#DejaVuSans-6d" transform="translate(526.220703 0)"/>
      <use xlink:href="#DejaVuSans-61" transform="translate(623.632812 0)"/>
      <use xlink:href="#DejaVuSans-74" transform="translate(684.912109 0)"/>
      <use xlink:href="#DejaVuSans-65" transform="translate(724.121094 0)"/>
      <use xlink:href="#DejaVuSans-64" transform="translate(785.644531 0)"/>
      <use xlink:href="#DejaVuSans-20" transform="translate(849.121094 0)"/>
      <use xlink:href="#DejaVuSans-53" transform="translate(880.908203 0)"/>
      <use xlink:href="#DejaVuSans-4c" transform="translate(944.384766 0)"/>
      <use xlink:href="#DejaVuSans-41" transform="translate(1002.347656 0)"/>
      <use xlink:href="#DejaVuSans-4d" transform="translate(1070.755859 0)"/>
      <use xlink:href="#DejaVuSans-20" transform="translate(1157.035156 0)"/>
      <use xlink:href="#DejaVuSans-43" transform="translate(1188.822266 0)"/>
      <use xlink:href="#DejaVuSans-6f" transform="translate(1258.646484 0)"/>
      <use xlink:href="#DejaVuSans-72" transform="translate(1319.828125 0)"/>
      <use xlink:href="#DejaVuSans-72" transform="translate(1359.191406 0)"/>
      <use xlink:href="#DejaVuSans-65" transform="translate(1398.054688 0)"/>
      <use xlink:href="#DejaVuSans-63" transform="translate(1459.578125 0)"/>
      <use xlink:href="#DejaVuSans-74" transform="translate(1514.558594 0)"/>
      <use xlink:href="#DejaVuSans-65" transform="translate(1553.767578 0)"/>
      <use xlink:href="#DejaVuSans-64" transform="translate(1615.291016 0)"/>
     </g>
    </g>
    <g id="PathCollection_12">
     <g>
      <use xlink:href="#m3d95e0cbd0" x="514.323438" y="158.278437" style="fill: #800080; stroke: #800080; stroke-width: 1.5"/>
     </g>
    </g>
    <g id="text_23">
     <!-- End - Estimated SLAM Corrected -->
     <g transform="translate(532.323438 160.903437) scale(0.1 -0.1)">
      <use xlink:href="#DejaVuSans-45"/>
      <use xlink:href="#DejaVuSans-6e" transform="translate(63.183594 0)"/>
      <use xlink:href="#DejaVuSans-64" transform="translate(126.5625 0)"/>
      <use xlink:href="#DejaVuSans-20" transform="translate(190.039062 0)"/>
      <use xlink:href="#DejaVuSans-2d" transform="translate(221.826172 0)"/>
      <use xlink:href="#DejaVuSans-20" transform="translate(257.910156 0)"/>
      <use xlink:href="#DejaVuSans-45" transform="translate(289.697266 0)"/>
      <use xlink:href="#DejaVuSans-73" transform="translate(352.880859 0)"/>
      <use xlink:href="#DejaVuSans-74" transform="translate(404.980469 0)"/>
      <use xlink:href="#DejaVuSans-69" transform="translate(444.189453 0)"/>
      <use xlink:href="#DejaVuSans-6d" transform="translate(471.972656 0)"/>
      <use xlink:href="#DejaVuSans-61" transform="translate(569.384766 0)"/>
      <use xlink:href="#DejaVuSans-74" transform="translate(630.664062 0)"/>
      <use xlink:href="#DejaVuSans-65" transform="translate(669.873047 0)"/>
      <use xlink:href="#DejaVuSans-64" transform="translate(731.396484 0)"/>
      <use xlink:href="#DejaVuSans-20" transform="translate(794.873047 0)"/>
      <use xlink:href="#DejaVuSans-53" transform="translate(826.660156 0)"/>
      <use xlink:href="#DejaVuSans-4c" transform="translate(890.136719 0)"/>
      <use xlink:href="#DejaVuSans-41" transform="translate(948.099609 0)"/>
      <use xlink:href="#DejaVuSans-4d" transform="translate(1016.507812 0)"/>
      <use xlink:href="#DejaVuSans-20" transform="translate(1102.787109 0)"/>
      <use xlink:href="#DejaVuSans-43" transform="translate(1134.574219 0)"/>
      <use xlink:href="#DejaVuSans-6f" transform="translate(1204.398438 0)"/>
      <use xlink:href="#DejaVuSans-72" transform="translate(1265.580078 0)"/>
      <use xlink:href="#DejaVuSans-72" transform="translate(1304.943359 0)"/>
      <use xlink:href="#DejaVuSans-65" transform="translate(1343.806641 0)"/>
      <use xlink:href="#DejaVuSans-63" transform="translate(1405.330078 0)"/>
      <use xlink:href="#DejaVuSans-74" transform="translate(1460.310547 0)"/>
      <use xlink:href="#DejaVuSans-65" transform="translate(1499.519531 0)"/>
      <use xlink:href="#DejaVuSans-64" transform="translate(1561.042969 0)"/>
     </g>
    </g>
   </g>
  </g>
 </g>
 <defs>
  <clipPath id="p2ebf6253ff">
   <rect x="52.85" y="26.88" width="656.35" height="435.16"/>
  </clipPath>
 </defs>
</svg>
