<?xml version="1.0" encoding="utf-8" standalone="no"?>
<!DOCTYPE svg PUBLIC "-//W3C//DTD SVG 1.1//EN"
  "http://www.w3.org/Graphics/SVG/1.1/DTD/svg11.dtd">
<svg xmlns:xlink="http://www.w3.org/1999/xlink" width="720pt" height="504pt" viewBox="0 0 720 504" xmlns="http://www.w3.org/2000/svg" version="1.1">
 <metadata>
  <rdf:RDF xmlns:dc="http://purl.org/dc/elements/1.1/" xmlns:cc="http://creativecommons.org/ns#" xmlns:rdf="http://www.w3.org/1999/02/22-rdf-syntax-ns#">
   <cc:Work>
    <dc:type rdf:resource="http://purl.org/dc/dcmitype/StillImage"/>
    <dc:date>2025-11-21T15:02:39.184650</dc:date>
    <dc:format>image/svg+xml</dc:format>
    <dc:creator>
     <cc:Agent>
      <dc:title>Matplotlib v3.10.3, https://matplotlib.org/</dc:title>
     </cc:Agent>
    </dc:creator>
   </cc:Work>
  </rdf:RDF>
 </metadata>
 <defs>
  <style type="text/css">*{stroke-linejoin: round; stroke-linecap: butt}</style>
 </defs>
 <g id="figure_1">
  <g id="patch_1">
   <path d="M 0 504 
L 720 504 
L 720 0 
L 0 0 
z
" style="fill: #ffffff"/>
  </g>
  <g id="axes_1">
   <g id="patch_2">
    <path d="M 50.87 462.04 
L 709.2 462.04 
L 709.2 26.88 
L 50.87 26.88 
z
" style="fill: #ffffff"/>
   </g>
   <g id="PathCollection_1">
    <defs>
     <path id="md7453ad2a4" d="M 0 4.472136 
C 1.186024 4.472136 2.323632 4.000923 3.162278 3.162278 
C 4.000923 2.323632 4.472136 1.186024 4.472136 0 
C 4.472136 -1.186024 4.000923 -2.323632 3.162278 -3.162278 
C 2.323632 -4.000923 1.186024 -4.472136 0 -4.472136 
C -1.186024 -4.472136 -2.323632 -4.000923 -3.162278 -3.162278 
C -4.000923 -2.323632 -4.472136 -1.186024 -4.472136 0 
C -4.472136 1.186024 -4.000923 2.323632 -3.162278 3.162278 
C -2.323632 4.000923 -1.186024 4.472136 0 4.472136 
z
" style="stroke: #008000"/>
    </defs>
    <g clip-path="url(#pffcef1dc6f)">
     <use xlink:href="#md7453ad2a4" x="317.106044" y="415.228015" style="fill: #008000; stroke: #008000"/>
    </g>
   </g>
   <g id="PathCollection_2">
    <defs>
     <path id="m06bf287f36" d="M 0 4.472136 
C 1.186024 4.472136 2.323632 4.000923 3.162278 3.162278 
C 4.000923 2.323632 4.472136 1.186024 4.472136 0 
C 4.472136 -1.186024 4.000923 -2.323632 3.162278 -3.162278 
C 2.323632 -4.000923 1.186024 -4.472136 0 -4.472136 
C -1.186024 -4.472136 -2.323632 -4.000923 -3.162278 -3.162278 
C -4.000923 -2.323632 -4.472136 -1.186024 -4.472136 0 
C -4.472136 1.186024 -4.000923 2.323632 -3.162278 3.162278 
C -2.323632 4.000923 -1.186024 4.472136 0 4.472136 
z
" style="stroke: #ff0000"/>
    </defs>
    <g clip-path="url(#pffcef1dc6f)">
     <use xlink:href="#m06bf287f36" x="315.222553" y="410.118739" style="fill: #ff0000; stroke: #ff0000"/>
    </g>
   </g>
   <g id="PathCollection_3">
    <defs>
     <path id="m5307fd079d" d="M -4.472136 4.472136 
L 4.472136 -4.472136 
M -4.472136 -4.472136 
L 4.472136 4.472136 
" style="stroke: #00ffff; stroke-width: 1.5"/>
    </defs>
    <g clip-path="url(#pffcef1dc6f)">
     <use xlink:href="#m5307fd079d" x="317.106044" y="415.228015" style="fill: #00ffff; stroke: #00ffff; stroke-width: 1.5"/>
    </g>
   </g>
   <g id="PathCollection_4">
    <defs>
     <path id="m11f6272ecc" d="M -4.472136 4.472136 
L 4.472136 -4.472136 
M -4.472136 -4.472136 
L 4.472136 4.472136 
" style="stroke: #ff00ff; stroke-width: 1.5"/>
    </defs>
    <g clip-path="url(#pffcef1dc6f)">
     <use xlink:href="#m11f6272ecc" x="347.538487" y="410.322871" style="fill: #ff00ff; stroke: #ff00ff; stroke-width: 1.5"/>
    </g>
   </g>
   <g id="PathCollection_5">
    <defs>
     <path id="mb17aa5f60f" d="M -4.472136 4.472136 
L 4.472136 -4.472136 
M -4.472136 -4.472136 
L 4.472136 4.472136 
" style="stroke: #0000ff; stroke-width: 1.5"/>
    </defs>
    <g clip-path="url(#pffcef1dc6f)">
     <use xlink:href="#mb17aa5f60f" x="317.106044" y="415.228015" style="fill: #0000ff; stroke: #0000ff; stroke-width: 1.5"/>
    </g>
   </g>
   <g id="PathCollection_6">
    <defs>
     <path id="mee1c11aa1e" d="M -4.472136 4.472136 
L 4.472136 -4.472136 
M -4.472136 -4.472136 
L 4.472136 4.472136 
" style="stroke: #800080; stroke-width: 1.5"/>
    </defs>
    <g clip-path="url(#pffcef1dc6f)">
     <use xlink:href="#mee1c11aa1e" x="316.371567" y="409.725621" style="fill: #800080; stroke: #800080; stroke-width: 1.5"/>
    </g>
   </g>
   <g id="matplotlib.axis_1">
    <g id="xtick_1">
     <g id="line2d_1">
      <path d="M 181.373839 462.04 
L 181.373839 26.88 
" clip-path="url(#pffcef1dc6f)" style="fill: none; stroke: #b0b0b0; stroke-width: 0.8; stroke-linecap: square"/>
     </g>
     <g id="line2d_2">
      <defs>
       <path id="m296187e07d" d="M 0 0 
L 0 3.5 
" style="stroke: #000000; stroke-width: 0.8"/>
      </defs>
      <g>
       <use xlink:href="#m296187e07d" x="181.373839" y="462.04" style="stroke: #000000; stroke-width: 0.8"/>
      </g>
     </g>
     <g id="text_1">
      <!-- −200 -->
      <g transform="translate(167.640245 476.638438) scale(0.1 -0.1)">
       <defs>
        <path id="DejaVuSans-2212" d="M 678 2272 
L 4684 2272 
L 4684 1741 
L 678 1741 
L 678 2272 
z
" transform="scale(0.015625)"/>
        <path id="DejaVuSans-32" d="M 1228 531 
L 3431 531 
L 3431 0 
L 469 0 
L 469 531 
Q 828 903 1448 1529 
Q 2069 2156 2228 2338 
Q 2531 2678 2651 2914 
Q 2772 3150 2772 3378 
Q 2772 3750 2511 3984 
Q 2250 4219 1831 4219 
Q 1534 4219 1204 4116 
Q 875 4013 500 3803 
L 500 4441 
Q 881 4594 1212 4672 
Q 1544 4750 1819 4750 
Q 2544 4750 2975 4387 
Q 3406 4025 3406 3419 
Q 3406 3131 3298 2873 
Q 3191 2616 2906 2266 
Q 2828 2175 2409 1742 
Q 1991 1309 1228 531 
z
" transform="scale(0.015625)"/>
        <path id="DejaVuSans-30" d="M 2034 4250 
Q 1547 4250 1301 3770 
Q 1056 3291 1056 2328 
Q 1056 1369 1301 889 
Q 1547 409 2034 409 
Q 2525 409 2770 889 
Q 3016 1369 3016 2328 
Q 3016 3291 2770 3770 
Q 2525 4250 2034 4250 
z
M 2034 4750 
Q 2819 4750 3233 4129 
Q 3647 3509 3647 2328 
Q 3647 1150 3233 529 
Q 2819 -91 2034 -91 
Q 1250 -91 836 529 
Q 422 1150 422 2328 
Q 422 3509 836 4129 
Q 1250 4750 2034 4750 
z
" transform="scale(0.015625)"/>
       </defs>
       <use xlink:href="#DejaVuSans-2212"/>
       <use xlink:href="#DejaVuSans-32" transform="translate(83.789062 0)"/>
       <use xlink:href="#DejaVuSans-30" transform="translate(147.412109 0)"/>
       <use xlink:href="#DejaVuSans-30" transform="translate(211.035156 0)"/>
      </g>
     </g>
    </g>
    <g id="xtick_2">
     <g id="line2d_3">
      <path d="M 317.106044 462.04 
L 317.106044 26.88 
" clip-path="url(#pffcef1dc6f)" style="fill: none; stroke: #b0b0b0; stroke-width: 0.8; stroke-linecap: square"/>
     </g>
     <g id="line2d_4">
      <g>
       <use xlink:href="#m296187e07d" x="317.106044" y="462.04" style="stroke: #000000; stroke-width: 0.8"/>
      </g>
     </g>
     <g id="text_2">
      <!-- 0 -->
      <g transform="translate(313.924794 476.638438) scale(0.1 -0.1)">
       <use xlink:href="#DejaVuSans-30"/>
      </g>
     </g>
    </g>
    <g id="xtick_3">
     <g id="line2d_5">
      <path d="M 452.838249 462.04 
L 452.838249 26.88 
" clip-path="url(#pffcef1dc6f)" style="fill: none; stroke: #b0b0b0; stroke-width: 0.8; stroke-linecap: square"/>
     </g>
     <g id="line2d_6">
      <g>
       <use xlink:href="#m296187e07d" x="452.838249" y="462.04" style="stroke: #000000; stroke-width: 0.8"/>
      </g>
     </g>
     <g id="text_3">
      <!-- 200 -->
      <g transform="translate(443.294499 476.638438) scale(0.1 -0.1)">
       <use xlink:href="#DejaVuSans-32"/>
       <use xlink:href="#DejaVuSans-30" transform="translate(63.623047 0)"/>
       <use xlink:href="#DejaVuSans-30" transform="translate(127.246094 0)"/>
      </g>
     </g>
    </g>
    <g id="xtick_4">
     <g id="line2d_7">
      <path d="M 588.570454 462.04 
L 588.570454 26.88 
" clip-path="url(#pffcef1dc6f)" style="fill: none; stroke: #b0b0b0; stroke-width: 0.8; stroke-linecap: square"/>
     </g>
     <g id="line2d_8">
      <g>
       <use xlink:href="#m296187e07d" x="588.570454" y="462.04" style="stroke: #000000; stroke-width: 0.8"/>
      </g>
     </g>
     <g id="text_4">
      <!-- 400 -->
      <g transform="translate(579.026704 476.638438) scale(0.1 -0.1)">
       <defs>
        <path id="DejaVuSans-34" d="M 2419 4116 
L 825 1625 
L 2419 1625 
L 2419 4116 
z
M 2253 4666 
L 3047 4666 
L 3047 1625 
L 3713 1625 
L 3713 1100 
L 3047 1100 
L 3047 0 
L 2419 0 
L 2419 1100 
L 313 1100 
L 313 1709 
L 2253 4666 
z
" transform="scale(0.015625)"/>
       </defs>
       <use xlink:href="#DejaVuSans-34"/>
       <use xlink:href="#DejaVuSans-30" transform="translate(63.623047 0)"/>
       <use xlink:href="#DejaVuSans-30" transform="translate(127.246094 0)"/>
      </g>
     </g>
    </g>
    <g id="text_5">
     <!-- X (m) -->
     <g transform="translate(366.249063 490.316563) scale(0.1 -0.1)">
      <defs>
       <path id="DejaVuSans-58" d="M 403 4666 
L 1081 4666 
L 2241 2931 
L 3406 4666 
L 4084 4666 
L 2584 2425 
L 4184 0 
L 3506 0 
L 2194 1984 
L 872 0 
L 191 0 
L 1856 2491 
L 403 4666 
z
" transform="scale(0.015625)"/>
       <path id="DejaVuSans-20" transform="scale(0.015625)"/>
       <path id="DejaVuSans-28" d="M 1984 4856 
Q 1566 4138 1362 3434 
Q 1159 2731 1159 2009 
Q 1159 1288 1364 580 
Q 1569 -128 1984 -844 
L 1484 -844 
Q 1016 -109 783 600 
Q 550 1309 550 2009 
Q 550 2706 781 3412 
Q 1013 4119 1484 4856 
L 1984 4856 
z
" transform="scale(0.015625)"/>
       <path id="DejaVuSans-6d" d="M 3328 2828 
Q 3544 3216 3844 3400 
Q 4144 3584 4550 3584 
Q 5097 3584 5394 3201 
Q 5691 2819 5691 2113 
L 5691 0 
L 5113 0 
L 5113 2094 
Q 5113 2597 4934 2840 
Q 4756 3084 4391 3084 
Q 3944 3084 3684 2787 
Q 3425 2491 3425 1978 
L 3425 0 
L 2847 0 
L 2847 2094 
Q 2847 2600 2669 2842 
Q 2491 3084 2119 3084 
Q 1678 3084 1418 2786 
Q 1159 2488 1159 1978 
L 1159 0 
L 581 0 
L 581 3500 
L 1159 3500 
L 1159 2956 
Q 1356 3278 1631 3431 
Q 1906 3584 2284 3584 
Q 2666 3584 2933 3390 
Q 3200 3197 3328 2828 
z
" transform="scale(0.015625)"/>
       <path id="DejaVuSans-29" d="M 513 4856 
L 1013 4856 
Q 1481 4119 1714 3412 
Q 1947 2706 1947 2009 
Q 1947 1309 1714 600 
Q 1481 -109 1013 -844 
L 513 -844 
Q 928 -128 1133 580 
Q 1338 1288 1338 2009 
Q 1338 2731 1133 3434 
Q 928 4138 513 4856 
z
" transform="scale(0.015625)"/>
      </defs>
      <use xlink:href="#DejaVuSans-58"/>
      <use xlink:href="#DejaVuSans-20" transform="translate(68.505859 0)"/>
      <use xlink:href="#DejaVuSans-28" transform="translate(100.292969 0)"/>
      <use xlink:href="#DejaVuSans-6d" transform="translate(139.306641 0)"/>
      <use xlink:href="#DejaVuSans-29" transform="translate(236.71875 0)"/>
     </g>
    </g>
   </g>
   <g id="matplotlib.axis_2">
    <g id="ytick_1">
     <g id="line2d_9">
      <path d="M 50.87 415.228015 
L 709.2 415.228015 
" clip-path="url(#pffcef1dc6f)" style="fill: none; stroke: #b0b0b0; stroke-width: 0.8; stroke-linecap: square"/>
     </g>
     <g id="line2d_10">
      <defs>
       <path id="m7a5d747f5b" d="M 0 0 
L -3.5 0 
" style="stroke: #000000; stroke-width: 0.8"/>
      </defs>
      <g>
       <use xlink:href="#m7a5d747f5b" x="50.87" y="415.228015" style="stroke: #000000; stroke-width: 0.8"/>
      </g>
     </g>
     <g id="text_6">
      <!-- 0 -->
      <g transform="translate(37.5075 419.027234) scale(0.1 -0.1)">
       <use xlink:href="#DejaVuSans-30"/>
      </g>
     </g>
    </g>
    <g id="ytick_2">
     <g id="line2d_11">
      <path d="M 50.87 347.361913 
L 709.2 347.361913 
" clip-path="url(#pffcef1dc6f)" style="fill: none; stroke: #b0b0b0; stroke-width: 0.8; stroke-linecap: square"/>
     </g>
     <g id="line2d_12">
      <g>
       <use xlink:href="#m7a5d747f5b" x="50.87" y="347.361913" style="stroke: #000000; stroke-width: 0.8"/>
      </g>
     </g>
     <g id="text_7">
      <!-- 100 -->
      <g transform="translate(24.7825 351.161131) scale(0.1 -0.1)">
       <defs>
        <path id="DejaVuSans-31" d="M 794 531 
L 1825 531 
L 1825 4091 
L 703 3866 
L 703 4441 
L 1819 4666 
L 2450 4666 
L 2450 531 
L 3481 531 
L 3481 0 
L 794 0 
L 794 531 
z
" transform="scale(0.015625)"/>
       </defs>
       <use xlink:href="#DejaVuSans-31"/>
       <use xlink:href="#DejaVuSans-30" transform="translate(63.623047 0)"/>
       <use xlink:href="#DejaVuSans-30" transform="translate(127.246094 0)"/>
      </g>
     </g>
    </g>
    <g id="ytick_3">
     <g id="line2d_13">
      <path d="M 50.87 279.49581 
L 709.2 279.49581 
" clip-path="url(#pffcef1dc6f)" style="fill: none; stroke: #b0b0b0; stroke-width: 0.8; stroke-linecap: square"/>
     </g>
     <g id="line2d_14">
      <g>
       <use xlink:href="#m7a5d747f5b" x="50.87" y="279.49581" style="stroke: #000000; stroke-width: 0.8"/>
      </g>
     </g>
     <g id="text_8">
      <!-- 200 -->
      <g transform="translate(24.7825 283.295029) scale(0.1 -0.1)">
       <use xlink:href="#DejaVuSans-32"/>
       <use xlink:href="#DejaVuSans-30" transform="translate(63.623047 0)"/>
       <use xlink:href="#DejaVuSans-30" transform="translate(127.246094 0)"/>
      </g>
     </g>
    </g>
    <g id="ytick_4">
     <g id="line2d_15">
      <path d="M 50.87 211.629707 
L 709.2 211.629707 
" clip-path="url(#pffcef1dc6f)" style="fill: none; stroke: #b0b0b0; stroke-width: 0.8; stroke-linecap: square"/>
     </g>
     <g id="line2d_16">
      <g>
       <use xlink:href="#m7a5d747f5b" x="50.87" y="211.629707" style="stroke: #000000; stroke-width: 0.8"/>
      </g>
     </g>
     <g id="text_9">
      <!-- 300 -->
      <g transform="translate(24.7825 215.428926) scale(0.1 -0.1)">
       <defs>
        <path id="DejaVuSans-33" d="M 2597 2516 
Q 3050 2419 3304 2112 
Q 3559 1806 3559 1356 
Q 3559 666 3084 287 
Q 2609 -91 1734 -91 
Q 1441 -91 1130 -33 
Q 819 25 488 141 
L 488 750 
Q 750 597 1062 519 
Q 1375 441 1716 441 
Q 2309 441 2620 675 
Q 2931 909 2931 1356 
Q 2931 1769 2642 2001 
Q 2353 2234 1838 2234 
L 1294 2234 
L 1294 2753 
L 1863 2753 
Q 2328 2753 2575 2939 
Q 2822 3125 2822 3475 
Q 2822 3834 2567 4026 
Q 2313 4219 1838 4219 
Q 1578 4219 1281 4162 
Q 984 4106 628 3988 
L 628 4550 
Q 988 4650 1302 4700 
Q 1616 4750 1894 4750 
Q 2613 4750 3031 4423 
Q 3450 4097 3450 3541 
Q 3450 3153 3228 2886 
Q 3006 2619 2597 2516 
z
" transform="scale(0.015625)"/>
       </defs>
       <use xlink:href="#DejaVuSans-33"/>
       <use xlink:href="#DejaVuSans-30" transform="translate(63.623047 0)"/>
       <use xlink:href="#DejaVuSans-30" transform="translate(127.246094 0)"/>
      </g>
     </g>
    </g>
    <g id="ytick_5">
     <g id="line2d_17">
      <path d="M 50.87 143.763605 
L 709.2 143.763605 
" clip-path="url(#pffcef1dc6f)" style="fill: none; stroke: #b0b0b0; stroke-width: 0.8; stroke-linecap: square"/>
     </g>
     <g id="line2d_18">
      <g>
       <use xlink:href="#m7a5d747f5b" x="50.87" y="143.763605" style="stroke: #000000; stroke-width: 0.8"/>
      </g>
     </g>
     <g id="text_10">
      <!-- 400 -->
      <g transform="translate(24.7825 147.562824) scale(0.1 -0.1)">
       <use xlink:href="#DejaVuSans-34"/>
       <use xlink:href="#DejaVuSans-30" transform="translate(63.623047 0)"/>
       <use xlink:href="#DejaVuSans-30" transform="translate(127.246094 0)"/>
      </g>
     </g>
    </g>
    <g id="ytick_6">
     <g id="line2d_19">
      <path d="M 50.87 75.897502 
L 709.2 75.897502 
" clip-path="url(#pffcef1dc6f)" style="fill: none; stroke: #b0b0b0; stroke-width: 0.8; stroke-linecap: square"/>
     </g>
     <g id="line2d_20">
      <g>
       <use xlink:href="#m7a5d747f5b" x="50.87" y="75.897502" style="stroke: #000000; stroke-width: 0.8"/>
      </g>
     </g>
     <g id="text_11">
      <!-- 500 -->
      <g transform="translate(24.7825 79.696721) scale(0.1 -0.1)">
       <defs>
        <path id="DejaVuSans-35" d="M 691 4666 
L 3169 4666 
L 3169 4134 
L 1269 4134 
L 1269 2991 
Q 1406 3038 1543 3061 
Q 1681 3084 1819 3084 
Q 2600 3084 3056 2656 
Q 3513 2228 3513 1497 
Q 3513 744 3044 326 
Q 2575 -91 1722 -91 
Q 1428 -91 1123 -41 
Q 819 9 494 109 
L 494 744 
Q 775 591 1075 516 
Q 1375 441 1709 441 
Q 2250 441 2565 725 
Q 2881 1009 2881 1497 
Q 2881 1984 2565 2268 
Q 2250 2553 1709 2553 
Q 1456 2553 1204 2497 
Q 953 2441 691 2322 
L 691 4666 
z
" transform="scale(0.015625)"/>
       </defs>
       <use xlink:href="#DejaVuSans-35"/>
       <use xlink:href="#DejaVuSans-30" transform="translate(63.623047 0)"/>
       <use xlink:href="#DejaVuSans-30" transform="translate(127.246094 0)"/>
      </g>
     </g>
    </g>
    <g id="text_12">
     <!-- Z (m) -->
     <g transform="translate(18.702813 258.245937) rotate(-90) scale(0.1 -0.1)">
      <defs>
       <path id="DejaVuSans-5a" d="M 359 4666 
L 4025 4666 
L 4025 4184 
L 1075 531 
L 4097 531 
L 4097 0 
L 288 0 
L 288 481 
L 3238 4134 
L 359 4134 
L 359 4666 
z
" transform="scale(0.015625)"/>
      </defs>
      <use xlink:href="#DejaVuSans-5a"/>
      <use xlink:href="#DejaVuSans-20" transform="translate(68.505859 0)"/>
      <use xlink:href="#DejaVuSans-28" transform="translate(100.292969 0)"/>
      <use xlink:href="#DejaVuSans-6d" transform="translate(139.306641 0)"/>
      <use xlink:href="#DejaVuSans-29" transform="translate(236.71875 0)"/>
     </g>
    </g>
   </g>
   <g id="line2d_21">
    <path d="M 317.106044 415.228015 
L 317.129755 413.519982 
L 316.864738 411.665912 
L 316.114173 408.340298 
L 315.327321 405.579546 
L 314.074714 401.995829 
L 312.88816 399.022581 
L 310.886515 394.827662 
L 308.424266 390.306198 
L 305.234573 384.722385 
L 303.653069 382.278561 
L 300.681558 378.175234 
L 297.53008 374.147903 
L 294.601203 370.782552 
L 291.958545 368.079411 
L 287.391658 363.829188 
L 283.121428 360.168789 
L 279.882389 357.635565 
L 276.44303 355.262145 
L 272.811081 353.072764 
L 268.248171 350.647921 
L 262.091705 347.678881 
L 256.202854 345.035327 
L 252.03181 343.143084 
L 248.727756 341.403947 
L 245.589831 339.449268 
L 242.697242 337.378402 
L 239.544997 334.810348 
L 236.721564 332.21162 
L 234.667121 330.052052 
L 232.873895 327.826859 
L 231.285557 325.468783 
L 229.572616 322.475481 
L 227.624452 318.64919 
L 226.015415 314.992021 
L 225.074926 312.346058 
L 224.504851 310.227821 
L 223.948485 307.236351 
L 223.643426 304.065239 
L 223.588251 300.743329 
L 223.798568 297.317652 
L 224.28924 293.807889 
L 225.052938 290.205895 
L 226.085656 286.569562 
L 227.044943 283.826007 
L 228.177968 281.092428 
L 229.517509 278.398619 
L 231.098382 275.799822 
L 232.905317 273.32651 
L 234.912253 270.976171 
L 237.084172 268.759121 
L 239.399017 266.669456 
L 241.811114 264.737987 
L 244.280897 263.016902 
L 246.808299 261.510207 
L 249.365772 260.233374 
L 251.937117 259.179278 
L 255.320663 258.068513 
L 258.647249 257.260024 
L 261.91927 256.73922 
L 265.12255 256.469792 
L 269.632911 256.357405 
L 281.361321 256.203621 
L 285.945506 255.823638 
L 290.440645 255.227978 
L 294.838355 254.405101 
L 301.301115 253.018122 
L 305.171179 251.970744 
L 308.321354 250.889162 
L 312.0133 249.395904 
L 315.559189 247.738275 
L 318.918734 245.915187 
L 322.162572 243.923182 
L 339.547586 232.023064 
L 342.138571 229.935163 
L 344.634368 227.657034 
L 347.061402 225.164651 
L 349.352093 222.440303 
L 351.499268 219.513916 
L 353.947246 215.786913 
L 359.997876 205.997771 
L 361.795628 202.584513 
L 363.04978 199.805464 
L 364.656015 195.572045 
L 366.362637 190.616598 
L 371.386459 174.387301 
L 371.729631 171.918808 
L 371.77487 169.429411 
L 371.540257 166.915515 
L 370.537475 158.924485 
L 369.343228 149.265238 
L 368.641431 145.527581 
L 367.43336 140.437148 
L 366.021915 135.399108 
L 358.225111 108.537297 
L 355.459296 99.08192 
L 352.234387 88.093652 
L 351.727176 85.467098 
L 351.574953 83.335831 
L 351.647067 81.20022 
L 351.952078 79.0414 
L 352.466937 76.889705 
L 353.35145 74.190398 
L 354.265898 72.048951 
L 355.630251 69.443911 
L 356.94591 67.45876 
L 358.464346 65.634112 
L 360.13994 64.005325 
L 362.428045 62.122109 
L 364.422725 60.758475 
L 366.568183 59.573194 
L 368.868973 58.595854 
L 370.691802 57.99585 
L 372.593288 57.538432 
L 375.22711 57.175824 
L 377.958015 57.058279 
L 380.046696 57.144741 
L 382.863079 57.516715 
L 385.693631 58.145155 
L 388.523105 59.025921 
L 391.32611 60.150191 
L 395.507748 62.137311 
L 407.22232 67.930361 
L 424.978196 76.853804 
L 452.845918 90.829402 
L 460.615908 94.999571 
L 467.312935 98.565323 
L 469.86918 99.657357 
L 472.462479 100.529572 
L 475.112447 101.190316 
L 477.800691 101.600431 
L 479.849976 101.748515 
L 481.944052 101.71465 
L 484.066633 101.482141 
L 486.171568 101.072637 
L 488.977695 100.204629 
L 491.717314 99.029528 
L 494.381059 97.536609 
L 496.917351 95.794215 
L 499.967932 93.337598 
L 503.520247 90.149112 
L 512.885702 81.530728 
L 515.432649 79.666854 
L 517.824182 78.200674 
L 519.245502 77.54468 
L 520.685756 77.086449 
L 522.168767 76.793335 
L 523.679059 76.679795 
L 525.624373 76.880814 
L 527.547087 77.345493 
L 530.370181 78.378008 
L 532.213764 79.247509 
L 533.917407 80.363771 
L 535.071606 81.366424 
L 536.056139 82.489744 
L 537.305283 84.509575 
L 538.108478 86.212811 
L 538.717033 88.004001 
L 539.011233 89.395663 
L 539.181916 91.819908 
L 539.019445 93.831188 
L 538.659008 95.887259 
L 537.842646 99.127458 
L 534.346999 110.731408 
L 530.956002 121.965284 
L 530.22169 125.321127 
L 529.726268 128.700723 
L 529.471295 132.100679 
L 529.440484 135.514141 
L 529.665053 139.58346 
L 530.153892 143.63527 
L 530.85522 147.597565 
L 532.003718 152.680193 
L 533.109122 156.602107 
L 534.41534 161.188905 
L 534.707029 162.944262 
L 534.71144 164.680684 
L 534.526777 165.950255 
L 533.975907 167.640053 
L 533.364841 168.847934 
L 532.306605 170.37085 
L 530.653251 172.195362 
L 528.29375 174.469284 
L 524.247709 178.350003 
L 519.372547 183.248103 
L 515.961122 186.93744 
L 514.098673 189.160802 
L 512.401273 191.507069 
L 510.4639 194.579503 
L 508.670877 197.809929 
L 505.961459 203.258899 
L 497.202863 220.964283 
L 494.034127 226.240193 
L 484.701384 240.737343 
L 474.653876 255.9648 
L 469.573826 263.384397 
L 460.51852 276.542684 
L 455.673491 284.048811 
L 452.661729 289.160418 
L 448.919321 296.077603 
L 445.85951 302.212155 
L 442.043467 310.213433 
L 436.265686 322.738394 
L 433.307539 328.906269 
L 430.977967 333.160659 
L 428.934993 336.451962 
L 426.163953 340.434684 
L 422.62236 345.002819 
L 418.903026 349.469379 
L 415.014706 353.822704 
L 405.520984 363.786521 
L 394.416393 375.27353 
L 359.396351 410.472388 
L 348.26931 422.08448 
L 341.738494 429.011621 
L 336.7834 434.711403 
L 332.856687 439.230701 
L 331.278828 440.620525 
L 329.746072 441.560972 
L 328.614147 441.995777 
L 327.475543 442.235195 
L 326.374803 442.242531 
L 325.34319 442.08061 
L 324.055519 441.602907 
L 323.158473 441.059571 
L 322.06634 440.078471 
L 321.351965 439.172961 
L 320.58249 437.740314 
L 320.014181 436.088637 
L 319.515297 433.792292 
L 318.464052 426.957938 
L 316.947364 416.685844 
L 316.093127 412.920987 
L 315.222553 410.118739 
L 315.222553 410.118739 
" clip-path="url(#pffcef1dc6f)" style="fill: none; stroke: #000000; stroke-width: 2; stroke-linecap: square"/>
   </g>
   <g id="line2d_22">
    <path d="M 317.106044 415.228015 
L 317.101429 413.734535 
L 316.674331 411.295084 
L 316.117548 409.045555 
L 314.73263 405.005797 
L 311.694705 397.807121 
L 310.827425 396.205863 
L 308.720288 392.373387 
L 307.745498 390.656993 
L 302.903146 382.848066 
L 299.382561 378.094881 
L 296.171825 374.12311 
L 293.19244 370.809627 
L 289.971341 367.59419 
L 286.438117 364.407264 
L 283.337391 361.806202 
L 278.738549 358.225177 
L 275.918479 356.351591 
L 273.0012 354.629376 
L 269.259644 352.627799 
L 263.846511 349.985537 
L 252.848022 344.96821 
L 250.810732 344.034903 
L 246.791971 342.038872 
L 243.684029 340.12001 
L 239.731413 337.238805 
L 237.679628 335.532018 
L 234.491043 332.511975 
L 232.363091 330.291684 
L 230.353534 327.572242 
L 229.104633 325.655431 
L 226.427 320.97754 
L 224.996995 318.071982 
L 223.652932 314.903134 
L 222.977348 312.8995 
L 222.046702 309.290841 
L 221.634172 306.910623 
L 222.075711 305.396712 
L 222.1155 304.024153 
L 222.351764 303.536093 
L 222.460492 301.931851 
L 222.654543 299.266395 
L 222.761577 298.815399 
L 223.060512 296.078261 
L 223.787702 295.216234 
L 223.847458 294.351377 
L 224.521203 292.70761 
L 225.859478 288.017985 
L 226.234543 286.987245 
L 226.738174 286.333988 
L 229.37084 280.205548 
L 230.476317 278.310949 
L 232.327953 275.641366 
L 234.30401 273.09253 
L 239.562752 267.633928 
L 242.863566 264.889555 
L 246.352611 262.304213 
L 248.093075 261.302632 
L 249.885689 260.313302 
L 252.490996 259.09871 
L 255.083824 258.063244 
L 258.583025 256.90172 
L 261.9624 256.079461 
L 265.319864 255.498427 
L 272.10585 254.72955 
L 278.932433 253.998889 
L 284.146022 253.154674 
L 289.200014 252.08016 
L 293.403185 250.91152 
L 299.001032 249.194252 
L 303.924929 247.401394 
L 307.467561 245.795921 
L 310.937285 243.972123 
L 315.801936 240.975866 
L 320.314772 237.639754 
L 334.109408 226.63719 
L 336.995259 223.997804 
L 339.321453 221.61401 
L 341.985826 218.540611 
L 344.017232 215.748167 
L 345.146435 214.025202 
L 347.276495 210.248701 
L 349.330566 206.341152 
L 354.425143 195.992049 
L 355.80225 192.430112 
L 356.730706 189.551878 
L 358.485184 183.012701 
L 359.576259 178.020411 
L 360.609689 173.038302 
L 362.012231 167.443597 
L 362.407324 165.074197 
L 362.543413 163.247155 
L 362.467094 160.797333 
L 362.102392 158.374416 
L 358.331623 140.200077 
L 357.081959 135.800702 
L 355.134404 130.104148 
L 352.167516 122.323064 
L 345.867021 106.210714 
L 336.026578 80.906931 
L 335.232458 78.274177 
L 334.897022 76.684551 
L 334.686611 75.067001 
L 334.619746 72.865223 
L 334.736667 71.192268 
L 334.973734 69.526539 
L 335.768109 66.160128 
L 336.503521 63.938951 
L 337.651203 61.225608 
L 338.794878 59.120538 
L 339.801479 57.638614 
L 341.293127 55.863861 
L 342.932411 54.183162 
L 345.23607 52.224687 
L 347.28611 50.768942 
L 349.453486 49.55779 
L 351.814702 48.524409 
L 353.692181 47.900041 
L 356.285889 47.316943 
L 358.997948 46.965863 
L 361.834105 46.876905 
L 364.688871 47.098869 
L 367.589095 47.549127 
L 369.754253 48.058341 
L 372.637673 48.958616 
L 376.242461 50.313079 
L 396.499301 58.13684 
L 403.374988 60.776799 
L 442.157328 76.020599 
L 451.741096 80.052513 
L 454.468381 80.978045 
L 457.169454 81.63882 
L 459.887309 82.0823 
L 462.604696 82.250096 
L 464.582209 82.25691 
L 466.640044 82.121742 
L 468.706672 81.748193 
L 470.78814 81.163062 
L 472.825569 80.414881 
L 474.803341 79.498895 
L 476.704937 78.409794 
L 479.192887 76.618596 
L 481.519094 74.591077 
L 484.276682 71.813039 
L 486.931187 68.833557 
L 495.91839 58.490609 
L 498.723445 55.926247 
L 500.067372 54.851713 
L 501.885911 53.687114 
L 503.290092 53.049641 
L 504.761645 52.552888 
L 506.280039 52.26348 
L 507.824887 52.164426 
L 509.315978 52.258936 
L 511.339159 52.554019 
L 513.844227 53.179585 
L 515.816864 53.862551 
L 517.196821 54.562153 
L 518.494347 55.452452 
L 519.988856 56.878655 
L 521.191743 58.364332 
L 522.181755 59.995321 
L 523.002042 61.732509 
L 523.561014 63.548381 
L 523.970034 66.012975 
L 524.015195 67.532196 
L 523.809996 70.813165 
L 523.320288 74.218566 
L 522.214367 80.977607 
L 519.593519 95.586244 
L 519.184068 99.081513 
L 519.045504 102.486861 
L 519.135138 105.157859 
L 519.514815 109.212936 
L 521.134201 117.283447 
L 522.051951 120.605182 
L 523.298136 124.5269 
L 524.187431 127.009288 
L 525.116187 129.273806 
L 528.16846 136.512628 
L 528.506071 138.26405 
L 528.580956 139.591766 
L 528.48008 140.912388 
L 528.065213 142.683347 
L 527.522911 143.919057 
L 526.85604 145.14193 
L 525.753792 146.743318 
L 519.174143 155.194769 
L 517.03191 157.977453 
L 514.108424 162.014975 
L 511.762495 165.646475 
L 510.073177 168.84095 
L 508.608633 172.167659 
L 507.293937 175.648158 
L 504.189345 185.165598 
L 500.127372 197.748533 
L 498.514549 201.785728 
L 496.370604 206.612929 
L 490.385982 219.720149 
L 488.116715 224.708935 
L 479.153272 243.766917 
L 473.382695 255.286132 
L 469.179261 264.147061 
L 466.809398 269.567442 
L 464.68424 275.065637 
L 461.464773 284.311246 
L 458.704591 292.795291 
L 455.11589 304.189927 
L 451.875009 314.47878 
L 450.138188 319.061294 
L 448.563367 322.628361 
L 446.376418 326.928255 
L 443.489497 331.954511 
L 439.479976 338.463721 
L 436.763641 342.504089 
L 430.565927 351.288324 
L 418.963366 367.380075 
L 405.647568 385.155232 
L 392.031299 403.832546 
L 375.209664 427.702146 
L 367.626732 439.206395 
L 365.939942 440.800532 
L 365.257782 441.268487 
L 364.170258 441.805392 
L 363.093335 442.13445 
L 362.365523 442.218 
L 360.938842 442.088603 
L 359.528839 441.671288 
L 358.556672 441.09917 
L 357.649033 440.340529 
L 356.855541 439.417298 
L 356.171574 438.337335 
L 355.57358 437.121519 
L 354.774582 434.904672 
L 353.536813 430.316777 
L 349.971198 416.735884 
L 349.088231 413.905376 
L 347.771252 410.779165 
L 347.538487 410.322871 
L 347.538487 410.322871 
" clip-path="url(#pffcef1dc6f)" style="fill: none; stroke-dasharray: 5.55,2.4; stroke-dashoffset: 0; stroke: #ff0000; stroke-width: 1.5"/>
   </g>
   <g id="line2d_23">
    <path d="M 317.106044 415.228015 
L 317.070386 413.498342 
L 316.802622 412.178159 
L 316.278675 410.418886 
L 314.8187 406.927386 
L 311.17876 399.813394 
L 309.349298 396.817005 
L 301.548605 385.071421 
L 297.46427 379.887142 
L 294.633255 376.507804 
L 291.662541 373.232922 
L 288.503611 370.049985 
L 285.030748 366.86233 
L 281.351941 363.731282 
L 277.509888 360.60566 
L 274.073282 358.163516 
L 270.473179 355.912327 
L 265.253116 353.048549 
L 260.631 350.672872 
L 244.660316 342.537223 
L 241.044918 340.061073 
L 237.792036 337.468776 
L 234.880196 334.778297 
L 232.308472 332.078064 
L 230.004136 329.302248 
L 227.924287 325.986798 
L 226.228316 322.908807 
L 224.580418 319.56722 
L 223.018595 315.851747 
L 222.319041 313.838414 
L 221.236849 309.603887 
L 220.888084 307.291421 
L 221.603725 303.138541 
L 222.024151 298.877918 
L 222.387211 296.601285 
L 223.261215 294.856735 
L 223.742469 293.125375 
L 224.367641 291.324475 
L 224.810536 289.580696 
L 225.497057 287.704628 
L 226.410184 286.038091 
L 229.156234 279.957953 
L 230.293305 278.081591 
L 232.839423 274.576712 
L 234.199256 272.918788 
L 238.722946 268.238291 
L 240.314996 266.853562 
L 245.487625 262.846103 
L 249.032713 260.73784 
L 252.526906 259.09004 
L 256.016279 257.759191 
L 259.46476 256.699815 
L 262.85964 255.942293 
L 266.953281 255.344955 
L 273.562072 254.643872 
L 279.640445 253.959661 
L 283.558324 253.331387 
L 289.248988 252.134423 
L 292.825573 251.143315 
L 298.424568 249.440852 
L 302.129722 248.137217 
L 305.747479 246.663439 
L 309.286669 244.912332 
L 312.651496 243.01974 
L 315.833409 240.996033 
L 318.844183 238.827192 
L 332.602055 227.920995 
L 335.575423 225.318316 
L 338.39669 222.576683 
L 341.108542 219.560865 
L 342.409684 217.961731 
L 344.793989 214.572294 
L 346.909966 210.888043 
L 350.0062 204.966156 
L 354.091518 196.661679 
L 355.775748 192.397751 
L 357.124188 188.043793 
L 358.28416 183.69343 
L 359.684642 177.245315 
L 360.578553 173.004677 
L 361.98208 167.410207 
L 362.306413 165.621871 
L 362.492939 163.809904 
L 362.514547 162.012904 
L 362.373324 160.150373 
L 361.670889 156.438973 
L 360.014531 148.31713 
L 358.675709 141.637439 
L 357.522768 137.199398 
L 355.405286 130.778454 
L 352.185602 122.277173 
L 345.644184 105.495004 
L 342.69181 97.737305 
L 336.238159 81.356125 
L 335.525903 79.265147 
L 335.014303 77.159092 
L 334.7066 75.017842 
L 334.634123 72.816056 
L 334.805043 70.566433 
L 335.597593 66.663489 
L 336.696046 63.33338 
L 337.374153 61.694 
L 338.171665 60.077125 
L 339.078219 58.542332 
L 340.123189 57.093828 
L 342.436397 54.513738 
L 345.159583 52.119526 
L 346.678042 50.996058 
L 348.263073 50.025443 
L 349.923443 49.147733 
L 351.714508 48.37571 
L 353.587846 47.738532 
L 355.520579 47.270801 
L 357.509658 46.921393 
L 359.587545 46.720372 
L 361.723133 46.66 
L 363.880076 46.778377 
L 366.010992 47.041233 
L 368.206496 47.434194 
L 370.377617 47.992393 
L 374.695248 49.463216 
L 393.071314 56.480916 
L 413.932674 64.798056 
L 436.631768 74.233361 
L 445.578336 78.410304 
L 451.789203 81.313551 
L 453.789011 82.084001 
L 455.770203 82.70567 
L 457.772736 83.209391 
L 459.823097 83.597419 
L 463.814998 83.94663 
L 465.877464 83.943574 
L 467.964488 83.707393 
L 470.081226 83.265317 
L 472.166372 82.661745 
L 474.205299 81.890588 
L 476.182536 80.945045 
L 478.172309 79.767114 
L 480.040573 78.457726 
L 483.658304 75.500747 
L 487.152041 72.220787 
L 495.439531 64.131769 
L 498.601247 61.528205 
L 501.531004 59.523129 
L 503.45854 58.548044 
L 504.921013 58.057155 
L 506.436694 57.714742 
L 507.977843 57.584754 
L 508.987553 57.621306 
L 510.490656 57.800614 
L 511.987005 58.136589 
L 513.956967 58.727778 
L 515.893739 59.501988 
L 517.754097 60.435816 
L 519.020071 61.346293 
L 520.136891 62.423001 
L 521.135315 63.61924 
L 521.960828 64.820978 
L 522.592441 66.058106 
L 523.348255 67.849756 
L 523.753724 69.219169 
L 524.021996 70.615821 
L 524.16892 72.095039 
L 524.182101 73.601858 
L 523.960307 75.69246 
L 523.586757 77.872316 
L 522.214841 83.551761 
L 519.742594 92.948576 
L 518.097491 98.882864 
L 517.14738 102.899227 
L 516.444784 107.002905 
L 516.220655 109.04 
L 516.093209 113.076801 
L 516.138744 115.099915 
L 516.498667 119.156763 
L 517.070785 123.276258 
L 518.328149 129.363127 
L 519.392004 133.235521 
L 520.578101 136.722917 
L 522.68252 142.251185 
L 523.144656 144.003917 
L 523.330336 145.321623 
L 523.293776 147.537882 
L 522.915063 149.287298 
L 522.603114 150.158406 
L 522.003103 151.384377 
L 521.282419 152.578166 
L 518.786237 155.898202 
L 514.334859 161.763893 
L 511.853268 165.134125 
L 509.416702 168.654298 
L 507.133304 172.298452 
L 506.094643 174.206506 
L 504.325033 178.177359 
L 502.806392 182.349211 
L 500.144498 191.132728 
L 496.203353 204.506718 
L 495.045238 207.749858 
L 493.056897 212.633914 
L 483.491681 234.121069 
L 478.617615 244.438681 
L 475.105063 251.401746 
L 467.516422 265.290664 
L 461.004272 277.431255 
L 457.592609 284.492045 
L 443.296817 314.887155 
L 441.541817 318.419823 
L 438.687641 323.55966 
L 436.599505 326.854874 
L 433.225355 331.544853 
L 428.412796 337.547105 
L 423.360566 343.408428 
L 415.324494 351.971712 
L 403.015806 364.888948 
L 393.010596 374.931542 
L 383.060301 384.973531 
L 378.837711 389.374861 
L 370.563218 398.135484 
L 363.85136 405.579121 
L 357.37018 413.114162 
L 353.687437 417.68556 
L 350.463802 422.06005 
L 348.071248 425.663346 
L 345.652246 429.55918 
L 343.620858 432.806294 
L 342.703651 434.083217 
L 341.198167 435.702542 
L 339.85088 436.627419 
L 338.48401 437.258041 
L 337.061562 437.472288 
L 335.583546 437.4679 
L 334.13144 437.11438 
L 332.704875 436.437235 
L 331.351787 435.439439 
L 330.703248 434.836103 
L 329.791336 433.824285 
L 328.633734 432.308511 
L 326.327706 428.786568 
L 323.328219 423.768975 
L 320.678542 418.751153 
L 316.371567 409.725621 
L 316.371567 409.725621 
" clip-path="url(#pffcef1dc6f)" style="fill: none; stroke-dasharray: 9.6,2.4,1.5,2.4; stroke-dashoffset: 0; stroke: #0000ff; stroke-width: 1.5"/>
   </g>
   <g id="patch_3">
    <path d="M 50.87 462.04 
L 50.87 26.88 
" style="fill: none; stroke: #000000; stroke-width: 0.8; stroke-linejoin: miter; stroke-linecap: square"/>
   </g>
   <g id="patch_4">
    <path d="M 709.2 462.04 
L 709.2 26.88 
" style="fill: none; stroke: #000000; stroke-width: 0.8; stroke-linejoin: miter; stroke-linecap: square"/>
   </g>
   <g id="patch_5">
    <path d="M 50.87 462.04 
L 709.2 462.04 
" style="fill: none; stroke: #000000; stroke-width: 0.8; stroke-linejoin: miter; stroke-linecap: square"/>
   </g>
   <g id="patch_6">
    <path d="M 50.87 26.88 
L 709.2 26.88 
" style="fill: none; stroke: #000000; stroke-width: 0.8; stroke-linejoin: miter; stroke-linecap: square"/>
   </g>
   <g id="text_13">
    <!-- KITTI 09: Ground Truth vs Estimated Trajectory (Top-down X-Z) -->
    <g transform="translate(193.3 20.88) scale(0.12 -0.12)">
     <defs>
      <path id="DejaVuSans-4b" d="M 628 4666 
L 1259 4666 
L 1259 2694 
L 3353 4666 
L 4166 4666 
L 1850 2491 
L 4331 0 
L 3500 0 
L 1259 2247 
L 1259 0 
L 628 0 
L 628 4666 
z
" transform="scale(0.015625)"/>
      <path id="DejaVuSans-49" d="M 628 4666 
L 1259 4666 
L 1259 0 
L 628 0 
L 628 4666 
z
" transform="scale(0.015625)"/>
      <path id="DejaVuSans-54" d="M -19 4666 
L 3928 4666 
L 3928 4134 
L 2272 4134 
L 2272 0 
L 1638 0 
L 1638 4134 
L -19 4134 
L -19 4666 
z
" transform="scale(0.015625)"/>
      <path id="DejaVuSans-39" d="M 703 97 
L 703 672 
Q 941 559 1184 500 
Q 1428 441 1663 441 
Q 2288 441 2617 861 
Q 2947 1281 2994 2138 
Q 2813 1869 2534 1725 
Q 2256 1581 1919 1581 
Q 1219 1581 811 2004 
Q 403 2428 403 3163 
Q 403 3881 828 4315 
Q 1253 4750 1959 4750 
Q 2769 4750 3195 4129 
Q 3622 3509 3622 2328 
Q 3622 1225 3098 567 
Q 2575 -91 1691 -91 
Q 1453 -91 1209 -44 
Q 966 3 703 97 
z
M 1959 2075 
Q 2384 2075 2632 2365 
Q 2881 2656 2881 3163 
Q 2881 3666 2632 3958 
Q 2384 4250 1959 4250 
Q 1534 4250 1286 3958 
Q 1038 3666 1038 3163 
Q 1038 2656 1286 2365 
Q 1534 2075 1959 2075 
z
" transform="scale(0.015625)"/>
      <path id="DejaVuSans-3a" d="M 750 794 
L 1409 794 
L 1409 0 
L 750 0 
L 750 794 
z
M 750 3309 
L 1409 3309 
L 1409 2516 
L 750 2516 
L 750 3309 
z
" transform="scale(0.015625)"/>
      <path id="DejaVuSans-47" d="M 3809 666 
L 3809 1919 
L 2778 1919 
L 2778 2438 
L 4434 2438 
L 4434 434 
Q 4069 175 3628 42 
Q 3188 -91 2688 -91 
Q 1594 -91 976 548 
Q 359 1188 359 2328 
Q 359 3472 976 4111 
Q 1594 4750 2688 4750 
Q 3144 4750 3555 4637 
Q 3966 4525 4313 4306 
L 4313 3634 
Q 3963 3931 3569 4081 
Q 3175 4231 2741 4231 
Q 1884 4231 1454 3753 
Q 1025 3275 1025 2328 
Q 1025 1384 1454 906 
Q 1884 428 2741 428 
Q 3075 428 3337 486 
Q 3600 544 3809 666 
z
" transform="scale(0.015625)"/>
      <path id="DejaVuSans-72" d="M 2631 2963 
Q 2534 3019 2420 3045 
Q 2306 3072 2169 3072 
Q 1681 3072 1420 2755 
Q 1159 2438 1159 1844 
L 1159 0 
L 581 0 
L 581 3500 
L 1159 3500 
L 1159 2956 
Q 1341 3275 1631 3429 
Q 1922 3584 2338 3584 
Q 2397 3584 2469 3576 
Q 2541 3569 2628 3553 
L 2631 2963 
z
" transform="scale(0.015625)"/>
      <path id="DejaVuSans-6f" d="M 1959 3097 
Q 1497 3097 1228 2736 
Q 959 2375 959 1747 
Q 959 1119 1226 758 
Q 1494 397 1959 397 
Q 2419 397 2687 759 
Q 2956 1122 2956 1747 
Q 2956 2369 2687 2733 
Q 2419 3097 1959 3097 
z
M 1959 3584 
Q 2709 3584 3137 3096 
Q 3566 2609 3566 1747 
Q 3566 888 3137 398 
Q 2709 -91 1959 -91 
Q 1206 -91 779 398 
Q 353 888 353 1747 
Q 353 2609 779 3096 
Q 1206 3584 1959 3584 
z
" transform="scale(0.015625)"/>
      <path id="DejaVuSans-75" d="M 544 1381 
L 544 3500 
L 1119 3500 
L 1119 1403 
Q 1119 906 1312 657 
Q 1506 409 1894 409 
Q 2359 409 2629 706 
Q 2900 1003 2900 1516 
L 2900 3500 
L 3475 3500 
L 3475 0 
L 2900 0 
L 2900 538 
Q 2691 219 2414 64 
Q 2138 -91 1772 -91 
Q 1169 -91 856 284 
Q 544 659 544 1381 
z
M 1991 3584 
L 1991 3584 
z
" transform="scale(0.015625)"/>
      <path id="DejaVuSans-6e" d="M 3513 2113 
L 3513 0 
L 2938 0 
L 2938 2094 
Q 2938 2591 2744 2837 
Q 2550 3084 2163 3084 
Q 1697 3084 1428 2787 
Q 1159 2491 1159 1978 
L 1159 0 
L 581 0 
L 581 3500 
L 1159 3500 
L 1159 2956 
Q 1366 3272 1645 3428 
Q 1925 3584 2291 3584 
Q 2894 3584 3203 3211 
Q 3513 2838 3513 2113 
z
" transform="scale(0.015625)"/>
      <path id="DejaVuSans-64" d="M 2906 2969 
L 2906 4863 
L 3481 4863 
L 3481 0 
L 2906 0 
L 2906 525 
Q 2725 213 2448 61 
Q 2172 -91 1784 -91 
Q 1150 -91 751 415 
Q 353 922 353 1747 
Q 353 2572 751 3078 
Q 1150 3584 1784 3584 
Q 2172 3584 2448 3432 
Q 2725 3281 2906 2969 
z
M 947 1747 
Q 947 1113 1208 752 
Q 1469 391 1925 391 
Q 2381 391 2643 752 
Q 2906 1113 2906 1747 
Q 2906 2381 2643 2742 
Q 2381 3103 1925 3103 
Q 1469 3103 1208 2742 
Q 947 2381 947 1747 
z
" transform="scale(0.015625)"/>
      <path id="DejaVuSans-74" d="M 1172 4494 
L 1172 3500 
L 2356 3500 
L 2356 3053 
L 1172 3053 
L 1172 1153 
Q 1172 725 1289 603 
Q 1406 481 1766 481 
L 2356 481 
L 2356 0 
L 1766 0 
Q 1100 0 847 248 
Q 594 497 594 1153 
L 594 3053 
L 172 3053 
L 172 3500 
L 594 3500 
L 594 4494 
L 1172 4494 
z
" transform="scale(0.015625)"/>
      <path id="DejaVuSans-68" d="M 3513 2113 
L 3513 0 
L 2938 0 
L 2938 2094 
Q 2938 2591 2744 2837 
Q 2550 3084 2163 3084 
Q 1697 3084 1428 2787 
Q 1159 2491 1159 1978 
L 1159 0 
L 581 0 
L 581 4863 
L 1159 4863 
L 1159 2956 
Q 1366 3272 1645 3428 
Q 1925 3584 2291 3584 
Q 2894 3584 3203 3211 
Q 3513 2838 3513 2113 
z
" transform="scale(0.015625)"/>
      <path id="DejaVuSans-76" d="M 191 3500 
L 800 3500 
L 1894 563 
L 2988 3500 
L 3597 3500 
L 2284 0 
L 1503 0 
L 191 3500 
z
" transform="scale(0.015625)"/>
      <path id="DejaVuSans-73" d="M 2834 3397 
L 2834 2853 
Q 2591 2978 2328 3040 
Q 2066 3103 1784 3103 
Q 1356 3103 1142 2972 
Q 928 2841 928 2578 
Q 928 2378 1081 2264 
Q 1234 2150 1697 2047 
L 1894 2003 
Q 2506 1872 2764 1633 
Q 3022 1394 3022 966 
Q 3022 478 2636 193 
Q 2250 -91 1575 -91 
Q 1294 -91 989 -36 
Q 684 19 347 128 
L 347 722 
Q 666 556 975 473 
Q 1284 391 1588 391 
Q 1994 391 2212 530 
Q 2431 669 2431 922 
Q 2431 1156 2273 1281 
Q 2116 1406 1581 1522 
L 1381 1569 
Q 847 1681 609 1914 
Q 372 2147 372 2553 
Q 372 3047 722 3315 
Q 1072 3584 1716 3584 
Q 2034 3584 2315 3537 
Q 2597 3491 2834 3397 
z
" transform="scale(0.015625)"/>
      <path id="DejaVuSans-45" d="M 628 4666 
L 3578 4666 
L 3578 4134 
L 1259 4134 
L 1259 2753 
L 3481 2753 
L 3481 2222 
L 1259 2222 
L 1259 531 
L 3634 531 
L 3634 0 
L 628 0 
L 628 4666 
z
" transform="scale(0.015625)"/>
      <path id="DejaVuSans-69" d="M 603 3500 
L 1178 3500 
L 1178 0 
L 603 0 
L 603 3500 
z
M 603 4863 
L 1178 4863 
L 1178 4134 
L 603 4134 
L 603 4863 
z
" transform="scale(0.015625)"/>
      <path id="DejaVuSans-61" d="M 2194 1759 
Q 1497 1759 1228 1600 
Q 959 1441 959 1056 
Q 959 750 1161 570 
Q 1363 391 1709 391 
Q 2188 391 2477 730 
Q 2766 1069 2766 1631 
L 2766 1759 
L 2194 1759 
z
M 3341 1997 
L 3341 0 
L 2766 0 
L 2766 531 
Q 2569 213 2275 61 
Q 1981 -91 1556 -91 
Q 1019 -91 701 211 
Q 384 513 384 1019 
Q 384 1609 779 1909 
Q 1175 2209 1959 2209 
L 2766 2209 
L 2766 2266 
Q 2766 2663 2505 2880 
Q 2244 3097 1772 3097 
Q 1472 3097 1187 3025 
Q 903 2953 641 2809 
L 641 3341 
Q 956 3463 1253 3523 
Q 1550 3584 1831 3584 
Q 2591 3584 2966 3190 
Q 3341 2797 3341 1997 
z
" transform="scale(0.015625)"/>
      <path id="DejaVuSans-65" d="M 3597 1894 
L 3597 1613 
L 953 1613 
Q 991 1019 1311 708 
Q 1631 397 2203 397 
Q 2534 397 2845 478 
Q 3156 559 3463 722 
L 3463 178 
Q 3153 47 2828 -22 
Q 2503 -91 2169 -91 
Q 1331 -91 842 396 
Q 353 884 353 1716 
Q 353 2575 817 3079 
Q 1281 3584 2069 3584 
Q 2775 3584 3186 3129 
Q 3597 2675 3597 1894 
z
M 3022 2063 
Q 3016 2534 2758 2815 
Q 2500 3097 2075 3097 
Q 1594 3097 1305 2825 
Q 1016 2553 972 2059 
L 3022 2063 
z
" transform="scale(0.015625)"/>
      <path id="DejaVuSans-6a" d="M 603 3500 
L 1178 3500 
L 1178 -63 
Q 1178 -731 923 -1031 
Q 669 -1331 103 -1331 
L -116 -1331 
L -116 -844 
L 38 -844 
Q 366 -844 484 -692 
Q 603 -541 603 -63 
L 603 3500 
z
M 603 4863 
L 1178 4863 
L 1178 4134 
L 603 4134 
L 603 4863 
z
" transform="scale(0.015625)"/>
      <path id="DejaVuSans-63" d="M 3122 3366 
L 3122 2828 
Q 2878 2963 2633 3030 
Q 2388 3097 2138 3097 
Q 1578 3097 1268 2742 
Q 959 2388 959 1747 
Q 959 1106 1268 751 
Q 1578 397 2138 397 
Q 2388 397 2633 464 
Q 2878 531 3122 666 
L 3122 134 
Q 2881 22 2623 -34 
Q 2366 -91 2075 -91 
Q 1284 -91 818 406 
Q 353 903 353 1747 
Q 353 2603 823 3093 
Q 1294 3584 2113 3584 
Q 2378 3584 2631 3529 
Q 2884 3475 3122 3366 
z
" transform="scale(0.015625)"/>
      <path id="DejaVuSans-79" d="M 2059 -325 
Q 1816 -950 1584 -1140 
Q 1353 -1331 966 -1331 
L 506 -1331 
L 506 -850 
L 844 -850 
Q 1081 -850 1212 -737 
Q 1344 -625 1503 -206 
L 1606 56 
L 191 3500 
L 800 3500 
L 1894 763 
L 2988 3500 
L 3597 3500 
L 2059 -325 
z
" transform="scale(0.015625)"/>
      <path id="DejaVuSans-70" d="M 1159 525 
L 1159 -1331 
L 581 -1331 
L 581 3500 
L 1159 3500 
L 1159 2969 
Q 1341 3281 1617 3432 
Q 1894 3584 2278 3584 
Q 2916 3584 3314 3078 
Q 3713 2572 3713 1747 
Q 3713 922 3314 415 
Q 2916 -91 2278 -91 
Q 1894 -91 1617 61 
Q 1341 213 1159 525 
z
M 3116 1747 
Q 3116 2381 2855 2742 
Q 2594 3103 2138 3103 
Q 1681 3103 1420 2742 
Q 1159 2381 1159 1747 
Q 1159 1113 1420 752 
Q 1681 391 2138 391 
Q 2594 391 2855 752 
Q 3116 1113 3116 1747 
z
" transform="scale(0.015625)"/>
      <path id="DejaVuSans-2d" d="M 313 2009 
L 1997 2009 
L 1997 1497 
L 313 1497 
L 313 2009 
z
" transform="scale(0.015625)"/>
      <path id="DejaVuSans-77" d="M 269 3500 
L 844 3500 
L 1563 769 
L 2278 3500 
L 2956 3500 
L 3675 769 
L 4391 3500 
L 4966 3500 
L 4050 0 
L 3372 0 
L 2619 2869 
L 1863 0 
L 1184 0 
L 269 3500 
z
" transform="scale(0.015625)"/>
     </defs>
     <use xlink:href="#DejaVuSans-4b"/>
     <use xlink:href="#DejaVuSans-49" transform="translate(65.576172 0)"/>
     <use xlink:href="#DejaVuSans-54" transform="translate(95.068359 0)"/>
     <use xlink:href="#DejaVuSans-54" transform="translate(154.402344 0)"/>
     <use xlink:href="#DejaVuSans-49" transform="translate(215.486328 0)"/>
     <use xlink:href="#DejaVuSans-20" transform="translate(244.978516 0)"/>
     <use xlink:href="#DejaVuSans-30" transform="translate(276.765625 0)"/>
     <use xlink:href="#DejaVuSans-39" transform="translate(340.388672 0)"/>
     <use xlink:href="#DejaVuSans-3a" transform="translate(404.011719 0)"/>
     <use xlink:href="#DejaVuSans-20" transform="translate(437.703125 0)"/>
     <use xlink:href="#DejaVuSans-47" transform="translate(469.490234 0)"/>
     <use xlink:href="#DejaVuSans-72" transform="translate(546.980469 0)"/>
     <use xlink:href="#DejaVuSans-6f" transform="translate(585.84375 0)"/>
     <use xlink:href="#DejaVuSans-75" transform="translate(647.025391 0)"/>
     <use xlink:href="#DejaVuSans-6e" transform="translate(710.404297 0)"/>
     <use xlink:href="#DejaVuSans-64" transform="translate(773.783203 0)"/>
     <use xlink:href="#DejaVuSans-20" transform="translate(837.259766 0)"/>
     <use xlink:href="#DejaVuSans-54" transform="translate(869.046875 0)"/>
     <use xlink:href="#DejaVuSans-72" transform="translate(915.380859 0)"/>
     <use xlink:href="#DejaVuSans-75" transform="translate(956.494141 0)"/>
     <use xlink:href="#DejaVuSans-74" transform="translate(1019.873047 0)"/>
     <use xlink:href="#DejaVuSans-68" transform="translate(1059.082031 0)"/>
     <use xlink:href="#DejaVuSans-20" transform="translate(1122.460938 0)"/>
     <use xlink:href="#DejaVuSans-76" transform="translate(1154.248047 0)"/>
     <use xlink:href="#DejaVuSans-73" transform="translate(1213.427734 0)"/>
     <use xlink:href="#DejaVuSans-20" transform="translate(1265.527344 0)"/>
     <use xlink:href="#DejaVuSans-45" transform="translate(1297.314453 0)"/>
     <use xlink:href="#DejaVuSans-73" transform="translate(1360.498047 0)"/>
     <use xlink:href="#DejaVuSans-74" transform="translate(1412.597656 0)"/>
     <use xlink:href="#DejaVuSans-69" transform="translate(1451.806641 0)"/>
     <use xlink:href="#DejaVuSans-6d" transform="translate(1479.589844 0)"/>
     <use xlink:href="#DejaVuSans-61" transform="translate(1577.001953 0)"/>
     <use xlink:href="#DejaVuSans-74" transform="translate(1638.28125 0)"/>
     <use xlink:href="#DejaVuSans-65" transform="translate(1677.490234 0)"/>
     <use xlink:href="#DejaVuSans-64" transform="translate(1739.013672 0)"/>
     <use xlink:href="#DejaVuSans-20" transform="translate(1802.490234 0)"/>
     <use xlink:href="#DejaVuSans-54" transform="translate(1834.277344 0)"/>
     <use xlink:href="#DejaVuSans-72" transform="translate(1880.611328 0)"/>
     <use xlink:href="#DejaVuSans-61" transform="translate(1921.724609 0)"/>
     <use xlink:href="#DejaVuSans-6a" transform="translate(1983.003906 0)"/>
     <use xlink:href="#DejaVuSans-65" transform="translate(2010.787109 0)"/>
     <use xlink:href="#DejaVuSans-63" transform="translate(2072.310547 0)"/>
     <use xlink:href="#DejaVuSans-74" transform="translate(2127.291016 0)"/>
     <use xlink:href="#DejaVuSans-6f" transform="translate(2166.5 0)"/>
     <use xlink:href="#DejaVuSans-72" transform="translate(2227.681641 0)"/>
     <use xlink:href="#DejaVuSans-79" transform="translate(2268.794922 0)"/>
     <use xlink:href="#DejaVuSans-20" transform="translate(2327.974609 0)"/>
     <use xlink:href="#DejaVuSans-28" transform="translate(2359.761719 0)"/>
     <use xlink:href="#DejaVuSans-54" transform="translate(2398.775391 0)"/>
     <use xlink:href="#DejaVuSans-6f" transform="translate(2442.859375 0)"/>
     <use xlink:href="#DejaVuSans-70" transform="translate(2504.041016 0)"/>
     <use xlink:href="#DejaVuSans-2d" transform="translate(2567.517578 0)"/>
     <use xlink:href="#DejaVuSans-64" transform="translate(2603.601562 0)"/>
     <use xlink:href="#DejaVuSans-6f" transform="translate(2667.078125 0)"/>
     <use xlink:href="#DejaVuSans-77" transform="translate(2728.259766 0)"/>
     <use xlink:href="#DejaVuSans-6e" transform="translate(2810.046875 0)"/>
     <use xlink:href="#DejaVuSans-20" transform="translate(2873.425781 0)"/>
     <use xlink:href="#DejaVuSans-58" transform="translate(2905.212891 0)"/>
     <use xlink:href="#DejaVuSans-2d" transform="translate(2968.71875 0)"/>
     <use xlink:href="#DejaVuSans-5a" transform="translate(3004.802734 0)"/>
     <use xlink:href="#DejaVuSans-29" transform="translate(3073.308594 0)"/>
    </g>
   </g>
   <g id="legend_1">
    <g id="patch_7">
     <path d="M 57.87 166.983125 
L 257.746562 166.983125 
Q 259.746562 166.983125 259.746562 164.983125 
L 259.746562 33.88 
Q 259.746562 31.88 257.746562 31.88 
L 57.87 31.88 
Q 55.87 31.88 55.87 33.88 
L 55.87 164.983125 
Q 55.87 166.983125 57.87 166.983125 
z
" style="fill: #ffffff; opacity: 0.8; stroke: #cccccc; stroke-linejoin: miter"/>
    </g>
    <g id="line2d_24">
     <path d="M 59.87 39.978437 
L 69.87 39.978437 
L 79.87 39.978437 
" style="fill: none; stroke: #000000; stroke-width: 2; stroke-linecap: square"/>
    </g>
    <g id="text_14">
     <!-- Ground Truth -->
     <g transform="translate(87.87 43.478437) scale(0.1 -0.1)">
      <use xlink:href="#DejaVuSans-47"/>
      <use xlink:href="#DejaVuSans-72" transform="translate(77.490234 0)"/>
      <use xlink:href="#DejaVuSans-6f" transform="translate(116.353516 0)"/>
      <use xlink:href="#DejaVuSans-75" transform="translate(177.535156 0)"/>
      <use xlink:href="#DejaVuSans-6e" transform="translate(240.914062 0)"/>
      <use xlink:href="#DejaVuSans-64" transform="translate(304.292969 0)"/>
      <use xlink:href="#DejaVuSans-20" transform="translate(367.769531 0)"/>
      <use xlink:href="#DejaVuSans-54" transform="translate(399.556641 0)"/>
      <use xlink:href="#DejaVuSans-72" transform="translate(445.890625 0)"/>
      <use xlink:href="#DejaVuSans-75" transform="translate(487.003906 0)"/>
      <use xlink:href="#DejaVuSans-74" transform="translate(550.382812 0)"/>
      <use xlink:href="#DejaVuSans-68" transform="translate(589.591797 0)"/>
     </g>
    </g>
    <g id="line2d_25">
     <path d="M 59.87 54.656562 
L 69.87 54.656562 
L 79.87 54.656562 
" style="fill: none; stroke-dasharray: 5.55,2.4; stroke-dashoffset: 0; stroke: #ff0000; stroke-width: 1.5"/>
    </g>
    <g id="text_15">
     <!-- Estimated -->
     <g transform="translate(87.87 58.156562) scale(0.1 -0.1)">
      <use xlink:href="#DejaVuSans-45"/>
      <use xlink:href="#DejaVuSans-73" transform="translate(63.183594 0)"/>
      <use xlink:href="#DejaVuSans-74" transform="translate(115.283203 0)"/>
      <use xlink:href="#DejaVuSans-69" transform="translate(154.492188 0)"/>
      <use xlink:href="#DejaVuSans-6d" transform="translate(182.275391 0)"/>
      <use xlink:href="#DejaVuSans-61" transform="translate(279.6875 0)"/>
      <use xlink:href="#DejaVuSans-74" transform="translate(340.966797 0)"/>
      <use xlink:href="#DejaVuSans-65" transform="translate(380.175781 0)"/>
      <use xlink:href="#DejaVuSans-64" transform="translate(441.699219 0)"/>
     </g>
    </g>
    <g id="line2d_26">
     <path d="M 59.87 69.334687 
L 69.87 69.334687 
L 79.87 69.334687 
" style="fill: none; stroke-dasharray: 9.6,2.4,1.5,2.4; stroke-dashoffset: 0; stroke: #0000ff; stroke-width: 1.5"/>
    </g>
    <g id="text_16">
     <!-- Estimated SLAM Corrected -->
     <g transform="translate(87.87 72.834687) scale(0.1 -0.1)">
      <defs>
       <path id="DejaVuSans-53" d="M 3425 4513 
L 3425 3897 
Q 3066 4069 2747 4153 
Q 2428 4238 2131 4238 
Q 1616 4238 1336 4038 
Q 1056 3838 1056 3469 
Q 1056 3159 1242 3001 
Q 1428 2844 1947 2747 
L 2328 2669 
Q 3034 2534 3370 2195 
Q 3706 1856 3706 1288 
Q 3706 609 3251 259 
Q 2797 -91 1919 -91 
Q 1588 -91 1214 -16 
Q 841 59 441 206 
L 441 856 
Q 825 641 1194 531 
Q 1563 422 1919 422 
Q 2459 422 2753 634 
Q 3047 847 3047 1241 
Q 3047 1584 2836 1778 
Q 2625 1972 2144 2069 
L 1759 2144 
Q 1053 2284 737 2584 
Q 422 2884 422 3419 
Q 422 4038 858 4394 
Q 1294 4750 2059 4750 
Q 2388 4750 2728 4690 
Q 3069 4631 3425 4513 
z
" transform="scale(0.015625)"/>
       <path id="DejaVuSans-4c" d="M 628 4666 
L 1259 4666 
L 1259 531 
L 3531 531 
L 3531 0 
L 628 0 
L 628 4666 
z
" transform="scale(0.015625)"/>
       <path id="DejaVuSans-41" d="M 2188 4044 
L 1331 1722 
L 3047 1722 
L 2188 4044 
z
M 1831 4666 
L 2547 4666 
L 4325 0 
L 3669 0 
L 3244 1197 
L 1141 1197 
L 716 0 
L 50 0 
L 1831 4666 
z
" transform="scale(0.015625)"/>
       <path id="DejaVuSans-4d" d="M 628 4666 
L 1569 4666 
L 2759 1491 
L 3956 4666 
L 4897 4666 
L 4897 0 
L 4281 0 
L 4281 4097 
L 3078 897 
L 2444 897 
L 1241 4097 
L 1241 0 
L 628 0 
L 628 4666 
z
" transform="scale(0.015625)"/>
       <path id="DejaVuSans-43" d="M 4122 4306 
L 4122 3641 
Q 3803 3938 3442 4084 
Q 3081 4231 2675 4231 
Q 1875 4231 1450 3742 
Q 1025 3253 1025 2328 
Q 1025 1406 1450 917 
Q 1875 428 2675 428 
Q 3081 428 3442 575 
Q 3803 722 4122 1019 
L 4122 359 
Q 3791 134 3420 21 
Q 3050 -91 2638 -91 
Q 1578 -91 968 557 
Q 359 1206 359 2328 
Q 359 3453 968 4101 
Q 1578 4750 2638 4750 
Q 3056 4750 3426 4639 
Q 3797 4528 4122 4306 
z
" transform="scale(0.015625)"/>
      </defs>
      <use xlink:href="#DejaVuSans-45"/>
      <use xlink:href="#DejaVuSans-73" transform="translate(63.183594 0)"/>
      <use xlink:href="#DejaVuSans-74" transform="translate(115.283203 0)"/>
      <use xlink:href="#DejaVuSans-69" transform="translate(154.492188 0)"/>
      <use xlink:href="#DejaVuSans-6d" transform="translate(182.275391 0)"/>
      <use xlink:href="#DejaVuSans-61" transform="translate(279.6875 0)"/>
      <use xlink:href="#DejaVuSans-74" transform="translate(340.966797 0)"/>
      <use xlink:href="#DejaVuSans-65" transform="translate(380.175781 0)"/>
      <use xlink:href="#DejaVuSans-64" transform="translate(441.699219 0)"/>
      <use xlink:href="#DejaVuSans-20" transform="translate(505.175781 0)"/>
      <use xlink:href="#DejaVuSans-53" transform="translate(536.962891 0)"/>
      <use xlink:href="#DejaVuSans-4c" transform="translate(600.439453 0)"/>
      <use xlink:href="#DejaVuSans-41" transform="translate(658.402344 0)"/>
      <use xlink:href="#DejaVuSans-4d" transform="translate(726.810547 0)"/>
      <use xlink:href="#DejaVuSans-20" transform="translate(813.089844 0)"/>
      <use xlink:href="#DejaVuSans-43" transform="translate(844.876953 0)"/>
      <use xlink:href="#DejaVuSans-6f" transform="translate(914.701172 0)"/>
      <use xlink:href="#DejaVuSans-72" transform="translate(975.882812 0)"/>
      <use xlink:href="#DejaVuSans-72" transform="translate(1015.246094 0)"/>
      <use xlink:href="#DejaVuSans-65" transform="translate(1054.109375 0)"/>
      <use xlink:href="#DejaVuSans-63" transform="translate(1115.632812 0)"/>
      <use xlink:href="#DejaVuSans-74" transform="translate(1170.613281 0)"/>
      <use xlink:href="#DejaVuSans-65" transform="translate(1209.822266 0)"/>
      <use xlink:href="#DejaVuSans-64" transform="translate(1271.345703 0)"/>
     </g>
    </g>
    <g id="PathCollection_7">
     <g>
      <use xlink:href="#md7453ad2a4" x="69.87" y="84.887812" style="fill: #008000; stroke: #008000"/>
     </g>
    </g>
    <g id="text_17">
     <!-- Start - Ground Truth -->
     <g transform="translate(87.87 87.512812) scale(0.1 -0.1)">
      <use xlink:href="#DejaVuSans-53"/>
      <use xlink:href="#DejaVuSans-74" transform="translate(63.476562 0)"/>
      <use xlink:href="#DejaVuSans-61" transform="translate(102.685547 0)"/>
      <use xlink:href="#DejaVuSans-72" transform="translate(163.964844 0)"/>
      <use xlink:href="#DejaVuSans-74" transform="translate(205.078125 0)"/>
      <use xlink:href="#DejaVuSans-20" transform="translate(244.287109 0)"/>
      <use xlink:href="#DejaVuSans-2d" transform="translate(276.074219 0)"/>
      <use xlink:href="#DejaVuSans-20" transform="translate(312.158203 0)"/>
      <use xlink:href="#DejaVuSans-47" transform="translate(343.945312 0)"/>
      <use xlink:href="#DejaVuSans-72" transform="translate(421.435547 0)"/>
      <use xlink:href="#DejaVuSans-6f" transform="translate(460.298828 0)"/>
      <use xlink:href="#DejaVuSans-75" transform="translate(521.480469 0)"/>
      <use xlink:href="#DejaVuSans-6e" transform="translate(584.859375 0)"/>
      <use xlink:href="#DejaVuSans-64" transform="translate(648.238281 0)"/>
      <use xlink:href="#DejaVuSans-20" transform="translate(711.714844 0)"/>
      <use xlink:href="#DejaVuSans-54" transform="translate(743.501953 0)"/>
      <use xlink:href="#DejaVuSans-72" transform="translate(789.835938 0)"/>
      <use xlink:href="#DejaVuSans-75" transform="translate(830.949219 0)"/>
      <use xlink:href="#DejaVuSans-74" transform="translate(894.328125 0)"/>
      <use xlink:href="#DejaVuSans-68" transform="translate(933.537109 0)"/>
     </g>
    </g>
    <g id="PathCollection_8">
     <g>
      <use xlink:href="#m06bf287f36" x="69.87" y="99.565937" style="fill: #ff0000; stroke: #ff0000"/>
     </g>
    </g>
    <g id="text_18">
     <!-- End - Ground Truth -->
     <g transform="translate(87.87 102.190937) scale(0.1 -0.1)">
      <use xlink:href="#DejaVuSans-45"/>
      <use xlink:href="#DejaVuSans-6e" transform="translate(63.183594 0)"/>
      <use xlink:href="#DejaVuSans-64" transform="translate(126.5625 0)"/>
      <use xlink:href="#DejaVuSans-20" transform="translate(190.039062 0)"/>
      <use xlink:href="#DejaVuSans-2d" transform="translate(221.826172 0)"/>
      <use xlink:href="#DejaVuSans-20" transform="translate(257.910156 0)"/>
      <use xlink:href="#DejaVuSans-47" transform="translate(289.697266 0)"/>
      <use xlink:href="#DejaVuSans-72" transform="translate(367.1875 0)"/>
      <use xlink:href="#DejaVuSans-6f" transform="translate(406.050781 0)"/>
      <use xlink:href="#DejaVuSans-75" transform="translate(467.232422 0)"/>
      <use xlink:href="#DejaVuSans-6e" transform="translate(530.611328 0)"/>
      <use xlink:href="#DejaVuSans-64" transform="translate(593.990234 0)"/>
      <use xlink:href="#DejaVuSans-20" transform="translate(657.466797 0)"/>
      <use xlink:href="#DejaVuSans-54" transform="translate(689.253906 0)"/>
      <use xlink:href="#DejaVuSans-72" transform="translate(735.587891 0)"/>
      <use xlink:href="#DejaVuSans-75" transform="translate(776.701172 0)"/>
      <use xlink:href="#DejaVuSans-74" transform="translate(840.080078 0)"/>
      <use xlink:href="#DejaVuSans-68" transform="translate(879.289062 0)"/>
     </g>
    </g>
    <g id="PathCollection_9">
     <g>
      <use xlink:href="#m5307fd079d" x="69.87" y="114.244062" style="fill: #00ffff; stroke: #00ffff; stroke-width: 1.5"/>
     </g>
    </g>
    <g id="text_19">
     <!-- Start - Estimated -->
     <g transform="translate(87.87 116.869062) scale(0.1 -0.1)">
      <use xlink:href="#DejaVuSans-53"/>
      <use xlink:href="#DejaVuSans-74" transform="translate(63.476562 0)"/>
      <use xlink:href="#DejaVuSans-61" transform="translate(102.685547 0)"/>
      <use xlink:href="#DejaVuSans-72" transform="translate(163.964844 0)"/>
      <use xlink:href="#DejaVuSans-74" transform="translate(205.078125 0)"/>
      <use xlink:href="#DejaVuSans-20" transform="translate(244.287109 0)"/>
      <use xlink:href="#DejaVuSans-2d" transform="translate(276.074219 0)"/>
      <use xlink:href="#DejaVuSans-20" transform="translate(312.158203 0)"/>
      <use xlink:href="#DejaVuSans-45" transform="translate(343.945312 0)"/>
      <use xlink:href="#DejaVuSans-73" transform="translate(407.128906 0)"/>
      <use xlink:href="#DejaVuSans-74" transform="translate(459.228516 0)"/>
      <use xlink:href="#DejaVuSans-69" transform="translate(498.4375 0)"/>
      <use xlink:href="#DejaVuSans-6d" transform="translate(526.220703 0)"/>
      <use xlink:href="#DejaVuSans-61" transform="translate(623.632812 0)"/>
      <use xlink:href="#DejaVuSans-74" transform="translate(684.912109 0)"/>
      <use xlink:href="#DejaVuSans-65" transform="translate(724.121094 0)"/>
      <use xlink:href="#DejaVuSans-64" transform="translate(785.644531 0)"/>
     </g>
    </g>
    <g id="PathCollection_10">
     <g>
      <use xlink:href="#m11f6272ecc" x="69.87" y="128.922187" style="fill: #ff00ff; stroke: #ff00ff; stroke-width: 1.5"/>
     </g>
    </g>
    <g id="text_20">
     <!-- End - Estimated -->
     <g transform="translate(87.87 131.547187) scale(0.1 -0.1)">
      <use xlink:href="#DejaVuSans-45"/>
      <use xlink:href="#DejaVuSans-6e" transform="translate(63.183594 0)"/>
      <use xlink:href="#DejaVuSans-64" transform="translate(126.5625 0)"/>
      <use xlink:href="#DejaVuSans-20" transform="translate(190.039062 0)"/>
      <use xlink:href="#DejaVuSans-2d" transform="translate(221.826172 0)"/>
      <use xlink:href="#DejaVuSans-20" transform="translate(257.910156 0)"/>
      <use xlink:href="#DejaVuSans-45" transform="translate(289.697266 0)"/>
      <use xlink:href="#DejaVuSans-73" transform="translate(352.880859 0)"/>
      <use xlink:href="#DejaVuSans-74" transform="translate(404.980469 0)"/>
      <use xlink:href="#DejaVuSans-69" transform="translate(444.189453 0)"/>
      <use xlink:href="#DejaVuSans-6d" transform="translate(471.972656 0)"/>
      <use xlink:href="#DejaVuSans-61" transform="translate(569.384766 0)"/>
      <use xlink:href="#DejaVuSans-74" transform="translate(630.664062 0)"/>
      <use xlink:href="#DejaVuSans-65" transform="translate(669.873047 0)"/>
      <use xlink:href="#DejaVuSans-64" transform="translate(731.396484 0)"/>
     </g>
    </g>
    <g id="PathCollection_11">
     <g>
      <use xlink:href="#mb17aa5f60f" x="69.87" y="143.600312" style="fill: #0000ff; stroke: #0000ff; stroke-width: 1.5"/>
     </g>
    </g>
    <g id="text_21">
     <!-- Start - Estimated SLAM Corrected -->
     <g transform="translate(87.87 146.225312) scale(0.1 -0.1)">
      <use xlink:href="#DejaVuSans-53"/>
      <use xlink:href="#DejaVuSans-74" transform="translate(63.476562 0)"/>
      <use xlink:href="#DejaVuSans-61" transform="translate(102.685547 0)"/>
      <use xlink:href="#DejaVuSans-72" transform="translate(163.964844 0)"/>
      <use xlink:href="#DejaVuSans-74" transform="translate(205.078125 0)"/>
      <use xlink:href="#DejaVuSans-20" transform="translate(244.287109 0)"/>
      <use xlink:href="#DejaVuSans-2d" transform="translate(276.074219 0)"/>
      <use xlink:href="#DejaVuSans-20" transform="translate(312.158203 0)"/>
      <use xlink:href="#DejaVuSans-45" transform="translate(343.945312 0)"/>
      <use xlink:href="#DejaVuSans-73" transform="translate(407.128906 0)"/>
      <use xlink:href="#DejaVuSans-74" transform="translate(459.228516 0)"/>
      <use xlink:href="#DejaVuSans-69" transform="translate(498.4375 0)"/>
      <use xlink:href="#DejaVuSans-6d" transform="translate(526.220703 0)"/>
      <use xlink:href="#DejaVuSans-61" transform="translate(623.632812 0)"/>
      <use xlink:href="#DejaVuSans-74" transform="translate(684.912109 0)"/>
      <use xlink:href="#DejaVuSans-65" transform="translate(724.121094 0)"/>
      <use xlink:href="#DejaVuSans-64" transform="translate(785.644531 0)"/>
      <use xlink:href="#DejaVuSans-20" transform="translate(849.121094 0)"/>
      <use xlink:href="#DejaVuSans-53" transform="translate(880.908203 0)"/>
      <use xlink:href="#DejaVuSans-4c" transform="translate(944.384766 0)"/>
      <use xlink:href="#DejaVuSans-41" transform="translate(1002.347656 0)"/>
      <use xlink:href="#DejaVuSans-4d" transform="translate(1070.755859 0)"/>
      <use xlink:href="#DejaVuSans-20" transform="translate(1157.035156 0)"/>
      <use xlink:href="#DejaVuSans-43" transform="translate(1188.822266 0)"/>
      <use xlink:href="#DejaVuSans-6f" transform="translate(1258.646484 0)"/>
      <use xlink:href="#DejaVuSans-72" transform="translate(1319.828125 0)"/>
      <use xlink:href="#DejaVuSans-72" transform="translate(1359.191406 0)"/>
      <use xlink:href="#DejaVuSans-65" transform="translate(1398.054688 0)"/>
      <use xlink:href="#DejaVuSans-63" transform="translate(1459.578125 0)"/>
      <use xlink:href="#DejaVuSans-74" transform="translate(1514.558594 0)"/>
      <use xlink:href="#DejaVuSans-65" transform="translate(1553.767578 0)"/>
      <use xlink:href="#DejaVuSans-64" transform="translate(1615.291016 0)"/>
     </g>
    </g>
    <g id="PathCollection_12">
     <g>
      <use xlink:href="#mee1c11aa1e" x="69.87" y="158.278437" style="fill: #800080; stroke: #800080; stroke-width: 1.5"/>
     </g>
    </g>
    <g id="text_22">
     <!-- End - Estimated SLAM Corrected -->
     <g transform="translate(87.87 160.903437) scale(0.1 -0.1)">
      <use xlink:href="#DejaVuSans-45"/>
      <use xlink:href="#DejaVuSans-6e" transform="translate(63.183594 0)"/>
      <use xlink:href="#DejaVuSans-64" transform="translate(126.5625 0)"/>
      <use xlink:href="#DejaVuSans-20" transform="translate(190.039062 0)"/>
      <use xlink:href="#DejaVuSans-2d" transform="translate(221.826172 0)"/>
      <use xlink:href="#DejaVuSans-20" transform="translate(257.910156 0)"/>
      <use xlink:href="#DejaVuSans-45" transform="translate(289.697266 0)"/>
      <use xlink:href="#DejaVuSans-73" transform="translate(352.880859 0)"/>
      <use xlink:href="#DejaVuSans-74" transform="translate(404.980469 0)"/>
      <use xlink:href="#DejaVuSans-69" transform="translate(444.189453 0)"/>
      <use xlink:href="#DejaVuSans-6d" transform="translate(471.972656 0)"/>
      <use xlink:href="#DejaVuSans-61" transform="translate(569.384766 0)"/>
      <use xlink:href="#DejaVuSans-74" transform="translate(630.664062 0)"/>
      <use xlink:href="#DejaVuSans-65" transform="translate(669.873047 0)"/>
      <use xlink:href="#DejaVuSans-64" transform="translate(731.396484 0)"/>
      <use xlink:href="#DejaVuSans-20" transform="translate(794.873047 0)"/>
      <use xlink:href="#DejaVuSans-53" transform="translate(826.660156 0)"/>
      <use xlink:href="#DejaVuSans-4c" transform="translate(890.136719 0)"/>
      <use xlink:href="#DejaVuSans-41" transform="translate(948.099609 0)"/>
      <use xlink:href="#DejaVuSans-4d" transform="translate(1016.507812 0)"/>
      <use xlink:href="#DejaVuSans-20" transform="translate(1102.787109 0)"/>
      <use xlink:href="#DejaVuSans-43" transform="translate(1134.574219 0)"/>
      <use xlink:href="#DejaVuSans-6f" transform="translate(1204.398438 0)"/>
      <use xlink:href="#DejaVuSans-72" transform="translate(1265.580078 0)"/>
      <use xlink:href="#DejaVuSans-72" transform="translate(1304.943359 0)"/>
      <use xlink:href="#DejaVuSans-65" transform="translate(1343.806641 0)"/>
      <use xlink:href="#DejaVuSans-63" transform="translate(1405.330078 0)"/>
      <use xlink:href="#DejaVuSans-74" transform="translate(1460.310547 0)"/>
      <use xlink:href="#DejaVuSans-65" transform="translate(1499.519531 0)"/>
      <use xlink:href="#DejaVuSans-64" transform="translate(1561.042969 0)"/>
     </g>
    </g>
   </g>
  </g>
 </g>
 <defs>
  <clipPath id="pffcef1dc6f">
   <rect x="50.87" y="26.88" width="658.33" height="435.16"/>
  </clipPath>
 </defs>
</svg>
