<?xml version="1.0" encoding="utf-8" standalone="no"?>
<!DOCTYPE svg PUBLIC "-//W3C//DTD SVG 1.1//EN"
  "http://www.w3.org/Graphics/SVG/1.1/DTD/svg11.dtd">
<svg xmlns:xlink="http://www.w3.org/1999/xlink" width="855.55125pt" height="422.889687pt" viewBox="0 0 855.55125 422.889687" xmlns="http://www.w3.org/2000/svg" version="1.1">
 <metadata>
  <rdf:RDF xmlns:dc="http://purl.org/dc/elements/1.1/" xmlns:cc="http://creativecommons.org/ns#" xmlns:rdf="http://www.w3.org/1999/02/22-rdf-syntax-ns#">
   <cc:Work>
    <dc:type rdf:resource="http://purl.org/dc/dcmitype/StillImage"/>
    <dc:date>2026-02-05T14:03:26.147225</dc:date>
    <dc:format>image/svg+xml</dc:format>
    <dc:creator>
     <cc:Agent>
      <dc:title>Matplotlib v3.10.3, https://matplotlib.org/</dc:title>
     </cc:Agent>
    </dc:creator>
   </cc:Work>
  </rdf:RDF>
 </metadata>
 <defs>
  <style type="text/css">*{stroke-linejoin: round; stroke-linecap: butt}</style>
 </defs>
 <g id="figure_1">
  <g id="patch_1">
   <path d="M 0 422.889687 
L 855.55125 422.889687 
L 855.55125 0 
L 0 0 
z
" style="fill: #ffffff"/>
  </g>
  <g id="axes_1">
   <g id="patch_2">
    <path d="M 48.90125 383.397812 
L 848.35125 383.397812 
L 848.35125 23.837812 
L 48.90125 23.837812 
z
" style="fill: #ffffff"/>
   </g>
   <g id="matplotlib.axis_1">
    <g id="xtick_1">
     <g id="line2d_1">
      <path d="M 85.094503 383.397812 
L 85.094503 23.837812 
" clip-path="url(#pf984d25515)" style="fill: none; stroke: #b0b0b0; stroke-opacity: 0.3; stroke-width: 0.8; stroke-linecap: square"/>
     </g>
     <g id="line2d_2">
      <defs>
       <path id="m2195983be5" d="M 0 0 
L 0 3.5 
" style="stroke: #000000; stroke-width: 0.8"/>
      </defs>
      <g>
       <use xlink:href="#m2195983be5" x="85.094503" y="383.397812" style="stroke: #000000; stroke-width: 0.8"/>
      </g>
     </g>
     <g id="text_1">
      <!-- 0 -->
      <g transform="translate(81.913253 397.99625) scale(0.1 -0.1)">
       <defs>
        <path id="DejaVuSans-30" d="M 2034 4250 
Q 1547 4250 1301 3770 
Q 1056 3291 1056 2328 
Q 1056 1369 1301 889 
Q 1547 409 2034 409 
Q 2525 409 2770 889 
Q 3016 1369 3016 2328 
Q 3016 3291 2770 3770 
Q 2525 4250 2034 4250 
z
M 2034 4750 
Q 2819 4750 3233 4129 
Q 3647 3509 3647 2328 
Q 3647 1150 3233 529 
Q 2819 -91 2034 -91 
Q 1250 -91 836 529 
Q 422 1150 422 2328 
Q 422 3509 836 4129 
Q 1250 4750 2034 4750 
z
" transform="scale(0.015625)"/>
       </defs>
       <use xlink:href="#DejaVuSans-30"/>
      </g>
     </g>
    </g>
    <g id="xtick_2">
     <g id="line2d_3">
      <path d="M 203.407997 383.397812 
L 203.407997 23.837812 
" clip-path="url(#pf984d25515)" style="fill: none; stroke: #b0b0b0; stroke-opacity: 0.3; stroke-width: 0.8; stroke-linecap: square"/>
     </g>
     <g id="line2d_4">
      <g>
       <use xlink:href="#m2195983be5" x="203.407997" y="383.397812" style="stroke: #000000; stroke-width: 0.8"/>
      </g>
     </g>
     <g id="text_2">
      <!-- 10.0M -->
      <g transform="translate(187.961122 397.99625) scale(0.1 -0.1)">
       <defs>
        <path id="DejaVuSans-31" d="M 794 531 
L 1825 531 
L 1825 4091 
L 703 3866 
L 703 4441 
L 1819 4666 
L 2450 4666 
L 2450 531 
L 3481 531 
L 3481 0 
L 794 0 
L 794 531 
z
" transform="scale(0.015625)"/>
        <path id="DejaVuSans-2e" d="M 684 794 
L 1344 794 
L 1344 0 
L 684 0 
L 684 794 
z
" transform="scale(0.015625)"/>
        <path id="DejaVuSans-4d" d="M 628 4666 
L 1569 4666 
L 2759 1491 
L 3956 4666 
L 4897 4666 
L 4897 0 
L 4281 0 
L 4281 4097 
L 3078 897 
L 2444 897 
L 1241 4097 
L 1241 0 
L 628 0 
L 628 4666 
z
" transform="scale(0.015625)"/>
       </defs>
       <use xlink:href="#DejaVuSans-31"/>
       <use xlink:href="#DejaVuSans-30" transform="translate(63.623047 0)"/>
       <use xlink:href="#DejaVuSans-2e" transform="translate(127.246094 0)"/>
       <use xlink:href="#DejaVuSans-30" transform="translate(159.033203 0)"/>
       <use xlink:href="#DejaVuSans-4d" transform="translate(222.65625 0)"/>
      </g>
     </g>
    </g>
    <g id="xtick_3">
     <g id="line2d_5">
      <path d="M 321.721492 383.397812 
L 321.721492 23.837812 
" clip-path="url(#pf984d25515)" style="fill: none; stroke: #b0b0b0; stroke-opacity: 0.3; stroke-width: 0.8; stroke-linecap: square"/>
     </g>
     <g id="line2d_6">
      <g>
       <use xlink:href="#m2195983be5" x="321.721492" y="383.397812" style="stroke: #000000; stroke-width: 0.8"/>
      </g>
     </g>
     <g id="text_3">
      <!-- 20.0M -->
      <g transform="translate(306.274617 397.99625) scale(0.1 -0.1)">
       <defs>
        <path id="DejaVuSans-32" d="M 1228 531 
L 3431 531 
L 3431 0 
L 469 0 
L 469 531 
Q 828 903 1448 1529 
Q 2069 2156 2228 2338 
Q 2531 2678 2651 2914 
Q 2772 3150 2772 3378 
Q 2772 3750 2511 3984 
Q 2250 4219 1831 4219 
Q 1534 4219 1204 4116 
Q 875 4013 500 3803 
L 500 4441 
Q 881 4594 1212 4672 
Q 1544 4750 1819 4750 
Q 2544 4750 2975 4387 
Q 3406 4025 3406 3419 
Q 3406 3131 3298 2873 
Q 3191 2616 2906 2266 
Q 2828 2175 2409 1742 
Q 1991 1309 1228 531 
z
" transform="scale(0.015625)"/>
       </defs>
       <use xlink:href="#DejaVuSans-32"/>
       <use xlink:href="#DejaVuSans-30" transform="translate(63.623047 0)"/>
       <use xlink:href="#DejaVuSans-2e" transform="translate(127.246094 0)"/>
       <use xlink:href="#DejaVuSans-30" transform="translate(159.033203 0)"/>
       <use xlink:href="#DejaVuSans-4d" transform="translate(222.65625 0)"/>
      </g>
     </g>
    </g>
    <g id="xtick_4">
     <g id="line2d_7">
      <path d="M 440.034987 383.397812 
L 440.034987 23.837812 
" clip-path="url(#pf984d25515)" style="fill: none; stroke: #b0b0b0; stroke-opacity: 0.3; stroke-width: 0.8; stroke-linecap: square"/>
     </g>
     <g id="line2d_8">
      <g>
       <use xlink:href="#m2195983be5" x="440.034987" y="383.397812" style="stroke: #000000; stroke-width: 0.8"/>
      </g>
     </g>
     <g id="text_4">
      <!-- 30.0M -->
      <g transform="translate(424.588112 397.99625) scale(0.1 -0.1)">
       <defs>
        <path id="DejaVuSans-33" d="M 2597 2516 
Q 3050 2419 3304 2112 
Q 3559 1806 3559 1356 
Q 3559 666 3084 287 
Q 2609 -91 1734 -91 
Q 1441 -91 1130 -33 
Q 819 25 488 141 
L 488 750 
Q 750 597 1062 519 
Q 1375 441 1716 441 
Q 2309 441 2620 675 
Q 2931 909 2931 1356 
Q 2931 1769 2642 2001 
Q 2353 2234 1838 2234 
L 1294 2234 
L 1294 2753 
L 1863 2753 
Q 2328 2753 2575 2939 
Q 2822 3125 2822 3475 
Q 2822 3834 2567 4026 
Q 2313 4219 1838 4219 
Q 1578 4219 1281 4162 
Q 984 4106 628 3988 
L 628 4550 
Q 988 4650 1302 4700 
Q 1616 4750 1894 4750 
Q 2613 4750 3031 4423 
Q 3450 4097 3450 3541 
Q 3450 3153 3228 2886 
Q 3006 2619 2597 2516 
z
" transform="scale(0.015625)"/>
       </defs>
       <use xlink:href="#DejaVuSans-33"/>
       <use xlink:href="#DejaVuSans-30" transform="translate(63.623047 0)"/>
       <use xlink:href="#DejaVuSans-2e" transform="translate(127.246094 0)"/>
       <use xlink:href="#DejaVuSans-30" transform="translate(159.033203 0)"/>
       <use xlink:href="#DejaVuSans-4d" transform="translate(222.65625 0)"/>
      </g>
     </g>
    </g>
    <g id="xtick_5">
     <g id="line2d_9">
      <path d="M 558.348481 383.397812 
L 558.348481 23.837812 
" clip-path="url(#pf984d25515)" style="fill: none; stroke: #b0b0b0; stroke-opacity: 0.3; stroke-width: 0.8; stroke-linecap: square"/>
     </g>
     <g id="line2d_10">
      <g>
       <use xlink:href="#m2195983be5" x="558.348481" y="383.397812" style="stroke: #000000; stroke-width: 0.8"/>
      </g>
     </g>
     <g id="text_5">
      <!-- 40.0M -->
      <g transform="translate(542.901606 397.99625) scale(0.1 -0.1)">
       <defs>
        <path id="DejaVuSans-34" d="M 2419 4116 
L 825 1625 
L 2419 1625 
L 2419 4116 
z
M 2253 4666 
L 3047 4666 
L 3047 1625 
L 3713 1625 
L 3713 1100 
L 3047 1100 
L 3047 0 
L 2419 0 
L 2419 1100 
L 313 1100 
L 313 1709 
L 2253 4666 
z
" transform="scale(0.015625)"/>
       </defs>
       <use xlink:href="#DejaVuSans-34"/>
       <use xlink:href="#DejaVuSans-30" transform="translate(63.623047 0)"/>
       <use xlink:href="#DejaVuSans-2e" transform="translate(127.246094 0)"/>
       <use xlink:href="#DejaVuSans-30" transform="translate(159.033203 0)"/>
       <use xlink:href="#DejaVuSans-4d" transform="translate(222.65625 0)"/>
      </g>
     </g>
    </g>
    <g id="xtick_6">
     <g id="line2d_11">
      <path d="M 676.661976 383.397812 
L 676.661976 23.837812 
" clip-path="url(#pf984d25515)" style="fill: none; stroke: #b0b0b0; stroke-opacity: 0.3; stroke-width: 0.8; stroke-linecap: square"/>
     </g>
     <g id="line2d_12">
      <g>
       <use xlink:href="#m2195983be5" x="676.661976" y="383.397812" style="stroke: #000000; stroke-width: 0.8"/>
      </g>
     </g>
     <g id="text_6">
      <!-- 50.0M -->
      <g transform="translate(661.215101 397.99625) scale(0.1 -0.1)">
       <defs>
        <path id="DejaVuSans-35" d="M 691 4666 
L 3169 4666 
L 3169 4134 
L 1269 4134 
L 1269 2991 
Q 1406 3038 1543 3061 
Q 1681 3084 1819 3084 
Q 2600 3084 3056 2656 
Q 3513 2228 3513 1497 
Q 3513 744 3044 326 
Q 2575 -91 1722 -91 
Q 1428 -91 1123 -41 
Q 819 9 494 109 
L 494 744 
Q 775 591 1075 516 
Q 1375 441 1709 441 
Q 2250 441 2565 725 
Q 2881 1009 2881 1497 
Q 2881 1984 2565 2268 
Q 2250 2553 1709 2553 
Q 1456 2553 1204 2497 
Q 953 2441 691 2322 
L 691 4666 
z
" transform="scale(0.015625)"/>
       </defs>
       <use xlink:href="#DejaVuSans-35"/>
       <use xlink:href="#DejaVuSans-30" transform="translate(63.623047 0)"/>
       <use xlink:href="#DejaVuSans-2e" transform="translate(127.246094 0)"/>
       <use xlink:href="#DejaVuSans-30" transform="translate(159.033203 0)"/>
       <use xlink:href="#DejaVuSans-4d" transform="translate(222.65625 0)"/>
      </g>
     </g>
    </g>
    <g id="xtick_7">
     <g id="line2d_13">
      <path d="M 794.97547 383.397812 
L 794.97547 23.837812 
" clip-path="url(#pf984d25515)" style="fill: none; stroke: #b0b0b0; stroke-opacity: 0.3; stroke-width: 0.8; stroke-linecap: square"/>
     </g>
     <g id="line2d_14">
      <g>
       <use xlink:href="#m2195983be5" x="794.97547" y="383.397812" style="stroke: #000000; stroke-width: 0.8"/>
      </g>
     </g>
     <g id="text_7">
      <!-- 60.0M -->
      <g transform="translate(779.528595 397.99625) scale(0.1 -0.1)">
       <defs>
        <path id="DejaVuSans-36" d="M 2113 2584 
Q 1688 2584 1439 2293 
Q 1191 2003 1191 1497 
Q 1191 994 1439 701 
Q 1688 409 2113 409 
Q 2538 409 2786 701 
Q 3034 994 3034 1497 
Q 3034 2003 2786 2293 
Q 2538 2584 2113 2584 
z
M 3366 4563 
L 3366 3988 
Q 3128 4100 2886 4159 
Q 2644 4219 2406 4219 
Q 1781 4219 1451 3797 
Q 1122 3375 1075 2522 
Q 1259 2794 1537 2939 
Q 1816 3084 2150 3084 
Q 2853 3084 3261 2657 
Q 3669 2231 3669 1497 
Q 3669 778 3244 343 
Q 2819 -91 2113 -91 
Q 1303 -91 875 529 
Q 447 1150 447 2328 
Q 447 3434 972 4092 
Q 1497 4750 2381 4750 
Q 2619 4750 2861 4703 
Q 3103 4656 3366 4563 
z
" transform="scale(0.015625)"/>
       </defs>
       <use xlink:href="#DejaVuSans-36"/>
       <use xlink:href="#DejaVuSans-30" transform="translate(63.623047 0)"/>
       <use xlink:href="#DejaVuSans-2e" transform="translate(127.246094 0)"/>
       <use xlink:href="#DejaVuSans-30" transform="translate(159.033203 0)"/>
       <use xlink:href="#DejaVuSans-4d" transform="translate(222.65625 0)"/>
      </g>
     </g>
    </g>
    <g id="text_8">
     <!-- Timesteps -->
     <g transform="translate(417.841563 413.194062) scale(0.12 -0.12)">
      <defs>
       <path id="DejaVuSans-54" d="M -19 4666 
L 3928 4666 
L 3928 4134 
L 2272 4134 
L 2272 0 
L 1638 0 
L 1638 4134 
L -19 4134 
L -19 4666 
z
" transform="scale(0.015625)"/>
       <path id="DejaVuSans-69" d="M 603 3500 
L 1178 3500 
L 1178 0 
L 603 0 
L 603 3500 
z
M 603 4863 
L 1178 4863 
L 1178 4134 
L 603 4134 
L 603 4863 
z
" transform="scale(0.015625)"/>
       <path id="DejaVuSans-6d" d="M 3328 2828 
Q 3544 3216 3844 3400 
Q 4144 3584 4550 3584 
Q 5097 3584 5394 3201 
Q 5691 2819 5691 2113 
L 5691 0 
L 5113 0 
L 5113 2094 
Q 5113 2597 4934 2840 
Q 4756 3084 4391 3084 
Q 3944 3084 3684 2787 
Q 3425 2491 3425 1978 
L 3425 0 
L 2847 0 
L 2847 2094 
Q 2847 2600 2669 2842 
Q 2491 3084 2119 3084 
Q 1678 3084 1418 2786 
Q 1159 2488 1159 1978 
L 1159 0 
L 581 0 
L 581 3500 
L 1159 3500 
L 1159 2956 
Q 1356 3278 1631 3431 
Q 1906 3584 2284 3584 
Q 2666 3584 2933 3390 
Q 3200 3197 3328 2828 
z
" transform="scale(0.015625)"/>
       <path id="DejaVuSans-65" d="M 3597 1894 
L 3597 1613 
L 953 1613 
Q 991 1019 1311 708 
Q 1631 397 2203 397 
Q 2534 397 2845 478 
Q 3156 559 3463 722 
L 3463 178 
Q 3153 47 2828 -22 
Q 2503 -91 2169 -91 
Q 1331 -91 842 396 
Q 353 884 353 1716 
Q 353 2575 817 3079 
Q 1281 3584 2069 3584 
Q 2775 3584 3186 3129 
Q 3597 2675 3597 1894 
z
M 3022 2063 
Q 3016 2534 2758 2815 
Q 2500 3097 2075 3097 
Q 1594 3097 1305 2825 
Q 1016 2553 972 2059 
L 3022 2063 
z
" transform="scale(0.015625)"/>
       <path id="DejaVuSans-73" d="M 2834 3397 
L 2834 2853 
Q 2591 2978 2328 3040 
Q 2066 3103 1784 3103 
Q 1356 3103 1142 2972 
Q 928 2841 928 2578 
Q 928 2378 1081 2264 
Q 1234 2150 1697 2047 
L 1894 2003 
Q 2506 1872 2764 1633 
Q 3022 1394 3022 966 
Q 3022 478 2636 193 
Q 2250 -91 1575 -91 
Q 1294 -91 989 -36 
Q 684 19 347 128 
L 347 722 
Q 666 556 975 473 
Q 1284 391 1588 391 
Q 1994 391 2212 530 
Q 2431 669 2431 922 
Q 2431 1156 2273 1281 
Q 2116 1406 1581 1522 
L 1381 1569 
Q 847 1681 609 1914 
Q 372 2147 372 2553 
Q 372 3047 722 3315 
Q 1072 3584 1716 3584 
Q 2034 3584 2315 3537 
Q 2597 3491 2834 3397 
z
" transform="scale(0.015625)"/>
       <path id="DejaVuSans-74" d="M 1172 4494 
L 1172 3500 
L 2356 3500 
L 2356 3053 
L 1172 3053 
L 1172 1153 
Q 1172 725 1289 603 
Q 1406 481 1766 481 
L 2356 481 
L 2356 0 
L 1766 0 
Q 1100 0 847 248 
Q 594 497 594 1153 
L 594 3053 
L 172 3053 
L 172 3500 
L 594 3500 
L 594 4494 
L 1172 4494 
z
" transform="scale(0.015625)"/>
       <path id="DejaVuSans-70" d="M 1159 525 
L 1159 -1331 
L 581 -1331 
L 581 3500 
L 1159 3500 
L 1159 2969 
Q 1341 3281 1617 3432 
Q 1894 3584 2278 3584 
Q 2916 3584 3314 3078 
Q 3713 2572 3713 1747 
Q 3713 922 3314 415 
Q 2916 -91 2278 -91 
Q 1894 -91 1617 61 
Q 1341 213 1159 525 
z
M 3116 1747 
Q 3116 2381 2855 2742 
Q 2594 3103 2138 3103 
Q 1681 3103 1420 2742 
Q 1159 2381 1159 1747 
Q 1159 1113 1420 752 
Q 1681 391 2138 391 
Q 2594 391 2855 752 
Q 3116 1113 3116 1747 
z
" transform="scale(0.015625)"/>
      </defs>
      <use xlink:href="#DejaVuSans-54"/>
      <use xlink:href="#DejaVuSans-69" transform="translate(57.958984 0)"/>
      <use xlink:href="#DejaVuSans-6d" transform="translate(85.742188 0)"/>
      <use xlink:href="#DejaVuSans-65" transform="translate(183.154297 0)"/>
      <use xlink:href="#DejaVuSans-73" transform="translate(244.677734 0)"/>
      <use xlink:href="#DejaVuSans-74" transform="translate(296.777344 0)"/>
      <use xlink:href="#DejaVuSans-65" transform="translate(335.986328 0)"/>
      <use xlink:href="#DejaVuSans-70" transform="translate(397.509766 0)"/>
      <use xlink:href="#DejaVuSans-73" transform="translate(460.986328 0)"/>
     </g>
    </g>
   </g>
   <g id="matplotlib.axis_2">
    <g id="ytick_1">
     <g id="line2d_15">
      <path d="M 48.90125 346.368309 
L 848.35125 346.368309 
" clip-path="url(#pf984d25515)" style="fill: none; stroke: #b0b0b0; stroke-opacity: 0.3; stroke-width: 0.8; stroke-linecap: square"/>
     </g>
     <g id="line2d_16">
      <defs>
       <path id="mc21b695b1a" d="M 0 0 
L -3.5 0 
" style="stroke: #000000; stroke-width: 0.8"/>
      </defs>
      <g>
       <use xlink:href="#mc21b695b1a" x="48.90125" y="346.368309" style="stroke: #000000; stroke-width: 0.8"/>
      </g>
     </g>
     <g id="text_9">
      <!-- 0 -->
      <g transform="translate(35.53875 350.167528) scale(0.1 -0.1)">
       <use xlink:href="#DejaVuSans-30"/>
      </g>
     </g>
    </g>
    <g id="ytick_2">
     <g id="line2d_17">
      <path d="M 48.90125 298.09811 
L 848.35125 298.09811 
" clip-path="url(#pf984d25515)" style="fill: none; stroke: #b0b0b0; stroke-opacity: 0.3; stroke-width: 0.8; stroke-linecap: square"/>
     </g>
     <g id="line2d_18">
      <g>
       <use xlink:href="#mc21b695b1a" x="48.90125" y="298.09811" style="stroke: #000000; stroke-width: 0.8"/>
      </g>
     </g>
     <g id="text_10">
      <!-- 20 -->
      <g transform="translate(29.17625 301.897328) scale(0.1 -0.1)">
       <use xlink:href="#DejaVuSans-32"/>
       <use xlink:href="#DejaVuSans-30" transform="translate(63.623047 0)"/>
      </g>
     </g>
    </g>
    <g id="ytick_3">
     <g id="line2d_19">
      <path d="M 48.90125 249.82791 
L 848.35125 249.82791 
" clip-path="url(#pf984d25515)" style="fill: none; stroke: #b0b0b0; stroke-opacity: 0.3; stroke-width: 0.8; stroke-linecap: square"/>
     </g>
     <g id="line2d_20">
      <g>
       <use xlink:href="#mc21b695b1a" x="48.90125" y="249.82791" style="stroke: #000000; stroke-width: 0.8"/>
      </g>
     </g>
     <g id="text_11">
      <!-- 40 -->
      <g transform="translate(29.17625 253.627129) scale(0.1 -0.1)">
       <use xlink:href="#DejaVuSans-34"/>
       <use xlink:href="#DejaVuSans-30" transform="translate(63.623047 0)"/>
      </g>
     </g>
    </g>
    <g id="ytick_4">
     <g id="line2d_21">
      <path d="M 48.90125 201.557711 
L 848.35125 201.557711 
" clip-path="url(#pf984d25515)" style="fill: none; stroke: #b0b0b0; stroke-opacity: 0.3; stroke-width: 0.8; stroke-linecap: square"/>
     </g>
     <g id="line2d_22">
      <g>
       <use xlink:href="#mc21b695b1a" x="48.90125" y="201.557711" style="stroke: #000000; stroke-width: 0.8"/>
      </g>
     </g>
     <g id="text_12">
      <!-- 60 -->
      <g transform="translate(29.17625 205.35693) scale(0.1 -0.1)">
       <use xlink:href="#DejaVuSans-36"/>
       <use xlink:href="#DejaVuSans-30" transform="translate(63.623047 0)"/>
      </g>
     </g>
    </g>
    <g id="ytick_5">
     <g id="line2d_23">
      <path d="M 48.90125 153.287512 
L 848.35125 153.287512 
" clip-path="url(#pf984d25515)" style="fill: none; stroke: #b0b0b0; stroke-opacity: 0.3; stroke-width: 0.8; stroke-linecap: square"/>
     </g>
     <g id="line2d_24">
      <g>
       <use xlink:href="#mc21b695b1a" x="48.90125" y="153.287512" style="stroke: #000000; stroke-width: 0.8"/>
      </g>
     </g>
     <g id="text_13">
      <!-- 80 -->
      <g transform="translate(29.17625 157.08673) scale(0.1 -0.1)">
       <defs>
        <path id="DejaVuSans-38" d="M 2034 2216 
Q 1584 2216 1326 1975 
Q 1069 1734 1069 1313 
Q 1069 891 1326 650 
Q 1584 409 2034 409 
Q 2484 409 2743 651 
Q 3003 894 3003 1313 
Q 3003 1734 2745 1975 
Q 2488 2216 2034 2216 
z
M 1403 2484 
Q 997 2584 770 2862 
Q 544 3141 544 3541 
Q 544 4100 942 4425 
Q 1341 4750 2034 4750 
Q 2731 4750 3128 4425 
Q 3525 4100 3525 3541 
Q 3525 3141 3298 2862 
Q 3072 2584 2669 2484 
Q 3125 2378 3379 2068 
Q 3634 1759 3634 1313 
Q 3634 634 3220 271 
Q 2806 -91 2034 -91 
Q 1263 -91 848 271 
Q 434 634 434 1313 
Q 434 1759 690 2068 
Q 947 2378 1403 2484 
z
M 1172 3481 
Q 1172 3119 1398 2916 
Q 1625 2713 2034 2713 
Q 2441 2713 2670 2916 
Q 2900 3119 2900 3481 
Q 2900 3844 2670 4047 
Q 2441 4250 2034 4250 
Q 1625 4250 1398 4047 
Q 1172 3844 1172 3481 
z
" transform="scale(0.015625)"/>
       </defs>
       <use xlink:href="#DejaVuSans-38"/>
       <use xlink:href="#DejaVuSans-30" transform="translate(63.623047 0)"/>
      </g>
     </g>
    </g>
    <g id="ytick_6">
     <g id="line2d_25">
      <path d="M 48.90125 105.017312 
L 848.35125 105.017312 
" clip-path="url(#pf984d25515)" style="fill: none; stroke: #b0b0b0; stroke-opacity: 0.3; stroke-width: 0.8; stroke-linecap: square"/>
     </g>
     <g id="line2d_26">
      <g>
       <use xlink:href="#mc21b695b1a" x="48.90125" y="105.017312" style="stroke: #000000; stroke-width: 0.8"/>
      </g>
     </g>
     <g id="text_14">
      <!-- 100 -->
      <g transform="translate(22.81375 108.816531) scale(0.1 -0.1)">
       <use xlink:href="#DejaVuSans-31"/>
       <use xlink:href="#DejaVuSans-30" transform="translate(63.623047 0)"/>
       <use xlink:href="#DejaVuSans-30" transform="translate(127.246094 0)"/>
      </g>
     </g>
    </g>
    <g id="ytick_7">
     <g id="line2d_27">
      <path d="M 48.90125 56.747113 
L 848.35125 56.747113 
" clip-path="url(#pf984d25515)" style="fill: none; stroke: #b0b0b0; stroke-opacity: 0.3; stroke-width: 0.8; stroke-linecap: square"/>
     </g>
     <g id="line2d_28">
      <g>
       <use xlink:href="#mc21b695b1a" x="48.90125" y="56.747113" style="stroke: #000000; stroke-width: 0.8"/>
      </g>
     </g>
     <g id="text_15">
      <!-- 120 -->
      <g transform="translate(22.81375 60.546332) scale(0.1 -0.1)">
       <use xlink:href="#DejaVuSans-31"/>
       <use xlink:href="#DejaVuSans-32" transform="translate(63.623047 0)"/>
       <use xlink:href="#DejaVuSans-30" transform="translate(127.246094 0)"/>
      </g>
     </g>
    </g>
    <g id="text_16">
     <!-- Average Reward -->
     <g transform="translate(16.318125 252.509375) rotate(-90) scale(0.12 -0.12)">
      <defs>
       <path id="DejaVuSans-41" d="M 2188 4044 
L 1331 1722 
L 3047 1722 
L 2188 4044 
z
M 1831 4666 
L 2547 4666 
L 4325 0 
L 3669 0 
L 3244 1197 
L 1141 1197 
L 716 0 
L 50 0 
L 1831 4666 
z
" transform="scale(0.015625)"/>
       <path id="DejaVuSans-76" d="M 191 3500 
L 800 3500 
L 1894 563 
L 2988 3500 
L 3597 3500 
L 2284 0 
L 1503 0 
L 191 3500 
z
" transform="scale(0.015625)"/>
       <path id="DejaVuSans-72" d="M 2631 2963 
Q 2534 3019 2420 3045 
Q 2306 3072 2169 3072 
Q 1681 3072 1420 2755 
Q 1159 2438 1159 1844 
L 1159 0 
L 581 0 
L 581 3500 
L 1159 3500 
L 1159 2956 
Q 1341 3275 1631 3429 
Q 1922 3584 2338 3584 
Q 2397 3584 2469 3576 
Q 2541 3569 2628 3553 
L 2631 2963 
z
" transform="scale(0.015625)"/>
       <path id="DejaVuSans-61" d="M 2194 1759 
Q 1497 1759 1228 1600 
Q 959 1441 959 1056 
Q 959 750 1161 570 
Q 1363 391 1709 391 
Q 2188 391 2477 730 
Q 2766 1069 2766 1631 
L 2766 1759 
L 2194 1759 
z
M 3341 1997 
L 3341 0 
L 2766 0 
L 2766 531 
Q 2569 213 2275 61 
Q 1981 -91 1556 -91 
Q 1019 -91 701 211 
Q 384 513 384 1019 
Q 384 1609 779 1909 
Q 1175 2209 1959 2209 
L 2766 2209 
L 2766 2266 
Q 2766 2663 2505 2880 
Q 2244 3097 1772 3097 
Q 1472 3097 1187 3025 
Q 903 2953 641 2809 
L 641 3341 
Q 956 3463 1253 3523 
Q 1550 3584 1831 3584 
Q 2591 3584 2966 3190 
Q 3341 2797 3341 1997 
z
" transform="scale(0.015625)"/>
       <path id="DejaVuSans-67" d="M 2906 1791 
Q 2906 2416 2648 2759 
Q 2391 3103 1925 3103 
Q 1463 3103 1205 2759 
Q 947 2416 947 1791 
Q 947 1169 1205 825 
Q 1463 481 1925 481 
Q 2391 481 2648 825 
Q 2906 1169 2906 1791 
z
M 3481 434 
Q 3481 -459 3084 -895 
Q 2688 -1331 1869 -1331 
Q 1566 -1331 1297 -1286 
Q 1028 -1241 775 -1147 
L 775 -588 
Q 1028 -725 1275 -790 
Q 1522 -856 1778 -856 
Q 2344 -856 2625 -561 
Q 2906 -266 2906 331 
L 2906 616 
Q 2728 306 2450 153 
Q 2172 0 1784 0 
Q 1141 0 747 490 
Q 353 981 353 1791 
Q 353 2603 747 3093 
Q 1141 3584 1784 3584 
Q 2172 3584 2450 3431 
Q 2728 3278 2906 2969 
L 2906 3500 
L 3481 3500 
L 3481 434 
z
" transform="scale(0.015625)"/>
       <path id="DejaVuSans-20" transform="scale(0.015625)"/>
       <path id="DejaVuSans-52" d="M 2841 2188 
Q 3044 2119 3236 1894 
Q 3428 1669 3622 1275 
L 4263 0 
L 3584 0 
L 2988 1197 
Q 2756 1666 2539 1819 
Q 2322 1972 1947 1972 
L 1259 1972 
L 1259 0 
L 628 0 
L 628 4666 
L 2053 4666 
Q 2853 4666 3247 4331 
Q 3641 3997 3641 3322 
Q 3641 2881 3436 2590 
Q 3231 2300 2841 2188 
z
M 1259 4147 
L 1259 2491 
L 2053 2491 
Q 2509 2491 2742 2702 
Q 2975 2913 2975 3322 
Q 2975 3731 2742 3939 
Q 2509 4147 2053 4147 
L 1259 4147 
z
" transform="scale(0.015625)"/>
       <path id="DejaVuSans-77" d="M 269 3500 
L 844 3500 
L 1563 769 
L 2278 3500 
L 2956 3500 
L 3675 769 
L 4391 3500 
L 4966 3500 
L 4050 0 
L 3372 0 
L 2619 2869 
L 1863 0 
L 1184 0 
L 269 3500 
z
" transform="scale(0.015625)"/>
       <path id="DejaVuSans-64" d="M 2906 2969 
L 2906 4863 
L 3481 4863 
L 3481 0 
L 2906 0 
L 2906 525 
Q 2725 213 2448 61 
Q 2172 -91 1784 -91 
Q 1150 -91 751 415 
Q 353 922 353 1747 
Q 353 2572 751 3078 
Q 1150 3584 1784 3584 
Q 2172 3584 2448 3432 
Q 2725 3281 2906 2969 
z
M 947 1747 
Q 947 1113 1208 752 
Q 1469 391 1925 391 
Q 2381 391 2643 752 
Q 2906 1113 2906 1747 
Q 2906 2381 2643 2742 
Q 2381 3103 1925 3103 
Q 1469 3103 1208 2742 
Q 947 2381 947 1747 
z
" transform="scale(0.015625)"/>
      </defs>
      <use xlink:href="#DejaVuSans-41"/>
      <use xlink:href="#DejaVuSans-76" transform="translate(62.533203 0)"/>
      <use xlink:href="#DejaVuSans-65" transform="translate(121.712891 0)"/>
      <use xlink:href="#DejaVuSans-72" transform="translate(183.236328 0)"/>
      <use xlink:href="#DejaVuSans-61" transform="translate(224.349609 0)"/>
      <use xlink:href="#DejaVuSans-67" transform="translate(285.628906 0)"/>
      <use xlink:href="#DejaVuSans-65" transform="translate(349.105469 0)"/>
      <use xlink:href="#DejaVuSans-20" transform="translate(410.628906 0)"/>
      <use xlink:href="#DejaVuSans-52" transform="translate(442.416016 0)"/>
      <use xlink:href="#DejaVuSans-65" transform="translate(507.398438 0)"/>
      <use xlink:href="#DejaVuSans-77" transform="translate(568.921875 0)"/>
      <use xlink:href="#DejaVuSans-61" transform="translate(650.708984 0)"/>
      <use xlink:href="#DejaVuSans-72" transform="translate(711.988281 0)"/>
      <use xlink:href="#DejaVuSans-64" transform="translate(751.351562 0)"/>
     </g>
    </g>
   </g>
   <g id="line2d_29">
    <path d="M 85.239886 346.368309 
L 85.966804 346.368309 
L 87.711408 344.678222 
L 90.61908 343.162117 
L 92.363684 342.700565 
L 94.253671 342.31434 
L 96.434425 341.781223 
L 97.306727 341.686713 
L 100.795934 341.342277 
L 111.118171 341.070595 
L 113.444309 341.263512 
L 116.642749 341.26603 
L 119.11427 341.286829 
L 119.986572 341.232382 
L 123.475779 341.049887 
L 127.11037 340.726314 
L 128.854973 339.989055 
L 130.018042 339.2601 
L 131.326495 339.466844 
L 132.780331 336.242591 
L 132.925714 336.242591 
L 134.379551 328.800318 
L 135.833387 333.948311 
L 136.414921 333.842896 
L 137.57799 333.621796 
L 138.886443 333.845596 
L 140.340279 323.791154 
L 140.485663 323.791154 
L 141.939499 325.846195 
L 143.393335 331.927723 
L 143.538719 331.927723 
L 144.992555 335.565658 
L 146.446391 327.631635 
L 146.591775 327.631635 
L 148.045611 331.944687 
L 149.499447 367.054176 
L 150.953284 347.521255 
L 151.098667 347.521255 
L 152.552503 351.706414 
L 154.00634 326.679364 
L 154.151723 326.679364 
L 155.605559 328.956242 
L 157.059396 337.981519 
L 158.513232 333.508326 
L 158.658616 333.508326 
L 160.112452 344.342574 
L 161.566288 336.383746 
L 161.711672 336.383746 
L 163.165508 339.610907 
L 164.619344 333.327478 
L 164.764728 333.327478 
L 166.363948 325.966695 
L 167.6724 323.862859 
L 169.126236 313.492428 
L 169.27162 313.492428 
L 170.725456 299.758319 
L 172.179292 303.649955 
L 172.324676 303.634169 
L 173.778512 317.146483 
L 175.232348 299.566352 
L 176.686185 317.187122 
L 176.831568 317.202844 
L 178.430788 310.166567 
L 179.884624 308.055795 
L 181.338461 323.549397 
L 182.93768 324.442384 
L 184.391517 308.21707 
L 185.845353 325.196534 
L 187.299189 319.429598 
L 187.444573 319.454576 
L 188.898409 310.631875 
L 190.352245 317.702088 
L 190.497629 317.575599 
L 192.96915 289.695946 
L 193.405301 284.610207 
L 194.859137 296.43911 
L 195.004521 296.397403 
L 196.458357 303.266759 
L 197.912194 287.284664 
L 198.057577 287.223842 
L 199.511413 299.547414 
L 201.110633 300.962254 
L 202.564469 290.429691 
L 204.163689 299.291313 
L 205.472142 301.593237 
L 205.617526 301.711874 
L 207.071362 311.384132 
L 208.525198 273.613384 
L 208.670582 273.850332 
L 209.979034 270.979309 
L 210.415185 269.421001 
L 211.578254 265.82334 
L 213.03209 267.380672 
L 213.177474 267.207222 
L 214.63131 272.467714 
L 216.085146 323.900305 
L 216.23053 323.833385 
L 217.684366 319.963888 
L 219.283586 309.267317 
L 220.882806 280.865054 
L 222.191258 268.804097 
L 223.499711 267.804554 
L 223.645095 267.840164 
L 223.790478 267.760118 
L 225.244315 309.926867 
L 226.698151 287.953342 
L 226.843534 287.952033 
L 228.297371 282.112821 
L 231.350427 299.246606 
L 232.804263 302.52818 
L 234.258099 290.047437 
L 234.403483 290.157309 
L 235.857319 325.978455 
L 237.311155 317.392951 
L 237.456539 317.484701 
L 238.910375 318.126787 
L 240.364211 309.629242 
L 240.509595 309.679362 
L 241.818047 310.112883 
L 241.963431 310.030594 
L 243.417267 313.79297 
L 244.72572 322.745438 
L 244.871104 323.574596 
L 245.016487 323.309587 
L 246.761091 297.94606 
L 247.92416 281.158227 
L 249.232612 282.612576 
L 249.377996 282.937475 
L 249.523379 282.921358 
L 250.831832 296.513249 
L 250.977216 297.873073 
L 252.431052 291.562709 
L 252.576435 291.453456 
L 254.030272 297.138202 
L 255.484108 264.548431 
L 255.629492 264.561965 
L 257.083328 250.671166 
L 258.537164 290.110371 
L 259.554849 292.938871 
L 259.845617 293.569705 
L 260.136384 293.682292 
L 261.59022 285.571082 
L 263.044056 316.239606 
L 263.18944 316.420518 
L 263.916358 316.254003 
L 264.497893 315.639309 
L 264.934043 315.041156 
L 266.097112 313.276396 
L 267.260181 315.683369 
L 267.550949 316.020425 
L 267.696332 315.766219 
L 269.586319 286.634438 
L 270.604005 274.935009 
L 270.749388 274.590745 
L 272.203224 245.754265 
L 273.366293 239.435552 
L 273.657061 237.504879 
L 273.802444 237.588862 
L 275.110897 250.171999 
L 275.256281 251.71774 
L 276.41935 239.434689 
L 276.710117 235.926282 
L 278.163953 246.822935 
L 278.309337 246.744888 
L 279.472406 237.925473 
L 279.763173 236.373762 
L 281.217009 256.570542 
L 281.362393 256.831936 
L 282.234694 260.406066 
L 282.816229 260.469132 
L 283.979298 246.737624 
L 284.560832 240.542129 
L 285.869285 225.185967 
L 286.88697 231.258948 
L 287.323121 234.095202 
L 288.195423 233.589811 
L 288.48619 233.325576 
L 288.776957 233.836868 
L 288.922341 234.542171 
L 290.376177 347.843613 
L 291.830013 345.586046 
L 291.975397 345.611024 
L 293.574617 343.342014 
L 295.028453 341.037664 
L 296.336906 338.498815 
L 296.482289 338.474414 
L 297.936126 332.461774 
L 299.099195 331.032728 
L 299.680729 329.95249 
L 300.843798 326.107358 
L 302.443018 321.749564 
L 304.333005 306.087216 
L 305.641458 291.15994 
L 306.804527 281.260893 
L 307.095294 279.268341 
L 308.54913 242.53532 
L 310.14835 251.284893 
L 311.602186 256.695462 
L 312.910639 249.506815 
L 313.201406 247.745384 
L 314.509859 242.962988 
L 314.655242 243.230486 
L 316.109078 267.233855 
L 316.98138 263.608994 
L 317.562915 260.925509 
L 317.708298 261.030548 
L 319.162134 272.768977 
L 320.034436 270.314541 
L 320.615971 266.501292 
L 322.069807 243.917163 
L 322.215191 243.669047 
L 323.669027 248.298716 
L 325.122863 259.106659 
L 325.268247 258.929431 
L 326.285932 248.676797 
L 326.867466 245.546427 
L 327.594385 243.64579 
L 328.175919 241.853998 
L 328.321303 242.262348 
L 329.775139 255.559903 
L 329.920522 255.53175 
L 330.502057 255.325083 
L 331.228975 252.913806 
L 332.392044 262.910385 
L 332.682811 265.425955 
L 332.828195 265.490433 
L 334.282031 251.559074 
L 335.4451 261.27274 
L 335.735867 263.500704 
L 335.881251 263.46459 
L 337.189704 250.504999 
L 337.335087 249.345211 
L 338.788923 281.946707 
L 339.661225 280.401985 
L 339.951992 278.854639 
L 341.551212 269.670113 
L 341.84198 268.76732 
L 343.295816 243.252803 
L 343.441199 242.952722 
L 344.749652 227.66648 
L 344.895036 226.49555 
L 345.912721 229.021318 
L 346.494255 229.001822 
L 347.657324 234.154331 
L 347.948092 235.360187 
L 348.820393 233.234757 
L 349.401928 234.196169 
L 350.27423 240.835732 
L 350.855764 242.33735 
L 351.001148 242.058726 
L 352.454984 228.455224 
L 353.327286 234.281751 
L 353.90882 238.97731 
L 354.490355 237.631032 
L 354.635738 237.315659 
L 354.781122 236.701296 
L 355.071889 236.495703 
L 355.653424 237.190922 
L 356.234958 238.357704 
L 357.398027 241.011365 
L 357.979562 242.46052 
L 358.270329 242.975395 
L 358.415712 243.344439 
L 358.561096 243.368958 
L 359.578781 233.702174 
L 360.3057 229.407584 
L 361.178001 223.224518 
L 361.468769 220.691416 
L 361.614152 220.873687 
L 362.195687 219.779051 
L 362.486454 218.161403 
L 362.922605 215.752958 
L 363.067988 215.29143 
L 364.085674 217.824663 
L 364.667208 219.333815 
L 365.394126 218.028539 
L 365.830277 217.431667 
L 366.121044 216.343247 
L 367.429497 229.577774 
L 367.865648 233.825172 
L 368.592566 239.093707 
L 369.028717 241.456257 
L 369.1741 241.408028 
L 370.627937 226.606619 
L 371.645622 221.519245 
L 373.099458 210.888116 
L 373.680993 210.601504 
L 374.407911 213.897465 
L 374.553294 213.821813 
L 374.844062 213.401886 
L 375.134829 213.394485 
L 376.297898 204.849862 
L 376.588665 203.36426 
L 376.734049 203.869202 
L 377.897118 214.305437 
L 378.187885 215.768113 
L 378.914803 215.410034 
L 379.20557 215.583763 
L 379.787105 215.017102 
L 380.80479 210.837822 
L 381.240941 209.119514 
L 381.967859 210.909819 
L 382.113243 210.945479 
L 382.694777 212.062271 
L 382.840161 211.498741 
L 383.567079 206.16927 
L 384.293997 204.887326 
L 385.020915 205.463464 
L 385.311683 203.901184 
L 385.747833 200.810597 
L 386.620135 204.688945 
L 387.20167 208.69791 
L 388.364739 205.249144 
L 388.800889 204.381004 
L 389.818575 198.69019 
L 391.127027 188.222295 
L 392.144713 181.301387 
L 392.726247 175.183438 
L 393.307782 168.039756 
L 394.0347 166.36079 
L 394.325467 168.679582 
L 395.197769 177.899869 
L 395.779303 184.428744 
L 396.506221 189.242699 
L 397.087756 190.73788 
L 397.378523 191.762856 
L 398.105441 194.0019 
L 398.686976 196.802122 
L 398.832359 196.940249 
L 399.413894 196.013132 
L 400.140812 196.344744 
L 400.86773 199.472925 
L 401.013114 199.267671 
L 401.740032 194.848583 
L 402.030799 194.137678 
L 402.321566 193.843456 
L 402.46695 193.90872 
L 403.484635 209.247167 
L 403.920786 213.173594 
L 404.793088 211.291676 
L 404.938472 211.402521 
L 405.229239 212.15165 
L 405.520006 213.293003 
L 406.392308 207.950426 
L 407.846144 190.508888 
L 408.427678 188.040336 
L 408.573062 188.100925 
L 409.590747 193.967576 
L 409.881515 194.58202 
L 410.026898 194.522183 
L 411.044584 174.692826 
L 411.480735 169.704393 
L 412.353036 171.304492 
L 412.643804 173.281286 
L 413.079954 177.351887 
L 414.533791 322.846069 
L 415.842243 317.768984 
L 417.005312 312.21519 
L 417.586847 306.252694 
L 419.040683 265.207354 
L 419.186067 264.936048 
L 420.639903 227.381015 
L 421.512204 230.119303 
L 421.657588 230.160746 
L 422.093739 229.73763 
L 423.111424 235.993369 
L 423.547575 239.533891 
L 423.692959 239.469728 
L 424.419877 236.814044 
L 424.710644 235.882116 
L 425.146795 235.344729 
L 426.019097 237.805772 
L 426.455248 238.013211 
L 426.600631 238.112331 
L 426.746015 238.019794 
L 427.909084 231.643643 
L 428.199851 229.454922 
L 430.089838 203.093505 
L 430.671373 196.635083 
L 431.107524 194.311952 
L 431.252907 195.224951 
L 432.125209 209.754973 
L 432.706743 213.524126 
L 433.869812 172.094159 
L 434.16058 164.57553 
L 434.305963 165.729338 
L 435.905183 227.383291 
L 437.213636 328.967947 
L 437.359019 328.805324 
L 438.812856 321.151477 
L 441.865912 305.054039 
L 442.883597 305.542963 
L 443.319748 305.731011 
L 444.918968 290.048295 
L 446.372804 258.179537 
L 447.681256 242.376165 
L 447.82664 240.43755 
L 448.989709 244.456561 
L 449.280476 244.997484 
L 449.42586 244.478301 
L 450.298162 238.944891 
L 450.443545 238.648973 
L 450.879696 237.316611 
L 451.751998 248.04994 
L 452.333532 252.608224 
L 452.6243 251.175504 
L 453.06045 248.654017 
L 453.205834 248.525857 
L 453.932752 246.782041 
L 455.531972 267.635817 
L 457.421959 247.42201 
L 458.439644 239.847759 
L 459.311946 237.865125 
L 459.45733 237.876728 
L 459.748097 237.642902 
L 459.893481 237.789187 
L 460.038864 238.284783 
L 460.765782 236.414487 
L 461.05655 234.88816 
L 461.492701 231.680021 
L 462.801153 245.695725 
L 462.946537 247.508668 
L 463.09192 247.499149 
L 464.545757 255.245956 
L 465.418058 253.079059 
L 465.708826 252.311351 
L 465.999593 251.830005 
L 467.162662 261.067887 
L 467.453429 261.962185 
L 467.598813 261.056374 
L 469.052649 229.52525 
L 470.506485 251.970239 
L 470.651869 251.540685 
L 471.669554 242.561467 
L 472.105705 240.137853 
L 472.832623 240.062656 
L 473.12339 238.644015 
L 473.704925 233.825651 
L 474.286459 230.897781 
L 474.577227 231.042519 
L 474.867994 231.709434 
L 475.013377 231.714857 
L 475.158761 231.482863 
L 476.32183 219.17756 
L 476.612597 218.238793 
L 478.066433 202.324488 
L 478.211817 203.542926 
L 479.374886 240.038857 
L 480.101804 263.170083 
L 480.683339 277.60032 
L 480.974106 279.678101 
L 481.11949 280.227243 
L 481.410257 275.253756 
L 482.718709 249.119773 
L 483.591011 241.290444 
L 483.881778 239.99595 
L 484.172546 237.370201 
L 485.190231 223.040162 
L 487.516369 183.099546 
L 488.097903 177.90004 
L 488.243287 177.313825 
L 488.388671 177.975963 
L 488.679438 177.672337 
L 489.406356 170.63722 
L 489.697123 168.347499 
L 489.842507 167.624563 
L 489.987891 167.577034 
L 490.133274 167.397079 
L 490.278658 167.893223 
L 491.296343 157.027867 
L 491.732494 150.504889 
L 491.877878 150.903805 
L 492.604796 142.151831 
L 492.895563 138.503289 
L 493.331714 133.266843 
L 494.058632 141.066015 
L 494.494783 147.660366 
L 494.930934 152.77408 
L 495.512468 154.153676 
L 495.657852 154.150932 
L 495.803235 154.015741 
L 495.948619 153.669792 
L 496.094003 153.623436 
L 496.239386 152.397063 
L 496.38477 152.62726 
L 497.111688 149.004661 
L 497.547839 146.347367 
L 497.693222 146.739562 
L 497.838606 146.45566 
L 498.274757 148.297208 
L 498.856291 150.781849 
L 499.147059 149.041313 
L 499.58321 145.797574 
L 500.164744 139.128003 
L 500.600895 137.472655 
L 500.891662 136.281422 
L 502.345498 154.801953 
L 502.636266 153.904119 
L 503.2178 152.600826 
L 503.363184 152.967152 
L 504.090102 145.567261 
L 504.81702 141.304256 
L 505.253171 144.219649 
L 505.398554 144.46602 
L 506.561623 164.706511 
L 507.579309 206.219037 
L 508.01546 220.345177 
L 508.306227 224.279648 
L 508.451611 224.809343 
L 509.61468 197.085503 
L 510.632365 173.368696 
L 511.504667 160.563312 
L 512.522352 147.496777 
L 513.394654 139.538111 
L 514.121572 129.372434 
L 514.557723 121.210324 
L 515.430024 117.422061 
L 516.011559 131.228462 
L 517.029244 160.491454 
L 517.320011 164.896289 
L 517.465395 165.545579 
L 517.610779 164.912695 
L 519.646149 130.951696 
L 520.0823 120.530567 
L 520.518451 110.384958 
L 520.809218 111.046713 
L 521.390753 111.792015 
L 521.68152 114.068331 
L 521.826904 115.152405 
L 521.972287 115.07534 
L 522.989973 103.91745 
L 523.28074 102.264789 
L 523.426124 102.410982 
L 523.571507 103.025087 
L 524.007658 107.038217 
L 524.443809 110.571948 
L 524.589193 110.45249 
L 524.87996 111.501623 
L 525.025343 111.588163 
L 525.316111 110.934136 
L 525.752262 110.758021 
L 525.897645 111.137963 
L 526.624563 119.910878 
L 527.787632 99.928578 
L 528.0784 91.965911 
L 528.223783 92.124811 
L 528.950701 84.58599 
L 529.241468 80.916584 
L 529.386852 80.292878 
L 529.532236 80.344455 
L 529.677619 80.679633 
L 531.131456 125.547178 
L 531.276839 125.653485 
L 531.858374 126.916492 
L 532.149141 126.171857 
L 532.294525 126.113025 
L 532.585292 124.814167 
L 532.730675 124.90332 
L 533.31221 119.709412 
L 533.602977 117.622053 
L 534.039128 110.987202 
L 534.329895 108.351343 
L 535.056813 103.334046 
L 535.783731 109.700454 
L 536.801417 122.55089 
L 536.9468 122.491483 
L 537.092184 122.735731 
L 537.237568 122.021331 
L 537.964486 129.156258 
L 538.255253 130.167699 
L 539.418322 131.96886 
L 539.854473 134.946169 
L 540.14524 135.804629 
L 541.017542 125.513773 
L 541.162926 125.068998 
L 541.308309 125.372448 
L 541.453693 125.055094 
L 542.471378 119.298552 
L 542.762145 115.393002 
L 542.907529 116.87573 
L 543.198296 125.578276 
L 543.34368 131.129785 
L 544.506749 221.093938 
L 544.797516 228.247491 
L 545.815201 152.790342 
L 546.105969 144.074709 
L 546.251352 142.790189 
L 546.54212 162.509244 
L 547.269038 219.118638 
L 547.559805 228.163725 
L 547.705189 228.507586 
L 547.850572 227.480056 
L 549.013641 173.930611 
L 550.322094 125.950615 
L 550.467477 124.27765 
L 550.612861 124.250886 
L 550.758245 124.589345 
L 551.77593 136.733007 
L 551.921314 136.961959 
L 552.212081 134.055154 
L 553.37515 118.556193 
L 553.520533 119.386604 
L 553.811301 123.467718 
L 554.102068 126.985423 
L 554.828986 130.530012 
L 555.41052 127.095292 
L 556.718973 115.339683 
L 556.864357 113.517454 
L 558.172809 131.103105 
L 558.60896 142.328629 
L 559.481262 158.334254 
L 559.626646 156.472555 
L 560.062796 148.079858 
L 560.644331 142.472149 
L 560.789715 142.616713 
L 560.935098 143.206999 
L 561.225865 155.502227 
L 561.662016 184.821558 
L 562.534318 253.960686 
L 562.825085 261.253323 
L 562.970469 262.932953 
L 563.988154 214.617599 
L 564.424305 206.386238 
L 564.715072 209.476673 
L 565.151223 212.161299 
L 565.296607 211.900092 
L 565.44199 210.675546 
L 565.878141 200.341164 
L 566.459676 185.563056 
L 566.895827 177.905272 
L 567.186594 175.260438 
L 567.331978 175.110373 
L 567.477361 175.1648 
L 568.64043 248.410047 
L 568.931197 257.804465 
L 569.076581 251.308834 
L 570.094266 172.750313 
L 570.530417 154.243883 
L 571.402719 164.775026 
L 571.548103 165.897986 
L 572.856555 184.903727 
L 573.001939 184.837633 
L 573.292706 182.457975 
L 573.728857 174.086228 
L 574.746542 147.135978 
L 576.054995 128.14608 
L 576.200378 128.585843 
L 576.491146 131.904927 
L 577.07268 145.108121 
L 577.799598 160.694089 
L 578.090366 162.912464 
L 579.108051 143.542519 
L 579.253435 143.08783 
L 579.398818 144.229816 
L 579.544202 146.772107 
L 579.834969 164.491441 
L 580.707271 222.395799 
L 580.998038 225.699929 
L 581.143422 225.244383 
L 582.451874 160.086258 
L 582.742641 151.528097 
L 583.90571 119.561988 
L 585.214163 96.789878 
L 585.650314 92.059421 
L 586.522616 113.420545 
L 587.249534 138.15328 
L 588.121835 182.483284 
L 588.412603 188.157376 
L 588.70337 189.477066 
L 589.721055 131.042878 
L 590.011823 126.678589 
L 590.157206 127.156765 
L 590.593357 146.672224 
L 591.320275 178.696643 
L 591.611042 182.717533 
L 591.756426 182.584883 
L 592.774111 163.351673 
L 592.919495 162.378111 
L 593.210262 162.92992 
L 594.373331 189.04607 
L 594.664098 193.562378 
L 594.809482 193.338517 
L 596.117935 168.598793 
L 596.263318 167.186343 
L 596.844853 167.163034 
L 596.990236 167.133247 
L 597.13562 166.459049 
L 597.281004 166.648659 
L 597.862538 159.984907 
L 598.444073 158.366769 
L 598.589456 158.456237 
L 598.73484 158.365178 
L 598.880224 158.863175 
L 599.025607 157.975955 
L 600.33406 133.285586 
L 600.479443 134.119707 
L 600.915594 146.56628 
L 601.93328 213.789641 
L 602.36943 223.944402 
L 603.532499 183.370554 
L 603.823267 177.544413 
L 604.259418 180.510608 
L 604.550185 182.912493 
L 604.695568 182.826509 
L 604.840952 182.428267 
L 605.277103 172.82573 
L 606.730939 123.647813 
L 607.021706 120.702416 
L 607.748624 115.994392 
L 607.894008 115.96404 
L 608.039392 117.679626 
L 608.475543 127.856273 
L 609.347844 161.018492 
L 609.638612 164.298784 
L 609.929379 166.388411 
L 610.656297 158.989654 
L 610.801681 159.156907 
L 610.947064 159.512346 
L 611.092448 158.102313 
L 612.4009 131.708423 
L 612.691668 136.910783 
L 613.127818 148.712514 
L 613.854737 168.219519 
L 614.00012 168.065574 
L 614.436271 166.648915 
L 615.163189 155.144185 
L 615.890107 151.017929 
L 616.035491 151.096444 
L 616.471642 150.719055 
L 616.617025 150.617315 
L 616.907793 149.731299 
L 617.053176 148.520922 
L 617.925478 127.979438 
L 618.507013 113.718489 
L 618.652396 113.937391 
L 618.943163 119.352092 
L 620.251616 160.209264 
L 620.542383 158.024232 
L 621.560069 129.571885 
L 621.996219 119.358219 
L 622.723138 115.763428 
L 623.013905 113.715263 
L 623.159288 113.467833 
L 623.595439 116.193814 
L 625.049276 99.397273 
L 625.776194 104.720547 
L 626.066961 111.612434 
L 626.648495 128.651538 
L 627.375413 118.630036 
L 627.811564 103.213471 
L 628.102332 89.664701 
L 628.538482 85.660183 
L 629.120017 80.797188 
L 629.265401 82.012227 
L 629.701551 92.508746 
L 630.42847 110.791442 
L 630.719237 113.994899 
L 631.010004 111.755658 
L 632.027689 101.281593 
L 632.173073 100.27858 
L 632.46384 95.595417 
L 633.045375 84.865125 
L 633.626909 76.36762 
L 633.772293 77.784632 
L 634.06306 85.128529 
L 634.644595 106.850595 
L 635.226129 125.076351 
L 635.371513 125.148537 
L 635.516896 123.715915 
L 636.389198 108.347264 
L 636.679965 105.16605 
L 636.825349 104.566098 
L 637.116116 105.06781 
L 637.2615 103.649602 
L 638.279185 120.487301 
L 638.715336 129.686392 
L 639.587638 125.419289 
L 641.623008 100.549184 
L 641.913776 97.315697 
L 642.49531 93.885308 
L 642.640694 93.891846 
L 643.076845 96.237861 
L 643.367612 97.700131 
L 643.803763 99.862956 
L 644.239914 102.175111 
L 644.385297 102.391689 
L 644.530681 103.181722 
L 645.548366 112.729838 
L 645.839133 114.374906 
L 645.984517 114.123218 
L 646.275284 111.442504 
L 647.438353 90.804422 
L 647.729121 88.24492 
L 648.601422 95.853833 
L 649.037573 104.819828 
L 649.32834 109.877079 
L 649.619108 110.883344 
L 649.909875 110.785124 
L 650.055259 110.214811 
L 650.636793 103.515654 
L 650.782177 102.15406 
L 651.654478 86.573936 
L 652.236013 78.47076 
L 652.381396 81.729395 
L 653.544465 158.730436 
L 653.835233 164.992205 
L 654.707534 135.815041 
L 654.852918 133.44077 
L 654.998302 133.54875 
L 655.289069 137.782572 
L 655.72522 145.490407 
L 656.161371 150.96066 
L 656.306754 150.882686 
L 656.452138 151.016521 
L 656.597522 150.915192 
L 656.742905 151.678603 
L 656.888289 151.717878 
L 657.469823 155.581293 
L 657.760591 159.016677 
L 658.051358 163.09315 
L 658.196741 163.753631 
L 658.342125 165.02646 
L 659.650578 156.701006 
L 659.795961 156.309155 
L 659.941345 157.614265 
L 660.668263 154.028967 
L 660.95903 151.663024 
L 661.395181 143.536288 
L 661.540565 143.570243 
L 662.267483 142.878839 
L 662.412866 142.360754 
L 662.703634 148.509115 
L 663.139785 163.291637 
L 663.866703 196.649193 
L 664.012086 198.113224 
L 664.302854 194.103255 
L 664.448237 190.541115 
L 665.465922 139.20559 
L 665.902073 133.73648 
L 666.919759 148.983515 
L 667.210526 151.539664 
L 667.35591 153.390203 
L 667.501293 152.172067 
L 668.518979 134.655716 
L 668.809746 132.479227 
L 669.245897 130.905474 
L 669.536664 130.537343 
L 669.682048 130.476571 
L 669.827431 130.173508 
L 669.972815 130.229035 
L 670.118198 130.074516 
L 670.408966 130.85371 
L 670.699733 133.405008 
L 670.9905 134.938774 
L 671.281267 136.156289 
L 671.426651 136.061569 
L 671.572035 134.849911 
L 672.880487 108.140601 
L 673.025871 107.643436 
L 673.316638 111.573779 
L 673.752789 123.402616 
L 674.625091 156.95286 
L 674.915858 159.989555 
L 675.061242 160.219286 
L 675.933543 147.472398 
L 676.078927 148.770067 
L 676.951229 171.334505 
L 677.387379 176.662573 
L 677.532763 174.998922 
L 677.82353 165.26696 
L 678.114298 152.130238 
L 678.986599 137.159925 
L 679.277367 135.674465 
L 679.568134 137.155204 
L 680.731203 124.062372 
L 680.876586 122.731317 
L 681.02197 122.674989 
L 681.167354 122.799845 
L 682.039655 113.375556 
L 682.475806 109.099112 
L 683.493492 90.084998 
L 683.638875 89.031007 
L 683.784259 89.58661 
L 684.075026 93.435923 
L 684.947328 121.401721 
L 685.238095 124.909864 
L 685.383479 124.548029 
L 685.528862 124.712353 
L 685.81963 120.341209 
L 686.982699 101.908298 
L 687.128082 100.790821 
L 687.273466 100.556153 
L 687.709617 98.307839 
L 688.000384 96.120343 
L 688.145768 96.173651 
L 688.291151 95.550576 
L 688.872686 87.183333 
L 689.45422 82.922491 
L 689.599604 82.16847 
L 690.035755 85.310005 
L 690.181138 87.11496 
L 690.762673 82.247842 
L 691.05344 78.978517 
L 691.344207 76.163504 
L 691.634974 74.323469 
L 691.780358 75.377977 
L 692.507276 90.249314 
L 692.798043 95.930985 
L 693.234194 98.521139 
L 693.815729 95.03184 
L 694.106496 92.413502 
L 694.688031 85.670005 
L 695.705716 90.928039 
L 696.141867 93.863869 
L 697.159552 85.387583 
L 697.304936 85.256253 
L 697.450319 85.6837 
L 697.741087 88.840935 
L 698.322621 85.789612 
L 698.613388 84.813102 
L 698.758772 84.804229 
L 698.904156 84.417191 
L 699.194923 81.448901 
L 699.340306 82.72413 
L 700.067225 94.591145 
L 700.648759 100.045108 
L 700.794143 100.718448 
L 701.666444 93.831173 
L 701.957212 93.982529 
L 702.393363 96.422044 
L 702.68413 96.823421 
L 703.265664 97.889324 
L 703.411048 97.806797 
L 703.701815 95.530213 
L 703.847199 96.08242 
L 705.155651 83.408032 
L 706.027953 79.473757 
L 706.31872 78.131615 
L 706.464104 77.451165 
L 706.609488 77.323765 
L 706.754871 76.687652 
L 707.336406 83.769101 
L 707.772557 88.681533 
L 707.91794 88.163352 
L 708.499475 83.880869 
L 709.226393 79.36419 
L 709.807927 75.043732 
L 710.098694 72.779165 
L 710.680229 71.006257 
L 711.11638 75.299926 
L 711.407147 78.109179 
L 711.552531 77.996886 
L 711.988682 78.201234 
L 712.134065 78.233506 
L 712.424832 77.898203 
L 713.006367 79.142411 
L 713.733285 78.385629 
L 714.024052 78.870718 
L 714.31482 80.487673 
L 714.75097 88.074951 
L 715.332505 98.064666 
L 715.477889 99.402291 
L 715.768656 97.869141 
L 715.914039 96.81246 
L 717.367876 73.110438 
L 717.513259 72.3358 
L 718.094794 77.662793 
L 718.385561 80.604725 
L 718.530945 81.362929 
L 718.676328 81.476764 
L 719.257863 77.158502 
L 719.694014 73.718088 
L 719.839397 73.698177 
L 720.275548 77.159809 
L 720.420932 78.553006 
L 721.874768 66.249376 
L 722.020152 66.36463 
L 722.456302 65.620185 
L 723.18322 63.804922 
L 723.619371 61.409879 
L 724.491673 52.341924 
L 724.637057 52.354401 
L 724.927824 52.60333 
L 725.073208 53.718033 
L 726.090893 70.223395 
L 726.236277 69.954989 
L 726.527044 68.277651 
L 727.544729 57.238707 
L 727.690113 57.574635 
L 728.707798 66.063337 
L 728.998565 65.694724 
L 729.143949 65.827208 
L 729.434716 65.323404 
L 729.5801 65.408494 
L 730.161634 60.928178 
L 730.452402 58.945858 
L 730.743169 55.165184 
L 731.033936 49.622648 
L 731.470087 49.495679 
L 731.906238 48.755897 
L 732.051621 48.672151 
L 732.197005 49.311315 
L 732.633156 53.968525 
L 732.923923 54.100969 
L 733.360074 55.095386 
L 733.796225 58.739531 
L 733.941609 58.964819 
L 734.086992 58.757074 
L 734.81391 59.759652 
L 734.959294 59.389279 
L 735.104678 58.7047 
L 735.250061 58.803619 
L 735.395445 59.200451 
L 735.540828 60.277345 
L 735.831596 62.702223 
L 736.267746 63.855163 
L 736.41313 63.634668 
L 736.558514 63.967657 
L 736.994665 63.956805 
L 737.140048 63.562428 
L 738.157734 67.726135 
L 738.448501 70.956221 
L 739.61157 93.237449 
L 739.902337 94.667637 
L 740.047721 94.722606 
L 740.193104 94.913407 
L 741.065406 85.32528 
L 741.792324 73.146334 
L 742.810009 58.7903 
L 743.100777 56.590727 
L 743.24616 56.286174 
L 744.118462 94.09145 
L 744.409229 101.137237 
L 744.699997 103.451706 
L 745.572298 65.232931 
L 745.863066 59.246897 
L 746.008449 59.0112 
L 746.153833 59.221896 
L 746.299216 60.824152 
L 747.462285 87.578059 
L 747.753053 90.959824 
L 748.625354 79.141989 
L 748.770738 79.164091 
L 748.916122 78.793619 
L 749.206889 80.845689 
L 749.933807 87.970495 
L 750.079191 87.872763 
L 750.369958 86.003145 
L 751.533027 68.325864 
L 751.823794 65.948292 
L 751.969178 66.047347 
L 752.114561 66.727452 
L 752.259945 66.83901 
L 752.405329 67.375332 
L 752.841479 69.729836 
L 753.132247 70.701003 
L 753.568398 69.613386 
L 753.713781 69.565492 
L 753.859165 70.536274 
L 754.731466 61.51063 
L 755.313001 59.907888 
L 756.185303 75.559409 
L 756.330686 75.850034 
L 756.621454 74.607154 
L 756.766837 73.631747 
L 757.639139 63.430766 
L 757.784523 62.650654 
L 757.929906 63.039491 
L 758.511441 68.508931 
L 758.947592 69.5724 
L 759.092975 69.525395 
L 759.383742 69.796637 
L 759.819893 61.754401 
L 759.965277 61.55557 
L 760.546811 61.964943 
L 760.692195 61.816612 
L 760.837579 61.365682 
L 761.273729 63.928105 
L 761.419113 64.029846 
L 762.582182 103.526301 
L 762.872949 114.464612 
L 763.890635 97.023827 
L 764.472169 82.661748 
L 765.489855 62.291486 
L 765.780622 59.695311 
L 766.071389 59.176213 
L 766.216773 59.004249 
L 766.50754 59.24797 
L 766.652924 59.573659 
L 767.089074 61.406683 
L 767.234458 61.365787 
L 767.379842 61.580403 
L 768.979061 90.287179 
L 769.70598 79.088533 
L 770.287514 66.086547 
L 770.432898 64.445749 
L 771.159816 77.6547 
L 771.595967 84.416586 
L 771.886734 85.175179 
L 772.322885 81.703886 
L 772.904419 77.813946 
L 773.049803 78.518914 
L 773.195187 78.483244 
L 773.34057 78.241806 
L 773.485954 78.250276 
L 773.776721 77.685121 
L 774.067488 77.521456 
L 774.212872 77.019866 
L 774.358255 77.249772 
L 774.503639 76.886547 
L 774.649023 77.196706 
L 774.93979 79.46309 
L 776.393626 152.824461 
L 776.53901 151.727311 
L 777.992846 80.258931 
L 778.428997 83.253346 
L 778.719764 84.80495 
L 779.155915 89.349147 
L 779.301299 89.98584 
L 779.446682 89.834264 
L 779.73745 84.234069 
L 780.464368 66.628473 
L 780.755135 62.963791 
L 780.900518 62.798207 
L 781.77282 65.482769 
L 782.499738 59.169912 
L 782.645122 58.71549 
L 783.517424 66.563613 
L 784.098958 71.63159 
L 784.389725 72.451788 
L 784.97126 74.706623 
L 785.116644 74.077578 
L 785.262027 74.2486 
L 785.407411 74.992518 
L 785.552794 74.897211 
L 786.57048 63.848172 
L 786.715863 63.638448 
L 786.861247 63.126713 
L 787.006631 63.608675 
L 787.297398 66.77886 
L 788.024316 76.27115 
L 788.1697 76.23134 
L 788.60585 77.827006 
L 789.623536 69.85349 
L 789.914303 66.852233 
L 790.059687 66.387833 
L 790.495838 66.632782 
L 790.786605 66.630746 
L 790.931988 67.156407 
L 791.077372 68.307941 
L 791.368139 71.366149 
L 791.658907 72.593686 
L 792.967359 51.401278 
L 793.258126 47.485102 
L 794.421195 40.181449 
L 794.566579 40.506361 
L 795.875032 48.817358 
L 796.020415 48.433985 
L 796.165799 48.364343 
L 797.328868 74.928452 
L 797.765019 84.94125 
L 798.346553 81.210395 
L 798.782704 78.226989 
L 798.928088 79.109901 
L 799.218855 78.828675 
L 799.945773 74.359789 
L 800.23654 69.04778 
L 800.672691 57.861056 
L 800.818075 57.286523 
L 801.544993 60.050751 
L 802.126527 65.037377 
L 802.417295 66.231437 
L 802.708062 66.884056 
L 802.998829 67.730471 
L 803.144213 67.505761 
L 803.43498 66.464179 
L 803.725747 68.786679 
L 804.743433 115.466815 
L 805.324967 152.612675 
L 806.197269 178.640945 
L 806.342652 178.675097 
L 806.778803 168.26526 
L 808.232639 79.815072 
L 808.378023 78.371016 
L 809.250325 60.627305 
L 809.541092 55.711 
L 809.831859 54.898752 
L 810.413394 59.058002 
L 811.285696 65.789608 
L 812.012614 61.82297 
L 812.012614 61.82297 
" clip-path="url(#pf984d25515)" style="fill: none; stroke: #0000ff; stroke-width: 2.5; stroke-linecap: square"/>
   </g>
   <g id="patch_3">
    <path d="M 48.90125 383.397812 
L 48.90125 23.837812 
" style="fill: none; stroke: #000000; stroke-width: 0.8; stroke-linejoin: miter; stroke-linecap: square"/>
   </g>
   <g id="patch_4">
    <path d="M 848.35125 383.397812 
L 848.35125 23.837812 
" style="fill: none; stroke: #000000; stroke-width: 0.8; stroke-linejoin: miter; stroke-linecap: square"/>
   </g>
   <g id="patch_5">
    <path d="M 48.90125 383.397812 
L 848.35125 383.397812 
" style="fill: none; stroke: #000000; stroke-width: 0.8; stroke-linejoin: miter; stroke-linecap: square"/>
   </g>
   <g id="patch_6">
    <path d="M 48.90125 23.837812 
L 848.35125 23.837812 
" style="fill: none; stroke: #000000; stroke-width: 0.8; stroke-linejoin: miter; stroke-linecap: square"/>
   </g>
   <g id="text_17">
    <!-- Training Progress: Average Reward vs Timesteps - Isaac-Lift-Cube-SO-ARM101-v0 -->
    <g transform="translate(164.938125 17.837812) scale(0.14 -0.14)">
     <defs>
      <path id="DejaVuSans-6e" d="M 3513 2113 
L 3513 0 
L 2938 0 
L 2938 2094 
Q 2938 2591 2744 2837 
Q 2550 3084 2163 3084 
Q 1697 3084 1428 2787 
Q 1159 2491 1159 1978 
L 1159 0 
L 581 0 
L 581 3500 
L 1159 3500 
L 1159 2956 
Q 1366 3272 1645 3428 
Q 1925 3584 2291 3584 
Q 2894 3584 3203 3211 
Q 3513 2838 3513 2113 
z
" transform="scale(0.015625)"/>
      <path id="DejaVuSans-50" d="M 1259 4147 
L 1259 2394 
L 2053 2394 
Q 2494 2394 2734 2622 
Q 2975 2850 2975 3272 
Q 2975 3691 2734 3919 
Q 2494 4147 2053 4147 
L 1259 4147 
z
M 628 4666 
L 2053 4666 
Q 2838 4666 3239 4311 
Q 3641 3956 3641 3272 
Q 3641 2581 3239 2228 
Q 2838 1875 2053 1875 
L 1259 1875 
L 1259 0 
L 628 0 
L 628 4666 
z
" transform="scale(0.015625)"/>
      <path id="DejaVuSans-6f" d="M 1959 3097 
Q 1497 3097 1228 2736 
Q 959 2375 959 1747 
Q 959 1119 1226 758 
Q 1494 397 1959 397 
Q 2419 397 2687 759 
Q 2956 1122 2956 1747 
Q 2956 2369 2687 2733 
Q 2419 3097 1959 3097 
z
M 1959 3584 
Q 2709 3584 3137 3096 
Q 3566 2609 3566 1747 
Q 3566 888 3137 398 
Q 2709 -91 1959 -91 
Q 1206 -91 779 398 
Q 353 888 353 1747 
Q 353 2609 779 3096 
Q 1206 3584 1959 3584 
z
" transform="scale(0.015625)"/>
      <path id="DejaVuSans-3a" d="M 750 794 
L 1409 794 
L 1409 0 
L 750 0 
L 750 794 
z
M 750 3309 
L 1409 3309 
L 1409 2516 
L 750 2516 
L 750 3309 
z
" transform="scale(0.015625)"/>
      <path id="DejaVuSans-2d" d="M 313 2009 
L 1997 2009 
L 1997 1497 
L 313 1497 
L 313 2009 
z
" transform="scale(0.015625)"/>
      <path id="DejaVuSans-49" d="M 628 4666 
L 1259 4666 
L 1259 0 
L 628 0 
L 628 4666 
z
" transform="scale(0.015625)"/>
      <path id="DejaVuSans-63" d="M 3122 3366 
L 3122 2828 
Q 2878 2963 2633 3030 
Q 2388 3097 2138 3097 
Q 1578 3097 1268 2742 
Q 959 2388 959 1747 
Q 959 1106 1268 751 
Q 1578 397 2138 397 
Q 2388 397 2633 464 
Q 2878 531 3122 666 
L 3122 134 
Q 2881 22 2623 -34 
Q 2366 -91 2075 -91 
Q 1284 -91 818 406 
Q 353 903 353 1747 
Q 353 2603 823 3093 
Q 1294 3584 2113 3584 
Q 2378 3584 2631 3529 
Q 2884 3475 3122 3366 
z
" transform="scale(0.015625)"/>
      <path id="DejaVuSans-4c" d="M 628 4666 
L 1259 4666 
L 1259 531 
L 3531 531 
L 3531 0 
L 628 0 
L 628 4666 
z
" transform="scale(0.015625)"/>
      <path id="DejaVuSans-66" d="M 2375 4863 
L 2375 4384 
L 1825 4384 
Q 1516 4384 1395 4259 
Q 1275 4134 1275 3809 
L 1275 3500 
L 2222 3500 
L 2222 3053 
L 1275 3053 
L 1275 0 
L 697 0 
L 697 3053 
L 147 3053 
L 147 3500 
L 697 3500 
L 697 3744 
Q 697 4328 969 4595 
Q 1241 4863 1831 4863 
L 2375 4863 
z
" transform="scale(0.015625)"/>
      <path id="DejaVuSans-43" d="M 4122 4306 
L 4122 3641 
Q 3803 3938 3442 4084 
Q 3081 4231 2675 4231 
Q 1875 4231 1450 3742 
Q 1025 3253 1025 2328 
Q 1025 1406 1450 917 
Q 1875 428 2675 428 
Q 3081 428 3442 575 
Q 3803 722 4122 1019 
L 4122 359 
Q 3791 134 3420 21 
Q 3050 -91 2638 -91 
Q 1578 -91 968 557 
Q 359 1206 359 2328 
Q 359 3453 968 4101 
Q 1578 4750 2638 4750 
Q 3056 4750 3426 4639 
Q 3797 4528 4122 4306 
z
" transform="scale(0.015625)"/>
      <path id="DejaVuSans-75" d="M 544 1381 
L 544 3500 
L 1119 3500 
L 1119 1403 
Q 1119 906 1312 657 
Q 1506 409 1894 409 
Q 2359 409 2629 706 
Q 2900 1003 2900 1516 
L 2900 3500 
L 3475 3500 
L 3475 0 
L 2900 0 
L 2900 538 
Q 2691 219 2414 64 
Q 2138 -91 1772 -91 
Q 1169 -91 856 284 
Q 544 659 544 1381 
z
M 1991 3584 
L 1991 3584 
z
" transform="scale(0.015625)"/>
      <path id="DejaVuSans-62" d="M 3116 1747 
Q 3116 2381 2855 2742 
Q 2594 3103 2138 3103 
Q 1681 3103 1420 2742 
Q 1159 2381 1159 1747 
Q 1159 1113 1420 752 
Q 1681 391 2138 391 
Q 2594 391 2855 752 
Q 3116 1113 3116 1747 
z
M 1159 2969 
Q 1341 3281 1617 3432 
Q 1894 3584 2278 3584 
Q 2916 3584 3314 3078 
Q 3713 2572 3713 1747 
Q 3713 922 3314 415 
Q 2916 -91 2278 -91 
Q 1894 -91 1617 61 
Q 1341 213 1159 525 
L 1159 0 
L 581 0 
L 581 4863 
L 1159 4863 
L 1159 2969 
z
" transform="scale(0.015625)"/>
      <path id="DejaVuSans-53" d="M 3425 4513 
L 3425 3897 
Q 3066 4069 2747 4153 
Q 2428 4238 2131 4238 
Q 1616 4238 1336 4038 
Q 1056 3838 1056 3469 
Q 1056 3159 1242 3001 
Q 1428 2844 1947 2747 
L 2328 2669 
Q 3034 2534 3370 2195 
Q 3706 1856 3706 1288 
Q 3706 609 3251 259 
Q 2797 -91 1919 -91 
Q 1588 -91 1214 -16 
Q 841 59 441 206 
L 441 856 
Q 825 641 1194 531 
Q 1563 422 1919 422 
Q 2459 422 2753 634 
Q 3047 847 3047 1241 
Q 3047 1584 2836 1778 
Q 2625 1972 2144 2069 
L 1759 2144 
Q 1053 2284 737 2584 
Q 422 2884 422 3419 
Q 422 4038 858 4394 
Q 1294 4750 2059 4750 
Q 2388 4750 2728 4690 
Q 3069 4631 3425 4513 
z
" transform="scale(0.015625)"/>
      <path id="DejaVuSans-4f" d="M 2522 4238 
Q 1834 4238 1429 3725 
Q 1025 3213 1025 2328 
Q 1025 1447 1429 934 
Q 1834 422 2522 422 
Q 3209 422 3611 934 
Q 4013 1447 4013 2328 
Q 4013 3213 3611 3725 
Q 3209 4238 2522 4238 
z
M 2522 4750 
Q 3503 4750 4090 4092 
Q 4678 3434 4678 2328 
Q 4678 1225 4090 567 
Q 3503 -91 2522 -91 
Q 1538 -91 948 565 
Q 359 1222 359 2328 
Q 359 3434 948 4092 
Q 1538 4750 2522 4750 
z
" transform="scale(0.015625)"/>
     </defs>
     <use xlink:href="#DejaVuSans-54"/>
     <use xlink:href="#DejaVuSans-72" transform="translate(46.333984 0)"/>
     <use xlink:href="#DejaVuSans-61" transform="translate(87.447266 0)"/>
     <use xlink:href="#DejaVuSans-69" transform="translate(148.726562 0)"/>
     <use xlink:href="#DejaVuSans-6e" transform="translate(176.509766 0)"/>
     <use xlink:href="#DejaVuSans-69" transform="translate(239.888672 0)"/>
     <use xlink:href="#DejaVuSans-6e" transform="translate(267.671875 0)"/>
     <use xlink:href="#DejaVuSans-67" transform="translate(331.050781 0)"/>
     <use xlink:href="#DejaVuSans-20" transform="translate(394.527344 0)"/>
     <use xlink:href="#DejaVuSans-50" transform="translate(426.314453 0)"/>
     <use xlink:href="#DejaVuSans-72" transform="translate(484.867188 0)"/>
     <use xlink:href="#DejaVuSans-6f" transform="translate(523.730469 0)"/>
     <use xlink:href="#DejaVuSans-67" transform="translate(584.912109 0)"/>
     <use xlink:href="#DejaVuSans-72" transform="translate(648.388672 0)"/>
     <use xlink:href="#DejaVuSans-65" transform="translate(687.251953 0)"/>
     <use xlink:href="#DejaVuSans-73" transform="translate(748.775391 0)"/>
     <use xlink:href="#DejaVuSans-73" transform="translate(800.875 0)"/>
     <use xlink:href="#DejaVuSans-3a" transform="translate(852.974609 0)"/>
     <use xlink:href="#DejaVuSans-20" transform="translate(886.666016 0)"/>
     <use xlink:href="#DejaVuSans-41" transform="translate(918.453125 0)"/>
     <use xlink:href="#DejaVuSans-76" transform="translate(980.986328 0)"/>
     <use xlink:href="#DejaVuSans-65" transform="translate(1040.166016 0)"/>
     <use xlink:href="#DejaVuSans-72" transform="translate(1101.689453 0)"/>
     <use xlink:href="#DejaVuSans-61" transform="translate(1142.802734 0)"/>
     <use xlink:href="#DejaVuSans-67" transform="translate(1204.082031 0)"/>
     <use xlink:href="#DejaVuSans-65" transform="translate(1267.558594 0)"/>
     <use xlink:href="#DejaVuSans-20" transform="translate(1329.082031 0)"/>
     <use xlink:href="#DejaVuSans-52" transform="translate(1360.869141 0)"/>
     <use xlink:href="#DejaVuSans-65" transform="translate(1425.851562 0)"/>
     <use xlink:href="#DejaVuSans-77" transform="translate(1487.375 0)"/>
     <use xlink:href="#DejaVuSans-61" transform="translate(1569.162109 0)"/>
     <use xlink:href="#DejaVuSans-72" transform="translate(1630.441406 0)"/>
     <use xlink:href="#DejaVuSans-64" transform="translate(1669.804688 0)"/>
     <use xlink:href="#DejaVuSans-20" transform="translate(1733.28125 0)"/>
     <use xlink:href="#DejaVuSans-76" transform="translate(1765.068359 0)"/>
     <use xlink:href="#DejaVuSans-73" transform="translate(1824.248047 0)"/>
     <use xlink:href="#DejaVuSans-20" transform="translate(1876.347656 0)"/>
     <use xlink:href="#DejaVuSans-54" transform="translate(1908.134766 0)"/>
     <use xlink:href="#DejaVuSans-69" transform="translate(1966.09375 0)"/>
     <use xlink:href="#DejaVuSans-6d" transform="translate(1993.876953 0)"/>
     <use xlink:href="#DejaVuSans-65" transform="translate(2091.289062 0)"/>
     <use xlink:href="#DejaVuSans-73" transform="translate(2152.8125 0)"/>
     <use xlink:href="#DejaVuSans-74" transform="translate(2204.912109 0)"/>
     <use xlink:href="#DejaVuSans-65" transform="translate(2244.121094 0)"/>
     <use xlink:href="#DejaVuSans-70" transform="translate(2305.644531 0)"/>
     <use xlink:href="#DejaVuSans-73" transform="translate(2369.121094 0)"/>
     <use xlink:href="#DejaVuSans-20" transform="translate(2421.220703 0)"/>
     <use xlink:href="#DejaVuSans-2d" transform="translate(2453.007812 0)"/>
     <use xlink:href="#DejaVuSans-20" transform="translate(2489.091797 0)"/>
     <use xlink:href="#DejaVuSans-49" transform="translate(2520.878906 0)"/>
     <use xlink:href="#DejaVuSans-73" transform="translate(2550.371094 0)"/>
     <use xlink:href="#DejaVuSans-61" transform="translate(2602.470703 0)"/>
     <use xlink:href="#DejaVuSans-61" transform="translate(2663.75 0)"/>
     <use xlink:href="#DejaVuSans-63" transform="translate(2725.029297 0)"/>
     <use xlink:href="#DejaVuSans-2d" transform="translate(2780.009766 0)"/>
     <use xlink:href="#DejaVuSans-4c" transform="translate(2816.09375 0)"/>
     <use xlink:href="#DejaVuSans-69" transform="translate(2871.806641 0)"/>
     <use xlink:href="#DejaVuSans-66" transform="translate(2899.589844 0)"/>
     <use xlink:href="#DejaVuSans-74" transform="translate(2933.044922 0)"/>
     <use xlink:href="#DejaVuSans-2d" transform="translate(2972.253906 0)"/>
     <use xlink:href="#DejaVuSans-43" transform="translate(3008.337891 0)"/>
     <use xlink:href="#DejaVuSans-75" transform="translate(3078.162109 0)"/>
     <use xlink:href="#DejaVuSans-62" transform="translate(3141.541016 0)"/>
     <use xlink:href="#DejaVuSans-65" transform="translate(3205.017578 0)"/>
     <use xlink:href="#DejaVuSans-2d" transform="translate(3266.541016 0)"/>
     <use xlink:href="#DejaVuSans-53" transform="translate(3302.625 0)"/>
     <use xlink:href="#DejaVuSans-4f" transform="translate(3366.101562 0)"/>
     <use xlink:href="#DejaVuSans-2d" transform="translate(3447.5625 0)"/>
     <use xlink:href="#DejaVuSans-41" transform="translate(3481.396484 0)"/>
     <use xlink:href="#DejaVuSans-52" transform="translate(3549.804688 0)"/>
     <use xlink:href="#DejaVuSans-4d" transform="translate(3619.287109 0)"/>
     <use xlink:href="#DejaVuSans-31" transform="translate(3705.566406 0)"/>
     <use xlink:href="#DejaVuSans-30" transform="translate(3769.189453 0)"/>
     <use xlink:href="#DejaVuSans-31" transform="translate(3832.8125 0)"/>
     <use xlink:href="#DejaVuSans-2d" transform="translate(3896.435547 0)"/>
     <use xlink:href="#DejaVuSans-76" transform="translate(3929.894531 0)"/>
     <use xlink:href="#DejaVuSans-30" transform="translate(3989.074219 0)"/>
    </g>
   </g>
   <g id="legend_1">
    <g id="patch_7">
     <path d="M 647.82 378.397812 
L 841.35125 378.397812 
Q 843.35125 378.397812 843.35125 376.397812 
L 843.35125 362.719687 
Q 843.35125 360.719687 841.35125 360.719687 
L 647.82 360.719687 
Q 645.82 360.719687 645.82 362.719687 
L 645.82 376.397812 
Q 645.82 378.397812 647.82 378.397812 
z
" style="fill: #ffffff; opacity: 0.8; stroke: #cccccc; stroke-linejoin: miter"/>
    </g>
    <g id="line2d_30">
     <path d="M 649.82 368.818125 
L 659.82 368.818125 
L 669.82 368.818125 
" style="fill: none; stroke: #0000ff; stroke-width: 2.5; stroke-linecap: square"/>
    </g>
    <g id="text_18">
     <!-- Smoothed Reward (window=10) -->
     <g transform="translate(677.82 372.318125) scale(0.1 -0.1)">
      <defs>
       <path id="DejaVuSans-68" d="M 3513 2113 
L 3513 0 
L 2938 0 
L 2938 2094 
Q 2938 2591 2744 2837 
Q 2550 3084 2163 3084 
Q 1697 3084 1428 2787 
Q 1159 2491 1159 1978 
L 1159 0 
L 581 0 
L 581 4863 
L 1159 4863 
L 1159 2956 
Q 1366 3272 1645 3428 
Q 1925 3584 2291 3584 
Q 2894 3584 3203 3211 
Q 3513 2838 3513 2113 
z
" transform="scale(0.015625)"/>
       <path id="DejaVuSans-28" d="M 1984 4856 
Q 1566 4138 1362 3434 
Q 1159 2731 1159 2009 
Q 1159 1288 1364 580 
Q 1569 -128 1984 -844 
L 1484 -844 
Q 1016 -109 783 600 
Q 550 1309 550 2009 
Q 550 2706 781 3412 
Q 1013 4119 1484 4856 
L 1984 4856 
z
" transform="scale(0.015625)"/>
       <path id="DejaVuSans-3d" d="M 678 2906 
L 4684 2906 
L 4684 2381 
L 678 2381 
L 678 2906 
z
M 678 1631 
L 4684 1631 
L 4684 1100 
L 678 1100 
L 678 1631 
z
" transform="scale(0.015625)"/>
       <path id="DejaVuSans-29" d="M 513 4856 
L 1013 4856 
Q 1481 4119 1714 3412 
Q 1947 2706 1947 2009 
Q 1947 1309 1714 600 
Q 1481 -109 1013 -844 
L 513 -844 
Q 928 -128 1133 580 
Q 1338 1288 1338 2009 
Q 1338 2731 1133 3434 
Q 928 4138 513 4856 
z
" transform="scale(0.015625)"/>
      </defs>
      <use xlink:href="#DejaVuSans-53"/>
      <use xlink:href="#DejaVuSans-6d" transform="translate(63.476562 0)"/>
      <use xlink:href="#DejaVuSans-6f" transform="translate(160.888672 0)"/>
      <use xlink:href="#DejaVuSans-6f" transform="translate(222.070312 0)"/>
      <use xlink:href="#DejaVuSans-74" transform="translate(283.251953 0)"/>
      <use xlink:href="#DejaVuSans-68" transform="translate(322.460938 0)"/>
      <use xlink:href="#DejaVuSans-65" transform="translate(385.839844 0)"/>
      <use xlink:href="#DejaVuSans-64" transform="translate(447.363281 0)"/>
      <use xlink:href="#DejaVuSans-20" transform="translate(510.839844 0)"/>
      <use xlink:href="#DejaVuSans-52" transform="translate(542.626953 0)"/>
      <use xlink:href="#DejaVuSans-65" transform="translate(607.609375 0)"/>
      <use xlink:href="#DejaVuSans-77" transform="translate(669.132812 0)"/>
      <use xlink:href="#DejaVuSans-61" transform="translate(750.919922 0)"/>
      <use xlink:href="#DejaVuSans-72" transform="translate(812.199219 0)"/>
      <use xlink:href="#DejaVuSans-64" transform="translate(851.5625 0)"/>
      <use xlink:href="#DejaVuSans-20" transform="translate(915.039062 0)"/>
      <use xlink:href="#DejaVuSans-28" transform="translate(946.826172 0)"/>
      <use xlink:href="#DejaVuSans-77" transform="translate(985.839844 0)"/>
      <use xlink:href="#DejaVuSans-69" transform="translate(1067.626953 0)"/>
      <use xlink:href="#DejaVuSans-6e" transform="translate(1095.410156 0)"/>
      <use xlink:href="#DejaVuSans-64" transform="translate(1158.789062 0)"/>
      <use xlink:href="#DejaVuSans-6f" transform="translate(1222.265625 0)"/>
      <use xlink:href="#DejaVuSans-77" transform="translate(1283.447266 0)"/>
      <use xlink:href="#DejaVuSans-3d" transform="translate(1365.234375 0)"/>
      <use xlink:href="#DejaVuSans-31" transform="translate(1449.023438 0)"/>
      <use xlink:href="#DejaVuSans-30" transform="translate(1512.646484 0)"/>
      <use xlink:href="#DejaVuSans-29" transform="translate(1576.269531 0)"/>
     </g>
    </g>
   </g>
  </g>
 </g>
 <defs>
  <clipPath id="pf984d25515">
   <rect x="48.90125" y="23.837812" width="799.45" height="359.56"/>
  </clipPath>
 </defs>
</svg>
